%TF.GenerationSoftware,KiCad,Pcbnew,5.1.6*%
%TF.CreationDate,2020-10-14T19:02:39+02:00*%
%TF.ProjectId,MoCoBiBa_no_charger,4d6f436f-4269-4426-915f-6e6f5f636861,rev?*%
%TF.SameCoordinates,Original*%
%TF.FileFunction,Paste,Top*%
%TF.FilePolarity,Positive*%
%FSLAX46Y46*%
G04 Gerber Fmt 4.6, Leading zero omitted, Abs format (unit mm)*
G04 Created by KiCad (PCBNEW 5.1.6) date 2020-10-14 19:02:39*
%MOMM*%
%LPD*%
G01*
G04 APERTURE LIST*
%ADD10R,0.650000X0.400000*%
%ADD11R,1.060000X0.650000*%
%ADD12R,1.220000X0.650000*%
G04 APERTURE END LIST*
%TO.C,R12*%
G36*
G01*
X81528499Y-46932000D02*
X82428501Y-46932000D01*
G75*
G02*
X82678500Y-47181999I0J-249999D01*
G01*
X82678500Y-47832001D01*
G75*
G02*
X82428501Y-48082000I-249999J0D01*
G01*
X81528499Y-48082000D01*
G75*
G02*
X81278500Y-47832001I0J249999D01*
G01*
X81278500Y-47181999D01*
G75*
G02*
X81528499Y-46932000I249999J0D01*
G01*
G37*
G36*
G01*
X81528499Y-44882000D02*
X82428501Y-44882000D01*
G75*
G02*
X82678500Y-45131999I0J-249999D01*
G01*
X82678500Y-45782001D01*
G75*
G02*
X82428501Y-46032000I-249999J0D01*
G01*
X81528499Y-46032000D01*
G75*
G02*
X81278500Y-45782001I0J249999D01*
G01*
X81278500Y-45131999D01*
G75*
G02*
X81528499Y-44882000I249999J0D01*
G01*
G37*
%TD*%
%TO.C,R11*%
G36*
G01*
X78035999Y-46820000D02*
X78936001Y-46820000D01*
G75*
G02*
X79186000Y-47069999I0J-249999D01*
G01*
X79186000Y-47720001D01*
G75*
G02*
X78936001Y-47970000I-249999J0D01*
G01*
X78035999Y-47970000D01*
G75*
G02*
X77786000Y-47720001I0J249999D01*
G01*
X77786000Y-47069999D01*
G75*
G02*
X78035999Y-46820000I249999J0D01*
G01*
G37*
G36*
G01*
X78035999Y-44770000D02*
X78936001Y-44770000D01*
G75*
G02*
X79186000Y-45019999I0J-249999D01*
G01*
X79186000Y-45670001D01*
G75*
G02*
X78936001Y-45920000I-249999J0D01*
G01*
X78035999Y-45920000D01*
G75*
G02*
X77786000Y-45670001I0J249999D01*
G01*
X77786000Y-45019999D01*
G75*
G02*
X78035999Y-44770000I249999J0D01*
G01*
G37*
%TD*%
%TO.C,U2*%
G36*
G01*
X70208000Y-56364000D02*
X70508000Y-56364000D01*
G75*
G02*
X70658000Y-56514000I0J-150000D01*
G01*
X70658000Y-58164000D01*
G75*
G02*
X70508000Y-58314000I-150000J0D01*
G01*
X70208000Y-58314000D01*
G75*
G02*
X70058000Y-58164000I0J150000D01*
G01*
X70058000Y-56514000D01*
G75*
G02*
X70208000Y-56364000I150000J0D01*
G01*
G37*
G36*
G01*
X68938000Y-56364000D02*
X69238000Y-56364000D01*
G75*
G02*
X69388000Y-56514000I0J-150000D01*
G01*
X69388000Y-58164000D01*
G75*
G02*
X69238000Y-58314000I-150000J0D01*
G01*
X68938000Y-58314000D01*
G75*
G02*
X68788000Y-58164000I0J150000D01*
G01*
X68788000Y-56514000D01*
G75*
G02*
X68938000Y-56364000I150000J0D01*
G01*
G37*
G36*
G01*
X67668000Y-56364000D02*
X67968000Y-56364000D01*
G75*
G02*
X68118000Y-56514000I0J-150000D01*
G01*
X68118000Y-58164000D01*
G75*
G02*
X67968000Y-58314000I-150000J0D01*
G01*
X67668000Y-58314000D01*
G75*
G02*
X67518000Y-58164000I0J150000D01*
G01*
X67518000Y-56514000D01*
G75*
G02*
X67668000Y-56364000I150000J0D01*
G01*
G37*
G36*
G01*
X66398000Y-56364000D02*
X66698000Y-56364000D01*
G75*
G02*
X66848000Y-56514000I0J-150000D01*
G01*
X66848000Y-58164000D01*
G75*
G02*
X66698000Y-58314000I-150000J0D01*
G01*
X66398000Y-58314000D01*
G75*
G02*
X66248000Y-58164000I0J150000D01*
G01*
X66248000Y-56514000D01*
G75*
G02*
X66398000Y-56364000I150000J0D01*
G01*
G37*
G36*
G01*
X65128000Y-56364000D02*
X65428000Y-56364000D01*
G75*
G02*
X65578000Y-56514000I0J-150000D01*
G01*
X65578000Y-58164000D01*
G75*
G02*
X65428000Y-58314000I-150000J0D01*
G01*
X65128000Y-58314000D01*
G75*
G02*
X64978000Y-58164000I0J150000D01*
G01*
X64978000Y-56514000D01*
G75*
G02*
X65128000Y-56364000I150000J0D01*
G01*
G37*
G36*
G01*
X63858000Y-56364000D02*
X64158000Y-56364000D01*
G75*
G02*
X64308000Y-56514000I0J-150000D01*
G01*
X64308000Y-58164000D01*
G75*
G02*
X64158000Y-58314000I-150000J0D01*
G01*
X63858000Y-58314000D01*
G75*
G02*
X63708000Y-58164000I0J150000D01*
G01*
X63708000Y-56514000D01*
G75*
G02*
X63858000Y-56364000I150000J0D01*
G01*
G37*
G36*
G01*
X62588000Y-56364000D02*
X62888000Y-56364000D01*
G75*
G02*
X63038000Y-56514000I0J-150000D01*
G01*
X63038000Y-58164000D01*
G75*
G02*
X62888000Y-58314000I-150000J0D01*
G01*
X62588000Y-58314000D01*
G75*
G02*
X62438000Y-58164000I0J150000D01*
G01*
X62438000Y-56514000D01*
G75*
G02*
X62588000Y-56364000I150000J0D01*
G01*
G37*
G36*
G01*
X62588000Y-51414000D02*
X62888000Y-51414000D01*
G75*
G02*
X63038000Y-51564000I0J-150000D01*
G01*
X63038000Y-53214000D01*
G75*
G02*
X62888000Y-53364000I-150000J0D01*
G01*
X62588000Y-53364000D01*
G75*
G02*
X62438000Y-53214000I0J150000D01*
G01*
X62438000Y-51564000D01*
G75*
G02*
X62588000Y-51414000I150000J0D01*
G01*
G37*
G36*
G01*
X63858000Y-51414000D02*
X64158000Y-51414000D01*
G75*
G02*
X64308000Y-51564000I0J-150000D01*
G01*
X64308000Y-53214000D01*
G75*
G02*
X64158000Y-53364000I-150000J0D01*
G01*
X63858000Y-53364000D01*
G75*
G02*
X63708000Y-53214000I0J150000D01*
G01*
X63708000Y-51564000D01*
G75*
G02*
X63858000Y-51414000I150000J0D01*
G01*
G37*
G36*
G01*
X65128000Y-51414000D02*
X65428000Y-51414000D01*
G75*
G02*
X65578000Y-51564000I0J-150000D01*
G01*
X65578000Y-53214000D01*
G75*
G02*
X65428000Y-53364000I-150000J0D01*
G01*
X65128000Y-53364000D01*
G75*
G02*
X64978000Y-53214000I0J150000D01*
G01*
X64978000Y-51564000D01*
G75*
G02*
X65128000Y-51414000I150000J0D01*
G01*
G37*
G36*
G01*
X66398000Y-51414000D02*
X66698000Y-51414000D01*
G75*
G02*
X66848000Y-51564000I0J-150000D01*
G01*
X66848000Y-53214000D01*
G75*
G02*
X66698000Y-53364000I-150000J0D01*
G01*
X66398000Y-53364000D01*
G75*
G02*
X66248000Y-53214000I0J150000D01*
G01*
X66248000Y-51564000D01*
G75*
G02*
X66398000Y-51414000I150000J0D01*
G01*
G37*
G36*
G01*
X67668000Y-51414000D02*
X67968000Y-51414000D01*
G75*
G02*
X68118000Y-51564000I0J-150000D01*
G01*
X68118000Y-53214000D01*
G75*
G02*
X67968000Y-53364000I-150000J0D01*
G01*
X67668000Y-53364000D01*
G75*
G02*
X67518000Y-53214000I0J150000D01*
G01*
X67518000Y-51564000D01*
G75*
G02*
X67668000Y-51414000I150000J0D01*
G01*
G37*
G36*
G01*
X68938000Y-51414000D02*
X69238000Y-51414000D01*
G75*
G02*
X69388000Y-51564000I0J-150000D01*
G01*
X69388000Y-53214000D01*
G75*
G02*
X69238000Y-53364000I-150000J0D01*
G01*
X68938000Y-53364000D01*
G75*
G02*
X68788000Y-53214000I0J150000D01*
G01*
X68788000Y-51564000D01*
G75*
G02*
X68938000Y-51414000I150000J0D01*
G01*
G37*
G36*
G01*
X70208000Y-51414000D02*
X70508000Y-51414000D01*
G75*
G02*
X70658000Y-51564000I0J-150000D01*
G01*
X70658000Y-53214000D01*
G75*
G02*
X70508000Y-53364000I-150000J0D01*
G01*
X70208000Y-53364000D01*
G75*
G02*
X70058000Y-53214000I0J150000D01*
G01*
X70058000Y-51564000D01*
G75*
G02*
X70208000Y-51414000I150000J0D01*
G01*
G37*
%TD*%
%TO.C,C2*%
G36*
G01*
X84252000Y-66998001D02*
X84252000Y-66097999D01*
G75*
G02*
X84501999Y-65848000I249999J0D01*
G01*
X85152001Y-65848000D01*
G75*
G02*
X85402000Y-66097999I0J-249999D01*
G01*
X85402000Y-66998001D01*
G75*
G02*
X85152001Y-67248000I-249999J0D01*
G01*
X84501999Y-67248000D01*
G75*
G02*
X84252000Y-66998001I0J249999D01*
G01*
G37*
G36*
G01*
X86302000Y-66998001D02*
X86302000Y-66097999D01*
G75*
G02*
X86551999Y-65848000I249999J0D01*
G01*
X87202001Y-65848000D01*
G75*
G02*
X87452000Y-66097999I0J-249999D01*
G01*
X87452000Y-66998001D01*
G75*
G02*
X87202001Y-67248000I-249999J0D01*
G01*
X86551999Y-67248000D01*
G75*
G02*
X86302000Y-66998001I0J249999D01*
G01*
G37*
%TD*%
%TO.C,C4*%
G36*
G01*
X86229500Y-57473001D02*
X86229500Y-56572999D01*
G75*
G02*
X86479499Y-56323000I249999J0D01*
G01*
X87129501Y-56323000D01*
G75*
G02*
X87379500Y-56572999I0J-249999D01*
G01*
X87379500Y-57473001D01*
G75*
G02*
X87129501Y-57723000I-249999J0D01*
G01*
X86479499Y-57723000D01*
G75*
G02*
X86229500Y-57473001I0J249999D01*
G01*
G37*
G36*
G01*
X84179500Y-57473001D02*
X84179500Y-56572999D01*
G75*
G02*
X84429499Y-56323000I249999J0D01*
G01*
X85079501Y-56323000D01*
G75*
G02*
X85329500Y-56572999I0J-249999D01*
G01*
X85329500Y-57473001D01*
G75*
G02*
X85079501Y-57723000I-249999J0D01*
G01*
X84429499Y-57723000D01*
G75*
G02*
X84179500Y-57473001I0J249999D01*
G01*
G37*
%TD*%
%TO.C,C6*%
G36*
G01*
X84243000Y-51250001D02*
X84243000Y-50349999D01*
G75*
G02*
X84492999Y-50100000I249999J0D01*
G01*
X85143001Y-50100000D01*
G75*
G02*
X85393000Y-50349999I0J-249999D01*
G01*
X85393000Y-51250001D01*
G75*
G02*
X85143001Y-51500000I-249999J0D01*
G01*
X84492999Y-51500000D01*
G75*
G02*
X84243000Y-51250001I0J249999D01*
G01*
G37*
G36*
G01*
X86293000Y-51250001D02*
X86293000Y-50349999D01*
G75*
G02*
X86542999Y-50100000I249999J0D01*
G01*
X87193001Y-50100000D01*
G75*
G02*
X87443000Y-50349999I0J-249999D01*
G01*
X87443000Y-51250001D01*
G75*
G02*
X87193001Y-51500000I-249999J0D01*
G01*
X86542999Y-51500000D01*
G75*
G02*
X86293000Y-51250001I0J249999D01*
G01*
G37*
%TD*%
%TO.C,L1*%
G36*
G01*
X61535000Y-64065999D02*
X61535000Y-64966001D01*
G75*
G02*
X61285001Y-65216000I-249999J0D01*
G01*
X60634999Y-65216000D01*
G75*
G02*
X60385000Y-64966001I0J249999D01*
G01*
X60385000Y-64065999D01*
G75*
G02*
X60634999Y-63816000I249999J0D01*
G01*
X61285001Y-63816000D01*
G75*
G02*
X61535000Y-64065999I0J-249999D01*
G01*
G37*
G36*
G01*
X59485000Y-64065999D02*
X59485000Y-64966001D01*
G75*
G02*
X59235001Y-65216000I-249999J0D01*
G01*
X58584999Y-65216000D01*
G75*
G02*
X58335000Y-64966001I0J249999D01*
G01*
X58335000Y-64065999D01*
G75*
G02*
X58584999Y-63816000I249999J0D01*
G01*
X59235001Y-63816000D01*
G75*
G02*
X59485000Y-64065999I0J-249999D01*
G01*
G37*
%TD*%
D10*
%TO.C,Q1*%
X80706000Y-77358000D03*
X80706000Y-76058000D03*
X78806000Y-76708000D03*
X80706000Y-76708000D03*
X78806000Y-76058000D03*
X78806000Y-77358000D03*
%TD*%
%TO.C,R1*%
G36*
G01*
X86293000Y-73094001D02*
X86293000Y-72193999D01*
G75*
G02*
X86542999Y-71944000I249999J0D01*
G01*
X87193001Y-71944000D01*
G75*
G02*
X87443000Y-72193999I0J-249999D01*
G01*
X87443000Y-73094001D01*
G75*
G02*
X87193001Y-73344000I-249999J0D01*
G01*
X86542999Y-73344000D01*
G75*
G02*
X86293000Y-73094001I0J249999D01*
G01*
G37*
G36*
G01*
X84243000Y-73094001D02*
X84243000Y-72193999D01*
G75*
G02*
X84492999Y-71944000I249999J0D01*
G01*
X85143001Y-71944000D01*
G75*
G02*
X85393000Y-72193999I0J-249999D01*
G01*
X85393000Y-73094001D01*
G75*
G02*
X85143001Y-73344000I-249999J0D01*
G01*
X84492999Y-73344000D01*
G75*
G02*
X84243000Y-73094001I0J249999D01*
G01*
G37*
%TD*%
%TO.C,R4*%
G36*
G01*
X54913000Y-57207999D02*
X54913000Y-58108001D01*
G75*
G02*
X54663001Y-58358000I-249999J0D01*
G01*
X54012999Y-58358000D01*
G75*
G02*
X53763000Y-58108001I0J249999D01*
G01*
X53763000Y-57207999D01*
G75*
G02*
X54012999Y-56958000I249999J0D01*
G01*
X54663001Y-56958000D01*
G75*
G02*
X54913000Y-57207999I0J-249999D01*
G01*
G37*
G36*
G01*
X56963000Y-57207999D02*
X56963000Y-58108001D01*
G75*
G02*
X56713001Y-58358000I-249999J0D01*
G01*
X56062999Y-58358000D01*
G75*
G02*
X55813000Y-58108001I0J249999D01*
G01*
X55813000Y-57207999D01*
G75*
G02*
X56062999Y-56958000I249999J0D01*
G01*
X56713001Y-56958000D01*
G75*
G02*
X56963000Y-57207999I0J-249999D01*
G01*
G37*
%TD*%
%TO.C,R5*%
G36*
G01*
X56972000Y-51873999D02*
X56972000Y-52774001D01*
G75*
G02*
X56722001Y-53024000I-249999J0D01*
G01*
X56071999Y-53024000D01*
G75*
G02*
X55822000Y-52774001I0J249999D01*
G01*
X55822000Y-51873999D01*
G75*
G02*
X56071999Y-51624000I249999J0D01*
G01*
X56722001Y-51624000D01*
G75*
G02*
X56972000Y-51873999I0J-249999D01*
G01*
G37*
G36*
G01*
X54922000Y-51873999D02*
X54922000Y-52774001D01*
G75*
G02*
X54672001Y-53024000I-249999J0D01*
G01*
X54021999Y-53024000D01*
G75*
G02*
X53772000Y-52774001I0J249999D01*
G01*
X53772000Y-51873999D01*
G75*
G02*
X54021999Y-51624000I249999J0D01*
G01*
X54672001Y-51624000D01*
G75*
G02*
X54922000Y-51873999I0J-249999D01*
G01*
G37*
%TD*%
%TO.C,R6*%
G36*
G01*
X73228000Y-64065999D02*
X73228000Y-64966001D01*
G75*
G02*
X72978001Y-65216000I-249999J0D01*
G01*
X72327999Y-65216000D01*
G75*
G02*
X72078000Y-64966001I0J249999D01*
G01*
X72078000Y-64065999D01*
G75*
G02*
X72327999Y-63816000I249999J0D01*
G01*
X72978001Y-63816000D01*
G75*
G02*
X73228000Y-64065999I0J-249999D01*
G01*
G37*
G36*
G01*
X71178000Y-64065999D02*
X71178000Y-64966001D01*
G75*
G02*
X70928001Y-65216000I-249999J0D01*
G01*
X70277999Y-65216000D01*
G75*
G02*
X70028000Y-64966001I0J249999D01*
G01*
X70028000Y-64065999D01*
G75*
G02*
X70277999Y-63816000I249999J0D01*
G01*
X70928001Y-63816000D01*
G75*
G02*
X71178000Y-64065999I0J-249999D01*
G01*
G37*
%TD*%
%TO.C,R7*%
G36*
G01*
X64939000Y-47186001D02*
X64939000Y-46285999D01*
G75*
G02*
X65188999Y-46036000I249999J0D01*
G01*
X65839001Y-46036000D01*
G75*
G02*
X66089000Y-46285999I0J-249999D01*
G01*
X66089000Y-47186001D01*
G75*
G02*
X65839001Y-47436000I-249999J0D01*
G01*
X65188999Y-47436000D01*
G75*
G02*
X64939000Y-47186001I0J249999D01*
G01*
G37*
G36*
G01*
X66989000Y-47186001D02*
X66989000Y-46285999D01*
G75*
G02*
X67238999Y-46036000I249999J0D01*
G01*
X67889001Y-46036000D01*
G75*
G02*
X68139000Y-46285999I0J-249999D01*
G01*
X68139000Y-47186001D01*
G75*
G02*
X67889001Y-47436000I-249999J0D01*
G01*
X67238999Y-47436000D01*
G75*
G02*
X66989000Y-47186001I0J249999D01*
G01*
G37*
%TD*%
%TO.C,R8*%
G36*
G01*
X67007000Y-42614001D02*
X67007000Y-41713999D01*
G75*
G02*
X67256999Y-41464000I249999J0D01*
G01*
X67907001Y-41464000D01*
G75*
G02*
X68157000Y-41713999I0J-249999D01*
G01*
X68157000Y-42614001D01*
G75*
G02*
X67907001Y-42864000I-249999J0D01*
G01*
X67256999Y-42864000D01*
G75*
G02*
X67007000Y-42614001I0J249999D01*
G01*
G37*
G36*
G01*
X64957000Y-42614001D02*
X64957000Y-41713999D01*
G75*
G02*
X65206999Y-41464000I249999J0D01*
G01*
X65857001Y-41464000D01*
G75*
G02*
X66107000Y-41713999I0J-249999D01*
G01*
X66107000Y-42614001D01*
G75*
G02*
X65857001Y-42864000I-249999J0D01*
G01*
X65206999Y-42864000D01*
G75*
G02*
X64957000Y-42614001I0J249999D01*
G01*
G37*
%TD*%
%TO.C,R9*%
G36*
G01*
X64926500Y-38326001D02*
X64926500Y-34825999D01*
G75*
G02*
X65176499Y-34576000I249999J0D01*
G01*
X66201501Y-34576000D01*
G75*
G02*
X66451500Y-34825999I0J-249999D01*
G01*
X66451500Y-38326001D01*
G75*
G02*
X66201501Y-38576000I-249999J0D01*
G01*
X65176499Y-38576000D01*
G75*
G02*
X64926500Y-38326001I0J249999D01*
G01*
G37*
G36*
G01*
X66801500Y-38326001D02*
X66801500Y-34825999D01*
G75*
G02*
X67051499Y-34576000I249999J0D01*
G01*
X68076501Y-34576000D01*
G75*
G02*
X68326500Y-34825999I0J-249999D01*
G01*
X68326500Y-38326001D01*
G75*
G02*
X68076501Y-38576000I-249999J0D01*
G01*
X67051499Y-38576000D01*
G75*
G02*
X66801500Y-38326001I0J249999D01*
G01*
G37*
%TD*%
%TO.C,R10*%
G36*
G01*
X66481000Y-64966001D02*
X66481000Y-64065999D01*
G75*
G02*
X66730999Y-63816000I249999J0D01*
G01*
X67381001Y-63816000D01*
G75*
G02*
X67631000Y-64065999I0J-249999D01*
G01*
X67631000Y-64966001D01*
G75*
G02*
X67381001Y-65216000I-249999J0D01*
G01*
X66730999Y-65216000D01*
G75*
G02*
X66481000Y-64966001I0J249999D01*
G01*
G37*
G36*
G01*
X64431000Y-64966001D02*
X64431000Y-64065999D01*
G75*
G02*
X64680999Y-63816000I249999J0D01*
G01*
X65331001Y-63816000D01*
G75*
G02*
X65581000Y-64065999I0J-249999D01*
G01*
X65581000Y-64966001D01*
G75*
G02*
X65331001Y-65216000I-249999J0D01*
G01*
X64680999Y-65216000D01*
G75*
G02*
X64431000Y-64966001I0J249999D01*
G01*
G37*
%TD*%
%TO.C,R13*%
G36*
G01*
X78664000Y-57346001D02*
X78664000Y-56445999D01*
G75*
G02*
X78913999Y-56196000I249999J0D01*
G01*
X79564001Y-56196000D01*
G75*
G02*
X79814000Y-56445999I0J-249999D01*
G01*
X79814000Y-57346001D01*
G75*
G02*
X79564001Y-57596000I-249999J0D01*
G01*
X78913999Y-57596000D01*
G75*
G02*
X78664000Y-57346001I0J249999D01*
G01*
G37*
G36*
G01*
X80714000Y-57346001D02*
X80714000Y-56445999D01*
G75*
G02*
X80963999Y-56196000I249999J0D01*
G01*
X81614001Y-56196000D01*
G75*
G02*
X81864000Y-56445999I0J-249999D01*
G01*
X81864000Y-57346001D01*
G75*
G02*
X81614001Y-57596000I-249999J0D01*
G01*
X80963999Y-57596000D01*
G75*
G02*
X80714000Y-57346001I0J249999D01*
G01*
G37*
%TD*%
D11*
%TO.C,U3*%
X78656000Y-68646000D03*
X78656000Y-69596000D03*
X78656000Y-70546000D03*
X80856000Y-70546000D03*
X80856000Y-68646000D03*
%TD*%
D12*
%TO.C,U4*%
X63286000Y-72070000D03*
X63286000Y-71120000D03*
X63286000Y-70170000D03*
X60666000Y-70170000D03*
X60666000Y-72070000D03*
%TD*%
%TO.C,U5*%
G36*
G01*
X78806500Y-50993000D02*
X78806500Y-50893000D01*
G75*
G02*
X78856500Y-50843000I50000J0D01*
G01*
X79306500Y-50843000D01*
G75*
G02*
X79356500Y-50893000I0J-50000D01*
G01*
X79356500Y-50993000D01*
G75*
G02*
X79306500Y-51043000I-50000J0D01*
G01*
X78856500Y-51043000D01*
G75*
G02*
X78806500Y-50993000I0J50000D01*
G01*
G37*
G36*
G01*
X78806500Y-51393000D02*
X78806500Y-51293000D01*
G75*
G02*
X78856500Y-51243000I50000J0D01*
G01*
X79306500Y-51243000D01*
G75*
G02*
X79356500Y-51293000I0J-50000D01*
G01*
X79356500Y-51393000D01*
G75*
G02*
X79306500Y-51443000I-50000J0D01*
G01*
X78856500Y-51443000D01*
G75*
G02*
X78806500Y-51393000I0J50000D01*
G01*
G37*
G36*
G01*
X78806500Y-51793000D02*
X78806500Y-51693000D01*
G75*
G02*
X78856500Y-51643000I50000J0D01*
G01*
X79306500Y-51643000D01*
G75*
G02*
X79356500Y-51693000I0J-50000D01*
G01*
X79356500Y-51793000D01*
G75*
G02*
X79306500Y-51843000I-50000J0D01*
G01*
X78856500Y-51843000D01*
G75*
G02*
X78806500Y-51793000I0J50000D01*
G01*
G37*
G36*
G01*
X78806500Y-52193000D02*
X78806500Y-52093000D01*
G75*
G02*
X78856500Y-52043000I50000J0D01*
G01*
X79306500Y-52043000D01*
G75*
G02*
X79356500Y-52093000I0J-50000D01*
G01*
X79356500Y-52193000D01*
G75*
G02*
X79306500Y-52243000I-50000J0D01*
G01*
X78856500Y-52243000D01*
G75*
G02*
X78806500Y-52193000I0J50000D01*
G01*
G37*
G36*
G01*
X78806500Y-52593000D02*
X78806500Y-52493000D01*
G75*
G02*
X78856500Y-52443000I50000J0D01*
G01*
X79306500Y-52443000D01*
G75*
G02*
X79356500Y-52493000I0J-50000D01*
G01*
X79356500Y-52593000D01*
G75*
G02*
X79306500Y-52643000I-50000J0D01*
G01*
X78856500Y-52643000D01*
G75*
G02*
X78806500Y-52593000I0J50000D01*
G01*
G37*
G36*
G01*
X78806500Y-52993000D02*
X78806500Y-52893000D01*
G75*
G02*
X78856500Y-52843000I50000J0D01*
G01*
X79306500Y-52843000D01*
G75*
G02*
X79356500Y-52893000I0J-50000D01*
G01*
X79356500Y-52993000D01*
G75*
G02*
X79306500Y-53043000I-50000J0D01*
G01*
X78856500Y-53043000D01*
G75*
G02*
X78806500Y-52993000I0J50000D01*
G01*
G37*
G36*
G01*
X79631500Y-53718000D02*
X79531500Y-53718000D01*
G75*
G02*
X79481500Y-53668000I0J50000D01*
G01*
X79481500Y-53218000D01*
G75*
G02*
X79531500Y-53168000I50000J0D01*
G01*
X79631500Y-53168000D01*
G75*
G02*
X79681500Y-53218000I0J-50000D01*
G01*
X79681500Y-53668000D01*
G75*
G02*
X79631500Y-53718000I-50000J0D01*
G01*
G37*
G36*
G01*
X80031500Y-53718000D02*
X79931500Y-53718000D01*
G75*
G02*
X79881500Y-53668000I0J50000D01*
G01*
X79881500Y-53218000D01*
G75*
G02*
X79931500Y-53168000I50000J0D01*
G01*
X80031500Y-53168000D01*
G75*
G02*
X80081500Y-53218000I0J-50000D01*
G01*
X80081500Y-53668000D01*
G75*
G02*
X80031500Y-53718000I-50000J0D01*
G01*
G37*
G36*
G01*
X80431500Y-53718000D02*
X80331500Y-53718000D01*
G75*
G02*
X80281500Y-53668000I0J50000D01*
G01*
X80281500Y-53218000D01*
G75*
G02*
X80331500Y-53168000I50000J0D01*
G01*
X80431500Y-53168000D01*
G75*
G02*
X80481500Y-53218000I0J-50000D01*
G01*
X80481500Y-53668000D01*
G75*
G02*
X80431500Y-53718000I-50000J0D01*
G01*
G37*
G36*
G01*
X80831500Y-53718000D02*
X80731500Y-53718000D01*
G75*
G02*
X80681500Y-53668000I0J50000D01*
G01*
X80681500Y-53218000D01*
G75*
G02*
X80731500Y-53168000I50000J0D01*
G01*
X80831500Y-53168000D01*
G75*
G02*
X80881500Y-53218000I0J-50000D01*
G01*
X80881500Y-53668000D01*
G75*
G02*
X80831500Y-53718000I-50000J0D01*
G01*
G37*
G36*
G01*
X81231500Y-53718000D02*
X81131500Y-53718000D01*
G75*
G02*
X81081500Y-53668000I0J50000D01*
G01*
X81081500Y-53218000D01*
G75*
G02*
X81131500Y-53168000I50000J0D01*
G01*
X81231500Y-53168000D01*
G75*
G02*
X81281500Y-53218000I0J-50000D01*
G01*
X81281500Y-53668000D01*
G75*
G02*
X81231500Y-53718000I-50000J0D01*
G01*
G37*
G36*
G01*
X81631500Y-53718000D02*
X81531500Y-53718000D01*
G75*
G02*
X81481500Y-53668000I0J50000D01*
G01*
X81481500Y-53218000D01*
G75*
G02*
X81531500Y-53168000I50000J0D01*
G01*
X81631500Y-53168000D01*
G75*
G02*
X81681500Y-53218000I0J-50000D01*
G01*
X81681500Y-53668000D01*
G75*
G02*
X81631500Y-53718000I-50000J0D01*
G01*
G37*
G36*
G01*
X81806500Y-52993000D02*
X81806500Y-52893000D01*
G75*
G02*
X81856500Y-52843000I50000J0D01*
G01*
X82306500Y-52843000D01*
G75*
G02*
X82356500Y-52893000I0J-50000D01*
G01*
X82356500Y-52993000D01*
G75*
G02*
X82306500Y-53043000I-50000J0D01*
G01*
X81856500Y-53043000D01*
G75*
G02*
X81806500Y-52993000I0J50000D01*
G01*
G37*
G36*
G01*
X81806500Y-52593000D02*
X81806500Y-52493000D01*
G75*
G02*
X81856500Y-52443000I50000J0D01*
G01*
X82306500Y-52443000D01*
G75*
G02*
X82356500Y-52493000I0J-50000D01*
G01*
X82356500Y-52593000D01*
G75*
G02*
X82306500Y-52643000I-50000J0D01*
G01*
X81856500Y-52643000D01*
G75*
G02*
X81806500Y-52593000I0J50000D01*
G01*
G37*
G36*
G01*
X81806500Y-52193000D02*
X81806500Y-52093000D01*
G75*
G02*
X81856500Y-52043000I50000J0D01*
G01*
X82306500Y-52043000D01*
G75*
G02*
X82356500Y-52093000I0J-50000D01*
G01*
X82356500Y-52193000D01*
G75*
G02*
X82306500Y-52243000I-50000J0D01*
G01*
X81856500Y-52243000D01*
G75*
G02*
X81806500Y-52193000I0J50000D01*
G01*
G37*
G36*
G01*
X81806500Y-51793000D02*
X81806500Y-51693000D01*
G75*
G02*
X81856500Y-51643000I50000J0D01*
G01*
X82306500Y-51643000D01*
G75*
G02*
X82356500Y-51693000I0J-50000D01*
G01*
X82356500Y-51793000D01*
G75*
G02*
X82306500Y-51843000I-50000J0D01*
G01*
X81856500Y-51843000D01*
G75*
G02*
X81806500Y-51793000I0J50000D01*
G01*
G37*
G36*
G01*
X81806500Y-51393000D02*
X81806500Y-51293000D01*
G75*
G02*
X81856500Y-51243000I50000J0D01*
G01*
X82306500Y-51243000D01*
G75*
G02*
X82356500Y-51293000I0J-50000D01*
G01*
X82356500Y-51393000D01*
G75*
G02*
X82306500Y-51443000I-50000J0D01*
G01*
X81856500Y-51443000D01*
G75*
G02*
X81806500Y-51393000I0J50000D01*
G01*
G37*
G36*
G01*
X81806500Y-50993000D02*
X81806500Y-50893000D01*
G75*
G02*
X81856500Y-50843000I50000J0D01*
G01*
X82306500Y-50843000D01*
G75*
G02*
X82356500Y-50893000I0J-50000D01*
G01*
X82356500Y-50993000D01*
G75*
G02*
X82306500Y-51043000I-50000J0D01*
G01*
X81856500Y-51043000D01*
G75*
G02*
X81806500Y-50993000I0J50000D01*
G01*
G37*
G36*
G01*
X81631500Y-50718000D02*
X81531500Y-50718000D01*
G75*
G02*
X81481500Y-50668000I0J50000D01*
G01*
X81481500Y-50218000D01*
G75*
G02*
X81531500Y-50168000I50000J0D01*
G01*
X81631500Y-50168000D01*
G75*
G02*
X81681500Y-50218000I0J-50000D01*
G01*
X81681500Y-50668000D01*
G75*
G02*
X81631500Y-50718000I-50000J0D01*
G01*
G37*
G36*
G01*
X81231500Y-50718000D02*
X81131500Y-50718000D01*
G75*
G02*
X81081500Y-50668000I0J50000D01*
G01*
X81081500Y-50218000D01*
G75*
G02*
X81131500Y-50168000I50000J0D01*
G01*
X81231500Y-50168000D01*
G75*
G02*
X81281500Y-50218000I0J-50000D01*
G01*
X81281500Y-50668000D01*
G75*
G02*
X81231500Y-50718000I-50000J0D01*
G01*
G37*
G36*
G01*
X80831500Y-50718000D02*
X80731500Y-50718000D01*
G75*
G02*
X80681500Y-50668000I0J50000D01*
G01*
X80681500Y-50218000D01*
G75*
G02*
X80731500Y-50168000I50000J0D01*
G01*
X80831500Y-50168000D01*
G75*
G02*
X80881500Y-50218000I0J-50000D01*
G01*
X80881500Y-50668000D01*
G75*
G02*
X80831500Y-50718000I-50000J0D01*
G01*
G37*
G36*
G01*
X80431500Y-50718000D02*
X80331500Y-50718000D01*
G75*
G02*
X80281500Y-50668000I0J50000D01*
G01*
X80281500Y-50218000D01*
G75*
G02*
X80331500Y-50168000I50000J0D01*
G01*
X80431500Y-50168000D01*
G75*
G02*
X80481500Y-50218000I0J-50000D01*
G01*
X80481500Y-50668000D01*
G75*
G02*
X80431500Y-50718000I-50000J0D01*
G01*
G37*
G36*
G01*
X80031500Y-50718000D02*
X79931500Y-50718000D01*
G75*
G02*
X79881500Y-50668000I0J50000D01*
G01*
X79881500Y-50218000D01*
G75*
G02*
X79931500Y-50168000I50000J0D01*
G01*
X80031500Y-50168000D01*
G75*
G02*
X80081500Y-50218000I0J-50000D01*
G01*
X80081500Y-50668000D01*
G75*
G02*
X80031500Y-50718000I-50000J0D01*
G01*
G37*
G36*
G01*
X79631500Y-50718000D02*
X79531500Y-50718000D01*
G75*
G02*
X79481500Y-50668000I0J50000D01*
G01*
X79481500Y-50218000D01*
G75*
G02*
X79531500Y-50168000I50000J0D01*
G01*
X79631500Y-50168000D01*
G75*
G02*
X79681500Y-50218000I0J-50000D01*
G01*
X79681500Y-50668000D01*
G75*
G02*
X79631500Y-50718000I-50000J0D01*
G01*
G37*
%TD*%
M02*
