M48
; DRILL file {KiCad 5.1.6} date Wed Oct 14 19:02:48 2020
; FORMAT={-:-/ absolute / inch / decimal}
; #@! TF.CreationDate,2020-10-14T19:02:48+02:00
; #@! TF.GenerationSoftware,Kicad,Pcbnew,5.1.6
; #@! TF.FileFunction,Plated,1,2,PTH
FMAT,2
INCH
T1C0.0157
T2C0.0295
T3C0.0315
T4C0.0354
T5C0.0394
%
G90
G05
T1
X2.15Y-2.425
X2.16Y-1.26
X2.29Y-2.4
X2.375Y-2.0
X2.375Y-2.1
X2.45Y-3.0
X2.46Y-1.74
X2.48Y-0.98
X2.48Y-1.34
X2.525Y-1.95
X2.54Y-2.4
X2.55Y-2.775
X2.65Y-1.95
X2.695Y-1.585
X2.7Y-2.375
X2.76Y-1.28
X2.78Y-1.92
X2.825Y-2.275
X2.875Y-2.025
X2.925Y-1.65
X3.0Y-2.175
X3.025Y-2.6
X3.03Y-2.02
X3.04Y-0.98
X3.12Y-2.94
X3.1525Y-1.8975
X3.2Y-1.325
X3.225Y-1.625
X3.255Y-1.95
X3.28Y-2.31
X3.3386Y-1.9014
X3.375Y-2.725
X3.4Y-2.93
X3.41Y-1.925
X3.425Y-3.05
T2
X3.06Y-1.42
X3.06Y-1.47
X3.06Y-1.52
T3
X2.1638Y-2.785
X2.2425Y-2.785
X3.1275Y-2.4225
X3.3244Y-2.4225
T4
X3.22Y-1.08
X3.32Y-1.08
X2.22Y-1.08
X2.32Y-1.08
X2.71Y-1.08
X2.81Y-1.08
T5
X2.175Y-1.7
X2.175Y-1.8
X2.175Y-1.9
X2.275Y-1.7
X2.275Y-1.8
X2.275Y-1.9
X2.62Y-3.06
X2.72Y-3.06
T0
M30
