%TF.GenerationSoftware,KiCad,Pcbnew,5.1.6*%
%TF.CreationDate,2020-10-14T19:02:39+02:00*%
%TF.ProjectId,MoCoBiBa_no_charger,4d6f436f-4269-4426-915f-6e6f5f636861,rev?*%
%TF.SameCoordinates,Original*%
%TF.FileFunction,Soldermask,Top*%
%TF.FilePolarity,Negative*%
%FSLAX46Y46*%
G04 Gerber Fmt 4.6, Leading zero omitted, Abs format (unit mm)*
G04 Created by KiCad (PCBNEW 5.1.6) date 2020-10-14 19:02:39*
%MOMM*%
%LPD*%
G01*
G04 APERTURE LIST*
%ADD10C,3.300000*%
%ADD11C,1.700000*%
%ADD12R,1.700000X1.700000*%
%ADD13R,1.900000X1.900000*%
%ADD14C,1.900000*%
%ADD15R,1.800000X1.800000*%
%ADD16O,1.800000X1.800000*%
%ADD17R,0.750000X0.500000*%
%ADD18O,1.600000X1.150000*%
%ADD19R,1.600000X1.150000*%
%ADD20R,1.160000X0.750000*%
%ADD21R,1.320000X0.750000*%
G04 APERTURE END LIST*
D10*
%TO.C,H3*%
X70104000Y-71120000D03*
%TD*%
%TO.C,H2*%
X57150000Y-36830000D03*
%TD*%
%TO.C,H1*%
X84455000Y-36830000D03*
%TD*%
%TO.C,R12*%
G36*
G01*
X81500238Y-46882000D02*
X82456762Y-46882000D01*
G75*
G02*
X82728500Y-47153738I0J-271738D01*
G01*
X82728500Y-47860262D01*
G75*
G02*
X82456762Y-48132000I-271738J0D01*
G01*
X81500238Y-48132000D01*
G75*
G02*
X81228500Y-47860262I0J271738D01*
G01*
X81228500Y-47153738D01*
G75*
G02*
X81500238Y-46882000I271738J0D01*
G01*
G37*
G36*
G01*
X81500238Y-44832000D02*
X82456762Y-44832000D01*
G75*
G02*
X82728500Y-45103738I0J-271738D01*
G01*
X82728500Y-45810262D01*
G75*
G02*
X82456762Y-46082000I-271738J0D01*
G01*
X81500238Y-46082000D01*
G75*
G02*
X81228500Y-45810262I0J271738D01*
G01*
X81228500Y-45103738D01*
G75*
G02*
X81500238Y-44832000I271738J0D01*
G01*
G37*
%TD*%
%TO.C,R11*%
G36*
G01*
X78007738Y-46770000D02*
X78964262Y-46770000D01*
G75*
G02*
X79236000Y-47041738I0J-271738D01*
G01*
X79236000Y-47748262D01*
G75*
G02*
X78964262Y-48020000I-271738J0D01*
G01*
X78007738Y-48020000D01*
G75*
G02*
X77736000Y-47748262I0J271738D01*
G01*
X77736000Y-47041738D01*
G75*
G02*
X78007738Y-46770000I271738J0D01*
G01*
G37*
G36*
G01*
X78007738Y-44720000D02*
X78964262Y-44720000D01*
G75*
G02*
X79236000Y-44991738I0J-271738D01*
G01*
X79236000Y-45698262D01*
G75*
G02*
X78964262Y-45970000I-271738J0D01*
G01*
X78007738Y-45970000D01*
G75*
G02*
X77736000Y-45698262I0J271738D01*
G01*
X77736000Y-44991738D01*
G75*
G02*
X78007738Y-44720000I271738J0D01*
G01*
G37*
%TD*%
%TO.C,U2*%
G36*
G01*
X70183000Y-56314000D02*
X70533000Y-56314000D01*
G75*
G02*
X70708000Y-56489000I0J-175000D01*
G01*
X70708000Y-58189000D01*
G75*
G02*
X70533000Y-58364000I-175000J0D01*
G01*
X70183000Y-58364000D01*
G75*
G02*
X70008000Y-58189000I0J175000D01*
G01*
X70008000Y-56489000D01*
G75*
G02*
X70183000Y-56314000I175000J0D01*
G01*
G37*
G36*
G01*
X68913000Y-56314000D02*
X69263000Y-56314000D01*
G75*
G02*
X69438000Y-56489000I0J-175000D01*
G01*
X69438000Y-58189000D01*
G75*
G02*
X69263000Y-58364000I-175000J0D01*
G01*
X68913000Y-58364000D01*
G75*
G02*
X68738000Y-58189000I0J175000D01*
G01*
X68738000Y-56489000D01*
G75*
G02*
X68913000Y-56314000I175000J0D01*
G01*
G37*
G36*
G01*
X67643000Y-56314000D02*
X67993000Y-56314000D01*
G75*
G02*
X68168000Y-56489000I0J-175000D01*
G01*
X68168000Y-58189000D01*
G75*
G02*
X67993000Y-58364000I-175000J0D01*
G01*
X67643000Y-58364000D01*
G75*
G02*
X67468000Y-58189000I0J175000D01*
G01*
X67468000Y-56489000D01*
G75*
G02*
X67643000Y-56314000I175000J0D01*
G01*
G37*
G36*
G01*
X66373000Y-56314000D02*
X66723000Y-56314000D01*
G75*
G02*
X66898000Y-56489000I0J-175000D01*
G01*
X66898000Y-58189000D01*
G75*
G02*
X66723000Y-58364000I-175000J0D01*
G01*
X66373000Y-58364000D01*
G75*
G02*
X66198000Y-58189000I0J175000D01*
G01*
X66198000Y-56489000D01*
G75*
G02*
X66373000Y-56314000I175000J0D01*
G01*
G37*
G36*
G01*
X65103000Y-56314000D02*
X65453000Y-56314000D01*
G75*
G02*
X65628000Y-56489000I0J-175000D01*
G01*
X65628000Y-58189000D01*
G75*
G02*
X65453000Y-58364000I-175000J0D01*
G01*
X65103000Y-58364000D01*
G75*
G02*
X64928000Y-58189000I0J175000D01*
G01*
X64928000Y-56489000D01*
G75*
G02*
X65103000Y-56314000I175000J0D01*
G01*
G37*
G36*
G01*
X63833000Y-56314000D02*
X64183000Y-56314000D01*
G75*
G02*
X64358000Y-56489000I0J-175000D01*
G01*
X64358000Y-58189000D01*
G75*
G02*
X64183000Y-58364000I-175000J0D01*
G01*
X63833000Y-58364000D01*
G75*
G02*
X63658000Y-58189000I0J175000D01*
G01*
X63658000Y-56489000D01*
G75*
G02*
X63833000Y-56314000I175000J0D01*
G01*
G37*
G36*
G01*
X62563000Y-56314000D02*
X62913000Y-56314000D01*
G75*
G02*
X63088000Y-56489000I0J-175000D01*
G01*
X63088000Y-58189000D01*
G75*
G02*
X62913000Y-58364000I-175000J0D01*
G01*
X62563000Y-58364000D01*
G75*
G02*
X62388000Y-58189000I0J175000D01*
G01*
X62388000Y-56489000D01*
G75*
G02*
X62563000Y-56314000I175000J0D01*
G01*
G37*
G36*
G01*
X62563000Y-51364000D02*
X62913000Y-51364000D01*
G75*
G02*
X63088000Y-51539000I0J-175000D01*
G01*
X63088000Y-53239000D01*
G75*
G02*
X62913000Y-53414000I-175000J0D01*
G01*
X62563000Y-53414000D01*
G75*
G02*
X62388000Y-53239000I0J175000D01*
G01*
X62388000Y-51539000D01*
G75*
G02*
X62563000Y-51364000I175000J0D01*
G01*
G37*
G36*
G01*
X63833000Y-51364000D02*
X64183000Y-51364000D01*
G75*
G02*
X64358000Y-51539000I0J-175000D01*
G01*
X64358000Y-53239000D01*
G75*
G02*
X64183000Y-53414000I-175000J0D01*
G01*
X63833000Y-53414000D01*
G75*
G02*
X63658000Y-53239000I0J175000D01*
G01*
X63658000Y-51539000D01*
G75*
G02*
X63833000Y-51364000I175000J0D01*
G01*
G37*
G36*
G01*
X65103000Y-51364000D02*
X65453000Y-51364000D01*
G75*
G02*
X65628000Y-51539000I0J-175000D01*
G01*
X65628000Y-53239000D01*
G75*
G02*
X65453000Y-53414000I-175000J0D01*
G01*
X65103000Y-53414000D01*
G75*
G02*
X64928000Y-53239000I0J175000D01*
G01*
X64928000Y-51539000D01*
G75*
G02*
X65103000Y-51364000I175000J0D01*
G01*
G37*
G36*
G01*
X66373000Y-51364000D02*
X66723000Y-51364000D01*
G75*
G02*
X66898000Y-51539000I0J-175000D01*
G01*
X66898000Y-53239000D01*
G75*
G02*
X66723000Y-53414000I-175000J0D01*
G01*
X66373000Y-53414000D01*
G75*
G02*
X66198000Y-53239000I0J175000D01*
G01*
X66198000Y-51539000D01*
G75*
G02*
X66373000Y-51364000I175000J0D01*
G01*
G37*
G36*
G01*
X67643000Y-51364000D02*
X67993000Y-51364000D01*
G75*
G02*
X68168000Y-51539000I0J-175000D01*
G01*
X68168000Y-53239000D01*
G75*
G02*
X67993000Y-53414000I-175000J0D01*
G01*
X67643000Y-53414000D01*
G75*
G02*
X67468000Y-53239000I0J175000D01*
G01*
X67468000Y-51539000D01*
G75*
G02*
X67643000Y-51364000I175000J0D01*
G01*
G37*
G36*
G01*
X68913000Y-51364000D02*
X69263000Y-51364000D01*
G75*
G02*
X69438000Y-51539000I0J-175000D01*
G01*
X69438000Y-53239000D01*
G75*
G02*
X69263000Y-53414000I-175000J0D01*
G01*
X68913000Y-53414000D01*
G75*
G02*
X68738000Y-53239000I0J175000D01*
G01*
X68738000Y-51539000D01*
G75*
G02*
X68913000Y-51364000I175000J0D01*
G01*
G37*
G36*
G01*
X70183000Y-51364000D02*
X70533000Y-51364000D01*
G75*
G02*
X70708000Y-51539000I0J-175000D01*
G01*
X70708000Y-53239000D01*
G75*
G02*
X70533000Y-53414000I-175000J0D01*
G01*
X70183000Y-53414000D01*
G75*
G02*
X70008000Y-53239000I0J175000D01*
G01*
X70008000Y-51539000D01*
G75*
G02*
X70183000Y-51364000I175000J0D01*
G01*
G37*
%TD*%
%TO.C,C2*%
G36*
G01*
X84202000Y-67026262D02*
X84202000Y-66069738D01*
G75*
G02*
X84473738Y-65798000I271738J0D01*
G01*
X85180262Y-65798000D01*
G75*
G02*
X85452000Y-66069738I0J-271738D01*
G01*
X85452000Y-67026262D01*
G75*
G02*
X85180262Y-67298000I-271738J0D01*
G01*
X84473738Y-67298000D01*
G75*
G02*
X84202000Y-67026262I0J271738D01*
G01*
G37*
G36*
G01*
X86252000Y-67026262D02*
X86252000Y-66069738D01*
G75*
G02*
X86523738Y-65798000I271738J0D01*
G01*
X87230262Y-65798000D01*
G75*
G02*
X87502000Y-66069738I0J-271738D01*
G01*
X87502000Y-67026262D01*
G75*
G02*
X87230262Y-67298000I-271738J0D01*
G01*
X86523738Y-67298000D01*
G75*
G02*
X86252000Y-67026262I0J271738D01*
G01*
G37*
%TD*%
D11*
%TO.C,C3*%
X79438500Y-61531500D03*
X84438500Y-61531500D03*
%TD*%
%TO.C,C4*%
G36*
G01*
X86179500Y-57501262D02*
X86179500Y-56544738D01*
G75*
G02*
X86451238Y-56273000I271738J0D01*
G01*
X87157762Y-56273000D01*
G75*
G02*
X87429500Y-56544738I0J-271738D01*
G01*
X87429500Y-57501262D01*
G75*
G02*
X87157762Y-57773000I-271738J0D01*
G01*
X86451238Y-57773000D01*
G75*
G02*
X86179500Y-57501262I0J271738D01*
G01*
G37*
G36*
G01*
X84129500Y-57501262D02*
X84129500Y-56544738D01*
G75*
G02*
X84401238Y-56273000I271738J0D01*
G01*
X85107762Y-56273000D01*
G75*
G02*
X85379500Y-56544738I0J-271738D01*
G01*
X85379500Y-57501262D01*
G75*
G02*
X85107762Y-57773000I-271738J0D01*
G01*
X84401238Y-57773000D01*
G75*
G02*
X84129500Y-57501262I0J271738D01*
G01*
G37*
%TD*%
D12*
%TO.C,C5*%
X56959500Y-70739000D03*
D11*
X54959500Y-70739000D03*
%TD*%
%TO.C,C6*%
G36*
G01*
X84193000Y-51278262D02*
X84193000Y-50321738D01*
G75*
G02*
X84464738Y-50050000I271738J0D01*
G01*
X85171262Y-50050000D01*
G75*
G02*
X85443000Y-50321738I0J-271738D01*
G01*
X85443000Y-51278262D01*
G75*
G02*
X85171262Y-51550000I-271738J0D01*
G01*
X84464738Y-51550000D01*
G75*
G02*
X84193000Y-51278262I0J271738D01*
G01*
G37*
G36*
G01*
X86243000Y-51278262D02*
X86243000Y-50321738D01*
G75*
G02*
X86514738Y-50050000I271738J0D01*
G01*
X87221262Y-50050000D01*
G75*
G02*
X87493000Y-50321738I0J-271738D01*
G01*
X87493000Y-51278262D01*
G75*
G02*
X87221262Y-51550000I-271738J0D01*
G01*
X86514738Y-51550000D01*
G75*
G02*
X86243000Y-51278262I0J271738D01*
G01*
G37*
%TD*%
D13*
%TO.C,D2*%
X56388000Y-27432000D03*
D14*
X58928000Y-27432000D03*
%TD*%
%TO.C,D3*%
X71374000Y-27432000D03*
D13*
X68834000Y-27432000D03*
%TD*%
%TO.C,D4*%
X81788000Y-27432000D03*
D14*
X84328000Y-27432000D03*
%TD*%
D15*
%TO.C,J2*%
X66548000Y-77724000D03*
D16*
X69088000Y-77724000D03*
%TD*%
D15*
%TO.C,J3*%
X55245000Y-48260000D03*
D16*
X57785000Y-48260000D03*
X55245000Y-45720000D03*
X57785000Y-45720000D03*
X55245000Y-43180000D03*
X57785000Y-43180000D03*
%TD*%
%TO.C,L1*%
G36*
G01*
X61585000Y-64037738D02*
X61585000Y-64994262D01*
G75*
G02*
X61313262Y-65266000I-271738J0D01*
G01*
X60606738Y-65266000D01*
G75*
G02*
X60335000Y-64994262I0J271738D01*
G01*
X60335000Y-64037738D01*
G75*
G02*
X60606738Y-63766000I271738J0D01*
G01*
X61313262Y-63766000D01*
G75*
G02*
X61585000Y-64037738I0J-271738D01*
G01*
G37*
G36*
G01*
X59535000Y-64037738D02*
X59535000Y-64994262D01*
G75*
G02*
X59263262Y-65266000I-271738J0D01*
G01*
X58556738Y-65266000D01*
G75*
G02*
X58285000Y-64994262I0J271738D01*
G01*
X58285000Y-64037738D01*
G75*
G02*
X58556738Y-63766000I271738J0D01*
G01*
X59263262Y-63766000D01*
G75*
G02*
X59535000Y-64037738I0J-271738D01*
G01*
G37*
%TD*%
D17*
%TO.C,Q1*%
X80706000Y-77358000D03*
X80706000Y-76058000D03*
X78806000Y-76708000D03*
X80706000Y-76708000D03*
X78806000Y-76058000D03*
X78806000Y-77358000D03*
%TD*%
D18*
%TO.C,Q2*%
X77724000Y-37338000D03*
X77724000Y-38608000D03*
D19*
X77724000Y-36068000D03*
%TD*%
%TO.C,R1*%
G36*
G01*
X86243000Y-73122262D02*
X86243000Y-72165738D01*
G75*
G02*
X86514738Y-71894000I271738J0D01*
G01*
X87221262Y-71894000D01*
G75*
G02*
X87493000Y-72165738I0J-271738D01*
G01*
X87493000Y-73122262D01*
G75*
G02*
X87221262Y-73394000I-271738J0D01*
G01*
X86514738Y-73394000D01*
G75*
G02*
X86243000Y-73122262I0J271738D01*
G01*
G37*
G36*
G01*
X84193000Y-73122262D02*
X84193000Y-72165738D01*
G75*
G02*
X84464738Y-71894000I271738J0D01*
G01*
X85171262Y-71894000D01*
G75*
G02*
X85443000Y-72165738I0J-271738D01*
G01*
X85443000Y-73122262D01*
G75*
G02*
X85171262Y-73394000I-271738J0D01*
G01*
X84464738Y-73394000D01*
G75*
G02*
X84193000Y-73122262I0J271738D01*
G01*
G37*
%TD*%
%TO.C,R4*%
G36*
G01*
X54963000Y-57179738D02*
X54963000Y-58136262D01*
G75*
G02*
X54691262Y-58408000I-271738J0D01*
G01*
X53984738Y-58408000D01*
G75*
G02*
X53713000Y-58136262I0J271738D01*
G01*
X53713000Y-57179738D01*
G75*
G02*
X53984738Y-56908000I271738J0D01*
G01*
X54691262Y-56908000D01*
G75*
G02*
X54963000Y-57179738I0J-271738D01*
G01*
G37*
G36*
G01*
X57013000Y-57179738D02*
X57013000Y-58136262D01*
G75*
G02*
X56741262Y-58408000I-271738J0D01*
G01*
X56034738Y-58408000D01*
G75*
G02*
X55763000Y-58136262I0J271738D01*
G01*
X55763000Y-57179738D01*
G75*
G02*
X56034738Y-56908000I271738J0D01*
G01*
X56741262Y-56908000D01*
G75*
G02*
X57013000Y-57179738I0J-271738D01*
G01*
G37*
%TD*%
%TO.C,R5*%
G36*
G01*
X57022000Y-51845738D02*
X57022000Y-52802262D01*
G75*
G02*
X56750262Y-53074000I-271738J0D01*
G01*
X56043738Y-53074000D01*
G75*
G02*
X55772000Y-52802262I0J271738D01*
G01*
X55772000Y-51845738D01*
G75*
G02*
X56043738Y-51574000I271738J0D01*
G01*
X56750262Y-51574000D01*
G75*
G02*
X57022000Y-51845738I0J-271738D01*
G01*
G37*
G36*
G01*
X54972000Y-51845738D02*
X54972000Y-52802262D01*
G75*
G02*
X54700262Y-53074000I-271738J0D01*
G01*
X53993738Y-53074000D01*
G75*
G02*
X53722000Y-52802262I0J271738D01*
G01*
X53722000Y-51845738D01*
G75*
G02*
X53993738Y-51574000I271738J0D01*
G01*
X54700262Y-51574000D01*
G75*
G02*
X54972000Y-51845738I0J-271738D01*
G01*
G37*
%TD*%
%TO.C,R6*%
G36*
G01*
X73278000Y-64037738D02*
X73278000Y-64994262D01*
G75*
G02*
X73006262Y-65266000I-271738J0D01*
G01*
X72299738Y-65266000D01*
G75*
G02*
X72028000Y-64994262I0J271738D01*
G01*
X72028000Y-64037738D01*
G75*
G02*
X72299738Y-63766000I271738J0D01*
G01*
X73006262Y-63766000D01*
G75*
G02*
X73278000Y-64037738I0J-271738D01*
G01*
G37*
G36*
G01*
X71228000Y-64037738D02*
X71228000Y-64994262D01*
G75*
G02*
X70956262Y-65266000I-271738J0D01*
G01*
X70249738Y-65266000D01*
G75*
G02*
X69978000Y-64994262I0J271738D01*
G01*
X69978000Y-64037738D01*
G75*
G02*
X70249738Y-63766000I271738J0D01*
G01*
X70956262Y-63766000D01*
G75*
G02*
X71228000Y-64037738I0J-271738D01*
G01*
G37*
%TD*%
%TO.C,R7*%
G36*
G01*
X64889000Y-47214262D02*
X64889000Y-46257738D01*
G75*
G02*
X65160738Y-45986000I271738J0D01*
G01*
X65867262Y-45986000D01*
G75*
G02*
X66139000Y-46257738I0J-271738D01*
G01*
X66139000Y-47214262D01*
G75*
G02*
X65867262Y-47486000I-271738J0D01*
G01*
X65160738Y-47486000D01*
G75*
G02*
X64889000Y-47214262I0J271738D01*
G01*
G37*
G36*
G01*
X66939000Y-47214262D02*
X66939000Y-46257738D01*
G75*
G02*
X67210738Y-45986000I271738J0D01*
G01*
X67917262Y-45986000D01*
G75*
G02*
X68189000Y-46257738I0J-271738D01*
G01*
X68189000Y-47214262D01*
G75*
G02*
X67917262Y-47486000I-271738J0D01*
G01*
X67210738Y-47486000D01*
G75*
G02*
X66939000Y-47214262I0J271738D01*
G01*
G37*
%TD*%
%TO.C,R8*%
G36*
G01*
X66957000Y-42642262D02*
X66957000Y-41685738D01*
G75*
G02*
X67228738Y-41414000I271738J0D01*
G01*
X67935262Y-41414000D01*
G75*
G02*
X68207000Y-41685738I0J-271738D01*
G01*
X68207000Y-42642262D01*
G75*
G02*
X67935262Y-42914000I-271738J0D01*
G01*
X67228738Y-42914000D01*
G75*
G02*
X66957000Y-42642262I0J271738D01*
G01*
G37*
G36*
G01*
X64907000Y-42642262D02*
X64907000Y-41685738D01*
G75*
G02*
X65178738Y-41414000I271738J0D01*
G01*
X65885262Y-41414000D01*
G75*
G02*
X66157000Y-41685738I0J-271738D01*
G01*
X66157000Y-42642262D01*
G75*
G02*
X65885262Y-42914000I-271738J0D01*
G01*
X65178738Y-42914000D01*
G75*
G02*
X64907000Y-42642262I0J271738D01*
G01*
G37*
%TD*%
%TO.C,R9*%
G36*
G01*
X64876500Y-38359608D02*
X64876500Y-34792392D01*
G75*
G02*
X65142892Y-34526000I266392J0D01*
G01*
X66235108Y-34526000D01*
G75*
G02*
X66501500Y-34792392I0J-266392D01*
G01*
X66501500Y-38359608D01*
G75*
G02*
X66235108Y-38626000I-266392J0D01*
G01*
X65142892Y-38626000D01*
G75*
G02*
X64876500Y-38359608I0J266392D01*
G01*
G37*
G36*
G01*
X66751500Y-38359608D02*
X66751500Y-34792392D01*
G75*
G02*
X67017892Y-34526000I266392J0D01*
G01*
X68110108Y-34526000D01*
G75*
G02*
X68376500Y-34792392I0J-266392D01*
G01*
X68376500Y-38359608D01*
G75*
G02*
X68110108Y-38626000I-266392J0D01*
G01*
X67017892Y-38626000D01*
G75*
G02*
X66751500Y-38359608I0J266392D01*
G01*
G37*
%TD*%
%TO.C,R10*%
G36*
G01*
X66431000Y-64994262D02*
X66431000Y-64037738D01*
G75*
G02*
X66702738Y-63766000I271738J0D01*
G01*
X67409262Y-63766000D01*
G75*
G02*
X67681000Y-64037738I0J-271738D01*
G01*
X67681000Y-64994262D01*
G75*
G02*
X67409262Y-65266000I-271738J0D01*
G01*
X66702738Y-65266000D01*
G75*
G02*
X66431000Y-64994262I0J271738D01*
G01*
G37*
G36*
G01*
X64381000Y-64994262D02*
X64381000Y-64037738D01*
G75*
G02*
X64652738Y-63766000I271738J0D01*
G01*
X65359262Y-63766000D01*
G75*
G02*
X65631000Y-64037738I0J-271738D01*
G01*
X65631000Y-64994262D01*
G75*
G02*
X65359262Y-65266000I-271738J0D01*
G01*
X64652738Y-65266000D01*
G75*
G02*
X64381000Y-64994262I0J271738D01*
G01*
G37*
%TD*%
%TO.C,R13*%
G36*
G01*
X78614000Y-57374262D02*
X78614000Y-56417738D01*
G75*
G02*
X78885738Y-56146000I271738J0D01*
G01*
X79592262Y-56146000D01*
G75*
G02*
X79864000Y-56417738I0J-271738D01*
G01*
X79864000Y-57374262D01*
G75*
G02*
X79592262Y-57646000I-271738J0D01*
G01*
X78885738Y-57646000D01*
G75*
G02*
X78614000Y-57374262I0J271738D01*
G01*
G37*
G36*
G01*
X80664000Y-57374262D02*
X80664000Y-56417738D01*
G75*
G02*
X80935738Y-56146000I271738J0D01*
G01*
X81642262Y-56146000D01*
G75*
G02*
X81914000Y-56417738I0J-271738D01*
G01*
X81914000Y-57374262D01*
G75*
G02*
X81642262Y-57646000I-271738J0D01*
G01*
X80935738Y-57646000D01*
G75*
G02*
X80664000Y-57374262I0J271738D01*
G01*
G37*
%TD*%
D20*
%TO.C,U3*%
X78656000Y-68646000D03*
X78656000Y-69596000D03*
X78656000Y-70546000D03*
X80856000Y-70546000D03*
X80856000Y-68646000D03*
%TD*%
D21*
%TO.C,U4*%
X63286000Y-72070000D03*
X63286000Y-71120000D03*
X63286000Y-70170000D03*
X60666000Y-70170000D03*
X60666000Y-72070000D03*
%TD*%
%TO.C,U5*%
G36*
G01*
X78756500Y-51018000D02*
X78756500Y-50868000D01*
G75*
G02*
X78831500Y-50793000I75000J0D01*
G01*
X79331500Y-50793000D01*
G75*
G02*
X79406500Y-50868000I0J-75000D01*
G01*
X79406500Y-51018000D01*
G75*
G02*
X79331500Y-51093000I-75000J0D01*
G01*
X78831500Y-51093000D01*
G75*
G02*
X78756500Y-51018000I0J75000D01*
G01*
G37*
G36*
G01*
X78756500Y-51418000D02*
X78756500Y-51268000D01*
G75*
G02*
X78831500Y-51193000I75000J0D01*
G01*
X79331500Y-51193000D01*
G75*
G02*
X79406500Y-51268000I0J-75000D01*
G01*
X79406500Y-51418000D01*
G75*
G02*
X79331500Y-51493000I-75000J0D01*
G01*
X78831500Y-51493000D01*
G75*
G02*
X78756500Y-51418000I0J75000D01*
G01*
G37*
G36*
G01*
X78756500Y-51818000D02*
X78756500Y-51668000D01*
G75*
G02*
X78831500Y-51593000I75000J0D01*
G01*
X79331500Y-51593000D01*
G75*
G02*
X79406500Y-51668000I0J-75000D01*
G01*
X79406500Y-51818000D01*
G75*
G02*
X79331500Y-51893000I-75000J0D01*
G01*
X78831500Y-51893000D01*
G75*
G02*
X78756500Y-51818000I0J75000D01*
G01*
G37*
G36*
G01*
X78756500Y-52218000D02*
X78756500Y-52068000D01*
G75*
G02*
X78831500Y-51993000I75000J0D01*
G01*
X79331500Y-51993000D01*
G75*
G02*
X79406500Y-52068000I0J-75000D01*
G01*
X79406500Y-52218000D01*
G75*
G02*
X79331500Y-52293000I-75000J0D01*
G01*
X78831500Y-52293000D01*
G75*
G02*
X78756500Y-52218000I0J75000D01*
G01*
G37*
G36*
G01*
X78756500Y-52618000D02*
X78756500Y-52468000D01*
G75*
G02*
X78831500Y-52393000I75000J0D01*
G01*
X79331500Y-52393000D01*
G75*
G02*
X79406500Y-52468000I0J-75000D01*
G01*
X79406500Y-52618000D01*
G75*
G02*
X79331500Y-52693000I-75000J0D01*
G01*
X78831500Y-52693000D01*
G75*
G02*
X78756500Y-52618000I0J75000D01*
G01*
G37*
G36*
G01*
X78756500Y-53018000D02*
X78756500Y-52868000D01*
G75*
G02*
X78831500Y-52793000I75000J0D01*
G01*
X79331500Y-52793000D01*
G75*
G02*
X79406500Y-52868000I0J-75000D01*
G01*
X79406500Y-53018000D01*
G75*
G02*
X79331500Y-53093000I-75000J0D01*
G01*
X78831500Y-53093000D01*
G75*
G02*
X78756500Y-53018000I0J75000D01*
G01*
G37*
G36*
G01*
X79656500Y-53768000D02*
X79506500Y-53768000D01*
G75*
G02*
X79431500Y-53693000I0J75000D01*
G01*
X79431500Y-53193000D01*
G75*
G02*
X79506500Y-53118000I75000J0D01*
G01*
X79656500Y-53118000D01*
G75*
G02*
X79731500Y-53193000I0J-75000D01*
G01*
X79731500Y-53693000D01*
G75*
G02*
X79656500Y-53768000I-75000J0D01*
G01*
G37*
G36*
G01*
X80056500Y-53768000D02*
X79906500Y-53768000D01*
G75*
G02*
X79831500Y-53693000I0J75000D01*
G01*
X79831500Y-53193000D01*
G75*
G02*
X79906500Y-53118000I75000J0D01*
G01*
X80056500Y-53118000D01*
G75*
G02*
X80131500Y-53193000I0J-75000D01*
G01*
X80131500Y-53693000D01*
G75*
G02*
X80056500Y-53768000I-75000J0D01*
G01*
G37*
G36*
G01*
X80456500Y-53768000D02*
X80306500Y-53768000D01*
G75*
G02*
X80231500Y-53693000I0J75000D01*
G01*
X80231500Y-53193000D01*
G75*
G02*
X80306500Y-53118000I75000J0D01*
G01*
X80456500Y-53118000D01*
G75*
G02*
X80531500Y-53193000I0J-75000D01*
G01*
X80531500Y-53693000D01*
G75*
G02*
X80456500Y-53768000I-75000J0D01*
G01*
G37*
G36*
G01*
X80856500Y-53768000D02*
X80706500Y-53768000D01*
G75*
G02*
X80631500Y-53693000I0J75000D01*
G01*
X80631500Y-53193000D01*
G75*
G02*
X80706500Y-53118000I75000J0D01*
G01*
X80856500Y-53118000D01*
G75*
G02*
X80931500Y-53193000I0J-75000D01*
G01*
X80931500Y-53693000D01*
G75*
G02*
X80856500Y-53768000I-75000J0D01*
G01*
G37*
G36*
G01*
X81256500Y-53768000D02*
X81106500Y-53768000D01*
G75*
G02*
X81031500Y-53693000I0J75000D01*
G01*
X81031500Y-53193000D01*
G75*
G02*
X81106500Y-53118000I75000J0D01*
G01*
X81256500Y-53118000D01*
G75*
G02*
X81331500Y-53193000I0J-75000D01*
G01*
X81331500Y-53693000D01*
G75*
G02*
X81256500Y-53768000I-75000J0D01*
G01*
G37*
G36*
G01*
X81656500Y-53768000D02*
X81506500Y-53768000D01*
G75*
G02*
X81431500Y-53693000I0J75000D01*
G01*
X81431500Y-53193000D01*
G75*
G02*
X81506500Y-53118000I75000J0D01*
G01*
X81656500Y-53118000D01*
G75*
G02*
X81731500Y-53193000I0J-75000D01*
G01*
X81731500Y-53693000D01*
G75*
G02*
X81656500Y-53768000I-75000J0D01*
G01*
G37*
G36*
G01*
X81756500Y-53018000D02*
X81756500Y-52868000D01*
G75*
G02*
X81831500Y-52793000I75000J0D01*
G01*
X82331500Y-52793000D01*
G75*
G02*
X82406500Y-52868000I0J-75000D01*
G01*
X82406500Y-53018000D01*
G75*
G02*
X82331500Y-53093000I-75000J0D01*
G01*
X81831500Y-53093000D01*
G75*
G02*
X81756500Y-53018000I0J75000D01*
G01*
G37*
G36*
G01*
X81756500Y-52618000D02*
X81756500Y-52468000D01*
G75*
G02*
X81831500Y-52393000I75000J0D01*
G01*
X82331500Y-52393000D01*
G75*
G02*
X82406500Y-52468000I0J-75000D01*
G01*
X82406500Y-52618000D01*
G75*
G02*
X82331500Y-52693000I-75000J0D01*
G01*
X81831500Y-52693000D01*
G75*
G02*
X81756500Y-52618000I0J75000D01*
G01*
G37*
G36*
G01*
X81756500Y-52218000D02*
X81756500Y-52068000D01*
G75*
G02*
X81831500Y-51993000I75000J0D01*
G01*
X82331500Y-51993000D01*
G75*
G02*
X82406500Y-52068000I0J-75000D01*
G01*
X82406500Y-52218000D01*
G75*
G02*
X82331500Y-52293000I-75000J0D01*
G01*
X81831500Y-52293000D01*
G75*
G02*
X81756500Y-52218000I0J75000D01*
G01*
G37*
G36*
G01*
X81756500Y-51818000D02*
X81756500Y-51668000D01*
G75*
G02*
X81831500Y-51593000I75000J0D01*
G01*
X82331500Y-51593000D01*
G75*
G02*
X82406500Y-51668000I0J-75000D01*
G01*
X82406500Y-51818000D01*
G75*
G02*
X82331500Y-51893000I-75000J0D01*
G01*
X81831500Y-51893000D01*
G75*
G02*
X81756500Y-51818000I0J75000D01*
G01*
G37*
G36*
G01*
X81756500Y-51418000D02*
X81756500Y-51268000D01*
G75*
G02*
X81831500Y-51193000I75000J0D01*
G01*
X82331500Y-51193000D01*
G75*
G02*
X82406500Y-51268000I0J-75000D01*
G01*
X82406500Y-51418000D01*
G75*
G02*
X82331500Y-51493000I-75000J0D01*
G01*
X81831500Y-51493000D01*
G75*
G02*
X81756500Y-51418000I0J75000D01*
G01*
G37*
G36*
G01*
X81756500Y-51018000D02*
X81756500Y-50868000D01*
G75*
G02*
X81831500Y-50793000I75000J0D01*
G01*
X82331500Y-50793000D01*
G75*
G02*
X82406500Y-50868000I0J-75000D01*
G01*
X82406500Y-51018000D01*
G75*
G02*
X82331500Y-51093000I-75000J0D01*
G01*
X81831500Y-51093000D01*
G75*
G02*
X81756500Y-51018000I0J75000D01*
G01*
G37*
G36*
G01*
X81656500Y-50768000D02*
X81506500Y-50768000D01*
G75*
G02*
X81431500Y-50693000I0J75000D01*
G01*
X81431500Y-50193000D01*
G75*
G02*
X81506500Y-50118000I75000J0D01*
G01*
X81656500Y-50118000D01*
G75*
G02*
X81731500Y-50193000I0J-75000D01*
G01*
X81731500Y-50693000D01*
G75*
G02*
X81656500Y-50768000I-75000J0D01*
G01*
G37*
G36*
G01*
X81256500Y-50768000D02*
X81106500Y-50768000D01*
G75*
G02*
X81031500Y-50693000I0J75000D01*
G01*
X81031500Y-50193000D01*
G75*
G02*
X81106500Y-50118000I75000J0D01*
G01*
X81256500Y-50118000D01*
G75*
G02*
X81331500Y-50193000I0J-75000D01*
G01*
X81331500Y-50693000D01*
G75*
G02*
X81256500Y-50768000I-75000J0D01*
G01*
G37*
G36*
G01*
X80856500Y-50768000D02*
X80706500Y-50768000D01*
G75*
G02*
X80631500Y-50693000I0J75000D01*
G01*
X80631500Y-50193000D01*
G75*
G02*
X80706500Y-50118000I75000J0D01*
G01*
X80856500Y-50118000D01*
G75*
G02*
X80931500Y-50193000I0J-75000D01*
G01*
X80931500Y-50693000D01*
G75*
G02*
X80856500Y-50768000I-75000J0D01*
G01*
G37*
G36*
G01*
X80456500Y-50768000D02*
X80306500Y-50768000D01*
G75*
G02*
X80231500Y-50693000I0J75000D01*
G01*
X80231500Y-50193000D01*
G75*
G02*
X80306500Y-50118000I75000J0D01*
G01*
X80456500Y-50118000D01*
G75*
G02*
X80531500Y-50193000I0J-75000D01*
G01*
X80531500Y-50693000D01*
G75*
G02*
X80456500Y-50768000I-75000J0D01*
G01*
G37*
G36*
G01*
X80056500Y-50768000D02*
X79906500Y-50768000D01*
G75*
G02*
X79831500Y-50693000I0J75000D01*
G01*
X79831500Y-50193000D01*
G75*
G02*
X79906500Y-50118000I75000J0D01*
G01*
X80056500Y-50118000D01*
G75*
G02*
X80131500Y-50193000I0J-75000D01*
G01*
X80131500Y-50693000D01*
G75*
G02*
X80056500Y-50768000I-75000J0D01*
G01*
G37*
G36*
G01*
X79656500Y-50768000D02*
X79506500Y-50768000D01*
G75*
G02*
X79431500Y-50693000I0J75000D01*
G01*
X79431500Y-50193000D01*
G75*
G02*
X79506500Y-50118000I75000J0D01*
G01*
X79656500Y-50118000D01*
G75*
G02*
X79731500Y-50193000I0J-75000D01*
G01*
X79731500Y-50693000D01*
G75*
G02*
X79656500Y-50768000I-75000J0D01*
G01*
G37*
%TD*%
M02*
