%TF.GenerationSoftware,KiCad,Pcbnew,5.1.6*%
%TF.CreationDate,2020-10-14T19:02:39+02:00*%
%TF.ProjectId,MoCoBiBa_no_charger,4d6f436f-4269-4426-915f-6e6f5f636861,rev?*%
%TF.SameCoordinates,Original*%
%TF.FileFunction,Copper,L2,Bot*%
%TF.FilePolarity,Positive*%
%FSLAX46Y46*%
G04 Gerber Fmt 4.6, Leading zero omitted, Abs format (unit mm)*
G04 Created by KiCad (PCBNEW 5.1.6) date 2020-10-14 19:02:39*
%MOMM*%
%LPD*%
G01*
G04 APERTURE LIST*
%TA.AperFunction,ComponentPad*%
%ADD10C,1.600000*%
%TD*%
%TA.AperFunction,ComponentPad*%
%ADD11R,1.600000X1.600000*%
%TD*%
%TA.AperFunction,ComponentPad*%
%ADD12R,1.800000X1.800000*%
%TD*%
%TA.AperFunction,ComponentPad*%
%ADD13C,1.800000*%
%TD*%
%TA.AperFunction,ComponentPad*%
%ADD14R,1.700000X1.700000*%
%TD*%
%TA.AperFunction,ComponentPad*%
%ADD15O,1.700000X1.700000*%
%TD*%
%TA.AperFunction,ComponentPad*%
%ADD16O,1.500000X1.050000*%
%TD*%
%TA.AperFunction,ComponentPad*%
%ADD17R,1.500000X1.050000*%
%TD*%
%TA.AperFunction,ViaPad*%
%ADD18C,0.800000*%
%TD*%
%TA.AperFunction,Conductor*%
%ADD19C,0.540000*%
%TD*%
%TA.AperFunction,Conductor*%
%ADD20C,0.250000*%
%TD*%
%TA.AperFunction,Conductor*%
%ADD21C,0.200000*%
%TD*%
%TA.AperFunction,Conductor*%
%ADD22C,0.254000*%
%TD*%
G04 APERTURE END LIST*
D10*
%TO.P,C3,1*%
%TO.N,+2V8*%
X79438500Y-61531500D03*
%TO.P,C3,2*%
%TO.N,GND*%
X84438500Y-61531500D03*
%TD*%
D11*
%TO.P,C5,1*%
%TO.N,+2V8*%
X56959500Y-70739000D03*
D10*
%TO.P,C5,2*%
%TO.N,GND*%
X54959500Y-70739000D03*
%TD*%
D12*
%TO.P,D2,1*%
%TO.N,Net-(D2-Pad1)*%
X56388000Y-27432000D03*
D13*
%TO.P,D2,2*%
%TO.N,+2V8*%
X58928000Y-27432000D03*
%TD*%
%TO.P,D3,2*%
%TO.N,+2V8*%
X71374000Y-27432000D03*
D12*
%TO.P,D3,1*%
%TO.N,Net-(D2-Pad1)*%
X68834000Y-27432000D03*
%TD*%
%TO.P,D4,1*%
%TO.N,Net-(D2-Pad1)*%
X81788000Y-27432000D03*
D13*
%TO.P,D4,2*%
%TO.N,+2V8*%
X84328000Y-27432000D03*
%TD*%
D14*
%TO.P,J2,1*%
%TO.N,+BATT*%
X66548000Y-77724000D03*
D15*
%TO.P,J2,2*%
%TO.N,-BATT*%
X69088000Y-77724000D03*
%TD*%
D14*
%TO.P,J3,1*%
%TO.N,MISO_ISP*%
X55245000Y-48260000D03*
D15*
%TO.P,J3,2*%
%TO.N,+2V8*%
X57785000Y-48260000D03*
%TO.P,J3,3*%
%TO.N,SCK_ISP*%
X55245000Y-45720000D03*
%TO.P,J3,4*%
%TO.N,MOSI_ISP*%
X57785000Y-45720000D03*
%TO.P,J3,5*%
%TO.N,nRES_ISP*%
X55245000Y-43180000D03*
%TO.P,J3,6*%
%TO.N,GND*%
X57785000Y-43180000D03*
%TD*%
D16*
%TO.P,Q2,2*%
%TO.N,Net-(Q2-Pad2)*%
X77724000Y-37338000D03*
%TO.P,Q2,3*%
%TO.N,GND*%
X77724000Y-38608000D03*
D17*
%TO.P,Q2,1*%
%TO.N,Net-(Q2-Pad1)*%
X77724000Y-36068000D03*
%TD*%
D18*
%TO.N,+2V8*%
X73025000Y-51435000D03*
X84799500Y-48296500D03*
%TO.N,GND*%
X64770000Y-70485000D03*
X79248000Y-74676000D03*
X86360000Y-74422000D03*
X83312000Y-58674000D03*
X82677000Y-49530000D03*
X86614000Y-48895000D03*
X68453000Y-40259000D03*
X71755000Y-57785000D03*
X76200000Y-55245000D03*
X76835000Y-66040000D03*
X85725000Y-69215000D03*
X86995000Y-77470000D03*
X62230000Y-76200000D03*
X54610000Y-61595000D03*
X68580000Y-60325000D03*
X74295000Y-41910000D03*
X81915000Y-41275000D03*
X81280000Y-33655000D03*
X62484000Y-44196000D03*
X62992000Y-34036000D03*
X54864000Y-32004000D03*
X62992000Y-24892000D03*
X77216000Y-24892000D03*
X70104000Y-32512000D03*
X70612000Y-48768000D03*
%TO.N,MISO_ISP*%
X60325000Y-50800000D03*
X60325000Y-53340000D03*
%TO.N,SCK_ISP*%
X80073500Y-48196500D03*
X76962000Y-51308000D03*
%TO.N,nRES_ISP*%
X64135000Y-49530000D03*
X67310000Y-49530000D03*
%TO.N,Net-(R4-Pad2)*%
X58166000Y-60960000D03*
X64516000Y-60960000D03*
%TD*%
D19*
%TO.N,+2V8*%
X60960000Y-29464000D02*
X58928000Y-27432000D01*
X69342000Y-29464000D02*
X71374000Y-27432000D01*
X60960000Y-29464000D02*
X69342000Y-29464000D01*
X82296000Y-29464000D02*
X84328000Y-27432000D01*
X69342000Y-29464000D02*
X82296000Y-29464000D01*
X56959500Y-63944500D02*
X56959500Y-63690500D01*
X56959500Y-70739000D02*
X56959500Y-63944500D01*
X56959500Y-63690500D02*
X58420000Y-62230000D01*
X78740000Y-62230000D02*
X79438500Y-61531500D01*
X73660000Y-52070000D02*
X73025000Y-51435000D01*
X58420000Y-62230000D02*
X73660000Y-62230000D01*
X73660000Y-62230000D02*
X73660000Y-52070000D01*
X73660000Y-62230000D02*
X78740000Y-62230000D01*
X56959500Y-63690500D02*
X56959500Y-50990500D01*
X57785000Y-50165000D02*
X57785000Y-48260000D01*
X56959500Y-50990500D02*
X57785000Y-50165000D01*
X57785000Y-48260000D02*
X59690000Y-48260000D01*
X59690000Y-48260000D02*
X60960000Y-46990000D01*
X60960000Y-46990000D02*
X60960000Y-29464000D01*
D20*
X84799500Y-48296500D02*
X82840500Y-48296500D01*
X82840500Y-48296500D02*
X81280000Y-46736000D01*
X81280000Y-46736000D02*
X77724000Y-46736000D01*
X77724000Y-46736000D02*
X73025000Y-51435000D01*
%TO.N,MISO_ISP*%
X60325000Y-50800000D02*
X60325000Y-53340000D01*
D21*
%TO.N,SCK_ISP*%
X80073500Y-48196500D02*
X76962000Y-51308000D01*
D20*
%TO.N,nRES_ISP*%
X64135000Y-49530000D02*
X67310000Y-49530000D01*
%TO.N,Net-(R4-Pad2)*%
X58166000Y-60960000D02*
X64516000Y-60960000D01*
%TD*%
D22*
%TO.N,GND*%
G36*
X88875000Y-79350000D02*
G01*
X52095000Y-79350000D01*
X52095000Y-76874000D01*
X65059928Y-76874000D01*
X65059928Y-78574000D01*
X65072188Y-78698482D01*
X65108498Y-78818180D01*
X65167463Y-78928494D01*
X65246815Y-79025185D01*
X65343506Y-79104537D01*
X65453820Y-79163502D01*
X65573518Y-79199812D01*
X65698000Y-79212072D01*
X67398000Y-79212072D01*
X67522482Y-79199812D01*
X67642180Y-79163502D01*
X67752494Y-79104537D01*
X67849185Y-79025185D01*
X67928537Y-78928494D01*
X67987502Y-78818180D01*
X68009513Y-78745620D01*
X68141368Y-78877475D01*
X68384589Y-79039990D01*
X68654842Y-79151932D01*
X68941740Y-79209000D01*
X69234260Y-79209000D01*
X69521158Y-79151932D01*
X69791411Y-79039990D01*
X70034632Y-78877475D01*
X70241475Y-78670632D01*
X70403990Y-78427411D01*
X70515932Y-78157158D01*
X70573000Y-77870260D01*
X70573000Y-77577740D01*
X70515932Y-77290842D01*
X70403990Y-77020589D01*
X70241475Y-76777368D01*
X70034632Y-76570525D01*
X69791411Y-76408010D01*
X69521158Y-76296068D01*
X69234260Y-76239000D01*
X68941740Y-76239000D01*
X68654842Y-76296068D01*
X68384589Y-76408010D01*
X68141368Y-76570525D01*
X68009513Y-76702380D01*
X67987502Y-76629820D01*
X67928537Y-76519506D01*
X67849185Y-76422815D01*
X67752494Y-76343463D01*
X67642180Y-76284498D01*
X67522482Y-76248188D01*
X67398000Y-76235928D01*
X65698000Y-76235928D01*
X65573518Y-76248188D01*
X65453820Y-76284498D01*
X65343506Y-76343463D01*
X65246815Y-76422815D01*
X65167463Y-76519506D01*
X65108498Y-76629820D01*
X65072188Y-76749518D01*
X65059928Y-76874000D01*
X52095000Y-76874000D01*
X52095000Y-70809512D01*
X53519283Y-70809512D01*
X53560713Y-71089130D01*
X53655897Y-71355292D01*
X53722829Y-71480514D01*
X53966798Y-71552097D01*
X54779895Y-70739000D01*
X53966798Y-69925903D01*
X53722829Y-69997486D01*
X53601929Y-70252996D01*
X53533200Y-70527184D01*
X53519283Y-70809512D01*
X52095000Y-70809512D01*
X52095000Y-47410000D01*
X53756928Y-47410000D01*
X53756928Y-49110000D01*
X53769188Y-49234482D01*
X53805498Y-49354180D01*
X53864463Y-49464494D01*
X53943815Y-49561185D01*
X54040506Y-49640537D01*
X54150820Y-49699502D01*
X54270518Y-49735812D01*
X54395000Y-49748072D01*
X56095000Y-49748072D01*
X56219482Y-49735812D01*
X56339180Y-49699502D01*
X56449494Y-49640537D01*
X56546185Y-49561185D01*
X56625537Y-49464494D01*
X56684502Y-49354180D01*
X56706513Y-49281620D01*
X56838368Y-49413475D01*
X56880000Y-49441293D01*
X56880000Y-49790137D01*
X56350998Y-50319139D01*
X56316474Y-50347473D01*
X56288140Y-50381998D01*
X56288137Y-50382001D01*
X56203380Y-50485277D01*
X56144815Y-50594845D01*
X56119345Y-50642496D01*
X56074002Y-50791973D01*
X56067596Y-50813090D01*
X56050123Y-50990500D01*
X56054501Y-51034951D01*
X56054500Y-63646048D01*
X56054500Y-63646059D01*
X56050123Y-63690500D01*
X56054500Y-63734941D01*
X56054500Y-63988951D01*
X56054501Y-63988961D01*
X56054500Y-69311269D01*
X56035018Y-69313188D01*
X55915320Y-69349498D01*
X55805006Y-69408463D01*
X55708315Y-69487815D01*
X55697693Y-69500758D01*
X55445504Y-69381429D01*
X55171316Y-69312700D01*
X54888988Y-69298783D01*
X54609370Y-69340213D01*
X54343208Y-69435397D01*
X54217986Y-69502329D01*
X54146403Y-69746298D01*
X54959500Y-70559395D01*
X54973643Y-70545253D01*
X55153248Y-70724858D01*
X55139105Y-70739000D01*
X55153248Y-70753143D01*
X54973643Y-70932748D01*
X54959500Y-70918605D01*
X54146403Y-71731702D01*
X54217986Y-71975671D01*
X54473496Y-72096571D01*
X54747684Y-72165300D01*
X55030012Y-72179217D01*
X55309630Y-72137787D01*
X55575792Y-72042603D01*
X55697809Y-71977384D01*
X55708315Y-71990185D01*
X55805006Y-72069537D01*
X55915320Y-72128502D01*
X56035018Y-72164812D01*
X56159500Y-72177072D01*
X57759500Y-72177072D01*
X57883982Y-72164812D01*
X58003680Y-72128502D01*
X58113994Y-72069537D01*
X58210685Y-71990185D01*
X58290037Y-71893494D01*
X58349002Y-71783180D01*
X58385312Y-71663482D01*
X58397572Y-71539000D01*
X58397572Y-70899872D01*
X67869000Y-70899872D01*
X67869000Y-71340128D01*
X67954890Y-71771925D01*
X68123369Y-72178669D01*
X68367962Y-72544729D01*
X68679271Y-72856038D01*
X69045331Y-73100631D01*
X69452075Y-73269110D01*
X69883872Y-73355000D01*
X70324128Y-73355000D01*
X70755925Y-73269110D01*
X71162669Y-73100631D01*
X71528729Y-72856038D01*
X71840038Y-72544729D01*
X72084631Y-72178669D01*
X72253110Y-71771925D01*
X72339000Y-71340128D01*
X72339000Y-70899872D01*
X72253110Y-70468075D01*
X72084631Y-70061331D01*
X71840038Y-69695271D01*
X71528729Y-69383962D01*
X71162669Y-69139369D01*
X70755925Y-68970890D01*
X70324128Y-68885000D01*
X69883872Y-68885000D01*
X69452075Y-68970890D01*
X69045331Y-69139369D01*
X68679271Y-69383962D01*
X68367962Y-69695271D01*
X68123369Y-70061331D01*
X67954890Y-70468075D01*
X67869000Y-70899872D01*
X58397572Y-70899872D01*
X58397572Y-69939000D01*
X58385312Y-69814518D01*
X58349002Y-69694820D01*
X58290037Y-69584506D01*
X58210685Y-69487815D01*
X58113994Y-69408463D01*
X58003680Y-69349498D01*
X57883982Y-69313188D01*
X57864500Y-69311269D01*
X57864500Y-64065362D01*
X58794864Y-63135000D01*
X73615548Y-63135000D01*
X73660000Y-63139378D01*
X73704451Y-63135000D01*
X78695559Y-63135000D01*
X78740000Y-63139377D01*
X78784441Y-63135000D01*
X78784452Y-63135000D01*
X78917411Y-63121905D01*
X79088004Y-63070156D01*
X79245223Y-62986120D01*
X79274599Y-62962011D01*
X79297165Y-62966500D01*
X79579835Y-62966500D01*
X79857074Y-62911353D01*
X80118227Y-62803180D01*
X80353259Y-62646137D01*
X80475194Y-62524202D01*
X83625403Y-62524202D01*
X83696986Y-62768171D01*
X83952496Y-62889071D01*
X84226684Y-62957800D01*
X84509012Y-62971717D01*
X84788630Y-62930287D01*
X85054792Y-62835103D01*
X85180014Y-62768171D01*
X85251597Y-62524202D01*
X84438500Y-61711105D01*
X83625403Y-62524202D01*
X80475194Y-62524202D01*
X80553137Y-62446259D01*
X80710180Y-62211227D01*
X80818353Y-61950074D01*
X80873500Y-61672835D01*
X80873500Y-61602012D01*
X82998283Y-61602012D01*
X83039713Y-61881630D01*
X83134897Y-62147792D01*
X83201829Y-62273014D01*
X83445798Y-62344597D01*
X84258895Y-61531500D01*
X84618105Y-61531500D01*
X85431202Y-62344597D01*
X85675171Y-62273014D01*
X85796071Y-62017504D01*
X85864800Y-61743316D01*
X85878717Y-61460988D01*
X85837287Y-61181370D01*
X85742103Y-60915208D01*
X85675171Y-60789986D01*
X85431202Y-60718403D01*
X84618105Y-61531500D01*
X84258895Y-61531500D01*
X83445798Y-60718403D01*
X83201829Y-60789986D01*
X83080929Y-61045496D01*
X83012200Y-61319684D01*
X82998283Y-61602012D01*
X80873500Y-61602012D01*
X80873500Y-61390165D01*
X80818353Y-61112926D01*
X80710180Y-60851773D01*
X80553137Y-60616741D01*
X80475194Y-60538798D01*
X83625403Y-60538798D01*
X84438500Y-61351895D01*
X85251597Y-60538798D01*
X85180014Y-60294829D01*
X84924504Y-60173929D01*
X84650316Y-60105200D01*
X84367988Y-60091283D01*
X84088370Y-60132713D01*
X83822208Y-60227897D01*
X83696986Y-60294829D01*
X83625403Y-60538798D01*
X80475194Y-60538798D01*
X80353259Y-60416863D01*
X80118227Y-60259820D01*
X79857074Y-60151647D01*
X79579835Y-60096500D01*
X79297165Y-60096500D01*
X79019926Y-60151647D01*
X78758773Y-60259820D01*
X78523741Y-60416863D01*
X78323863Y-60616741D01*
X78166820Y-60851773D01*
X78058647Y-61112926D01*
X78016462Y-61325000D01*
X74565000Y-61325000D01*
X74565000Y-52114442D01*
X74569377Y-52070000D01*
X74565000Y-52025558D01*
X74565000Y-52025548D01*
X74551905Y-51892589D01*
X74500156Y-51721996D01*
X74437052Y-51603937D01*
X74416120Y-51564776D01*
X74331364Y-51461500D01*
X74331356Y-51461492D01*
X74303027Y-51426973D01*
X74268507Y-51398643D01*
X74202332Y-51332469D01*
X78038802Y-47496000D01*
X79310289Y-47496000D01*
X79269563Y-47536726D01*
X79156295Y-47706244D01*
X79078274Y-47894602D01*
X79038500Y-48094561D01*
X79038500Y-48192053D01*
X76957554Y-50273000D01*
X76860061Y-50273000D01*
X76660102Y-50312774D01*
X76471744Y-50390795D01*
X76302226Y-50504063D01*
X76158063Y-50648226D01*
X76044795Y-50817744D01*
X75966774Y-51006102D01*
X75927000Y-51206061D01*
X75927000Y-51409939D01*
X75966774Y-51609898D01*
X76044795Y-51798256D01*
X76158063Y-51967774D01*
X76302226Y-52111937D01*
X76471744Y-52225205D01*
X76660102Y-52303226D01*
X76860061Y-52343000D01*
X77063939Y-52343000D01*
X77263898Y-52303226D01*
X77452256Y-52225205D01*
X77621774Y-52111937D01*
X77765937Y-51967774D01*
X77879205Y-51798256D01*
X77957226Y-51609898D01*
X77997000Y-51409939D01*
X77997000Y-51312446D01*
X80077947Y-49231500D01*
X80175439Y-49231500D01*
X80375398Y-49191726D01*
X80563756Y-49113705D01*
X80733274Y-49000437D01*
X80877437Y-48856274D01*
X80990705Y-48686756D01*
X81068726Y-48498398D01*
X81108500Y-48298439D01*
X81108500Y-48094561D01*
X81068726Y-47894602D01*
X80990705Y-47706244D01*
X80877437Y-47536726D01*
X80836711Y-47496000D01*
X80965199Y-47496000D01*
X82276701Y-48807503D01*
X82300499Y-48836501D01*
X82416224Y-48931474D01*
X82548253Y-49002046D01*
X82691514Y-49045503D01*
X82803167Y-49056500D01*
X82803176Y-49056500D01*
X82840499Y-49060176D01*
X82877822Y-49056500D01*
X84095789Y-49056500D01*
X84139726Y-49100437D01*
X84309244Y-49213705D01*
X84497602Y-49291726D01*
X84697561Y-49331500D01*
X84901439Y-49331500D01*
X85101398Y-49291726D01*
X85289756Y-49213705D01*
X85459274Y-49100437D01*
X85603437Y-48956274D01*
X85716705Y-48786756D01*
X85794726Y-48598398D01*
X85834500Y-48398439D01*
X85834500Y-48194561D01*
X85794726Y-47994602D01*
X85716705Y-47806244D01*
X85603437Y-47636726D01*
X85459274Y-47492563D01*
X85289756Y-47379295D01*
X85101398Y-47301274D01*
X84901439Y-47261500D01*
X84697561Y-47261500D01*
X84497602Y-47301274D01*
X84309244Y-47379295D01*
X84139726Y-47492563D01*
X84095789Y-47536500D01*
X83155302Y-47536500D01*
X81843804Y-46225003D01*
X81820001Y-46195999D01*
X81704276Y-46101026D01*
X81572247Y-46030454D01*
X81428986Y-45986997D01*
X81317333Y-45976000D01*
X81317322Y-45976000D01*
X81280000Y-45972324D01*
X81242678Y-45976000D01*
X77761333Y-45976000D01*
X77724000Y-45972323D01*
X77686667Y-45976000D01*
X77575014Y-45986997D01*
X77431753Y-46030454D01*
X77299724Y-46101026D01*
X77183999Y-46195999D01*
X77160201Y-46224997D01*
X72985199Y-50400000D01*
X72923061Y-50400000D01*
X72723102Y-50439774D01*
X72534744Y-50517795D01*
X72365226Y-50631063D01*
X72221063Y-50775226D01*
X72107795Y-50944744D01*
X72029774Y-51133102D01*
X71990000Y-51333061D01*
X71990000Y-51536939D01*
X72029774Y-51736898D01*
X72107795Y-51925256D01*
X72221063Y-52094774D01*
X72365226Y-52238937D01*
X72534744Y-52352205D01*
X72723102Y-52430226D01*
X72744649Y-52434512D01*
X72755001Y-52444864D01*
X72755000Y-61325000D01*
X65485088Y-61325000D01*
X65511226Y-61261898D01*
X65551000Y-61061939D01*
X65551000Y-60858061D01*
X65511226Y-60658102D01*
X65433205Y-60469744D01*
X65319937Y-60300226D01*
X65175774Y-60156063D01*
X65006256Y-60042795D01*
X64817898Y-59964774D01*
X64617939Y-59925000D01*
X64414061Y-59925000D01*
X64214102Y-59964774D01*
X64025744Y-60042795D01*
X63856226Y-60156063D01*
X63812289Y-60200000D01*
X58869711Y-60200000D01*
X58825774Y-60156063D01*
X58656256Y-60042795D01*
X58467898Y-59964774D01*
X58267939Y-59925000D01*
X58064061Y-59925000D01*
X57864500Y-59964695D01*
X57864500Y-51365362D01*
X58393503Y-50836360D01*
X58428027Y-50808027D01*
X58464457Y-50763637D01*
X58518274Y-50698061D01*
X59290000Y-50698061D01*
X59290000Y-50901939D01*
X59329774Y-51101898D01*
X59407795Y-51290256D01*
X59521063Y-51459774D01*
X59565000Y-51503711D01*
X59565001Y-52636288D01*
X59521063Y-52680226D01*
X59407795Y-52849744D01*
X59329774Y-53038102D01*
X59290000Y-53238061D01*
X59290000Y-53441939D01*
X59329774Y-53641898D01*
X59407795Y-53830256D01*
X59521063Y-53999774D01*
X59665226Y-54143937D01*
X59834744Y-54257205D01*
X60023102Y-54335226D01*
X60223061Y-54375000D01*
X60426939Y-54375000D01*
X60626898Y-54335226D01*
X60815256Y-54257205D01*
X60984774Y-54143937D01*
X61128937Y-53999774D01*
X61242205Y-53830256D01*
X61320226Y-53641898D01*
X61360000Y-53441939D01*
X61360000Y-53238061D01*
X61320226Y-53038102D01*
X61242205Y-52849744D01*
X61128937Y-52680226D01*
X61085000Y-52636289D01*
X61085000Y-51503711D01*
X61128937Y-51459774D01*
X61242205Y-51290256D01*
X61320226Y-51101898D01*
X61360000Y-50901939D01*
X61360000Y-50698061D01*
X61320226Y-50498102D01*
X61242205Y-50309744D01*
X61128937Y-50140226D01*
X60984774Y-49996063D01*
X60815256Y-49882795D01*
X60626898Y-49804774D01*
X60426939Y-49765000D01*
X60223061Y-49765000D01*
X60023102Y-49804774D01*
X59834744Y-49882795D01*
X59665226Y-49996063D01*
X59521063Y-50140226D01*
X59407795Y-50309744D01*
X59329774Y-50498102D01*
X59290000Y-50698061D01*
X58518274Y-50698061D01*
X58541120Y-50670224D01*
X58625155Y-50513005D01*
X58625156Y-50513004D01*
X58676905Y-50342411D01*
X58690000Y-50209452D01*
X58690000Y-50209440D01*
X58694377Y-50165001D01*
X58690000Y-50120562D01*
X58690000Y-49441293D01*
X58709802Y-49428061D01*
X63100000Y-49428061D01*
X63100000Y-49631939D01*
X63139774Y-49831898D01*
X63217795Y-50020256D01*
X63331063Y-50189774D01*
X63475226Y-50333937D01*
X63644744Y-50447205D01*
X63833102Y-50525226D01*
X64033061Y-50565000D01*
X64236939Y-50565000D01*
X64436898Y-50525226D01*
X64625256Y-50447205D01*
X64794774Y-50333937D01*
X64838711Y-50290000D01*
X66606289Y-50290000D01*
X66650226Y-50333937D01*
X66819744Y-50447205D01*
X67008102Y-50525226D01*
X67208061Y-50565000D01*
X67411939Y-50565000D01*
X67611898Y-50525226D01*
X67800256Y-50447205D01*
X67969774Y-50333937D01*
X68113937Y-50189774D01*
X68227205Y-50020256D01*
X68305226Y-49831898D01*
X68345000Y-49631939D01*
X68345000Y-49428061D01*
X68305226Y-49228102D01*
X68227205Y-49039744D01*
X68113937Y-48870226D01*
X67969774Y-48726063D01*
X67800256Y-48612795D01*
X67611898Y-48534774D01*
X67411939Y-48495000D01*
X67208061Y-48495000D01*
X67008102Y-48534774D01*
X66819744Y-48612795D01*
X66650226Y-48726063D01*
X66606289Y-48770000D01*
X64838711Y-48770000D01*
X64794774Y-48726063D01*
X64625256Y-48612795D01*
X64436898Y-48534774D01*
X64236939Y-48495000D01*
X64033061Y-48495000D01*
X63833102Y-48534774D01*
X63644744Y-48612795D01*
X63475226Y-48726063D01*
X63331063Y-48870226D01*
X63217795Y-49039744D01*
X63139774Y-49228102D01*
X63100000Y-49428061D01*
X58709802Y-49428061D01*
X58731632Y-49413475D01*
X58938475Y-49206632D01*
X58966293Y-49165000D01*
X59645559Y-49165000D01*
X59690000Y-49169377D01*
X59734441Y-49165000D01*
X59734452Y-49165000D01*
X59867411Y-49151905D01*
X60038004Y-49100156D01*
X60195223Y-49016120D01*
X60333027Y-48903027D01*
X60361365Y-48868497D01*
X61568503Y-47661360D01*
X61603027Y-47633027D01*
X61631363Y-47598500D01*
X61716120Y-47495224D01*
X61800155Y-47338005D01*
X61800156Y-47338004D01*
X61851905Y-47167411D01*
X61865000Y-47034452D01*
X61865000Y-47034443D01*
X61869377Y-46990001D01*
X61865000Y-46945559D01*
X61865000Y-38913810D01*
X76380036Y-38913810D01*
X76388728Y-38975337D01*
X76481725Y-39184882D01*
X76613816Y-39372258D01*
X76779924Y-39530264D01*
X76973666Y-39652828D01*
X77187596Y-39735239D01*
X77413493Y-39774331D01*
X77597000Y-39614598D01*
X77597000Y-38735000D01*
X77851000Y-38735000D01*
X77851000Y-39614598D01*
X78034507Y-39774331D01*
X78260404Y-39735239D01*
X78474334Y-39652828D01*
X78668076Y-39530264D01*
X78834184Y-39372258D01*
X78966275Y-39184882D01*
X79059272Y-38975337D01*
X79067964Y-38913810D01*
X78942163Y-38735000D01*
X77851000Y-38735000D01*
X77597000Y-38735000D01*
X76505837Y-38735000D01*
X76380036Y-38913810D01*
X61865000Y-38913810D01*
X61865000Y-37338000D01*
X76333388Y-37338000D01*
X76355785Y-37565400D01*
X76422115Y-37784060D01*
X76522929Y-37972669D01*
X76481725Y-38031118D01*
X76388728Y-38240663D01*
X76380036Y-38302190D01*
X76505837Y-38481000D01*
X77270891Y-38481000D01*
X77271600Y-38481215D01*
X77442021Y-38498000D01*
X78005979Y-38498000D01*
X78176400Y-38481215D01*
X78177109Y-38481000D01*
X78942163Y-38481000D01*
X79067964Y-38302190D01*
X79059272Y-38240663D01*
X78966275Y-38031118D01*
X78925071Y-37972669D01*
X79025885Y-37784060D01*
X79092215Y-37565400D01*
X79114612Y-37338000D01*
X79092215Y-37110600D01*
X79028907Y-36901902D01*
X79063502Y-36837180D01*
X79099812Y-36717482D01*
X79110410Y-36609872D01*
X82220000Y-36609872D01*
X82220000Y-37050128D01*
X82305890Y-37481925D01*
X82474369Y-37888669D01*
X82718962Y-38254729D01*
X83030271Y-38566038D01*
X83396331Y-38810631D01*
X83803075Y-38979110D01*
X84234872Y-39065000D01*
X84675128Y-39065000D01*
X85106925Y-38979110D01*
X85513669Y-38810631D01*
X85879729Y-38566038D01*
X86191038Y-38254729D01*
X86435631Y-37888669D01*
X86604110Y-37481925D01*
X86690000Y-37050128D01*
X86690000Y-36609872D01*
X86604110Y-36178075D01*
X86435631Y-35771331D01*
X86191038Y-35405271D01*
X85879729Y-35093962D01*
X85513669Y-34849369D01*
X85106925Y-34680890D01*
X84675128Y-34595000D01*
X84234872Y-34595000D01*
X83803075Y-34680890D01*
X83396331Y-34849369D01*
X83030271Y-35093962D01*
X82718962Y-35405271D01*
X82474369Y-35771331D01*
X82305890Y-36178075D01*
X82220000Y-36609872D01*
X79110410Y-36609872D01*
X79112072Y-36593000D01*
X79112072Y-35543000D01*
X79099812Y-35418518D01*
X79063502Y-35298820D01*
X79004537Y-35188506D01*
X78925185Y-35091815D01*
X78828494Y-35012463D01*
X78718180Y-34953498D01*
X78598482Y-34917188D01*
X78474000Y-34904928D01*
X76974000Y-34904928D01*
X76849518Y-34917188D01*
X76729820Y-34953498D01*
X76619506Y-35012463D01*
X76522815Y-35091815D01*
X76443463Y-35188506D01*
X76384498Y-35298820D01*
X76348188Y-35418518D01*
X76335928Y-35543000D01*
X76335928Y-36593000D01*
X76348188Y-36717482D01*
X76384498Y-36837180D01*
X76419093Y-36901902D01*
X76355785Y-37110600D01*
X76333388Y-37338000D01*
X61865000Y-37338000D01*
X61865000Y-30369000D01*
X69297559Y-30369000D01*
X69342000Y-30373377D01*
X69386441Y-30369000D01*
X82251559Y-30369000D01*
X82296000Y-30373377D01*
X82340441Y-30369000D01*
X82340452Y-30369000D01*
X82473411Y-30355905D01*
X82644004Y-30304156D01*
X82801223Y-30220120D01*
X82939027Y-30107027D01*
X82967365Y-30072497D01*
X84090109Y-28949753D01*
X84176816Y-28967000D01*
X84479184Y-28967000D01*
X84775743Y-28908011D01*
X85055095Y-28792299D01*
X85306505Y-28624312D01*
X85520312Y-28410505D01*
X85688299Y-28159095D01*
X85804011Y-27879743D01*
X85863000Y-27583184D01*
X85863000Y-27280816D01*
X85804011Y-26984257D01*
X85688299Y-26704905D01*
X85520312Y-26453495D01*
X85306505Y-26239688D01*
X85055095Y-26071701D01*
X84775743Y-25955989D01*
X84479184Y-25897000D01*
X84176816Y-25897000D01*
X83880257Y-25955989D01*
X83600905Y-26071701D01*
X83349495Y-26239688D01*
X83283056Y-26306127D01*
X83277502Y-26287820D01*
X83218537Y-26177506D01*
X83139185Y-26080815D01*
X83042494Y-26001463D01*
X82932180Y-25942498D01*
X82812482Y-25906188D01*
X82688000Y-25893928D01*
X80888000Y-25893928D01*
X80763518Y-25906188D01*
X80643820Y-25942498D01*
X80533506Y-26001463D01*
X80436815Y-26080815D01*
X80357463Y-26177506D01*
X80298498Y-26287820D01*
X80262188Y-26407518D01*
X80249928Y-26532000D01*
X80249928Y-28332000D01*
X80262188Y-28456482D01*
X80293287Y-28559000D01*
X72417817Y-28559000D01*
X72566312Y-28410505D01*
X72734299Y-28159095D01*
X72850011Y-27879743D01*
X72909000Y-27583184D01*
X72909000Y-27280816D01*
X72850011Y-26984257D01*
X72734299Y-26704905D01*
X72566312Y-26453495D01*
X72352505Y-26239688D01*
X72101095Y-26071701D01*
X71821743Y-25955989D01*
X71525184Y-25897000D01*
X71222816Y-25897000D01*
X70926257Y-25955989D01*
X70646905Y-26071701D01*
X70395495Y-26239688D01*
X70329056Y-26306127D01*
X70323502Y-26287820D01*
X70264537Y-26177506D01*
X70185185Y-26080815D01*
X70088494Y-26001463D01*
X69978180Y-25942498D01*
X69858482Y-25906188D01*
X69734000Y-25893928D01*
X67934000Y-25893928D01*
X67809518Y-25906188D01*
X67689820Y-25942498D01*
X67579506Y-26001463D01*
X67482815Y-26080815D01*
X67403463Y-26177506D01*
X67344498Y-26287820D01*
X67308188Y-26407518D01*
X67295928Y-26532000D01*
X67295928Y-28332000D01*
X67308188Y-28456482D01*
X67339287Y-28559000D01*
X61334863Y-28559000D01*
X60445753Y-27669891D01*
X60463000Y-27583184D01*
X60463000Y-27280816D01*
X60404011Y-26984257D01*
X60288299Y-26704905D01*
X60120312Y-26453495D01*
X59906505Y-26239688D01*
X59655095Y-26071701D01*
X59375743Y-25955989D01*
X59079184Y-25897000D01*
X58776816Y-25897000D01*
X58480257Y-25955989D01*
X58200905Y-26071701D01*
X57949495Y-26239688D01*
X57883056Y-26306127D01*
X57877502Y-26287820D01*
X57818537Y-26177506D01*
X57739185Y-26080815D01*
X57642494Y-26001463D01*
X57532180Y-25942498D01*
X57412482Y-25906188D01*
X57288000Y-25893928D01*
X55488000Y-25893928D01*
X55363518Y-25906188D01*
X55243820Y-25942498D01*
X55133506Y-26001463D01*
X55036815Y-26080815D01*
X54957463Y-26177506D01*
X54898498Y-26287820D01*
X54862188Y-26407518D01*
X54849928Y-26532000D01*
X54849928Y-28332000D01*
X54862188Y-28456482D01*
X54898498Y-28576180D01*
X54957463Y-28686494D01*
X55036815Y-28783185D01*
X55133506Y-28862537D01*
X55243820Y-28921502D01*
X55363518Y-28957812D01*
X55488000Y-28970072D01*
X57288000Y-28970072D01*
X57412482Y-28957812D01*
X57532180Y-28921502D01*
X57642494Y-28862537D01*
X57739185Y-28783185D01*
X57818537Y-28686494D01*
X57877502Y-28576180D01*
X57883056Y-28557873D01*
X57949495Y-28624312D01*
X58200905Y-28792299D01*
X58480257Y-28908011D01*
X58776816Y-28967000D01*
X59079184Y-28967000D01*
X59165891Y-28949753D01*
X60055001Y-29838864D01*
X60055000Y-46615137D01*
X59315138Y-47355000D01*
X58966293Y-47355000D01*
X58938475Y-47313368D01*
X58731632Y-47106525D01*
X58557240Y-46990000D01*
X58731632Y-46873475D01*
X58938475Y-46666632D01*
X59100990Y-46423411D01*
X59212932Y-46153158D01*
X59270000Y-45866260D01*
X59270000Y-45573740D01*
X59212932Y-45286842D01*
X59100990Y-45016589D01*
X58938475Y-44773368D01*
X58731632Y-44566525D01*
X58549466Y-44444805D01*
X58666355Y-44375178D01*
X58882588Y-44180269D01*
X59056641Y-43946920D01*
X59181825Y-43684099D01*
X59226476Y-43536890D01*
X59105155Y-43307000D01*
X57912000Y-43307000D01*
X57912000Y-43327000D01*
X57658000Y-43327000D01*
X57658000Y-43307000D01*
X57638000Y-43307000D01*
X57638000Y-43053000D01*
X57658000Y-43053000D01*
X57658000Y-41859186D01*
X57912000Y-41859186D01*
X57912000Y-43053000D01*
X59105155Y-43053000D01*
X59226476Y-42823110D01*
X59181825Y-42675901D01*
X59056641Y-42413080D01*
X58882588Y-42179731D01*
X58666355Y-41984822D01*
X58416252Y-41835843D01*
X58141891Y-41738519D01*
X57912000Y-41859186D01*
X57658000Y-41859186D01*
X57428109Y-41738519D01*
X57153748Y-41835843D01*
X56903645Y-41984822D01*
X56687412Y-42179731D01*
X56516100Y-42409406D01*
X56398475Y-42233368D01*
X56191632Y-42026525D01*
X55948411Y-41864010D01*
X55678158Y-41752068D01*
X55391260Y-41695000D01*
X55098740Y-41695000D01*
X54811842Y-41752068D01*
X54541589Y-41864010D01*
X54298368Y-42026525D01*
X54091525Y-42233368D01*
X53929010Y-42476589D01*
X53817068Y-42746842D01*
X53760000Y-43033740D01*
X53760000Y-43326260D01*
X53817068Y-43613158D01*
X53929010Y-43883411D01*
X54091525Y-44126632D01*
X54298368Y-44333475D01*
X54472760Y-44450000D01*
X54298368Y-44566525D01*
X54091525Y-44773368D01*
X53929010Y-45016589D01*
X53817068Y-45286842D01*
X53760000Y-45573740D01*
X53760000Y-45866260D01*
X53817068Y-46153158D01*
X53929010Y-46423411D01*
X54091525Y-46666632D01*
X54223380Y-46798487D01*
X54150820Y-46820498D01*
X54040506Y-46879463D01*
X53943815Y-46958815D01*
X53864463Y-47055506D01*
X53805498Y-47165820D01*
X53769188Y-47285518D01*
X53756928Y-47410000D01*
X52095000Y-47410000D01*
X52095000Y-36609872D01*
X54915000Y-36609872D01*
X54915000Y-37050128D01*
X55000890Y-37481925D01*
X55169369Y-37888669D01*
X55413962Y-38254729D01*
X55725271Y-38566038D01*
X56091331Y-38810631D01*
X56498075Y-38979110D01*
X56929872Y-39065000D01*
X57370128Y-39065000D01*
X57801925Y-38979110D01*
X58208669Y-38810631D01*
X58574729Y-38566038D01*
X58886038Y-38254729D01*
X59130631Y-37888669D01*
X59299110Y-37481925D01*
X59385000Y-37050128D01*
X59385000Y-36609872D01*
X59299110Y-36178075D01*
X59130631Y-35771331D01*
X58886038Y-35405271D01*
X58574729Y-35093962D01*
X58208669Y-34849369D01*
X57801925Y-34680890D01*
X57370128Y-34595000D01*
X56929872Y-34595000D01*
X56498075Y-34680890D01*
X56091331Y-34849369D01*
X55725271Y-35093962D01*
X55413962Y-35405271D01*
X55169369Y-35771331D01*
X55000890Y-36178075D01*
X54915000Y-36609872D01*
X52095000Y-36609872D01*
X52095000Y-22250000D01*
X88875001Y-22250000D01*
X88875000Y-79350000D01*
G37*
X88875000Y-79350000D02*
X52095000Y-79350000D01*
X52095000Y-76874000D01*
X65059928Y-76874000D01*
X65059928Y-78574000D01*
X65072188Y-78698482D01*
X65108498Y-78818180D01*
X65167463Y-78928494D01*
X65246815Y-79025185D01*
X65343506Y-79104537D01*
X65453820Y-79163502D01*
X65573518Y-79199812D01*
X65698000Y-79212072D01*
X67398000Y-79212072D01*
X67522482Y-79199812D01*
X67642180Y-79163502D01*
X67752494Y-79104537D01*
X67849185Y-79025185D01*
X67928537Y-78928494D01*
X67987502Y-78818180D01*
X68009513Y-78745620D01*
X68141368Y-78877475D01*
X68384589Y-79039990D01*
X68654842Y-79151932D01*
X68941740Y-79209000D01*
X69234260Y-79209000D01*
X69521158Y-79151932D01*
X69791411Y-79039990D01*
X70034632Y-78877475D01*
X70241475Y-78670632D01*
X70403990Y-78427411D01*
X70515932Y-78157158D01*
X70573000Y-77870260D01*
X70573000Y-77577740D01*
X70515932Y-77290842D01*
X70403990Y-77020589D01*
X70241475Y-76777368D01*
X70034632Y-76570525D01*
X69791411Y-76408010D01*
X69521158Y-76296068D01*
X69234260Y-76239000D01*
X68941740Y-76239000D01*
X68654842Y-76296068D01*
X68384589Y-76408010D01*
X68141368Y-76570525D01*
X68009513Y-76702380D01*
X67987502Y-76629820D01*
X67928537Y-76519506D01*
X67849185Y-76422815D01*
X67752494Y-76343463D01*
X67642180Y-76284498D01*
X67522482Y-76248188D01*
X67398000Y-76235928D01*
X65698000Y-76235928D01*
X65573518Y-76248188D01*
X65453820Y-76284498D01*
X65343506Y-76343463D01*
X65246815Y-76422815D01*
X65167463Y-76519506D01*
X65108498Y-76629820D01*
X65072188Y-76749518D01*
X65059928Y-76874000D01*
X52095000Y-76874000D01*
X52095000Y-70809512D01*
X53519283Y-70809512D01*
X53560713Y-71089130D01*
X53655897Y-71355292D01*
X53722829Y-71480514D01*
X53966798Y-71552097D01*
X54779895Y-70739000D01*
X53966798Y-69925903D01*
X53722829Y-69997486D01*
X53601929Y-70252996D01*
X53533200Y-70527184D01*
X53519283Y-70809512D01*
X52095000Y-70809512D01*
X52095000Y-47410000D01*
X53756928Y-47410000D01*
X53756928Y-49110000D01*
X53769188Y-49234482D01*
X53805498Y-49354180D01*
X53864463Y-49464494D01*
X53943815Y-49561185D01*
X54040506Y-49640537D01*
X54150820Y-49699502D01*
X54270518Y-49735812D01*
X54395000Y-49748072D01*
X56095000Y-49748072D01*
X56219482Y-49735812D01*
X56339180Y-49699502D01*
X56449494Y-49640537D01*
X56546185Y-49561185D01*
X56625537Y-49464494D01*
X56684502Y-49354180D01*
X56706513Y-49281620D01*
X56838368Y-49413475D01*
X56880000Y-49441293D01*
X56880000Y-49790137D01*
X56350998Y-50319139D01*
X56316474Y-50347473D01*
X56288140Y-50381998D01*
X56288137Y-50382001D01*
X56203380Y-50485277D01*
X56144815Y-50594845D01*
X56119345Y-50642496D01*
X56074002Y-50791973D01*
X56067596Y-50813090D01*
X56050123Y-50990500D01*
X56054501Y-51034951D01*
X56054500Y-63646048D01*
X56054500Y-63646059D01*
X56050123Y-63690500D01*
X56054500Y-63734941D01*
X56054500Y-63988951D01*
X56054501Y-63988961D01*
X56054500Y-69311269D01*
X56035018Y-69313188D01*
X55915320Y-69349498D01*
X55805006Y-69408463D01*
X55708315Y-69487815D01*
X55697693Y-69500758D01*
X55445504Y-69381429D01*
X55171316Y-69312700D01*
X54888988Y-69298783D01*
X54609370Y-69340213D01*
X54343208Y-69435397D01*
X54217986Y-69502329D01*
X54146403Y-69746298D01*
X54959500Y-70559395D01*
X54973643Y-70545253D01*
X55153248Y-70724858D01*
X55139105Y-70739000D01*
X55153248Y-70753143D01*
X54973643Y-70932748D01*
X54959500Y-70918605D01*
X54146403Y-71731702D01*
X54217986Y-71975671D01*
X54473496Y-72096571D01*
X54747684Y-72165300D01*
X55030012Y-72179217D01*
X55309630Y-72137787D01*
X55575792Y-72042603D01*
X55697809Y-71977384D01*
X55708315Y-71990185D01*
X55805006Y-72069537D01*
X55915320Y-72128502D01*
X56035018Y-72164812D01*
X56159500Y-72177072D01*
X57759500Y-72177072D01*
X57883982Y-72164812D01*
X58003680Y-72128502D01*
X58113994Y-72069537D01*
X58210685Y-71990185D01*
X58290037Y-71893494D01*
X58349002Y-71783180D01*
X58385312Y-71663482D01*
X58397572Y-71539000D01*
X58397572Y-70899872D01*
X67869000Y-70899872D01*
X67869000Y-71340128D01*
X67954890Y-71771925D01*
X68123369Y-72178669D01*
X68367962Y-72544729D01*
X68679271Y-72856038D01*
X69045331Y-73100631D01*
X69452075Y-73269110D01*
X69883872Y-73355000D01*
X70324128Y-73355000D01*
X70755925Y-73269110D01*
X71162669Y-73100631D01*
X71528729Y-72856038D01*
X71840038Y-72544729D01*
X72084631Y-72178669D01*
X72253110Y-71771925D01*
X72339000Y-71340128D01*
X72339000Y-70899872D01*
X72253110Y-70468075D01*
X72084631Y-70061331D01*
X71840038Y-69695271D01*
X71528729Y-69383962D01*
X71162669Y-69139369D01*
X70755925Y-68970890D01*
X70324128Y-68885000D01*
X69883872Y-68885000D01*
X69452075Y-68970890D01*
X69045331Y-69139369D01*
X68679271Y-69383962D01*
X68367962Y-69695271D01*
X68123369Y-70061331D01*
X67954890Y-70468075D01*
X67869000Y-70899872D01*
X58397572Y-70899872D01*
X58397572Y-69939000D01*
X58385312Y-69814518D01*
X58349002Y-69694820D01*
X58290037Y-69584506D01*
X58210685Y-69487815D01*
X58113994Y-69408463D01*
X58003680Y-69349498D01*
X57883982Y-69313188D01*
X57864500Y-69311269D01*
X57864500Y-64065362D01*
X58794864Y-63135000D01*
X73615548Y-63135000D01*
X73660000Y-63139378D01*
X73704451Y-63135000D01*
X78695559Y-63135000D01*
X78740000Y-63139377D01*
X78784441Y-63135000D01*
X78784452Y-63135000D01*
X78917411Y-63121905D01*
X79088004Y-63070156D01*
X79245223Y-62986120D01*
X79274599Y-62962011D01*
X79297165Y-62966500D01*
X79579835Y-62966500D01*
X79857074Y-62911353D01*
X80118227Y-62803180D01*
X80353259Y-62646137D01*
X80475194Y-62524202D01*
X83625403Y-62524202D01*
X83696986Y-62768171D01*
X83952496Y-62889071D01*
X84226684Y-62957800D01*
X84509012Y-62971717D01*
X84788630Y-62930287D01*
X85054792Y-62835103D01*
X85180014Y-62768171D01*
X85251597Y-62524202D01*
X84438500Y-61711105D01*
X83625403Y-62524202D01*
X80475194Y-62524202D01*
X80553137Y-62446259D01*
X80710180Y-62211227D01*
X80818353Y-61950074D01*
X80873500Y-61672835D01*
X80873500Y-61602012D01*
X82998283Y-61602012D01*
X83039713Y-61881630D01*
X83134897Y-62147792D01*
X83201829Y-62273014D01*
X83445798Y-62344597D01*
X84258895Y-61531500D01*
X84618105Y-61531500D01*
X85431202Y-62344597D01*
X85675171Y-62273014D01*
X85796071Y-62017504D01*
X85864800Y-61743316D01*
X85878717Y-61460988D01*
X85837287Y-61181370D01*
X85742103Y-60915208D01*
X85675171Y-60789986D01*
X85431202Y-60718403D01*
X84618105Y-61531500D01*
X84258895Y-61531500D01*
X83445798Y-60718403D01*
X83201829Y-60789986D01*
X83080929Y-61045496D01*
X83012200Y-61319684D01*
X82998283Y-61602012D01*
X80873500Y-61602012D01*
X80873500Y-61390165D01*
X80818353Y-61112926D01*
X80710180Y-60851773D01*
X80553137Y-60616741D01*
X80475194Y-60538798D01*
X83625403Y-60538798D01*
X84438500Y-61351895D01*
X85251597Y-60538798D01*
X85180014Y-60294829D01*
X84924504Y-60173929D01*
X84650316Y-60105200D01*
X84367988Y-60091283D01*
X84088370Y-60132713D01*
X83822208Y-60227897D01*
X83696986Y-60294829D01*
X83625403Y-60538798D01*
X80475194Y-60538798D01*
X80353259Y-60416863D01*
X80118227Y-60259820D01*
X79857074Y-60151647D01*
X79579835Y-60096500D01*
X79297165Y-60096500D01*
X79019926Y-60151647D01*
X78758773Y-60259820D01*
X78523741Y-60416863D01*
X78323863Y-60616741D01*
X78166820Y-60851773D01*
X78058647Y-61112926D01*
X78016462Y-61325000D01*
X74565000Y-61325000D01*
X74565000Y-52114442D01*
X74569377Y-52070000D01*
X74565000Y-52025558D01*
X74565000Y-52025548D01*
X74551905Y-51892589D01*
X74500156Y-51721996D01*
X74437052Y-51603937D01*
X74416120Y-51564776D01*
X74331364Y-51461500D01*
X74331356Y-51461492D01*
X74303027Y-51426973D01*
X74268507Y-51398643D01*
X74202332Y-51332469D01*
X78038802Y-47496000D01*
X79310289Y-47496000D01*
X79269563Y-47536726D01*
X79156295Y-47706244D01*
X79078274Y-47894602D01*
X79038500Y-48094561D01*
X79038500Y-48192053D01*
X76957554Y-50273000D01*
X76860061Y-50273000D01*
X76660102Y-50312774D01*
X76471744Y-50390795D01*
X76302226Y-50504063D01*
X76158063Y-50648226D01*
X76044795Y-50817744D01*
X75966774Y-51006102D01*
X75927000Y-51206061D01*
X75927000Y-51409939D01*
X75966774Y-51609898D01*
X76044795Y-51798256D01*
X76158063Y-51967774D01*
X76302226Y-52111937D01*
X76471744Y-52225205D01*
X76660102Y-52303226D01*
X76860061Y-52343000D01*
X77063939Y-52343000D01*
X77263898Y-52303226D01*
X77452256Y-52225205D01*
X77621774Y-52111937D01*
X77765937Y-51967774D01*
X77879205Y-51798256D01*
X77957226Y-51609898D01*
X77997000Y-51409939D01*
X77997000Y-51312446D01*
X80077947Y-49231500D01*
X80175439Y-49231500D01*
X80375398Y-49191726D01*
X80563756Y-49113705D01*
X80733274Y-49000437D01*
X80877437Y-48856274D01*
X80990705Y-48686756D01*
X81068726Y-48498398D01*
X81108500Y-48298439D01*
X81108500Y-48094561D01*
X81068726Y-47894602D01*
X80990705Y-47706244D01*
X80877437Y-47536726D01*
X80836711Y-47496000D01*
X80965199Y-47496000D01*
X82276701Y-48807503D01*
X82300499Y-48836501D01*
X82416224Y-48931474D01*
X82548253Y-49002046D01*
X82691514Y-49045503D01*
X82803167Y-49056500D01*
X82803176Y-49056500D01*
X82840499Y-49060176D01*
X82877822Y-49056500D01*
X84095789Y-49056500D01*
X84139726Y-49100437D01*
X84309244Y-49213705D01*
X84497602Y-49291726D01*
X84697561Y-49331500D01*
X84901439Y-49331500D01*
X85101398Y-49291726D01*
X85289756Y-49213705D01*
X85459274Y-49100437D01*
X85603437Y-48956274D01*
X85716705Y-48786756D01*
X85794726Y-48598398D01*
X85834500Y-48398439D01*
X85834500Y-48194561D01*
X85794726Y-47994602D01*
X85716705Y-47806244D01*
X85603437Y-47636726D01*
X85459274Y-47492563D01*
X85289756Y-47379295D01*
X85101398Y-47301274D01*
X84901439Y-47261500D01*
X84697561Y-47261500D01*
X84497602Y-47301274D01*
X84309244Y-47379295D01*
X84139726Y-47492563D01*
X84095789Y-47536500D01*
X83155302Y-47536500D01*
X81843804Y-46225003D01*
X81820001Y-46195999D01*
X81704276Y-46101026D01*
X81572247Y-46030454D01*
X81428986Y-45986997D01*
X81317333Y-45976000D01*
X81317322Y-45976000D01*
X81280000Y-45972324D01*
X81242678Y-45976000D01*
X77761333Y-45976000D01*
X77724000Y-45972323D01*
X77686667Y-45976000D01*
X77575014Y-45986997D01*
X77431753Y-46030454D01*
X77299724Y-46101026D01*
X77183999Y-46195999D01*
X77160201Y-46224997D01*
X72985199Y-50400000D01*
X72923061Y-50400000D01*
X72723102Y-50439774D01*
X72534744Y-50517795D01*
X72365226Y-50631063D01*
X72221063Y-50775226D01*
X72107795Y-50944744D01*
X72029774Y-51133102D01*
X71990000Y-51333061D01*
X71990000Y-51536939D01*
X72029774Y-51736898D01*
X72107795Y-51925256D01*
X72221063Y-52094774D01*
X72365226Y-52238937D01*
X72534744Y-52352205D01*
X72723102Y-52430226D01*
X72744649Y-52434512D01*
X72755001Y-52444864D01*
X72755000Y-61325000D01*
X65485088Y-61325000D01*
X65511226Y-61261898D01*
X65551000Y-61061939D01*
X65551000Y-60858061D01*
X65511226Y-60658102D01*
X65433205Y-60469744D01*
X65319937Y-60300226D01*
X65175774Y-60156063D01*
X65006256Y-60042795D01*
X64817898Y-59964774D01*
X64617939Y-59925000D01*
X64414061Y-59925000D01*
X64214102Y-59964774D01*
X64025744Y-60042795D01*
X63856226Y-60156063D01*
X63812289Y-60200000D01*
X58869711Y-60200000D01*
X58825774Y-60156063D01*
X58656256Y-60042795D01*
X58467898Y-59964774D01*
X58267939Y-59925000D01*
X58064061Y-59925000D01*
X57864500Y-59964695D01*
X57864500Y-51365362D01*
X58393503Y-50836360D01*
X58428027Y-50808027D01*
X58464457Y-50763637D01*
X58518274Y-50698061D01*
X59290000Y-50698061D01*
X59290000Y-50901939D01*
X59329774Y-51101898D01*
X59407795Y-51290256D01*
X59521063Y-51459774D01*
X59565000Y-51503711D01*
X59565001Y-52636288D01*
X59521063Y-52680226D01*
X59407795Y-52849744D01*
X59329774Y-53038102D01*
X59290000Y-53238061D01*
X59290000Y-53441939D01*
X59329774Y-53641898D01*
X59407795Y-53830256D01*
X59521063Y-53999774D01*
X59665226Y-54143937D01*
X59834744Y-54257205D01*
X60023102Y-54335226D01*
X60223061Y-54375000D01*
X60426939Y-54375000D01*
X60626898Y-54335226D01*
X60815256Y-54257205D01*
X60984774Y-54143937D01*
X61128937Y-53999774D01*
X61242205Y-53830256D01*
X61320226Y-53641898D01*
X61360000Y-53441939D01*
X61360000Y-53238061D01*
X61320226Y-53038102D01*
X61242205Y-52849744D01*
X61128937Y-52680226D01*
X61085000Y-52636289D01*
X61085000Y-51503711D01*
X61128937Y-51459774D01*
X61242205Y-51290256D01*
X61320226Y-51101898D01*
X61360000Y-50901939D01*
X61360000Y-50698061D01*
X61320226Y-50498102D01*
X61242205Y-50309744D01*
X61128937Y-50140226D01*
X60984774Y-49996063D01*
X60815256Y-49882795D01*
X60626898Y-49804774D01*
X60426939Y-49765000D01*
X60223061Y-49765000D01*
X60023102Y-49804774D01*
X59834744Y-49882795D01*
X59665226Y-49996063D01*
X59521063Y-50140226D01*
X59407795Y-50309744D01*
X59329774Y-50498102D01*
X59290000Y-50698061D01*
X58518274Y-50698061D01*
X58541120Y-50670224D01*
X58625155Y-50513005D01*
X58625156Y-50513004D01*
X58676905Y-50342411D01*
X58690000Y-50209452D01*
X58690000Y-50209440D01*
X58694377Y-50165001D01*
X58690000Y-50120562D01*
X58690000Y-49441293D01*
X58709802Y-49428061D01*
X63100000Y-49428061D01*
X63100000Y-49631939D01*
X63139774Y-49831898D01*
X63217795Y-50020256D01*
X63331063Y-50189774D01*
X63475226Y-50333937D01*
X63644744Y-50447205D01*
X63833102Y-50525226D01*
X64033061Y-50565000D01*
X64236939Y-50565000D01*
X64436898Y-50525226D01*
X64625256Y-50447205D01*
X64794774Y-50333937D01*
X64838711Y-50290000D01*
X66606289Y-50290000D01*
X66650226Y-50333937D01*
X66819744Y-50447205D01*
X67008102Y-50525226D01*
X67208061Y-50565000D01*
X67411939Y-50565000D01*
X67611898Y-50525226D01*
X67800256Y-50447205D01*
X67969774Y-50333937D01*
X68113937Y-50189774D01*
X68227205Y-50020256D01*
X68305226Y-49831898D01*
X68345000Y-49631939D01*
X68345000Y-49428061D01*
X68305226Y-49228102D01*
X68227205Y-49039744D01*
X68113937Y-48870226D01*
X67969774Y-48726063D01*
X67800256Y-48612795D01*
X67611898Y-48534774D01*
X67411939Y-48495000D01*
X67208061Y-48495000D01*
X67008102Y-48534774D01*
X66819744Y-48612795D01*
X66650226Y-48726063D01*
X66606289Y-48770000D01*
X64838711Y-48770000D01*
X64794774Y-48726063D01*
X64625256Y-48612795D01*
X64436898Y-48534774D01*
X64236939Y-48495000D01*
X64033061Y-48495000D01*
X63833102Y-48534774D01*
X63644744Y-48612795D01*
X63475226Y-48726063D01*
X63331063Y-48870226D01*
X63217795Y-49039744D01*
X63139774Y-49228102D01*
X63100000Y-49428061D01*
X58709802Y-49428061D01*
X58731632Y-49413475D01*
X58938475Y-49206632D01*
X58966293Y-49165000D01*
X59645559Y-49165000D01*
X59690000Y-49169377D01*
X59734441Y-49165000D01*
X59734452Y-49165000D01*
X59867411Y-49151905D01*
X60038004Y-49100156D01*
X60195223Y-49016120D01*
X60333027Y-48903027D01*
X60361365Y-48868497D01*
X61568503Y-47661360D01*
X61603027Y-47633027D01*
X61631363Y-47598500D01*
X61716120Y-47495224D01*
X61800155Y-47338005D01*
X61800156Y-47338004D01*
X61851905Y-47167411D01*
X61865000Y-47034452D01*
X61865000Y-47034443D01*
X61869377Y-46990001D01*
X61865000Y-46945559D01*
X61865000Y-38913810D01*
X76380036Y-38913810D01*
X76388728Y-38975337D01*
X76481725Y-39184882D01*
X76613816Y-39372258D01*
X76779924Y-39530264D01*
X76973666Y-39652828D01*
X77187596Y-39735239D01*
X77413493Y-39774331D01*
X77597000Y-39614598D01*
X77597000Y-38735000D01*
X77851000Y-38735000D01*
X77851000Y-39614598D01*
X78034507Y-39774331D01*
X78260404Y-39735239D01*
X78474334Y-39652828D01*
X78668076Y-39530264D01*
X78834184Y-39372258D01*
X78966275Y-39184882D01*
X79059272Y-38975337D01*
X79067964Y-38913810D01*
X78942163Y-38735000D01*
X77851000Y-38735000D01*
X77597000Y-38735000D01*
X76505837Y-38735000D01*
X76380036Y-38913810D01*
X61865000Y-38913810D01*
X61865000Y-37338000D01*
X76333388Y-37338000D01*
X76355785Y-37565400D01*
X76422115Y-37784060D01*
X76522929Y-37972669D01*
X76481725Y-38031118D01*
X76388728Y-38240663D01*
X76380036Y-38302190D01*
X76505837Y-38481000D01*
X77270891Y-38481000D01*
X77271600Y-38481215D01*
X77442021Y-38498000D01*
X78005979Y-38498000D01*
X78176400Y-38481215D01*
X78177109Y-38481000D01*
X78942163Y-38481000D01*
X79067964Y-38302190D01*
X79059272Y-38240663D01*
X78966275Y-38031118D01*
X78925071Y-37972669D01*
X79025885Y-37784060D01*
X79092215Y-37565400D01*
X79114612Y-37338000D01*
X79092215Y-37110600D01*
X79028907Y-36901902D01*
X79063502Y-36837180D01*
X79099812Y-36717482D01*
X79110410Y-36609872D01*
X82220000Y-36609872D01*
X82220000Y-37050128D01*
X82305890Y-37481925D01*
X82474369Y-37888669D01*
X82718962Y-38254729D01*
X83030271Y-38566038D01*
X83396331Y-38810631D01*
X83803075Y-38979110D01*
X84234872Y-39065000D01*
X84675128Y-39065000D01*
X85106925Y-38979110D01*
X85513669Y-38810631D01*
X85879729Y-38566038D01*
X86191038Y-38254729D01*
X86435631Y-37888669D01*
X86604110Y-37481925D01*
X86690000Y-37050128D01*
X86690000Y-36609872D01*
X86604110Y-36178075D01*
X86435631Y-35771331D01*
X86191038Y-35405271D01*
X85879729Y-35093962D01*
X85513669Y-34849369D01*
X85106925Y-34680890D01*
X84675128Y-34595000D01*
X84234872Y-34595000D01*
X83803075Y-34680890D01*
X83396331Y-34849369D01*
X83030271Y-35093962D01*
X82718962Y-35405271D01*
X82474369Y-35771331D01*
X82305890Y-36178075D01*
X82220000Y-36609872D01*
X79110410Y-36609872D01*
X79112072Y-36593000D01*
X79112072Y-35543000D01*
X79099812Y-35418518D01*
X79063502Y-35298820D01*
X79004537Y-35188506D01*
X78925185Y-35091815D01*
X78828494Y-35012463D01*
X78718180Y-34953498D01*
X78598482Y-34917188D01*
X78474000Y-34904928D01*
X76974000Y-34904928D01*
X76849518Y-34917188D01*
X76729820Y-34953498D01*
X76619506Y-35012463D01*
X76522815Y-35091815D01*
X76443463Y-35188506D01*
X76384498Y-35298820D01*
X76348188Y-35418518D01*
X76335928Y-35543000D01*
X76335928Y-36593000D01*
X76348188Y-36717482D01*
X76384498Y-36837180D01*
X76419093Y-36901902D01*
X76355785Y-37110600D01*
X76333388Y-37338000D01*
X61865000Y-37338000D01*
X61865000Y-30369000D01*
X69297559Y-30369000D01*
X69342000Y-30373377D01*
X69386441Y-30369000D01*
X82251559Y-30369000D01*
X82296000Y-30373377D01*
X82340441Y-30369000D01*
X82340452Y-30369000D01*
X82473411Y-30355905D01*
X82644004Y-30304156D01*
X82801223Y-30220120D01*
X82939027Y-30107027D01*
X82967365Y-30072497D01*
X84090109Y-28949753D01*
X84176816Y-28967000D01*
X84479184Y-28967000D01*
X84775743Y-28908011D01*
X85055095Y-28792299D01*
X85306505Y-28624312D01*
X85520312Y-28410505D01*
X85688299Y-28159095D01*
X85804011Y-27879743D01*
X85863000Y-27583184D01*
X85863000Y-27280816D01*
X85804011Y-26984257D01*
X85688299Y-26704905D01*
X85520312Y-26453495D01*
X85306505Y-26239688D01*
X85055095Y-26071701D01*
X84775743Y-25955989D01*
X84479184Y-25897000D01*
X84176816Y-25897000D01*
X83880257Y-25955989D01*
X83600905Y-26071701D01*
X83349495Y-26239688D01*
X83283056Y-26306127D01*
X83277502Y-26287820D01*
X83218537Y-26177506D01*
X83139185Y-26080815D01*
X83042494Y-26001463D01*
X82932180Y-25942498D01*
X82812482Y-25906188D01*
X82688000Y-25893928D01*
X80888000Y-25893928D01*
X80763518Y-25906188D01*
X80643820Y-25942498D01*
X80533506Y-26001463D01*
X80436815Y-26080815D01*
X80357463Y-26177506D01*
X80298498Y-26287820D01*
X80262188Y-26407518D01*
X80249928Y-26532000D01*
X80249928Y-28332000D01*
X80262188Y-28456482D01*
X80293287Y-28559000D01*
X72417817Y-28559000D01*
X72566312Y-28410505D01*
X72734299Y-28159095D01*
X72850011Y-27879743D01*
X72909000Y-27583184D01*
X72909000Y-27280816D01*
X72850011Y-26984257D01*
X72734299Y-26704905D01*
X72566312Y-26453495D01*
X72352505Y-26239688D01*
X72101095Y-26071701D01*
X71821743Y-25955989D01*
X71525184Y-25897000D01*
X71222816Y-25897000D01*
X70926257Y-25955989D01*
X70646905Y-26071701D01*
X70395495Y-26239688D01*
X70329056Y-26306127D01*
X70323502Y-26287820D01*
X70264537Y-26177506D01*
X70185185Y-26080815D01*
X70088494Y-26001463D01*
X69978180Y-25942498D01*
X69858482Y-25906188D01*
X69734000Y-25893928D01*
X67934000Y-25893928D01*
X67809518Y-25906188D01*
X67689820Y-25942498D01*
X67579506Y-26001463D01*
X67482815Y-26080815D01*
X67403463Y-26177506D01*
X67344498Y-26287820D01*
X67308188Y-26407518D01*
X67295928Y-26532000D01*
X67295928Y-28332000D01*
X67308188Y-28456482D01*
X67339287Y-28559000D01*
X61334863Y-28559000D01*
X60445753Y-27669891D01*
X60463000Y-27583184D01*
X60463000Y-27280816D01*
X60404011Y-26984257D01*
X60288299Y-26704905D01*
X60120312Y-26453495D01*
X59906505Y-26239688D01*
X59655095Y-26071701D01*
X59375743Y-25955989D01*
X59079184Y-25897000D01*
X58776816Y-25897000D01*
X58480257Y-25955989D01*
X58200905Y-26071701D01*
X57949495Y-26239688D01*
X57883056Y-26306127D01*
X57877502Y-26287820D01*
X57818537Y-26177506D01*
X57739185Y-26080815D01*
X57642494Y-26001463D01*
X57532180Y-25942498D01*
X57412482Y-25906188D01*
X57288000Y-25893928D01*
X55488000Y-25893928D01*
X55363518Y-25906188D01*
X55243820Y-25942498D01*
X55133506Y-26001463D01*
X55036815Y-26080815D01*
X54957463Y-26177506D01*
X54898498Y-26287820D01*
X54862188Y-26407518D01*
X54849928Y-26532000D01*
X54849928Y-28332000D01*
X54862188Y-28456482D01*
X54898498Y-28576180D01*
X54957463Y-28686494D01*
X55036815Y-28783185D01*
X55133506Y-28862537D01*
X55243820Y-28921502D01*
X55363518Y-28957812D01*
X55488000Y-28970072D01*
X57288000Y-28970072D01*
X57412482Y-28957812D01*
X57532180Y-28921502D01*
X57642494Y-28862537D01*
X57739185Y-28783185D01*
X57818537Y-28686494D01*
X57877502Y-28576180D01*
X57883056Y-28557873D01*
X57949495Y-28624312D01*
X58200905Y-28792299D01*
X58480257Y-28908011D01*
X58776816Y-28967000D01*
X59079184Y-28967000D01*
X59165891Y-28949753D01*
X60055001Y-29838864D01*
X60055000Y-46615137D01*
X59315138Y-47355000D01*
X58966293Y-47355000D01*
X58938475Y-47313368D01*
X58731632Y-47106525D01*
X58557240Y-46990000D01*
X58731632Y-46873475D01*
X58938475Y-46666632D01*
X59100990Y-46423411D01*
X59212932Y-46153158D01*
X59270000Y-45866260D01*
X59270000Y-45573740D01*
X59212932Y-45286842D01*
X59100990Y-45016589D01*
X58938475Y-44773368D01*
X58731632Y-44566525D01*
X58549466Y-44444805D01*
X58666355Y-44375178D01*
X58882588Y-44180269D01*
X59056641Y-43946920D01*
X59181825Y-43684099D01*
X59226476Y-43536890D01*
X59105155Y-43307000D01*
X57912000Y-43307000D01*
X57912000Y-43327000D01*
X57658000Y-43327000D01*
X57658000Y-43307000D01*
X57638000Y-43307000D01*
X57638000Y-43053000D01*
X57658000Y-43053000D01*
X57658000Y-41859186D01*
X57912000Y-41859186D01*
X57912000Y-43053000D01*
X59105155Y-43053000D01*
X59226476Y-42823110D01*
X59181825Y-42675901D01*
X59056641Y-42413080D01*
X58882588Y-42179731D01*
X58666355Y-41984822D01*
X58416252Y-41835843D01*
X58141891Y-41738519D01*
X57912000Y-41859186D01*
X57658000Y-41859186D01*
X57428109Y-41738519D01*
X57153748Y-41835843D01*
X56903645Y-41984822D01*
X56687412Y-42179731D01*
X56516100Y-42409406D01*
X56398475Y-42233368D01*
X56191632Y-42026525D01*
X55948411Y-41864010D01*
X55678158Y-41752068D01*
X55391260Y-41695000D01*
X55098740Y-41695000D01*
X54811842Y-41752068D01*
X54541589Y-41864010D01*
X54298368Y-42026525D01*
X54091525Y-42233368D01*
X53929010Y-42476589D01*
X53817068Y-42746842D01*
X53760000Y-43033740D01*
X53760000Y-43326260D01*
X53817068Y-43613158D01*
X53929010Y-43883411D01*
X54091525Y-44126632D01*
X54298368Y-44333475D01*
X54472760Y-44450000D01*
X54298368Y-44566525D01*
X54091525Y-44773368D01*
X53929010Y-45016589D01*
X53817068Y-45286842D01*
X53760000Y-45573740D01*
X53760000Y-45866260D01*
X53817068Y-46153158D01*
X53929010Y-46423411D01*
X54091525Y-46666632D01*
X54223380Y-46798487D01*
X54150820Y-46820498D01*
X54040506Y-46879463D01*
X53943815Y-46958815D01*
X53864463Y-47055506D01*
X53805498Y-47165820D01*
X53769188Y-47285518D01*
X53756928Y-47410000D01*
X52095000Y-47410000D01*
X52095000Y-36609872D01*
X54915000Y-36609872D01*
X54915000Y-37050128D01*
X55000890Y-37481925D01*
X55169369Y-37888669D01*
X55413962Y-38254729D01*
X55725271Y-38566038D01*
X56091331Y-38810631D01*
X56498075Y-38979110D01*
X56929872Y-39065000D01*
X57370128Y-39065000D01*
X57801925Y-38979110D01*
X58208669Y-38810631D01*
X58574729Y-38566038D01*
X58886038Y-38254729D01*
X59130631Y-37888669D01*
X59299110Y-37481925D01*
X59385000Y-37050128D01*
X59385000Y-36609872D01*
X59299110Y-36178075D01*
X59130631Y-35771331D01*
X58886038Y-35405271D01*
X58574729Y-35093962D01*
X58208669Y-34849369D01*
X57801925Y-34680890D01*
X57370128Y-34595000D01*
X56929872Y-34595000D01*
X56498075Y-34680890D01*
X56091331Y-34849369D01*
X55725271Y-35093962D01*
X55413962Y-35405271D01*
X55169369Y-35771331D01*
X55000890Y-36178075D01*
X54915000Y-36609872D01*
X52095000Y-36609872D01*
X52095000Y-22250000D01*
X88875001Y-22250000D01*
X88875000Y-79350000D01*
%TD*%
M02*
