%TF.GenerationSoftware,KiCad,Pcbnew,5.1.6*%
%TF.CreationDate,2020-10-24T08:35:36+02:00*%
%TF.ProjectId,MoCoBiBa_no_charger,4d6f436f-4269-4426-915f-6e6f5f636861,rev?*%
%TF.SameCoordinates,Original*%
%TF.FileFunction,Soldermask,Top*%
%TF.FilePolarity,Negative*%
%FSLAX46Y46*%
G04 Gerber Fmt 4.6, Leading zero omitted, Abs format (unit mm)*
G04 Created by KiCad (PCBNEW 5.1.6) date 2020-10-24 08:35:36*
%MOMM*%
%LPD*%
G01*
G04 APERTURE LIST*
%ADD10O,1.500000X1.500000*%
%ADD11C,1.500000*%
%ADD12C,1.600000*%
%ADD13R,1.600000X2.700000*%
%ADD14R,1.800000X1.800000*%
%ADD15O,1.800000X1.800000*%
%ADD16R,1.440000X0.740000*%
%ADD17R,1.320000X0.750000*%
G04 APERTURE END LIST*
D10*
%TO.C,R2*%
X45720000Y-59944000D03*
D11*
X43180000Y-59944000D03*
%TD*%
%TO.C,R1*%
G36*
G01*
X53185000Y-60227738D02*
X53185000Y-61184262D01*
G75*
G02*
X52913262Y-61456000I-271738J0D01*
G01*
X52206738Y-61456000D01*
G75*
G02*
X51935000Y-61184262I0J271738D01*
G01*
X51935000Y-60227738D01*
G75*
G02*
X52206738Y-59956000I271738J0D01*
G01*
X52913262Y-59956000D01*
G75*
G02*
X53185000Y-60227738I0J-271738D01*
G01*
G37*
G36*
G01*
X55235000Y-60227738D02*
X55235000Y-61184262D01*
G75*
G02*
X54963262Y-61456000I-271738J0D01*
G01*
X54256738Y-61456000D01*
G75*
G02*
X53985000Y-61184262I0J271738D01*
G01*
X53985000Y-60227738D01*
G75*
G02*
X54256738Y-59956000I271738J0D01*
G01*
X54963262Y-59956000D01*
G75*
G02*
X55235000Y-60227738I0J-271738D01*
G01*
G37*
%TD*%
D12*
%TO.C,3V3*%
X55880000Y-38100000D03*
%TD*%
%TO.C,SCL1*%
X46990000Y-41910000D03*
%TD*%
%TO.C,SDA1*%
X46990000Y-38100000D03*
%TD*%
%TO.C,PB1*%
X51562000Y-45974000D03*
%TD*%
%TO.C,PB0*%
X53594000Y-45974000D03*
%TD*%
%TO.C,C1*%
G36*
G01*
X56544738Y-49304000D02*
X57501262Y-49304000D01*
G75*
G02*
X57773000Y-49575738I0J-271738D01*
G01*
X57773000Y-50282262D01*
G75*
G02*
X57501262Y-50554000I-271738J0D01*
G01*
X56544738Y-50554000D01*
G75*
G02*
X56273000Y-50282262I0J271738D01*
G01*
X56273000Y-49575738D01*
G75*
G02*
X56544738Y-49304000I271738J0D01*
G01*
G37*
G36*
G01*
X56544738Y-47254000D02*
X57501262Y-47254000D01*
G75*
G02*
X57773000Y-47525738I0J-271738D01*
G01*
X57773000Y-48232262D01*
G75*
G02*
X57501262Y-48504000I-271738J0D01*
G01*
X56544738Y-48504000D01*
G75*
G02*
X56273000Y-48232262I0J271738D01*
G01*
X56273000Y-47525738D01*
G75*
G02*
X56544738Y-47254000I271738J0D01*
G01*
G37*
%TD*%
%TO.C,C5*%
G36*
G01*
X59115800Y-37460662D02*
X59115800Y-36504138D01*
G75*
G02*
X59387538Y-36232400I271738J0D01*
G01*
X60094062Y-36232400D01*
G75*
G02*
X60365800Y-36504138I0J-271738D01*
G01*
X60365800Y-37460662D01*
G75*
G02*
X60094062Y-37732400I-271738J0D01*
G01*
X59387538Y-37732400D01*
G75*
G02*
X59115800Y-37460662I0J271738D01*
G01*
G37*
G36*
G01*
X57065800Y-37460662D02*
X57065800Y-36504138D01*
G75*
G02*
X57337538Y-36232400I271738J0D01*
G01*
X58044062Y-36232400D01*
G75*
G02*
X58315800Y-36504138I0J-271738D01*
G01*
X58315800Y-37460662D01*
G75*
G02*
X58044062Y-37732400I-271738J0D01*
G01*
X57337538Y-37732400D01*
G75*
G02*
X57065800Y-37460662I0J271738D01*
G01*
G37*
%TD*%
%TO.C,C3*%
G36*
G01*
X35969000Y-48484262D02*
X35969000Y-47527738D01*
G75*
G02*
X36240738Y-47256000I271738J0D01*
G01*
X36947262Y-47256000D01*
G75*
G02*
X37219000Y-47527738I0J-271738D01*
G01*
X37219000Y-48484262D01*
G75*
G02*
X36947262Y-48756000I-271738J0D01*
G01*
X36240738Y-48756000D01*
G75*
G02*
X35969000Y-48484262I0J271738D01*
G01*
G37*
G36*
G01*
X33919000Y-48484262D02*
X33919000Y-47527738D01*
G75*
G02*
X34190738Y-47256000I271738J0D01*
G01*
X34897262Y-47256000D01*
G75*
G02*
X35169000Y-47527738I0J-271738D01*
G01*
X35169000Y-48484262D01*
G75*
G02*
X34897262Y-48756000I-271738J0D01*
G01*
X34190738Y-48756000D01*
G75*
G02*
X33919000Y-48484262I0J271738D01*
G01*
G37*
%TD*%
%TO.C,R12*%
G36*
G01*
X49139000Y-42701738D02*
X49139000Y-43658262D01*
G75*
G02*
X48867262Y-43930000I-271738J0D01*
G01*
X48160738Y-43930000D01*
G75*
G02*
X47889000Y-43658262I0J271738D01*
G01*
X47889000Y-42701738D01*
G75*
G02*
X48160738Y-42430000I271738J0D01*
G01*
X48867262Y-42430000D01*
G75*
G02*
X49139000Y-42701738I0J-271738D01*
G01*
G37*
G36*
G01*
X51189000Y-42701738D02*
X51189000Y-43658262D01*
G75*
G02*
X50917262Y-43930000I-271738J0D01*
G01*
X50210738Y-43930000D01*
G75*
G02*
X49939000Y-43658262I0J271738D01*
G01*
X49939000Y-42701738D01*
G75*
G02*
X50210738Y-42430000I271738J0D01*
G01*
X50917262Y-42430000D01*
G75*
G02*
X51189000Y-42701738I0J-271738D01*
G01*
G37*
%TD*%
%TO.C,R11*%
G36*
G01*
X49139000Y-39399738D02*
X49139000Y-40356262D01*
G75*
G02*
X48867262Y-40628000I-271738J0D01*
G01*
X48160738Y-40628000D01*
G75*
G02*
X47889000Y-40356262I0J271738D01*
G01*
X47889000Y-39399738D01*
G75*
G02*
X48160738Y-39128000I271738J0D01*
G01*
X48867262Y-39128000D01*
G75*
G02*
X49139000Y-39399738I0J-271738D01*
G01*
G37*
G36*
G01*
X51189000Y-39399738D02*
X51189000Y-40356262D01*
G75*
G02*
X50917262Y-40628000I-271738J0D01*
G01*
X50210738Y-40628000D01*
G75*
G02*
X49939000Y-40356262I0J271738D01*
G01*
X49939000Y-39399738D01*
G75*
G02*
X50210738Y-39128000I271738J0D01*
G01*
X50917262Y-39128000D01*
G75*
G02*
X51189000Y-39399738I0J-271738D01*
G01*
G37*
%TD*%
D13*
%TO.C,D6*%
X61008000Y-63246000D03*
X64008000Y-63246000D03*
%TD*%
%TO.C,D5*%
X47522000Y-63246000D03*
X50522000Y-63246000D03*
%TD*%
%TO.C,D1*%
X34084000Y-34036000D03*
X37084000Y-34036000D03*
%TD*%
%TO.C,C4*%
G36*
G01*
X41303000Y-49500262D02*
X41303000Y-48543738D01*
G75*
G02*
X41574738Y-48272000I271738J0D01*
G01*
X42281262Y-48272000D01*
G75*
G02*
X42553000Y-48543738I0J-271738D01*
G01*
X42553000Y-49500262D01*
G75*
G02*
X42281262Y-49772000I-271738J0D01*
G01*
X41574738Y-49772000D01*
G75*
G02*
X41303000Y-49500262I0J271738D01*
G01*
G37*
G36*
G01*
X39253000Y-49500262D02*
X39253000Y-48543738D01*
G75*
G02*
X39524738Y-48272000I271738J0D01*
G01*
X40231262Y-48272000D01*
G75*
G02*
X40503000Y-48543738I0J-271738D01*
G01*
X40503000Y-49500262D01*
G75*
G02*
X40231262Y-49772000I-271738J0D01*
G01*
X39524738Y-49772000D01*
G75*
G02*
X39253000Y-49500262I0J271738D01*
G01*
G37*
%TD*%
%TO.C,C6*%
G36*
G01*
X40415738Y-41793000D02*
X41372262Y-41793000D01*
G75*
G02*
X41644000Y-42064738I0J-271738D01*
G01*
X41644000Y-42771262D01*
G75*
G02*
X41372262Y-43043000I-271738J0D01*
G01*
X40415738Y-43043000D01*
G75*
G02*
X40144000Y-42771262I0J271738D01*
G01*
X40144000Y-42064738D01*
G75*
G02*
X40415738Y-41793000I271738J0D01*
G01*
G37*
G36*
G01*
X40415738Y-43843000D02*
X41372262Y-43843000D01*
G75*
G02*
X41644000Y-44114738I0J-271738D01*
G01*
X41644000Y-44821262D01*
G75*
G02*
X41372262Y-45093000I-271738J0D01*
G01*
X40415738Y-45093000D01*
G75*
G02*
X40144000Y-44821262I0J271738D01*
G01*
X40144000Y-44114738D01*
G75*
G02*
X40415738Y-43843000I271738J0D01*
G01*
G37*
%TD*%
%TO.C,D2*%
X50546000Y-34036000D03*
X47546000Y-34036000D03*
%TD*%
%TO.C,D3*%
X61008000Y-34036000D03*
X64008000Y-34036000D03*
%TD*%
%TO.C,D4*%
X37084000Y-63246000D03*
X34084000Y-63246000D03*
%TD*%
D14*
%TO.C,J2*%
X65913000Y-46482000D03*
D15*
X65913000Y-49022000D03*
%TD*%
D14*
%TO.C,J3*%
X36703000Y-53594000D03*
D15*
X34163000Y-53594000D03*
X36703000Y-56134000D03*
X34163000Y-56134000D03*
X36703000Y-58674000D03*
X34163000Y-58674000D03*
%TD*%
%TO.C,L1*%
G36*
G01*
X58187062Y-41435400D02*
X57230538Y-41435400D01*
G75*
G02*
X56958800Y-41163662I0J271738D01*
G01*
X56958800Y-40457138D01*
G75*
G02*
X57230538Y-40185400I271738J0D01*
G01*
X58187062Y-40185400D01*
G75*
G02*
X58458800Y-40457138I0J-271738D01*
G01*
X58458800Y-41163662D01*
G75*
G02*
X58187062Y-41435400I-271738J0D01*
G01*
G37*
G36*
G01*
X58187062Y-39385400D02*
X57230538Y-39385400D01*
G75*
G02*
X56958800Y-39113662I0J271738D01*
G01*
X56958800Y-38407138D01*
G75*
G02*
X57230538Y-38135400I271738J0D01*
G01*
X58187062Y-38135400D01*
G75*
G02*
X58458800Y-38407138I0J-271738D01*
G01*
X58458800Y-39113662D01*
G75*
G02*
X58187062Y-39385400I-271738J0D01*
G01*
G37*
%TD*%
D16*
%TO.C,Q1*%
X60486000Y-54356000D03*
X58386000Y-55306000D03*
X58386000Y-53406000D03*
%TD*%
%TO.C,R4*%
G36*
G01*
X55235000Y-58068738D02*
X55235000Y-59025262D01*
G75*
G02*
X54963262Y-59297000I-271738J0D01*
G01*
X54256738Y-59297000D01*
G75*
G02*
X53985000Y-59025262I0J271738D01*
G01*
X53985000Y-58068738D01*
G75*
G02*
X54256738Y-57797000I271738J0D01*
G01*
X54963262Y-57797000D01*
G75*
G02*
X55235000Y-58068738I0J-271738D01*
G01*
G37*
G36*
G01*
X53185000Y-58068738D02*
X53185000Y-59025262D01*
G75*
G02*
X52913262Y-59297000I-271738J0D01*
G01*
X52206738Y-59297000D01*
G75*
G02*
X51935000Y-59025262I0J271738D01*
G01*
X51935000Y-58068738D01*
G75*
G02*
X52206738Y-57797000I271738J0D01*
G01*
X52913262Y-57797000D01*
G75*
G02*
X53185000Y-58068738I0J-271738D01*
G01*
G37*
%TD*%
%TO.C,R5*%
G36*
G01*
X50663000Y-58068738D02*
X50663000Y-59025262D01*
G75*
G02*
X50391262Y-59297000I-271738J0D01*
G01*
X49684738Y-59297000D01*
G75*
G02*
X49413000Y-59025262I0J271738D01*
G01*
X49413000Y-58068738D01*
G75*
G02*
X49684738Y-57797000I271738J0D01*
G01*
X50391262Y-57797000D01*
G75*
G02*
X50663000Y-58068738I0J-271738D01*
G01*
G37*
G36*
G01*
X48613000Y-58068738D02*
X48613000Y-59025262D01*
G75*
G02*
X48341262Y-59297000I-271738J0D01*
G01*
X47634738Y-59297000D01*
G75*
G02*
X47363000Y-59025262I0J271738D01*
G01*
X47363000Y-58068738D01*
G75*
G02*
X47634738Y-57797000I271738J0D01*
G01*
X48341262Y-57797000D01*
G75*
G02*
X48613000Y-58068738I0J-271738D01*
G01*
G37*
%TD*%
%TO.C,R7*%
G36*
G01*
X59592738Y-47109000D02*
X60549262Y-47109000D01*
G75*
G02*
X60821000Y-47380738I0J-271738D01*
G01*
X60821000Y-48087262D01*
G75*
G02*
X60549262Y-48359000I-271738J0D01*
G01*
X59592738Y-48359000D01*
G75*
G02*
X59321000Y-48087262I0J271738D01*
G01*
X59321000Y-47380738D01*
G75*
G02*
X59592738Y-47109000I271738J0D01*
G01*
G37*
G36*
G01*
X59592738Y-49159000D02*
X60549262Y-49159000D01*
G75*
G02*
X60821000Y-49430738I0J-271738D01*
G01*
X60821000Y-50137262D01*
G75*
G02*
X60549262Y-50409000I-271738J0D01*
G01*
X59592738Y-50409000D01*
G75*
G02*
X59321000Y-50137262I0J271738D01*
G01*
X59321000Y-49430738D01*
G75*
G02*
X59592738Y-49159000I271738J0D01*
G01*
G37*
%TD*%
%TO.C,R8*%
G36*
G01*
X59718000Y-58644262D02*
X59718000Y-57687738D01*
G75*
G02*
X59989738Y-57416000I271738J0D01*
G01*
X60696262Y-57416000D01*
G75*
G02*
X60968000Y-57687738I0J-271738D01*
G01*
X60968000Y-58644262D01*
G75*
G02*
X60696262Y-58916000I-271738J0D01*
G01*
X59989738Y-58916000D01*
G75*
G02*
X59718000Y-58644262I0J271738D01*
G01*
G37*
G36*
G01*
X57668000Y-58644262D02*
X57668000Y-57687738D01*
G75*
G02*
X57939738Y-57416000I271738J0D01*
G01*
X58646262Y-57416000D01*
G75*
G02*
X58918000Y-57687738I0J-271738D01*
G01*
X58918000Y-58644262D01*
G75*
G02*
X58646262Y-58916000I-271738J0D01*
G01*
X57939738Y-58916000D01*
G75*
G02*
X57668000Y-58644262I0J271738D01*
G01*
G37*
%TD*%
%TO.C,R9*%
G36*
G01*
X66807608Y-56106000D02*
X63240392Y-56106000D01*
G75*
G02*
X62974000Y-55839608I0J266392D01*
G01*
X62974000Y-54747392D01*
G75*
G02*
X63240392Y-54481000I266392J0D01*
G01*
X66807608Y-54481000D01*
G75*
G02*
X67074000Y-54747392I0J-266392D01*
G01*
X67074000Y-55839608D01*
G75*
G02*
X66807608Y-56106000I-266392J0D01*
G01*
G37*
G36*
G01*
X66807608Y-54231000D02*
X63240392Y-54231000D01*
G75*
G02*
X62974000Y-53964608I0J266392D01*
G01*
X62974000Y-52872392D01*
G75*
G02*
X63240392Y-52606000I266392J0D01*
G01*
X66807608Y-52606000D01*
G75*
G02*
X67074000Y-52872392I0J-266392D01*
G01*
X67074000Y-53964608D01*
G75*
G02*
X66807608Y-54231000I-266392J0D01*
G01*
G37*
%TD*%
%TO.C,R10*%
G36*
G01*
X64799738Y-42056000D02*
X65756262Y-42056000D01*
G75*
G02*
X66028000Y-42327738I0J-271738D01*
G01*
X66028000Y-43034262D01*
G75*
G02*
X65756262Y-43306000I-271738J0D01*
G01*
X64799738Y-43306000D01*
G75*
G02*
X64528000Y-43034262I0J271738D01*
G01*
X64528000Y-42327738D01*
G75*
G02*
X64799738Y-42056000I271738J0D01*
G01*
G37*
G36*
G01*
X64799738Y-40006000D02*
X65756262Y-40006000D01*
G75*
G02*
X66028000Y-40277738I0J-271738D01*
G01*
X66028000Y-40984262D01*
G75*
G02*
X65756262Y-41256000I-271738J0D01*
G01*
X64799738Y-41256000D01*
G75*
G02*
X64528000Y-40984262I0J271738D01*
G01*
X64528000Y-40277738D01*
G75*
G02*
X64799738Y-40006000I271738J0D01*
G01*
G37*
%TD*%
%TO.C,R13*%
G36*
G01*
X41303000Y-52802262D02*
X41303000Y-51845738D01*
G75*
G02*
X41574738Y-51574000I271738J0D01*
G01*
X42281262Y-51574000D01*
G75*
G02*
X42553000Y-51845738I0J-271738D01*
G01*
X42553000Y-52802262D01*
G75*
G02*
X42281262Y-53074000I-271738J0D01*
G01*
X41574738Y-53074000D01*
G75*
G02*
X41303000Y-52802262I0J271738D01*
G01*
G37*
G36*
G01*
X39253000Y-52802262D02*
X39253000Y-51845738D01*
G75*
G02*
X39524738Y-51574000I271738J0D01*
G01*
X40231262Y-51574000D01*
G75*
G02*
X40503000Y-51845738I0J-271738D01*
G01*
X40503000Y-52802262D01*
G75*
G02*
X40231262Y-53074000I-271738J0D01*
G01*
X39524738Y-53074000D01*
G75*
G02*
X39253000Y-52802262I0J271738D01*
G01*
G37*
%TD*%
%TO.C,U2*%
G36*
G01*
X53419000Y-47489000D02*
X53769000Y-47489000D01*
G75*
G02*
X53944000Y-47664000I0J-175000D01*
G01*
X53944000Y-49364000D01*
G75*
G02*
X53769000Y-49539000I-175000J0D01*
G01*
X53419000Y-49539000D01*
G75*
G02*
X53244000Y-49364000I0J175000D01*
G01*
X53244000Y-47664000D01*
G75*
G02*
X53419000Y-47489000I175000J0D01*
G01*
G37*
G36*
G01*
X52149000Y-47489000D02*
X52499000Y-47489000D01*
G75*
G02*
X52674000Y-47664000I0J-175000D01*
G01*
X52674000Y-49364000D01*
G75*
G02*
X52499000Y-49539000I-175000J0D01*
G01*
X52149000Y-49539000D01*
G75*
G02*
X51974000Y-49364000I0J175000D01*
G01*
X51974000Y-47664000D01*
G75*
G02*
X52149000Y-47489000I175000J0D01*
G01*
G37*
G36*
G01*
X50879000Y-47489000D02*
X51229000Y-47489000D01*
G75*
G02*
X51404000Y-47664000I0J-175000D01*
G01*
X51404000Y-49364000D01*
G75*
G02*
X51229000Y-49539000I-175000J0D01*
G01*
X50879000Y-49539000D01*
G75*
G02*
X50704000Y-49364000I0J175000D01*
G01*
X50704000Y-47664000D01*
G75*
G02*
X50879000Y-47489000I175000J0D01*
G01*
G37*
G36*
G01*
X49609000Y-47489000D02*
X49959000Y-47489000D01*
G75*
G02*
X50134000Y-47664000I0J-175000D01*
G01*
X50134000Y-49364000D01*
G75*
G02*
X49959000Y-49539000I-175000J0D01*
G01*
X49609000Y-49539000D01*
G75*
G02*
X49434000Y-49364000I0J175000D01*
G01*
X49434000Y-47664000D01*
G75*
G02*
X49609000Y-47489000I175000J0D01*
G01*
G37*
G36*
G01*
X48339000Y-47489000D02*
X48689000Y-47489000D01*
G75*
G02*
X48864000Y-47664000I0J-175000D01*
G01*
X48864000Y-49364000D01*
G75*
G02*
X48689000Y-49539000I-175000J0D01*
G01*
X48339000Y-49539000D01*
G75*
G02*
X48164000Y-49364000I0J175000D01*
G01*
X48164000Y-47664000D01*
G75*
G02*
X48339000Y-47489000I175000J0D01*
G01*
G37*
G36*
G01*
X47069000Y-47489000D02*
X47419000Y-47489000D01*
G75*
G02*
X47594000Y-47664000I0J-175000D01*
G01*
X47594000Y-49364000D01*
G75*
G02*
X47419000Y-49539000I-175000J0D01*
G01*
X47069000Y-49539000D01*
G75*
G02*
X46894000Y-49364000I0J175000D01*
G01*
X46894000Y-47664000D01*
G75*
G02*
X47069000Y-47489000I175000J0D01*
G01*
G37*
G36*
G01*
X45799000Y-47489000D02*
X46149000Y-47489000D01*
G75*
G02*
X46324000Y-47664000I0J-175000D01*
G01*
X46324000Y-49364000D01*
G75*
G02*
X46149000Y-49539000I-175000J0D01*
G01*
X45799000Y-49539000D01*
G75*
G02*
X45624000Y-49364000I0J175000D01*
G01*
X45624000Y-47664000D01*
G75*
G02*
X45799000Y-47489000I175000J0D01*
G01*
G37*
G36*
G01*
X45799000Y-52439000D02*
X46149000Y-52439000D01*
G75*
G02*
X46324000Y-52614000I0J-175000D01*
G01*
X46324000Y-54314000D01*
G75*
G02*
X46149000Y-54489000I-175000J0D01*
G01*
X45799000Y-54489000D01*
G75*
G02*
X45624000Y-54314000I0J175000D01*
G01*
X45624000Y-52614000D01*
G75*
G02*
X45799000Y-52439000I175000J0D01*
G01*
G37*
G36*
G01*
X47069000Y-52439000D02*
X47419000Y-52439000D01*
G75*
G02*
X47594000Y-52614000I0J-175000D01*
G01*
X47594000Y-54314000D01*
G75*
G02*
X47419000Y-54489000I-175000J0D01*
G01*
X47069000Y-54489000D01*
G75*
G02*
X46894000Y-54314000I0J175000D01*
G01*
X46894000Y-52614000D01*
G75*
G02*
X47069000Y-52439000I175000J0D01*
G01*
G37*
G36*
G01*
X48339000Y-52439000D02*
X48689000Y-52439000D01*
G75*
G02*
X48864000Y-52614000I0J-175000D01*
G01*
X48864000Y-54314000D01*
G75*
G02*
X48689000Y-54489000I-175000J0D01*
G01*
X48339000Y-54489000D01*
G75*
G02*
X48164000Y-54314000I0J175000D01*
G01*
X48164000Y-52614000D01*
G75*
G02*
X48339000Y-52439000I175000J0D01*
G01*
G37*
G36*
G01*
X49609000Y-52439000D02*
X49959000Y-52439000D01*
G75*
G02*
X50134000Y-52614000I0J-175000D01*
G01*
X50134000Y-54314000D01*
G75*
G02*
X49959000Y-54489000I-175000J0D01*
G01*
X49609000Y-54489000D01*
G75*
G02*
X49434000Y-54314000I0J175000D01*
G01*
X49434000Y-52614000D01*
G75*
G02*
X49609000Y-52439000I175000J0D01*
G01*
G37*
G36*
G01*
X50879000Y-52439000D02*
X51229000Y-52439000D01*
G75*
G02*
X51404000Y-52614000I0J-175000D01*
G01*
X51404000Y-54314000D01*
G75*
G02*
X51229000Y-54489000I-175000J0D01*
G01*
X50879000Y-54489000D01*
G75*
G02*
X50704000Y-54314000I0J175000D01*
G01*
X50704000Y-52614000D01*
G75*
G02*
X50879000Y-52439000I175000J0D01*
G01*
G37*
G36*
G01*
X52149000Y-52439000D02*
X52499000Y-52439000D01*
G75*
G02*
X52674000Y-52614000I0J-175000D01*
G01*
X52674000Y-54314000D01*
G75*
G02*
X52499000Y-54489000I-175000J0D01*
G01*
X52149000Y-54489000D01*
G75*
G02*
X51974000Y-54314000I0J175000D01*
G01*
X51974000Y-52614000D01*
G75*
G02*
X52149000Y-52439000I175000J0D01*
G01*
G37*
G36*
G01*
X53419000Y-52439000D02*
X53769000Y-52439000D01*
G75*
G02*
X53944000Y-52614000I0J-175000D01*
G01*
X53944000Y-54314000D01*
G75*
G02*
X53769000Y-54489000I-175000J0D01*
G01*
X53419000Y-54489000D01*
G75*
G02*
X53244000Y-54314000I0J175000D01*
G01*
X53244000Y-52614000D01*
G75*
G02*
X53419000Y-52439000I175000J0D01*
G01*
G37*
%TD*%
D17*
%TO.C,U4*%
X62524000Y-42606000D03*
X62524000Y-41656000D03*
X62524000Y-40706000D03*
X59904000Y-40706000D03*
X59904000Y-42606000D03*
%TD*%
%TO.C,U5*%
G36*
G01*
X33481000Y-42509000D02*
X33481000Y-42359000D01*
G75*
G02*
X33556000Y-42284000I75000J0D01*
G01*
X34056000Y-42284000D01*
G75*
G02*
X34131000Y-42359000I0J-75000D01*
G01*
X34131000Y-42509000D01*
G75*
G02*
X34056000Y-42584000I-75000J0D01*
G01*
X33556000Y-42584000D01*
G75*
G02*
X33481000Y-42509000I0J75000D01*
G01*
G37*
G36*
G01*
X33481000Y-42909000D02*
X33481000Y-42759000D01*
G75*
G02*
X33556000Y-42684000I75000J0D01*
G01*
X34056000Y-42684000D01*
G75*
G02*
X34131000Y-42759000I0J-75000D01*
G01*
X34131000Y-42909000D01*
G75*
G02*
X34056000Y-42984000I-75000J0D01*
G01*
X33556000Y-42984000D01*
G75*
G02*
X33481000Y-42909000I0J75000D01*
G01*
G37*
G36*
G01*
X33481000Y-43309000D02*
X33481000Y-43159000D01*
G75*
G02*
X33556000Y-43084000I75000J0D01*
G01*
X34056000Y-43084000D01*
G75*
G02*
X34131000Y-43159000I0J-75000D01*
G01*
X34131000Y-43309000D01*
G75*
G02*
X34056000Y-43384000I-75000J0D01*
G01*
X33556000Y-43384000D01*
G75*
G02*
X33481000Y-43309000I0J75000D01*
G01*
G37*
G36*
G01*
X33481000Y-43709000D02*
X33481000Y-43559000D01*
G75*
G02*
X33556000Y-43484000I75000J0D01*
G01*
X34056000Y-43484000D01*
G75*
G02*
X34131000Y-43559000I0J-75000D01*
G01*
X34131000Y-43709000D01*
G75*
G02*
X34056000Y-43784000I-75000J0D01*
G01*
X33556000Y-43784000D01*
G75*
G02*
X33481000Y-43709000I0J75000D01*
G01*
G37*
G36*
G01*
X33481000Y-44109000D02*
X33481000Y-43959000D01*
G75*
G02*
X33556000Y-43884000I75000J0D01*
G01*
X34056000Y-43884000D01*
G75*
G02*
X34131000Y-43959000I0J-75000D01*
G01*
X34131000Y-44109000D01*
G75*
G02*
X34056000Y-44184000I-75000J0D01*
G01*
X33556000Y-44184000D01*
G75*
G02*
X33481000Y-44109000I0J75000D01*
G01*
G37*
G36*
G01*
X33481000Y-44509000D02*
X33481000Y-44359000D01*
G75*
G02*
X33556000Y-44284000I75000J0D01*
G01*
X34056000Y-44284000D01*
G75*
G02*
X34131000Y-44359000I0J-75000D01*
G01*
X34131000Y-44509000D01*
G75*
G02*
X34056000Y-44584000I-75000J0D01*
G01*
X33556000Y-44584000D01*
G75*
G02*
X33481000Y-44509000I0J75000D01*
G01*
G37*
G36*
G01*
X34381000Y-45259000D02*
X34231000Y-45259000D01*
G75*
G02*
X34156000Y-45184000I0J75000D01*
G01*
X34156000Y-44684000D01*
G75*
G02*
X34231000Y-44609000I75000J0D01*
G01*
X34381000Y-44609000D01*
G75*
G02*
X34456000Y-44684000I0J-75000D01*
G01*
X34456000Y-45184000D01*
G75*
G02*
X34381000Y-45259000I-75000J0D01*
G01*
G37*
G36*
G01*
X34781000Y-45259000D02*
X34631000Y-45259000D01*
G75*
G02*
X34556000Y-45184000I0J75000D01*
G01*
X34556000Y-44684000D01*
G75*
G02*
X34631000Y-44609000I75000J0D01*
G01*
X34781000Y-44609000D01*
G75*
G02*
X34856000Y-44684000I0J-75000D01*
G01*
X34856000Y-45184000D01*
G75*
G02*
X34781000Y-45259000I-75000J0D01*
G01*
G37*
G36*
G01*
X35181000Y-45259000D02*
X35031000Y-45259000D01*
G75*
G02*
X34956000Y-45184000I0J75000D01*
G01*
X34956000Y-44684000D01*
G75*
G02*
X35031000Y-44609000I75000J0D01*
G01*
X35181000Y-44609000D01*
G75*
G02*
X35256000Y-44684000I0J-75000D01*
G01*
X35256000Y-45184000D01*
G75*
G02*
X35181000Y-45259000I-75000J0D01*
G01*
G37*
G36*
G01*
X35581000Y-45259000D02*
X35431000Y-45259000D01*
G75*
G02*
X35356000Y-45184000I0J75000D01*
G01*
X35356000Y-44684000D01*
G75*
G02*
X35431000Y-44609000I75000J0D01*
G01*
X35581000Y-44609000D01*
G75*
G02*
X35656000Y-44684000I0J-75000D01*
G01*
X35656000Y-45184000D01*
G75*
G02*
X35581000Y-45259000I-75000J0D01*
G01*
G37*
G36*
G01*
X35981000Y-45259000D02*
X35831000Y-45259000D01*
G75*
G02*
X35756000Y-45184000I0J75000D01*
G01*
X35756000Y-44684000D01*
G75*
G02*
X35831000Y-44609000I75000J0D01*
G01*
X35981000Y-44609000D01*
G75*
G02*
X36056000Y-44684000I0J-75000D01*
G01*
X36056000Y-45184000D01*
G75*
G02*
X35981000Y-45259000I-75000J0D01*
G01*
G37*
G36*
G01*
X36381000Y-45259000D02*
X36231000Y-45259000D01*
G75*
G02*
X36156000Y-45184000I0J75000D01*
G01*
X36156000Y-44684000D01*
G75*
G02*
X36231000Y-44609000I75000J0D01*
G01*
X36381000Y-44609000D01*
G75*
G02*
X36456000Y-44684000I0J-75000D01*
G01*
X36456000Y-45184000D01*
G75*
G02*
X36381000Y-45259000I-75000J0D01*
G01*
G37*
G36*
G01*
X36481000Y-44509000D02*
X36481000Y-44359000D01*
G75*
G02*
X36556000Y-44284000I75000J0D01*
G01*
X37056000Y-44284000D01*
G75*
G02*
X37131000Y-44359000I0J-75000D01*
G01*
X37131000Y-44509000D01*
G75*
G02*
X37056000Y-44584000I-75000J0D01*
G01*
X36556000Y-44584000D01*
G75*
G02*
X36481000Y-44509000I0J75000D01*
G01*
G37*
G36*
G01*
X36481000Y-44109000D02*
X36481000Y-43959000D01*
G75*
G02*
X36556000Y-43884000I75000J0D01*
G01*
X37056000Y-43884000D01*
G75*
G02*
X37131000Y-43959000I0J-75000D01*
G01*
X37131000Y-44109000D01*
G75*
G02*
X37056000Y-44184000I-75000J0D01*
G01*
X36556000Y-44184000D01*
G75*
G02*
X36481000Y-44109000I0J75000D01*
G01*
G37*
G36*
G01*
X36481000Y-43709000D02*
X36481000Y-43559000D01*
G75*
G02*
X36556000Y-43484000I75000J0D01*
G01*
X37056000Y-43484000D01*
G75*
G02*
X37131000Y-43559000I0J-75000D01*
G01*
X37131000Y-43709000D01*
G75*
G02*
X37056000Y-43784000I-75000J0D01*
G01*
X36556000Y-43784000D01*
G75*
G02*
X36481000Y-43709000I0J75000D01*
G01*
G37*
G36*
G01*
X36481000Y-43309000D02*
X36481000Y-43159000D01*
G75*
G02*
X36556000Y-43084000I75000J0D01*
G01*
X37056000Y-43084000D01*
G75*
G02*
X37131000Y-43159000I0J-75000D01*
G01*
X37131000Y-43309000D01*
G75*
G02*
X37056000Y-43384000I-75000J0D01*
G01*
X36556000Y-43384000D01*
G75*
G02*
X36481000Y-43309000I0J75000D01*
G01*
G37*
G36*
G01*
X36481000Y-42909000D02*
X36481000Y-42759000D01*
G75*
G02*
X36556000Y-42684000I75000J0D01*
G01*
X37056000Y-42684000D01*
G75*
G02*
X37131000Y-42759000I0J-75000D01*
G01*
X37131000Y-42909000D01*
G75*
G02*
X37056000Y-42984000I-75000J0D01*
G01*
X36556000Y-42984000D01*
G75*
G02*
X36481000Y-42909000I0J75000D01*
G01*
G37*
G36*
G01*
X36481000Y-42509000D02*
X36481000Y-42359000D01*
G75*
G02*
X36556000Y-42284000I75000J0D01*
G01*
X37056000Y-42284000D01*
G75*
G02*
X37131000Y-42359000I0J-75000D01*
G01*
X37131000Y-42509000D01*
G75*
G02*
X37056000Y-42584000I-75000J0D01*
G01*
X36556000Y-42584000D01*
G75*
G02*
X36481000Y-42509000I0J75000D01*
G01*
G37*
G36*
G01*
X36381000Y-42259000D02*
X36231000Y-42259000D01*
G75*
G02*
X36156000Y-42184000I0J75000D01*
G01*
X36156000Y-41684000D01*
G75*
G02*
X36231000Y-41609000I75000J0D01*
G01*
X36381000Y-41609000D01*
G75*
G02*
X36456000Y-41684000I0J-75000D01*
G01*
X36456000Y-42184000D01*
G75*
G02*
X36381000Y-42259000I-75000J0D01*
G01*
G37*
G36*
G01*
X35981000Y-42259000D02*
X35831000Y-42259000D01*
G75*
G02*
X35756000Y-42184000I0J75000D01*
G01*
X35756000Y-41684000D01*
G75*
G02*
X35831000Y-41609000I75000J0D01*
G01*
X35981000Y-41609000D01*
G75*
G02*
X36056000Y-41684000I0J-75000D01*
G01*
X36056000Y-42184000D01*
G75*
G02*
X35981000Y-42259000I-75000J0D01*
G01*
G37*
G36*
G01*
X35581000Y-42259000D02*
X35431000Y-42259000D01*
G75*
G02*
X35356000Y-42184000I0J75000D01*
G01*
X35356000Y-41684000D01*
G75*
G02*
X35431000Y-41609000I75000J0D01*
G01*
X35581000Y-41609000D01*
G75*
G02*
X35656000Y-41684000I0J-75000D01*
G01*
X35656000Y-42184000D01*
G75*
G02*
X35581000Y-42259000I-75000J0D01*
G01*
G37*
G36*
G01*
X35181000Y-42259000D02*
X35031000Y-42259000D01*
G75*
G02*
X34956000Y-42184000I0J75000D01*
G01*
X34956000Y-41684000D01*
G75*
G02*
X35031000Y-41609000I75000J0D01*
G01*
X35181000Y-41609000D01*
G75*
G02*
X35256000Y-41684000I0J-75000D01*
G01*
X35256000Y-42184000D01*
G75*
G02*
X35181000Y-42259000I-75000J0D01*
G01*
G37*
G36*
G01*
X34781000Y-42259000D02*
X34631000Y-42259000D01*
G75*
G02*
X34556000Y-42184000I0J75000D01*
G01*
X34556000Y-41684000D01*
G75*
G02*
X34631000Y-41609000I75000J0D01*
G01*
X34781000Y-41609000D01*
G75*
G02*
X34856000Y-41684000I0J-75000D01*
G01*
X34856000Y-42184000D01*
G75*
G02*
X34781000Y-42259000I-75000J0D01*
G01*
G37*
G36*
G01*
X34381000Y-42259000D02*
X34231000Y-42259000D01*
G75*
G02*
X34156000Y-42184000I0J75000D01*
G01*
X34156000Y-41684000D01*
G75*
G02*
X34231000Y-41609000I75000J0D01*
G01*
X34381000Y-41609000D01*
G75*
G02*
X34456000Y-41684000I0J-75000D01*
G01*
X34456000Y-42184000D01*
G75*
G02*
X34381000Y-42259000I-75000J0D01*
G01*
G37*
%TD*%
M02*
