%TF.GenerationSoftware,KiCad,Pcbnew,5.1.6*%
%TF.CreationDate,2020-10-24T08:35:36+02:00*%
%TF.ProjectId,MoCoBiBa_no_charger,4d6f436f-4269-4426-915f-6e6f5f636861,rev?*%
%TF.SameCoordinates,Original*%
%TF.FileFunction,Legend,Top*%
%TF.FilePolarity,Positive*%
%FSLAX46Y46*%
G04 Gerber Fmt 4.6, Leading zero omitted, Abs format (unit mm)*
G04 Created by KiCad (PCBNEW 5.1.6) date 2020-10-24 08:35:36*
%MOMM*%
%LPD*%
G01*
G04 APERTURE LIST*
%ADD10C,0.200000*%
%ADD11C,0.300000*%
%ADD12C,0.120000*%
%ADD13C,0.100000*%
%ADD14C,0.150000*%
G04 APERTURE END LIST*
D10*
X32131047Y-51887428D02*
X32892952Y-51887428D01*
X32512000Y-52268380D02*
X32512000Y-51506476D01*
D11*
X63297714Y-50558000D02*
X63154857Y-50486571D01*
X62940571Y-50486571D01*
X62726285Y-50558000D01*
X62583428Y-50700857D01*
X62512000Y-50843714D01*
X62440571Y-51129428D01*
X62440571Y-51343714D01*
X62512000Y-51629428D01*
X62583428Y-51772285D01*
X62726285Y-51915142D01*
X62940571Y-51986571D01*
X63083428Y-51986571D01*
X63297714Y-51915142D01*
X63369142Y-51843714D01*
X63369142Y-51343714D01*
X63083428Y-51343714D01*
X64012000Y-50986571D02*
X64012000Y-51986571D01*
X64012000Y-51129428D02*
X64083428Y-51058000D01*
X64226285Y-50986571D01*
X64440571Y-50986571D01*
X64583428Y-51058000D01*
X64654857Y-51200857D01*
X64654857Y-51986571D01*
X66012000Y-51986571D02*
X66012000Y-50486571D01*
X66012000Y-51915142D02*
X65869142Y-51986571D01*
X65583428Y-51986571D01*
X65440571Y-51915142D01*
X65369142Y-51843714D01*
X65297714Y-51700857D01*
X65297714Y-51272285D01*
X65369142Y-51129428D01*
X65440571Y-51058000D01*
X65583428Y-50986571D01*
X65869142Y-50986571D01*
X66012000Y-51058000D01*
X63238285Y-43374571D02*
X63738285Y-44874571D01*
X64238285Y-43374571D01*
X65381142Y-44803142D02*
X65238285Y-44874571D01*
X64952571Y-44874571D01*
X64809714Y-44803142D01*
X64738285Y-44731714D01*
X64666857Y-44588857D01*
X64666857Y-44160285D01*
X64738285Y-44017428D01*
X64809714Y-43946000D01*
X64952571Y-43874571D01*
X65238285Y-43874571D01*
X65381142Y-43946000D01*
X66666857Y-44803142D02*
X66524000Y-44874571D01*
X66238285Y-44874571D01*
X66095428Y-44803142D01*
X66024000Y-44731714D01*
X65952571Y-44588857D01*
X65952571Y-44160285D01*
X66024000Y-44017428D01*
X66095428Y-43946000D01*
X66238285Y-43874571D01*
X66524000Y-43874571D01*
X66666857Y-43946000D01*
D12*
%TO.C,R2*%
X44100000Y-59944000D02*
X44720000Y-59944000D01*
X44100000Y-59944000D02*
G75*
G03*
X44100000Y-59944000I-920000J0D01*
G01*
%TO.C,R1*%
X53846252Y-59996000D02*
X53323748Y-59996000D01*
X53846252Y-61416000D02*
X53323748Y-61416000D01*
%TO.C,3V3*%
X56830000Y-38100000D02*
G75*
G03*
X56830000Y-38100000I-950000J0D01*
G01*
%TO.C,SCL1*%
X47940000Y-41910000D02*
G75*
G03*
X47940000Y-41910000I-950000J0D01*
G01*
%TO.C,SDA1*%
X47940000Y-38100000D02*
G75*
G03*
X47940000Y-38100000I-950000J0D01*
G01*
%TO.C,PB1*%
X52512000Y-45974000D02*
G75*
G03*
X52512000Y-45974000I-950000J0D01*
G01*
%TO.C,PB0*%
X54544000Y-45974000D02*
G75*
G03*
X54544000Y-45974000I-950000J0D01*
G01*
%TO.C,C1*%
X56313000Y-48642748D02*
X56313000Y-49165252D01*
X57733000Y-48642748D02*
X57733000Y-49165252D01*
%TO.C,C5*%
X58454548Y-37692400D02*
X58977052Y-37692400D01*
X58454548Y-36272400D02*
X58977052Y-36272400D01*
%TO.C,C3*%
X35307748Y-48716000D02*
X35830252Y-48716000D01*
X35307748Y-47296000D02*
X35830252Y-47296000D01*
%TO.C,R12*%
X49800252Y-42470000D02*
X49277748Y-42470000D01*
X49800252Y-43890000D02*
X49277748Y-43890000D01*
%TO.C,R11*%
X49800252Y-39168000D02*
X49277748Y-39168000D01*
X49800252Y-40588000D02*
X49277748Y-40588000D01*
%TO.C,D6*%
X64908000Y-64846000D02*
X64908000Y-64046000D01*
X60258000Y-64846000D02*
X64908000Y-64846000D01*
X60258000Y-61646000D02*
X64908000Y-61646000D01*
%TO.C,D5*%
X51422000Y-64846000D02*
X51422000Y-64046000D01*
X46772000Y-64846000D02*
X51422000Y-64846000D01*
X46772000Y-61646000D02*
X51422000Y-61646000D01*
%TO.C,D1*%
X37984000Y-35636000D02*
X37984000Y-34836000D01*
X33334000Y-35636000D02*
X37984000Y-35636000D01*
X33334000Y-32436000D02*
X37984000Y-32436000D01*
%TO.C,C4*%
X40641748Y-49732000D02*
X41164252Y-49732000D01*
X40641748Y-48312000D02*
X41164252Y-48312000D01*
%TO.C,C6*%
X41604000Y-43181748D02*
X41604000Y-43704252D01*
X40184000Y-43181748D02*
X40184000Y-43704252D01*
%TO.C,D2*%
X46796000Y-32436000D02*
X51446000Y-32436000D01*
X46796000Y-35636000D02*
X51446000Y-35636000D01*
X51446000Y-35636000D02*
X51446000Y-34836000D01*
%TO.C,D3*%
X64908000Y-35636000D02*
X64908000Y-34836000D01*
X60258000Y-35636000D02*
X64908000Y-35636000D01*
X60258000Y-32436000D02*
X64908000Y-32436000D01*
%TO.C,D4*%
X33334000Y-61646000D02*
X37984000Y-61646000D01*
X33334000Y-64846000D02*
X37984000Y-64846000D01*
X37984000Y-64846000D02*
X37984000Y-64046000D01*
%TO.C,J2*%
X64583000Y-47752000D02*
X67243000Y-47752000D01*
X64583000Y-47752000D02*
X64583000Y-50352000D01*
X64583000Y-50352000D02*
X67243000Y-50352000D01*
X67243000Y-47752000D02*
X67243000Y-50352000D01*
X67243000Y-45152000D02*
X67243000Y-46482000D01*
X65913000Y-45152000D02*
X67243000Y-45152000D01*
%TO.C,J3*%
X32833000Y-52264000D02*
X35433000Y-52264000D01*
X32833000Y-52264000D02*
X32833000Y-60004000D01*
X32833000Y-60004000D02*
X38033000Y-60004000D01*
X38033000Y-54864000D02*
X38033000Y-60004000D01*
X35433000Y-54864000D02*
X38033000Y-54864000D01*
X35433000Y-52264000D02*
X35433000Y-54864000D01*
X38033000Y-52264000D02*
X38033000Y-53594000D01*
X36703000Y-52264000D02*
X38033000Y-52264000D01*
%TO.C,L1*%
X56998800Y-40046652D02*
X56998800Y-39524148D01*
X58418800Y-40046652D02*
X58418800Y-39524148D01*
D13*
%TO.C,Q1*%
X59261000Y-52706000D02*
X58986000Y-52706000D01*
X58986000Y-52706000D02*
X58611000Y-52981000D01*
X58611000Y-52981000D02*
X58611000Y-53031000D01*
X58611000Y-53031000D02*
X57836000Y-53031000D01*
X59086000Y-56006000D02*
X58611000Y-56006000D01*
X58611000Y-56006000D02*
X58611000Y-55656000D01*
X60261000Y-55781000D02*
X60261000Y-55656000D01*
X60261000Y-55706000D02*
X60261000Y-56006000D01*
X60261000Y-56006000D02*
X59811000Y-56006000D01*
X59886000Y-52706000D02*
X60261000Y-52706000D01*
X60261000Y-52706000D02*
X60261000Y-53006000D01*
D12*
%TO.C,R4*%
X53846252Y-59257000D02*
X53323748Y-59257000D01*
X53846252Y-57837000D02*
X53323748Y-57837000D01*
%TO.C,R5*%
X49274252Y-59257000D02*
X48751748Y-59257000D01*
X49274252Y-57837000D02*
X48751748Y-57837000D01*
%TO.C,R7*%
X60781000Y-48497748D02*
X60781000Y-49020252D01*
X59361000Y-48497748D02*
X59361000Y-49020252D01*
%TO.C,R8*%
X59056748Y-58876000D02*
X59579252Y-58876000D01*
X59056748Y-57456000D02*
X59579252Y-57456000D01*
%TO.C,R10*%
X64568000Y-41394748D02*
X64568000Y-41917252D01*
X65988000Y-41394748D02*
X65988000Y-41917252D01*
%TO.C,R13*%
X40641748Y-53034000D02*
X41164252Y-53034000D01*
X40641748Y-51614000D02*
X41164252Y-51614000D01*
%TO.C,U2*%
X45349000Y-50989000D02*
X45349000Y-52939000D01*
X45349000Y-50989000D02*
X45349000Y-49039000D01*
X54219000Y-50989000D02*
X54219000Y-52939000D01*
X54219000Y-50989000D02*
X54219000Y-47539000D01*
%TO.C,U4*%
X62094000Y-40096000D02*
X60334000Y-40096000D01*
X60334000Y-43166000D02*
X62764000Y-43166000D01*
D14*
%TO.C,U5*%
X33706000Y-45034000D02*
X33706000Y-44634000D01*
X33706000Y-45034000D02*
X34106000Y-45034000D01*
X36906000Y-45034000D02*
X36906000Y-44634000D01*
X36906000Y-45034000D02*
X36506000Y-45034000D01*
X36906000Y-41834000D02*
X36906000Y-42234000D01*
X36906000Y-41834000D02*
X36506000Y-41834000D01*
X33706000Y-41834000D02*
X34106000Y-41834000D01*
%TO.C,R2*%
X44283333Y-58476380D02*
X43950000Y-58000190D01*
X43711904Y-58476380D02*
X43711904Y-57476380D01*
X44092857Y-57476380D01*
X44188095Y-57524000D01*
X44235714Y-57571619D01*
X44283333Y-57666857D01*
X44283333Y-57809714D01*
X44235714Y-57904952D01*
X44188095Y-57952571D01*
X44092857Y-58000190D01*
X43711904Y-58000190D01*
X44664285Y-57571619D02*
X44711904Y-57524000D01*
X44807142Y-57476380D01*
X45045238Y-57476380D01*
X45140476Y-57524000D01*
X45188095Y-57571619D01*
X45235714Y-57666857D01*
X45235714Y-57762095D01*
X45188095Y-57904952D01*
X44616666Y-58476380D01*
X45235714Y-58476380D01*
%TO.C,R1*%
X53418333Y-62808380D02*
X53085000Y-62332190D01*
X52846904Y-62808380D02*
X52846904Y-61808380D01*
X53227857Y-61808380D01*
X53323095Y-61856000D01*
X53370714Y-61903619D01*
X53418333Y-61998857D01*
X53418333Y-62141714D01*
X53370714Y-62236952D01*
X53323095Y-62284571D01*
X53227857Y-62332190D01*
X52846904Y-62332190D01*
X54370714Y-62808380D02*
X53799285Y-62808380D01*
X54085000Y-62808380D02*
X54085000Y-61808380D01*
X53989761Y-61951238D01*
X53894523Y-62046476D01*
X53799285Y-62094095D01*
%TO.C,3V3*%
X52355904Y-37044380D02*
X52974952Y-37044380D01*
X52641619Y-37425333D01*
X52784476Y-37425333D01*
X52879714Y-37472952D01*
X52927333Y-37520571D01*
X52974952Y-37615809D01*
X52974952Y-37853904D01*
X52927333Y-37949142D01*
X52879714Y-37996761D01*
X52784476Y-38044380D01*
X52498761Y-38044380D01*
X52403523Y-37996761D01*
X52355904Y-37949142D01*
X53260666Y-37044380D02*
X53594000Y-38044380D01*
X53927333Y-37044380D01*
X54165428Y-37044380D02*
X54784476Y-37044380D01*
X54451142Y-37425333D01*
X54594000Y-37425333D01*
X54689238Y-37472952D01*
X54736857Y-37520571D01*
X54784476Y-37615809D01*
X54784476Y-37853904D01*
X54736857Y-37949142D01*
X54689238Y-37996761D01*
X54594000Y-38044380D01*
X54308285Y-38044380D01*
X54213047Y-37996761D01*
X54165428Y-37949142D01*
%TO.C,SCL1*%
X43799333Y-41044761D02*
X43942190Y-41092380D01*
X44180285Y-41092380D01*
X44275523Y-41044761D01*
X44323142Y-40997142D01*
X44370761Y-40901904D01*
X44370761Y-40806666D01*
X44323142Y-40711428D01*
X44275523Y-40663809D01*
X44180285Y-40616190D01*
X43989809Y-40568571D01*
X43894571Y-40520952D01*
X43846952Y-40473333D01*
X43799333Y-40378095D01*
X43799333Y-40282857D01*
X43846952Y-40187619D01*
X43894571Y-40140000D01*
X43989809Y-40092380D01*
X44227904Y-40092380D01*
X44370761Y-40140000D01*
X45370761Y-40997142D02*
X45323142Y-41044761D01*
X45180285Y-41092380D01*
X45085047Y-41092380D01*
X44942190Y-41044761D01*
X44846952Y-40949523D01*
X44799333Y-40854285D01*
X44751714Y-40663809D01*
X44751714Y-40520952D01*
X44799333Y-40330476D01*
X44846952Y-40235238D01*
X44942190Y-40140000D01*
X45085047Y-40092380D01*
X45180285Y-40092380D01*
X45323142Y-40140000D01*
X45370761Y-40187619D01*
X46275523Y-41092380D02*
X45799333Y-41092380D01*
X45799333Y-40092380D01*
X47132666Y-41092380D02*
X46561238Y-41092380D01*
X46846952Y-41092380D02*
X46846952Y-40092380D01*
X46751714Y-40235238D01*
X46656476Y-40330476D01*
X46561238Y-40378095D01*
%TO.C,SDA1*%
X43267523Y-37488761D02*
X43410380Y-37536380D01*
X43648476Y-37536380D01*
X43743714Y-37488761D01*
X43791333Y-37441142D01*
X43838952Y-37345904D01*
X43838952Y-37250666D01*
X43791333Y-37155428D01*
X43743714Y-37107809D01*
X43648476Y-37060190D01*
X43458000Y-37012571D01*
X43362761Y-36964952D01*
X43315142Y-36917333D01*
X43267523Y-36822095D01*
X43267523Y-36726857D01*
X43315142Y-36631619D01*
X43362761Y-36584000D01*
X43458000Y-36536380D01*
X43696095Y-36536380D01*
X43838952Y-36584000D01*
X44267523Y-37536380D02*
X44267523Y-36536380D01*
X44505619Y-36536380D01*
X44648476Y-36584000D01*
X44743714Y-36679238D01*
X44791333Y-36774476D01*
X44838952Y-36964952D01*
X44838952Y-37107809D01*
X44791333Y-37298285D01*
X44743714Y-37393523D01*
X44648476Y-37488761D01*
X44505619Y-37536380D01*
X44267523Y-37536380D01*
X45219904Y-37250666D02*
X45696095Y-37250666D01*
X45124666Y-37536380D02*
X45458000Y-36536380D01*
X45791333Y-37536380D01*
X46648476Y-37536380D02*
X46077047Y-37536380D01*
X46362761Y-37536380D02*
X46362761Y-36536380D01*
X46267523Y-36679238D01*
X46172285Y-36774476D01*
X46077047Y-36822095D01*
%TO.C,PB1*%
X51339904Y-44902380D02*
X51339904Y-43902380D01*
X51720857Y-43902380D01*
X51816095Y-43950000D01*
X51863714Y-43997619D01*
X51911333Y-44092857D01*
X51911333Y-44235714D01*
X51863714Y-44330952D01*
X51816095Y-44378571D01*
X51720857Y-44426190D01*
X51339904Y-44426190D01*
X52673238Y-44378571D02*
X52816095Y-44426190D01*
X52863714Y-44473809D01*
X52911333Y-44569047D01*
X52911333Y-44711904D01*
X52863714Y-44807142D01*
X52816095Y-44854761D01*
X52720857Y-44902380D01*
X52339904Y-44902380D01*
X52339904Y-43902380D01*
X52673238Y-43902380D01*
X52768476Y-43950000D01*
X52816095Y-43997619D01*
X52863714Y-44092857D01*
X52863714Y-44188095D01*
X52816095Y-44283333D01*
X52768476Y-44330952D01*
X52673238Y-44378571D01*
X52339904Y-44378571D01*
X53863714Y-44902380D02*
X53292285Y-44902380D01*
X53578000Y-44902380D02*
X53578000Y-43902380D01*
X53482761Y-44045238D01*
X53387523Y-44140476D01*
X53292285Y-44188095D01*
%TO.C,PB0*%
X54641904Y-46172380D02*
X54641904Y-45172380D01*
X55022857Y-45172380D01*
X55118095Y-45220000D01*
X55165714Y-45267619D01*
X55213333Y-45362857D01*
X55213333Y-45505714D01*
X55165714Y-45600952D01*
X55118095Y-45648571D01*
X55022857Y-45696190D01*
X54641904Y-45696190D01*
X55975238Y-45648571D02*
X56118095Y-45696190D01*
X56165714Y-45743809D01*
X56213333Y-45839047D01*
X56213333Y-45981904D01*
X56165714Y-46077142D01*
X56118095Y-46124761D01*
X56022857Y-46172380D01*
X55641904Y-46172380D01*
X55641904Y-45172380D01*
X55975238Y-45172380D01*
X56070476Y-45220000D01*
X56118095Y-45267619D01*
X56165714Y-45362857D01*
X56165714Y-45458095D01*
X56118095Y-45553333D01*
X56070476Y-45600952D01*
X55975238Y-45648571D01*
X55641904Y-45648571D01*
X56832380Y-45172380D02*
X56927619Y-45172380D01*
X57022857Y-45220000D01*
X57070476Y-45267619D01*
X57118095Y-45362857D01*
X57165714Y-45553333D01*
X57165714Y-45791428D01*
X57118095Y-45981904D01*
X57070476Y-46077142D01*
X57022857Y-46124761D01*
X56927619Y-46172380D01*
X56832380Y-46172380D01*
X56737142Y-46124761D01*
X56689523Y-46077142D01*
X56641904Y-45981904D01*
X56594285Y-45791428D01*
X56594285Y-45553333D01*
X56641904Y-45362857D01*
X56689523Y-45267619D01*
X56737142Y-45220000D01*
X56832380Y-45172380D01*
%TO.C,C1*%
X56084742Y-49087066D02*
X56132361Y-49134685D01*
X56179980Y-49277542D01*
X56179980Y-49372780D01*
X56132361Y-49515638D01*
X56037123Y-49610876D01*
X55941885Y-49658495D01*
X55751409Y-49706114D01*
X55608552Y-49706114D01*
X55418076Y-49658495D01*
X55322838Y-49610876D01*
X55227600Y-49515638D01*
X55179980Y-49372780D01*
X55179980Y-49277542D01*
X55227600Y-49134685D01*
X55275219Y-49087066D01*
X56179980Y-48134685D02*
X56179980Y-48706114D01*
X56179980Y-48420400D02*
X55179980Y-48420400D01*
X55322838Y-48515638D01*
X55418076Y-48610876D01*
X55465695Y-48706114D01*
%TO.C,C5*%
X58447533Y-35866342D02*
X58399914Y-35913961D01*
X58257057Y-35961580D01*
X58161819Y-35961580D01*
X58018961Y-35913961D01*
X57923723Y-35818723D01*
X57876104Y-35723485D01*
X57828485Y-35533009D01*
X57828485Y-35390152D01*
X57876104Y-35199676D01*
X57923723Y-35104438D01*
X58018961Y-35009200D01*
X58161819Y-34961580D01*
X58257057Y-34961580D01*
X58399914Y-35009200D01*
X58447533Y-35056819D01*
X59352295Y-34961580D02*
X58876104Y-34961580D01*
X58828485Y-35437771D01*
X58876104Y-35390152D01*
X58971342Y-35342533D01*
X59209438Y-35342533D01*
X59304676Y-35390152D01*
X59352295Y-35437771D01*
X59399914Y-35533009D01*
X59399914Y-35771104D01*
X59352295Y-35866342D01*
X59304676Y-35913961D01*
X59209438Y-35961580D01*
X58971342Y-35961580D01*
X58876104Y-35913961D01*
X58828485Y-35866342D01*
%TO.C,C3*%
X35444133Y-46889942D02*
X35396514Y-46937561D01*
X35253657Y-46985180D01*
X35158419Y-46985180D01*
X35015561Y-46937561D01*
X34920323Y-46842323D01*
X34872704Y-46747085D01*
X34825085Y-46556609D01*
X34825085Y-46413752D01*
X34872704Y-46223276D01*
X34920323Y-46128038D01*
X35015561Y-46032800D01*
X35158419Y-45985180D01*
X35253657Y-45985180D01*
X35396514Y-46032800D01*
X35444133Y-46080419D01*
X35777466Y-45985180D02*
X36396514Y-45985180D01*
X36063180Y-46366133D01*
X36206038Y-46366133D01*
X36301276Y-46413752D01*
X36348895Y-46461371D01*
X36396514Y-46556609D01*
X36396514Y-46794704D01*
X36348895Y-46889942D01*
X36301276Y-46937561D01*
X36206038Y-46985180D01*
X35920323Y-46985180D01*
X35825085Y-46937561D01*
X35777466Y-46889942D01*
%TO.C,R12*%
X48887142Y-42311580D02*
X48553809Y-41835390D01*
X48315714Y-42311580D02*
X48315714Y-41311580D01*
X48696666Y-41311580D01*
X48791904Y-41359200D01*
X48839523Y-41406819D01*
X48887142Y-41502057D01*
X48887142Y-41644914D01*
X48839523Y-41740152D01*
X48791904Y-41787771D01*
X48696666Y-41835390D01*
X48315714Y-41835390D01*
X49839523Y-42311580D02*
X49268095Y-42311580D01*
X49553809Y-42311580D02*
X49553809Y-41311580D01*
X49458571Y-41454438D01*
X49363333Y-41549676D01*
X49268095Y-41597295D01*
X50220476Y-41406819D02*
X50268095Y-41359200D01*
X50363333Y-41311580D01*
X50601428Y-41311580D01*
X50696666Y-41359200D01*
X50744285Y-41406819D01*
X50791904Y-41502057D01*
X50791904Y-41597295D01*
X50744285Y-41740152D01*
X50172857Y-42311580D01*
X50791904Y-42311580D01*
%TO.C,R11*%
X48988742Y-38730180D02*
X48655409Y-38253990D01*
X48417314Y-38730180D02*
X48417314Y-37730180D01*
X48798266Y-37730180D01*
X48893504Y-37777800D01*
X48941123Y-37825419D01*
X48988742Y-37920657D01*
X48988742Y-38063514D01*
X48941123Y-38158752D01*
X48893504Y-38206371D01*
X48798266Y-38253990D01*
X48417314Y-38253990D01*
X49941123Y-38730180D02*
X49369695Y-38730180D01*
X49655409Y-38730180D02*
X49655409Y-37730180D01*
X49560171Y-37873038D01*
X49464933Y-37968276D01*
X49369695Y-38015895D01*
X50893504Y-38730180D02*
X50322076Y-38730180D01*
X50607790Y-38730180D02*
X50607790Y-37730180D01*
X50512552Y-37873038D01*
X50417314Y-37968276D01*
X50322076Y-38015895D01*
%TO.C,D6*%
X61769904Y-66198380D02*
X61769904Y-65198380D01*
X62008000Y-65198380D01*
X62150857Y-65246000D01*
X62246095Y-65341238D01*
X62293714Y-65436476D01*
X62341333Y-65626952D01*
X62341333Y-65769809D01*
X62293714Y-65960285D01*
X62246095Y-66055523D01*
X62150857Y-66150761D01*
X62008000Y-66198380D01*
X61769904Y-66198380D01*
X63198476Y-65198380D02*
X63008000Y-65198380D01*
X62912761Y-65246000D01*
X62865142Y-65293619D01*
X62769904Y-65436476D01*
X62722285Y-65626952D01*
X62722285Y-66007904D01*
X62769904Y-66103142D01*
X62817523Y-66150761D01*
X62912761Y-66198380D01*
X63103238Y-66198380D01*
X63198476Y-66150761D01*
X63246095Y-66103142D01*
X63293714Y-66007904D01*
X63293714Y-65769809D01*
X63246095Y-65674571D01*
X63198476Y-65626952D01*
X63103238Y-65579333D01*
X62912761Y-65579333D01*
X62817523Y-65626952D01*
X62769904Y-65674571D01*
X62722285Y-65769809D01*
%TO.C,D5*%
X48283904Y-66198380D02*
X48283904Y-65198380D01*
X48522000Y-65198380D01*
X48664857Y-65246000D01*
X48760095Y-65341238D01*
X48807714Y-65436476D01*
X48855333Y-65626952D01*
X48855333Y-65769809D01*
X48807714Y-65960285D01*
X48760095Y-66055523D01*
X48664857Y-66150761D01*
X48522000Y-66198380D01*
X48283904Y-66198380D01*
X49760095Y-65198380D02*
X49283904Y-65198380D01*
X49236285Y-65674571D01*
X49283904Y-65626952D01*
X49379142Y-65579333D01*
X49617238Y-65579333D01*
X49712476Y-65626952D01*
X49760095Y-65674571D01*
X49807714Y-65769809D01*
X49807714Y-66007904D01*
X49760095Y-66103142D01*
X49712476Y-66150761D01*
X49617238Y-66198380D01*
X49379142Y-66198380D01*
X49283904Y-66150761D01*
X49236285Y-66103142D01*
%TO.C,D1*%
X34845904Y-36988380D02*
X34845904Y-35988380D01*
X35084000Y-35988380D01*
X35226857Y-36036000D01*
X35322095Y-36131238D01*
X35369714Y-36226476D01*
X35417333Y-36416952D01*
X35417333Y-36559809D01*
X35369714Y-36750285D01*
X35322095Y-36845523D01*
X35226857Y-36940761D01*
X35084000Y-36988380D01*
X34845904Y-36988380D01*
X36369714Y-36988380D02*
X35798285Y-36988380D01*
X36084000Y-36988380D02*
X36084000Y-35988380D01*
X35988761Y-36131238D01*
X35893523Y-36226476D01*
X35798285Y-36274095D01*
%TO.C,C4*%
X40676533Y-47905942D02*
X40628914Y-47953561D01*
X40486057Y-48001180D01*
X40390819Y-48001180D01*
X40247961Y-47953561D01*
X40152723Y-47858323D01*
X40105104Y-47763085D01*
X40057485Y-47572609D01*
X40057485Y-47429752D01*
X40105104Y-47239276D01*
X40152723Y-47144038D01*
X40247961Y-47048800D01*
X40390819Y-47001180D01*
X40486057Y-47001180D01*
X40628914Y-47048800D01*
X40676533Y-47096419D01*
X41533676Y-47334514D02*
X41533676Y-48001180D01*
X41295580Y-46953561D02*
X41057485Y-47667847D01*
X41676533Y-47667847D01*
%TO.C,C6*%
X39981142Y-43600666D02*
X40028761Y-43648285D01*
X40076380Y-43791142D01*
X40076380Y-43886380D01*
X40028761Y-44029238D01*
X39933523Y-44124476D01*
X39838285Y-44172095D01*
X39647809Y-44219714D01*
X39504952Y-44219714D01*
X39314476Y-44172095D01*
X39219238Y-44124476D01*
X39124000Y-44029238D01*
X39076380Y-43886380D01*
X39076380Y-43791142D01*
X39124000Y-43648285D01*
X39171619Y-43600666D01*
X39076380Y-42743523D02*
X39076380Y-42934000D01*
X39124000Y-43029238D01*
X39171619Y-43076857D01*
X39314476Y-43172095D01*
X39504952Y-43219714D01*
X39885904Y-43219714D01*
X39981142Y-43172095D01*
X40028761Y-43124476D01*
X40076380Y-43029238D01*
X40076380Y-42838761D01*
X40028761Y-42743523D01*
X39981142Y-42695904D01*
X39885904Y-42648285D01*
X39647809Y-42648285D01*
X39552571Y-42695904D01*
X39504952Y-42743523D01*
X39457333Y-42838761D01*
X39457333Y-43029238D01*
X39504952Y-43124476D01*
X39552571Y-43172095D01*
X39647809Y-43219714D01*
%TO.C,D2*%
X48307904Y-36988380D02*
X48307904Y-35988380D01*
X48546000Y-35988380D01*
X48688857Y-36036000D01*
X48784095Y-36131238D01*
X48831714Y-36226476D01*
X48879333Y-36416952D01*
X48879333Y-36559809D01*
X48831714Y-36750285D01*
X48784095Y-36845523D01*
X48688857Y-36940761D01*
X48546000Y-36988380D01*
X48307904Y-36988380D01*
X49260285Y-36083619D02*
X49307904Y-36036000D01*
X49403142Y-35988380D01*
X49641238Y-35988380D01*
X49736476Y-36036000D01*
X49784095Y-36083619D01*
X49831714Y-36178857D01*
X49831714Y-36274095D01*
X49784095Y-36416952D01*
X49212666Y-36988380D01*
X49831714Y-36988380D01*
%TO.C,D3*%
X61769904Y-36988380D02*
X61769904Y-35988380D01*
X62008000Y-35988380D01*
X62150857Y-36036000D01*
X62246095Y-36131238D01*
X62293714Y-36226476D01*
X62341333Y-36416952D01*
X62341333Y-36559809D01*
X62293714Y-36750285D01*
X62246095Y-36845523D01*
X62150857Y-36940761D01*
X62008000Y-36988380D01*
X61769904Y-36988380D01*
X62674666Y-35988380D02*
X63293714Y-35988380D01*
X62960380Y-36369333D01*
X63103238Y-36369333D01*
X63198476Y-36416952D01*
X63246095Y-36464571D01*
X63293714Y-36559809D01*
X63293714Y-36797904D01*
X63246095Y-36893142D01*
X63198476Y-36940761D01*
X63103238Y-36988380D01*
X62817523Y-36988380D01*
X62722285Y-36940761D01*
X62674666Y-36893142D01*
%TO.C,D4*%
X34845904Y-66198380D02*
X34845904Y-65198380D01*
X35084000Y-65198380D01*
X35226857Y-65246000D01*
X35322095Y-65341238D01*
X35369714Y-65436476D01*
X35417333Y-65626952D01*
X35417333Y-65769809D01*
X35369714Y-65960285D01*
X35322095Y-66055523D01*
X35226857Y-66150761D01*
X35084000Y-66198380D01*
X34845904Y-66198380D01*
X36274476Y-65531714D02*
X36274476Y-66198380D01*
X36036380Y-65150761D02*
X35798285Y-65865047D01*
X36417333Y-65865047D01*
%TO.C,J2*%
X63674666Y-45934380D02*
X63674666Y-46648666D01*
X63627047Y-46791523D01*
X63531809Y-46886761D01*
X63388952Y-46934380D01*
X63293714Y-46934380D01*
X64103238Y-46029619D02*
X64150857Y-45982000D01*
X64246095Y-45934380D01*
X64484190Y-45934380D01*
X64579428Y-45982000D01*
X64627047Y-46029619D01*
X64674666Y-46124857D01*
X64674666Y-46220095D01*
X64627047Y-46362952D01*
X64055619Y-46934380D01*
X64674666Y-46934380D01*
%TO.C,J3*%
X35099666Y-50276380D02*
X35099666Y-50990666D01*
X35052047Y-51133523D01*
X34956809Y-51228761D01*
X34813952Y-51276380D01*
X34718714Y-51276380D01*
X35480619Y-50276380D02*
X36099666Y-50276380D01*
X35766333Y-50657333D01*
X35909190Y-50657333D01*
X36004428Y-50704952D01*
X36052047Y-50752571D01*
X36099666Y-50847809D01*
X36099666Y-51085904D01*
X36052047Y-51181142D01*
X36004428Y-51228761D01*
X35909190Y-51276380D01*
X35623476Y-51276380D01*
X35528238Y-51228761D01*
X35480619Y-51181142D01*
%TO.C,L1*%
X56586380Y-39901266D02*
X56586380Y-40377457D01*
X55586380Y-40377457D01*
X56586380Y-39044123D02*
X56586380Y-39615552D01*
X56586380Y-39329838D02*
X55586380Y-39329838D01*
X55729238Y-39425076D01*
X55824476Y-39520314D01*
X55872095Y-39615552D01*
%TO.C,Q1*%
X57570619Y-53435238D02*
X57523000Y-53530476D01*
X57427761Y-53625714D01*
X57284904Y-53768571D01*
X57237285Y-53863809D01*
X57237285Y-53959047D01*
X57475380Y-53911428D02*
X57427761Y-54006666D01*
X57332523Y-54101904D01*
X57142047Y-54149523D01*
X56808714Y-54149523D01*
X56618238Y-54101904D01*
X56523000Y-54006666D01*
X56475380Y-53911428D01*
X56475380Y-53720952D01*
X56523000Y-53625714D01*
X56618238Y-53530476D01*
X56808714Y-53482857D01*
X57142047Y-53482857D01*
X57332523Y-53530476D01*
X57427761Y-53625714D01*
X57475380Y-53720952D01*
X57475380Y-53911428D01*
X57475380Y-52530476D02*
X57475380Y-53101904D01*
X57475380Y-52816190D02*
X56475380Y-52816190D01*
X56618238Y-52911428D01*
X56713476Y-53006666D01*
X56761095Y-53101904D01*
%TO.C,R4*%
X53249533Y-57551580D02*
X52916200Y-57075390D01*
X52678104Y-57551580D02*
X52678104Y-56551580D01*
X53059057Y-56551580D01*
X53154295Y-56599200D01*
X53201914Y-56646819D01*
X53249533Y-56742057D01*
X53249533Y-56884914D01*
X53201914Y-56980152D01*
X53154295Y-57027771D01*
X53059057Y-57075390D01*
X52678104Y-57075390D01*
X54106676Y-56884914D02*
X54106676Y-57551580D01*
X53868580Y-56503961D02*
X53630485Y-57218247D01*
X54249533Y-57218247D01*
%TO.C,R5*%
X48779133Y-60447180D02*
X48445800Y-59970990D01*
X48207704Y-60447180D02*
X48207704Y-59447180D01*
X48588657Y-59447180D01*
X48683895Y-59494800D01*
X48731514Y-59542419D01*
X48779133Y-59637657D01*
X48779133Y-59780514D01*
X48731514Y-59875752D01*
X48683895Y-59923371D01*
X48588657Y-59970990D01*
X48207704Y-59970990D01*
X49683895Y-59447180D02*
X49207704Y-59447180D01*
X49160085Y-59923371D01*
X49207704Y-59875752D01*
X49302942Y-59828133D01*
X49541038Y-59828133D01*
X49636276Y-59875752D01*
X49683895Y-59923371D01*
X49731514Y-60018609D01*
X49731514Y-60256704D01*
X49683895Y-60351942D01*
X49636276Y-60399561D01*
X49541038Y-60447180D01*
X49302942Y-60447180D01*
X49207704Y-60399561D01*
X49160085Y-60351942D01*
%TO.C,R7*%
X59227980Y-48934666D02*
X58751790Y-49268000D01*
X59227980Y-49506095D02*
X58227980Y-49506095D01*
X58227980Y-49125142D01*
X58275600Y-49029904D01*
X58323219Y-48982285D01*
X58418457Y-48934666D01*
X58561314Y-48934666D01*
X58656552Y-48982285D01*
X58704171Y-49029904D01*
X58751790Y-49125142D01*
X58751790Y-49506095D01*
X58227980Y-48601333D02*
X58227980Y-47934666D01*
X59227980Y-48363238D01*
%TO.C,R8*%
X59066133Y-60142380D02*
X58732800Y-59666190D01*
X58494704Y-60142380D02*
X58494704Y-59142380D01*
X58875657Y-59142380D01*
X58970895Y-59190000D01*
X59018514Y-59237619D01*
X59066133Y-59332857D01*
X59066133Y-59475714D01*
X59018514Y-59570952D01*
X58970895Y-59618571D01*
X58875657Y-59666190D01*
X58494704Y-59666190D01*
X59637561Y-59570952D02*
X59542323Y-59523333D01*
X59494704Y-59475714D01*
X59447085Y-59380476D01*
X59447085Y-59332857D01*
X59494704Y-59237619D01*
X59542323Y-59190000D01*
X59637561Y-59142380D01*
X59828038Y-59142380D01*
X59923276Y-59190000D01*
X59970895Y-59237619D01*
X60018514Y-59332857D01*
X60018514Y-59380476D01*
X59970895Y-59475714D01*
X59923276Y-59523333D01*
X59828038Y-59570952D01*
X59637561Y-59570952D01*
X59542323Y-59618571D01*
X59494704Y-59666190D01*
X59447085Y-59761428D01*
X59447085Y-59951904D01*
X59494704Y-60047142D01*
X59542323Y-60094761D01*
X59637561Y-60142380D01*
X59828038Y-60142380D01*
X59923276Y-60094761D01*
X59970895Y-60047142D01*
X60018514Y-59951904D01*
X60018514Y-59761428D01*
X59970895Y-59666190D01*
X59923276Y-59618571D01*
X59828038Y-59570952D01*
%TO.C,R9*%
X62526380Y-54522666D02*
X62050190Y-54856000D01*
X62526380Y-55094095D02*
X61526380Y-55094095D01*
X61526380Y-54713142D01*
X61574000Y-54617904D01*
X61621619Y-54570285D01*
X61716857Y-54522666D01*
X61859714Y-54522666D01*
X61954952Y-54570285D01*
X62002571Y-54617904D01*
X62050190Y-54713142D01*
X62050190Y-55094095D01*
X62526380Y-54046476D02*
X62526380Y-53856000D01*
X62478761Y-53760761D01*
X62431142Y-53713142D01*
X62288285Y-53617904D01*
X62097809Y-53570285D01*
X61716857Y-53570285D01*
X61621619Y-53617904D01*
X61574000Y-53665523D01*
X61526380Y-53760761D01*
X61526380Y-53951238D01*
X61574000Y-54046476D01*
X61621619Y-54094095D01*
X61716857Y-54141714D01*
X61954952Y-54141714D01*
X62050190Y-54094095D01*
X62097809Y-54046476D01*
X62145428Y-53951238D01*
X62145428Y-53760761D01*
X62097809Y-53665523D01*
X62050190Y-53617904D01*
X61954952Y-53570285D01*
%TO.C,R10*%
X64358780Y-42298857D02*
X63882590Y-42632190D01*
X64358780Y-42870285D02*
X63358780Y-42870285D01*
X63358780Y-42489333D01*
X63406400Y-42394095D01*
X63454019Y-42346476D01*
X63549257Y-42298857D01*
X63692114Y-42298857D01*
X63787352Y-42346476D01*
X63834971Y-42394095D01*
X63882590Y-42489333D01*
X63882590Y-42870285D01*
X64358780Y-41346476D02*
X64358780Y-41917904D01*
X64358780Y-41632190D02*
X63358780Y-41632190D01*
X63501638Y-41727428D01*
X63596876Y-41822666D01*
X63644495Y-41917904D01*
X63358780Y-40727428D02*
X63358780Y-40632190D01*
X63406400Y-40536952D01*
X63454019Y-40489333D01*
X63549257Y-40441714D01*
X63739733Y-40394095D01*
X63977828Y-40394095D01*
X64168304Y-40441714D01*
X64263542Y-40489333D01*
X64311161Y-40536952D01*
X64358780Y-40632190D01*
X64358780Y-40727428D01*
X64311161Y-40822666D01*
X64263542Y-40870285D01*
X64168304Y-40917904D01*
X63977828Y-40965523D01*
X63739733Y-40965523D01*
X63549257Y-40917904D01*
X63454019Y-40870285D01*
X63406400Y-40822666D01*
X63358780Y-40727428D01*
%TO.C,R13*%
X40149542Y-51353980D02*
X39816209Y-50877790D01*
X39578114Y-51353980D02*
X39578114Y-50353980D01*
X39959066Y-50353980D01*
X40054304Y-50401600D01*
X40101923Y-50449219D01*
X40149542Y-50544457D01*
X40149542Y-50687314D01*
X40101923Y-50782552D01*
X40054304Y-50830171D01*
X39959066Y-50877790D01*
X39578114Y-50877790D01*
X41101923Y-51353980D02*
X40530495Y-51353980D01*
X40816209Y-51353980D02*
X40816209Y-50353980D01*
X40720971Y-50496838D01*
X40625733Y-50592076D01*
X40530495Y-50639695D01*
X41435257Y-50353980D02*
X42054304Y-50353980D01*
X41720971Y-50734933D01*
X41863828Y-50734933D01*
X41959066Y-50782552D01*
X42006685Y-50830171D01*
X42054304Y-50925409D01*
X42054304Y-51163504D01*
X42006685Y-51258742D01*
X41959066Y-51306361D01*
X41863828Y-51353980D01*
X41578114Y-51353980D01*
X41482876Y-51306361D01*
X41435257Y-51258742D01*
%TO.C,U2*%
X54516380Y-51750904D02*
X55325904Y-51750904D01*
X55421142Y-51703285D01*
X55468761Y-51655666D01*
X55516380Y-51560428D01*
X55516380Y-51369952D01*
X55468761Y-51274714D01*
X55421142Y-51227095D01*
X55325904Y-51179476D01*
X54516380Y-51179476D01*
X54611619Y-50750904D02*
X54564000Y-50703285D01*
X54516380Y-50608047D01*
X54516380Y-50369952D01*
X54564000Y-50274714D01*
X54611619Y-50227095D01*
X54706857Y-50179476D01*
X54802095Y-50179476D01*
X54944952Y-50227095D01*
X55516380Y-50798523D01*
X55516380Y-50179476D01*
%TO.C,U4*%
X60452095Y-43558380D02*
X60452095Y-44367904D01*
X60499714Y-44463142D01*
X60547333Y-44510761D01*
X60642571Y-44558380D01*
X60833047Y-44558380D01*
X60928285Y-44510761D01*
X60975904Y-44463142D01*
X61023523Y-44367904D01*
X61023523Y-43558380D01*
X61928285Y-43891714D02*
X61928285Y-44558380D01*
X61690190Y-43510761D02*
X61452095Y-44225047D01*
X62071142Y-44225047D01*
%TO.C,U5*%
X34544095Y-39636380D02*
X34544095Y-40445904D01*
X34591714Y-40541142D01*
X34639333Y-40588761D01*
X34734571Y-40636380D01*
X34925047Y-40636380D01*
X35020285Y-40588761D01*
X35067904Y-40541142D01*
X35115523Y-40445904D01*
X35115523Y-39636380D01*
X36067904Y-39636380D02*
X35591714Y-39636380D01*
X35544095Y-40112571D01*
X35591714Y-40064952D01*
X35686952Y-40017333D01*
X35925047Y-40017333D01*
X36020285Y-40064952D01*
X36067904Y-40112571D01*
X36115523Y-40207809D01*
X36115523Y-40445904D01*
X36067904Y-40541142D01*
X36020285Y-40588761D01*
X35925047Y-40636380D01*
X35686952Y-40636380D01*
X35591714Y-40588761D01*
X35544095Y-40541142D01*
%TD*%
M02*
