%TF.GenerationSoftware,KiCad,Pcbnew,5.1.6*%
%TF.CreationDate,2020-10-24T08:35:36+02:00*%
%TF.ProjectId,MoCoBiBa_no_charger,4d6f436f-4269-4426-915f-6e6f5f636861,rev?*%
%TF.SameCoordinates,Original*%
%TF.FileFunction,Copper,L1,Top*%
%TF.FilePolarity,Positive*%
%FSLAX46Y46*%
G04 Gerber Fmt 4.6, Leading zero omitted, Abs format (unit mm)*
G04 Created by KiCad (PCBNEW 5.1.6) date 2020-10-24 08:35:36*
%MOMM*%
%LPD*%
G01*
G04 APERTURE LIST*
%TA.AperFunction,ComponentPad*%
%ADD10O,1.400000X1.400000*%
%TD*%
%TA.AperFunction,ComponentPad*%
%ADD11C,1.400000*%
%TD*%
%TA.AperFunction,SMDPad,CuDef*%
%ADD12C,1.500000*%
%TD*%
%TA.AperFunction,SMDPad,CuDef*%
%ADD13R,1.500000X2.600000*%
%TD*%
%TA.AperFunction,ComponentPad*%
%ADD14R,1.700000X1.700000*%
%TD*%
%TA.AperFunction,ComponentPad*%
%ADD15O,1.700000X1.700000*%
%TD*%
%TA.AperFunction,SMDPad,CuDef*%
%ADD16R,1.300000X0.600000*%
%TD*%
%TA.AperFunction,SMDPad,CuDef*%
%ADD17R,1.220000X0.650000*%
%TD*%
%TA.AperFunction,ViaPad*%
%ADD18C,0.800000*%
%TD*%
%TA.AperFunction,Conductor*%
%ADD19C,0.250000*%
%TD*%
%TA.AperFunction,Conductor*%
%ADD20C,0.200000*%
%TD*%
%TA.AperFunction,Conductor*%
%ADD21C,1.500000*%
%TD*%
%TA.AperFunction,Conductor*%
%ADD22C,0.300000*%
%TD*%
%TA.AperFunction,Conductor*%
%ADD23C,0.254000*%
%TD*%
G04 APERTURE END LIST*
D10*
%TO.P,R2,2*%
%TO.N,Net-(R2-Pad2)*%
X45720000Y-59944000D03*
D11*
%TO.P,R2,1*%
%TO.N,Net-(R1-Pad2)*%
X43180000Y-59944000D03*
%TD*%
%TO.P,R1,2*%
%TO.N,Net-(R1-Pad2)*%
%TA.AperFunction,SMDPad,CuDef*%
G36*
G01*
X53135000Y-60255999D02*
X53135000Y-61156001D01*
G75*
G02*
X52885001Y-61406000I-249999J0D01*
G01*
X52234999Y-61406000D01*
G75*
G02*
X51985000Y-61156001I0J249999D01*
G01*
X51985000Y-60255999D01*
G75*
G02*
X52234999Y-60006000I249999J0D01*
G01*
X52885001Y-60006000D01*
G75*
G02*
X53135000Y-60255999I0J-249999D01*
G01*
G37*
%TD.AperFunction*%
%TO.P,R1,1*%
%TO.N,VCC*%
%TA.AperFunction,SMDPad,CuDef*%
G36*
G01*
X55185000Y-60255999D02*
X55185000Y-61156001D01*
G75*
G02*
X54935001Y-61406000I-249999J0D01*
G01*
X54284999Y-61406000D01*
G75*
G02*
X54035000Y-61156001I0J249999D01*
G01*
X54035000Y-60255999D01*
G75*
G02*
X54284999Y-60006000I249999J0D01*
G01*
X54935001Y-60006000D01*
G75*
G02*
X55185000Y-60255999I0J-249999D01*
G01*
G37*
%TD.AperFunction*%
%TD*%
D12*
%TO.P,3V3,1*%
%TO.N,+3V3*%
X55880000Y-38100000D03*
%TD*%
%TO.P,SCL1,1*%
%TO.N,SCK_ISP*%
X46990000Y-41910000D03*
%TD*%
%TO.P,SDA1,1*%
%TO.N,MOSI_ISP*%
X46990000Y-38100000D03*
%TD*%
%TO.P,PB1,1*%
%TO.N,Net-(PB1-Pad1)*%
X51562000Y-45974000D03*
%TD*%
%TO.P,PB0,1*%
%TO.N,Net-(PB0-Pad1)*%
X53594000Y-45974000D03*
%TD*%
%TO.P,C1,2*%
%TO.N,GND*%
%TA.AperFunction,SMDPad,CuDef*%
G36*
G01*
X56572999Y-49354000D02*
X57473001Y-49354000D01*
G75*
G02*
X57723000Y-49603999I0J-249999D01*
G01*
X57723000Y-50254001D01*
G75*
G02*
X57473001Y-50504000I-249999J0D01*
G01*
X56572999Y-50504000D01*
G75*
G02*
X56323000Y-50254001I0J249999D01*
G01*
X56323000Y-49603999D01*
G75*
G02*
X56572999Y-49354000I249999J0D01*
G01*
G37*
%TD.AperFunction*%
%TO.P,C1,1*%
%TO.N,+3V3*%
%TA.AperFunction,SMDPad,CuDef*%
G36*
G01*
X56572999Y-47304000D02*
X57473001Y-47304000D01*
G75*
G02*
X57723000Y-47553999I0J-249999D01*
G01*
X57723000Y-48204001D01*
G75*
G02*
X57473001Y-48454000I-249999J0D01*
G01*
X56572999Y-48454000D01*
G75*
G02*
X56323000Y-48204001I0J249999D01*
G01*
X56323000Y-47553999D01*
G75*
G02*
X56572999Y-47304000I249999J0D01*
G01*
G37*
%TD.AperFunction*%
%TD*%
%TO.P,C5,2*%
%TO.N,GND*%
%TA.AperFunction,SMDPad,CuDef*%
G36*
G01*
X59165800Y-37432401D02*
X59165800Y-36532399D01*
G75*
G02*
X59415799Y-36282400I249999J0D01*
G01*
X60065801Y-36282400D01*
G75*
G02*
X60315800Y-36532399I0J-249999D01*
G01*
X60315800Y-37432401D01*
G75*
G02*
X60065801Y-37682400I-249999J0D01*
G01*
X59415799Y-37682400D01*
G75*
G02*
X59165800Y-37432401I0J249999D01*
G01*
G37*
%TD.AperFunction*%
%TO.P,C5,1*%
%TO.N,+3V3*%
%TA.AperFunction,SMDPad,CuDef*%
G36*
G01*
X57115800Y-37432401D02*
X57115800Y-36532399D01*
G75*
G02*
X57365799Y-36282400I249999J0D01*
G01*
X58015801Y-36282400D01*
G75*
G02*
X58265800Y-36532399I0J-249999D01*
G01*
X58265800Y-37432401D01*
G75*
G02*
X58015801Y-37682400I-249999J0D01*
G01*
X57365799Y-37682400D01*
G75*
G02*
X57115800Y-37432401I0J249999D01*
G01*
G37*
%TD.AperFunction*%
%TD*%
%TO.P,C3,2*%
%TO.N,GND*%
%TA.AperFunction,SMDPad,CuDef*%
G36*
G01*
X36019000Y-48456001D02*
X36019000Y-47555999D01*
G75*
G02*
X36268999Y-47306000I249999J0D01*
G01*
X36919001Y-47306000D01*
G75*
G02*
X37169000Y-47555999I0J-249999D01*
G01*
X37169000Y-48456001D01*
G75*
G02*
X36919001Y-48706000I-249999J0D01*
G01*
X36268999Y-48706000D01*
G75*
G02*
X36019000Y-48456001I0J249999D01*
G01*
G37*
%TD.AperFunction*%
%TO.P,C3,1*%
%TO.N,+3V3*%
%TA.AperFunction,SMDPad,CuDef*%
G36*
G01*
X33969000Y-48456001D02*
X33969000Y-47555999D01*
G75*
G02*
X34218999Y-47306000I249999J0D01*
G01*
X34869001Y-47306000D01*
G75*
G02*
X35119000Y-47555999I0J-249999D01*
G01*
X35119000Y-48456001D01*
G75*
G02*
X34869001Y-48706000I-249999J0D01*
G01*
X34218999Y-48706000D01*
G75*
G02*
X33969000Y-48456001I0J249999D01*
G01*
G37*
%TD.AperFunction*%
%TD*%
%TO.P,R12,2*%
%TO.N,SCK_ISP*%
%TA.AperFunction,SMDPad,CuDef*%
G36*
G01*
X49089000Y-42729999D02*
X49089000Y-43630001D01*
G75*
G02*
X48839001Y-43880000I-249999J0D01*
G01*
X48188999Y-43880000D01*
G75*
G02*
X47939000Y-43630001I0J249999D01*
G01*
X47939000Y-42729999D01*
G75*
G02*
X48188999Y-42480000I249999J0D01*
G01*
X48839001Y-42480000D01*
G75*
G02*
X49089000Y-42729999I0J-249999D01*
G01*
G37*
%TD.AperFunction*%
%TO.P,R12,1*%
%TO.N,+3V3*%
%TA.AperFunction,SMDPad,CuDef*%
G36*
G01*
X51139000Y-42729999D02*
X51139000Y-43630001D01*
G75*
G02*
X50889001Y-43880000I-249999J0D01*
G01*
X50238999Y-43880000D01*
G75*
G02*
X49989000Y-43630001I0J249999D01*
G01*
X49989000Y-42729999D01*
G75*
G02*
X50238999Y-42480000I249999J0D01*
G01*
X50889001Y-42480000D01*
G75*
G02*
X51139000Y-42729999I0J-249999D01*
G01*
G37*
%TD.AperFunction*%
%TD*%
%TO.P,R11,2*%
%TO.N,MOSI_ISP*%
%TA.AperFunction,SMDPad,CuDef*%
G36*
G01*
X49089000Y-39427999D02*
X49089000Y-40328001D01*
G75*
G02*
X48839001Y-40578000I-249999J0D01*
G01*
X48188999Y-40578000D01*
G75*
G02*
X47939000Y-40328001I0J249999D01*
G01*
X47939000Y-39427999D01*
G75*
G02*
X48188999Y-39178000I249999J0D01*
G01*
X48839001Y-39178000D01*
G75*
G02*
X49089000Y-39427999I0J-249999D01*
G01*
G37*
%TD.AperFunction*%
%TO.P,R11,1*%
%TO.N,+3V3*%
%TA.AperFunction,SMDPad,CuDef*%
G36*
G01*
X51139000Y-39427999D02*
X51139000Y-40328001D01*
G75*
G02*
X50889001Y-40578000I-249999J0D01*
G01*
X50238999Y-40578000D01*
G75*
G02*
X49989000Y-40328001I0J249999D01*
G01*
X49989000Y-39427999D01*
G75*
G02*
X50238999Y-39178000I249999J0D01*
G01*
X50889001Y-39178000D01*
G75*
G02*
X51139000Y-39427999I0J-249999D01*
G01*
G37*
%TD.AperFunction*%
%TD*%
D13*
%TO.P,D6,2*%
%TO.N,+3V3*%
X61008000Y-63246000D03*
%TO.P,D6,1*%
%TO.N,Net-(D1-Pad1)*%
X64008000Y-63246000D03*
%TD*%
%TO.P,D5,2*%
%TO.N,+3V3*%
X47522000Y-63246000D03*
%TO.P,D5,1*%
%TO.N,Net-(D1-Pad1)*%
X50522000Y-63246000D03*
%TD*%
%TO.P,D1,2*%
%TO.N,+3V3*%
X34084000Y-34036000D03*
%TO.P,D1,1*%
%TO.N,Net-(D1-Pad1)*%
X37084000Y-34036000D03*
%TD*%
%TO.P,C4,2*%
%TO.N,GND*%
%TA.AperFunction,SMDPad,CuDef*%
G36*
G01*
X41353000Y-49472001D02*
X41353000Y-48571999D01*
G75*
G02*
X41602999Y-48322000I249999J0D01*
G01*
X42253001Y-48322000D01*
G75*
G02*
X42503000Y-48571999I0J-249999D01*
G01*
X42503000Y-49472001D01*
G75*
G02*
X42253001Y-49722000I-249999J0D01*
G01*
X41602999Y-49722000D01*
G75*
G02*
X41353000Y-49472001I0J249999D01*
G01*
G37*
%TD.AperFunction*%
%TO.P,C4,1*%
%TO.N,Net-(C4-Pad1)*%
%TA.AperFunction,SMDPad,CuDef*%
G36*
G01*
X39303000Y-49472001D02*
X39303000Y-48571999D01*
G75*
G02*
X39552999Y-48322000I249999J0D01*
G01*
X40203001Y-48322000D01*
G75*
G02*
X40453000Y-48571999I0J-249999D01*
G01*
X40453000Y-49472001D01*
G75*
G02*
X40203001Y-49722000I-249999J0D01*
G01*
X39552999Y-49722000D01*
G75*
G02*
X39303000Y-49472001I0J249999D01*
G01*
G37*
%TD.AperFunction*%
%TD*%
%TO.P,C6,1*%
%TO.N,+3V3*%
%TA.AperFunction,SMDPad,CuDef*%
G36*
G01*
X40443999Y-41843000D02*
X41344001Y-41843000D01*
G75*
G02*
X41594000Y-42092999I0J-249999D01*
G01*
X41594000Y-42743001D01*
G75*
G02*
X41344001Y-42993000I-249999J0D01*
G01*
X40443999Y-42993000D01*
G75*
G02*
X40194000Y-42743001I0J249999D01*
G01*
X40194000Y-42092999D01*
G75*
G02*
X40443999Y-41843000I249999J0D01*
G01*
G37*
%TD.AperFunction*%
%TO.P,C6,2*%
%TO.N,GND*%
%TA.AperFunction,SMDPad,CuDef*%
G36*
G01*
X40443999Y-43893000D02*
X41344001Y-43893000D01*
G75*
G02*
X41594000Y-44142999I0J-249999D01*
G01*
X41594000Y-44793001D01*
G75*
G02*
X41344001Y-45043000I-249999J0D01*
G01*
X40443999Y-45043000D01*
G75*
G02*
X40194000Y-44793001I0J249999D01*
G01*
X40194000Y-44142999D01*
G75*
G02*
X40443999Y-43893000I249999J0D01*
G01*
G37*
%TD.AperFunction*%
%TD*%
%TO.P,D2,1*%
%TO.N,Net-(D1-Pad1)*%
X50546000Y-34036000D03*
%TO.P,D2,2*%
%TO.N,+3V3*%
X47546000Y-34036000D03*
%TD*%
%TO.P,D3,2*%
%TO.N,+3V3*%
X61008000Y-34036000D03*
%TO.P,D3,1*%
%TO.N,Net-(D1-Pad1)*%
X64008000Y-34036000D03*
%TD*%
%TO.P,D4,1*%
%TO.N,Net-(D1-Pad1)*%
X37084000Y-63246000D03*
%TO.P,D4,2*%
%TO.N,+3V3*%
X34084000Y-63246000D03*
%TD*%
D14*
%TO.P,J2,1*%
%TO.N,VCC*%
X65913000Y-46482000D03*
D15*
%TO.P,J2,2*%
%TO.N,GND*%
X65913000Y-49022000D03*
%TD*%
D14*
%TO.P,J3,1*%
%TO.N,MISO_ISP*%
X36703000Y-53594000D03*
D15*
%TO.P,J3,2*%
%TO.N,+3V3*%
X34163000Y-53594000D03*
%TO.P,J3,3*%
%TO.N,SCK_ISP*%
X36703000Y-56134000D03*
%TO.P,J3,4*%
%TO.N,MOSI_ISP*%
X34163000Y-56134000D03*
%TO.P,J3,5*%
%TO.N,nRES_ISP*%
X36703000Y-58674000D03*
%TO.P,J3,6*%
%TO.N,GND*%
X34163000Y-58674000D03*
%TD*%
%TO.P,L1,1*%
%TO.N,Net-(L1-Pad1)*%
%TA.AperFunction,SMDPad,CuDef*%
G36*
G01*
X58158801Y-41385400D02*
X57258799Y-41385400D01*
G75*
G02*
X57008800Y-41135401I0J249999D01*
G01*
X57008800Y-40485399D01*
G75*
G02*
X57258799Y-40235400I249999J0D01*
G01*
X58158801Y-40235400D01*
G75*
G02*
X58408800Y-40485399I0J-249999D01*
G01*
X58408800Y-41135401D01*
G75*
G02*
X58158801Y-41385400I-249999J0D01*
G01*
G37*
%TD.AperFunction*%
%TO.P,L1,2*%
%TO.N,+3V3*%
%TA.AperFunction,SMDPad,CuDef*%
G36*
G01*
X58158801Y-39335400D02*
X57258799Y-39335400D01*
G75*
G02*
X57008800Y-39085401I0J249999D01*
G01*
X57008800Y-38435399D01*
G75*
G02*
X57258799Y-38185400I249999J0D01*
G01*
X58158801Y-38185400D01*
G75*
G02*
X58408800Y-38435399I0J-249999D01*
G01*
X58408800Y-39085401D01*
G75*
G02*
X58158801Y-39335400I-249999J0D01*
G01*
G37*
%TD.AperFunction*%
%TD*%
D16*
%TO.P,Q1,3*%
%TO.N,Net-(Q1-Pad3)*%
X60486000Y-54356000D03*
%TO.P,Q1,2*%
%TO.N,GND*%
X58386000Y-55306000D03*
%TO.P,Q1,1*%
%TO.N,Net-(Q1-Pad1)*%
X58386000Y-53406000D03*
%TD*%
%TO.P,R4,1*%
%TO.N,VCC*%
%TA.AperFunction,SMDPad,CuDef*%
G36*
G01*
X55185000Y-58096999D02*
X55185000Y-58997001D01*
G75*
G02*
X54935001Y-59247000I-249999J0D01*
G01*
X54284999Y-59247000D01*
G75*
G02*
X54035000Y-58997001I0J249999D01*
G01*
X54035000Y-58096999D01*
G75*
G02*
X54284999Y-57847000I249999J0D01*
G01*
X54935001Y-57847000D01*
G75*
G02*
X55185000Y-58096999I0J-249999D01*
G01*
G37*
%TD.AperFunction*%
%TO.P,R4,2*%
%TO.N,Net-(R4-Pad2)*%
%TA.AperFunction,SMDPad,CuDef*%
G36*
G01*
X53135000Y-58096999D02*
X53135000Y-58997001D01*
G75*
G02*
X52885001Y-59247000I-249999J0D01*
G01*
X52234999Y-59247000D01*
G75*
G02*
X51985000Y-58997001I0J249999D01*
G01*
X51985000Y-58096999D01*
G75*
G02*
X52234999Y-57847000I249999J0D01*
G01*
X52885001Y-57847000D01*
G75*
G02*
X53135000Y-58096999I0J-249999D01*
G01*
G37*
%TD.AperFunction*%
%TD*%
%TO.P,R5,1*%
%TO.N,Net-(R4-Pad2)*%
%TA.AperFunction,SMDPad,CuDef*%
G36*
G01*
X50613000Y-58096999D02*
X50613000Y-58997001D01*
G75*
G02*
X50363001Y-59247000I-249999J0D01*
G01*
X49712999Y-59247000D01*
G75*
G02*
X49463000Y-58997001I0J249999D01*
G01*
X49463000Y-58096999D01*
G75*
G02*
X49712999Y-57847000I249999J0D01*
G01*
X50363001Y-57847000D01*
G75*
G02*
X50613000Y-58096999I0J-249999D01*
G01*
G37*
%TD.AperFunction*%
%TO.P,R5,2*%
%TO.N,Net-(R2-Pad2)*%
%TA.AperFunction,SMDPad,CuDef*%
G36*
G01*
X48563000Y-58096999D02*
X48563000Y-58997001D01*
G75*
G02*
X48313001Y-59247000I-249999J0D01*
G01*
X47662999Y-59247000D01*
G75*
G02*
X47413000Y-58997001I0J249999D01*
G01*
X47413000Y-58096999D01*
G75*
G02*
X47662999Y-57847000I249999J0D01*
G01*
X48313001Y-57847000D01*
G75*
G02*
X48563000Y-58096999I0J-249999D01*
G01*
G37*
%TD.AperFunction*%
%TD*%
%TO.P,R7,1*%
%TO.N,LED_PWM*%
%TA.AperFunction,SMDPad,CuDef*%
G36*
G01*
X59620999Y-47159000D02*
X60521001Y-47159000D01*
G75*
G02*
X60771000Y-47408999I0J-249999D01*
G01*
X60771000Y-48059001D01*
G75*
G02*
X60521001Y-48309000I-249999J0D01*
G01*
X59620999Y-48309000D01*
G75*
G02*
X59371000Y-48059001I0J249999D01*
G01*
X59371000Y-47408999D01*
G75*
G02*
X59620999Y-47159000I249999J0D01*
G01*
G37*
%TD.AperFunction*%
%TO.P,R7,2*%
%TO.N,Net-(Q1-Pad1)*%
%TA.AperFunction,SMDPad,CuDef*%
G36*
G01*
X59620999Y-49209000D02*
X60521001Y-49209000D01*
G75*
G02*
X60771000Y-49458999I0J-249999D01*
G01*
X60771000Y-50109001D01*
G75*
G02*
X60521001Y-50359000I-249999J0D01*
G01*
X59620999Y-50359000D01*
G75*
G02*
X59371000Y-50109001I0J249999D01*
G01*
X59371000Y-49458999D01*
G75*
G02*
X59620999Y-49209000I249999J0D01*
G01*
G37*
%TD.AperFunction*%
%TD*%
%TO.P,R8,2*%
%TO.N,GND*%
%TA.AperFunction,SMDPad,CuDef*%
G36*
G01*
X59768000Y-58616001D02*
X59768000Y-57715999D01*
G75*
G02*
X60017999Y-57466000I249999J0D01*
G01*
X60668001Y-57466000D01*
G75*
G02*
X60918000Y-57715999I0J-249999D01*
G01*
X60918000Y-58616001D01*
G75*
G02*
X60668001Y-58866000I-249999J0D01*
G01*
X60017999Y-58866000D01*
G75*
G02*
X59768000Y-58616001I0J249999D01*
G01*
G37*
%TD.AperFunction*%
%TO.P,R8,1*%
%TO.N,Net-(Q1-Pad1)*%
%TA.AperFunction,SMDPad,CuDef*%
G36*
G01*
X57718000Y-58616001D02*
X57718000Y-57715999D01*
G75*
G02*
X57967999Y-57466000I249999J0D01*
G01*
X58618001Y-57466000D01*
G75*
G02*
X58868000Y-57715999I0J-249999D01*
G01*
X58868000Y-58616001D01*
G75*
G02*
X58618001Y-58866000I-249999J0D01*
G01*
X57967999Y-58866000D01*
G75*
G02*
X57718000Y-58616001I0J249999D01*
G01*
G37*
%TD.AperFunction*%
%TD*%
%TO.P,R9,1*%
%TO.N,Net-(D1-Pad1)*%
%TA.AperFunction,SMDPad,CuDef*%
G36*
G01*
X66774001Y-56056000D02*
X63273999Y-56056000D01*
G75*
G02*
X63024000Y-55806001I0J249999D01*
G01*
X63024000Y-54780999D01*
G75*
G02*
X63273999Y-54531000I249999J0D01*
G01*
X66774001Y-54531000D01*
G75*
G02*
X67024000Y-54780999I0J-249999D01*
G01*
X67024000Y-55806001D01*
G75*
G02*
X66774001Y-56056000I-249999J0D01*
G01*
G37*
%TD.AperFunction*%
%TO.P,R9,2*%
%TO.N,Net-(Q1-Pad3)*%
%TA.AperFunction,SMDPad,CuDef*%
G36*
G01*
X66774001Y-54181000D02*
X63273999Y-54181000D01*
G75*
G02*
X63024000Y-53931001I0J249999D01*
G01*
X63024000Y-52905999D01*
G75*
G02*
X63273999Y-52656000I249999J0D01*
G01*
X66774001Y-52656000D01*
G75*
G02*
X67024000Y-52905999I0J-249999D01*
G01*
X67024000Y-53931001D01*
G75*
G02*
X66774001Y-54181000I-249999J0D01*
G01*
G37*
%TD.AperFunction*%
%TD*%
%TO.P,R10,2*%
%TO.N,VCC*%
%TA.AperFunction,SMDPad,CuDef*%
G36*
G01*
X64827999Y-42106000D02*
X65728001Y-42106000D01*
G75*
G02*
X65978000Y-42355999I0J-249999D01*
G01*
X65978000Y-43006001D01*
G75*
G02*
X65728001Y-43256000I-249999J0D01*
G01*
X64827999Y-43256000D01*
G75*
G02*
X64578000Y-43006001I0J249999D01*
G01*
X64578000Y-42355999D01*
G75*
G02*
X64827999Y-42106000I249999J0D01*
G01*
G37*
%TD.AperFunction*%
%TO.P,R10,1*%
%TO.N,Net-(R10-Pad1)*%
%TA.AperFunction,SMDPad,CuDef*%
G36*
G01*
X64827999Y-40056000D02*
X65728001Y-40056000D01*
G75*
G02*
X65978000Y-40305999I0J-249999D01*
G01*
X65978000Y-40956001D01*
G75*
G02*
X65728001Y-41206000I-249999J0D01*
G01*
X64827999Y-41206000D01*
G75*
G02*
X64578000Y-40956001I0J249999D01*
G01*
X64578000Y-40305999D01*
G75*
G02*
X64827999Y-40056000I249999J0D01*
G01*
G37*
%TD.AperFunction*%
%TD*%
%TO.P,R13,2*%
%TO.N,GND*%
%TA.AperFunction,SMDPad,CuDef*%
G36*
G01*
X41353000Y-52774001D02*
X41353000Y-51873999D01*
G75*
G02*
X41602999Y-51624000I249999J0D01*
G01*
X42253001Y-51624000D01*
G75*
G02*
X42503000Y-51873999I0J-249999D01*
G01*
X42503000Y-52774001D01*
G75*
G02*
X42253001Y-53024000I-249999J0D01*
G01*
X41602999Y-53024000D01*
G75*
G02*
X41353000Y-52774001I0J249999D01*
G01*
G37*
%TD.AperFunction*%
%TO.P,R13,1*%
%TO.N,Net-(R13-Pad1)*%
%TA.AperFunction,SMDPad,CuDef*%
G36*
G01*
X39303000Y-52774001D02*
X39303000Y-51873999D01*
G75*
G02*
X39552999Y-51624000I249999J0D01*
G01*
X40203001Y-51624000D01*
G75*
G02*
X40453000Y-51873999I0J-249999D01*
G01*
X40453000Y-52774001D01*
G75*
G02*
X40203001Y-53024000I-249999J0D01*
G01*
X39552999Y-53024000D01*
G75*
G02*
X39303000Y-52774001I0J249999D01*
G01*
G37*
%TD.AperFunction*%
%TD*%
%TO.P,U2,1*%
%TO.N,+3V3*%
%TA.AperFunction,SMDPad,CuDef*%
G36*
G01*
X53444000Y-47539000D02*
X53744000Y-47539000D01*
G75*
G02*
X53894000Y-47689000I0J-150000D01*
G01*
X53894000Y-49339000D01*
G75*
G02*
X53744000Y-49489000I-150000J0D01*
G01*
X53444000Y-49489000D01*
G75*
G02*
X53294000Y-49339000I0J150000D01*
G01*
X53294000Y-47689000D01*
G75*
G02*
X53444000Y-47539000I150000J0D01*
G01*
G37*
%TD.AperFunction*%
%TO.P,U2,2*%
%TO.N,Net-(PB0-Pad1)*%
%TA.AperFunction,SMDPad,CuDef*%
G36*
G01*
X52174000Y-47539000D02*
X52474000Y-47539000D01*
G75*
G02*
X52624000Y-47689000I0J-150000D01*
G01*
X52624000Y-49339000D01*
G75*
G02*
X52474000Y-49489000I-150000J0D01*
G01*
X52174000Y-49489000D01*
G75*
G02*
X52024000Y-49339000I0J150000D01*
G01*
X52024000Y-47689000D01*
G75*
G02*
X52174000Y-47539000I150000J0D01*
G01*
G37*
%TD.AperFunction*%
%TO.P,U2,3*%
%TO.N,Net-(PB1-Pad1)*%
%TA.AperFunction,SMDPad,CuDef*%
G36*
G01*
X50904000Y-47539000D02*
X51204000Y-47539000D01*
G75*
G02*
X51354000Y-47689000I0J-150000D01*
G01*
X51354000Y-49339000D01*
G75*
G02*
X51204000Y-49489000I-150000J0D01*
G01*
X50904000Y-49489000D01*
G75*
G02*
X50754000Y-49339000I0J150000D01*
G01*
X50754000Y-47689000D01*
G75*
G02*
X50904000Y-47539000I150000J0D01*
G01*
G37*
%TD.AperFunction*%
%TO.P,U2,4*%
%TO.N,nRES_ISP*%
%TA.AperFunction,SMDPad,CuDef*%
G36*
G01*
X49634000Y-47539000D02*
X49934000Y-47539000D01*
G75*
G02*
X50084000Y-47689000I0J-150000D01*
G01*
X50084000Y-49339000D01*
G75*
G02*
X49934000Y-49489000I-150000J0D01*
G01*
X49634000Y-49489000D01*
G75*
G02*
X49484000Y-49339000I0J150000D01*
G01*
X49484000Y-47689000D01*
G75*
G02*
X49634000Y-47539000I150000J0D01*
G01*
G37*
%TD.AperFunction*%
%TO.P,U2,5*%
%TO.N,LED_PWM*%
%TA.AperFunction,SMDPad,CuDef*%
G36*
G01*
X48364000Y-47539000D02*
X48664000Y-47539000D01*
G75*
G02*
X48814000Y-47689000I0J-150000D01*
G01*
X48814000Y-49339000D01*
G75*
G02*
X48664000Y-49489000I-150000J0D01*
G01*
X48364000Y-49489000D01*
G75*
G02*
X48214000Y-49339000I0J150000D01*
G01*
X48214000Y-47689000D01*
G75*
G02*
X48364000Y-47539000I150000J0D01*
G01*
G37*
%TD.AperFunction*%
%TO.P,U2,6*%
%TO.N,Net-(U2-Pad6)*%
%TA.AperFunction,SMDPad,CuDef*%
G36*
G01*
X47094000Y-47539000D02*
X47394000Y-47539000D01*
G75*
G02*
X47544000Y-47689000I0J-150000D01*
G01*
X47544000Y-49339000D01*
G75*
G02*
X47394000Y-49489000I-150000J0D01*
G01*
X47094000Y-49489000D01*
G75*
G02*
X46944000Y-49339000I0J150000D01*
G01*
X46944000Y-47689000D01*
G75*
G02*
X47094000Y-47539000I150000J0D01*
G01*
G37*
%TD.AperFunction*%
%TO.P,U2,7*%
%TO.N,MOSI_ISP*%
%TA.AperFunction,SMDPad,CuDef*%
G36*
G01*
X45824000Y-47539000D02*
X46124000Y-47539000D01*
G75*
G02*
X46274000Y-47689000I0J-150000D01*
G01*
X46274000Y-49339000D01*
G75*
G02*
X46124000Y-49489000I-150000J0D01*
G01*
X45824000Y-49489000D01*
G75*
G02*
X45674000Y-49339000I0J150000D01*
G01*
X45674000Y-47689000D01*
G75*
G02*
X45824000Y-47539000I150000J0D01*
G01*
G37*
%TD.AperFunction*%
%TO.P,U2,8*%
%TO.N,MISO_ISP*%
%TA.AperFunction,SMDPad,CuDef*%
G36*
G01*
X45824000Y-52489000D02*
X46124000Y-52489000D01*
G75*
G02*
X46274000Y-52639000I0J-150000D01*
G01*
X46274000Y-54289000D01*
G75*
G02*
X46124000Y-54439000I-150000J0D01*
G01*
X45824000Y-54439000D01*
G75*
G02*
X45674000Y-54289000I0J150000D01*
G01*
X45674000Y-52639000D01*
G75*
G02*
X45824000Y-52489000I150000J0D01*
G01*
G37*
%TD.AperFunction*%
%TO.P,U2,9*%
%TO.N,SCK_ISP*%
%TA.AperFunction,SMDPad,CuDef*%
G36*
G01*
X47094000Y-52489000D02*
X47394000Y-52489000D01*
G75*
G02*
X47544000Y-52639000I0J-150000D01*
G01*
X47544000Y-54289000D01*
G75*
G02*
X47394000Y-54439000I-150000J0D01*
G01*
X47094000Y-54439000D01*
G75*
G02*
X46944000Y-54289000I0J150000D01*
G01*
X46944000Y-52639000D01*
G75*
G02*
X47094000Y-52489000I150000J0D01*
G01*
G37*
%TD.AperFunction*%
%TO.P,U2,10*%
%TO.N,Net-(R1-Pad2)*%
%TA.AperFunction,SMDPad,CuDef*%
G36*
G01*
X48364000Y-52489000D02*
X48664000Y-52489000D01*
G75*
G02*
X48814000Y-52639000I0J-150000D01*
G01*
X48814000Y-54289000D01*
G75*
G02*
X48664000Y-54439000I-150000J0D01*
G01*
X48364000Y-54439000D01*
G75*
G02*
X48214000Y-54289000I0J150000D01*
G01*
X48214000Y-52639000D01*
G75*
G02*
X48364000Y-52489000I150000J0D01*
G01*
G37*
%TD.AperFunction*%
%TO.P,U2,11*%
%TO.N,Net-(R2-Pad2)*%
%TA.AperFunction,SMDPad,CuDef*%
G36*
G01*
X49634000Y-52489000D02*
X49934000Y-52489000D01*
G75*
G02*
X50084000Y-52639000I0J-150000D01*
G01*
X50084000Y-54289000D01*
G75*
G02*
X49934000Y-54439000I-150000J0D01*
G01*
X49634000Y-54439000D01*
G75*
G02*
X49484000Y-54289000I0J150000D01*
G01*
X49484000Y-52639000D01*
G75*
G02*
X49634000Y-52489000I150000J0D01*
G01*
G37*
%TD.AperFunction*%
%TO.P,U2,12*%
%TO.N,Net-(R4-Pad2)*%
%TA.AperFunction,SMDPad,CuDef*%
G36*
G01*
X50904000Y-52489000D02*
X51204000Y-52489000D01*
G75*
G02*
X51354000Y-52639000I0J-150000D01*
G01*
X51354000Y-54289000D01*
G75*
G02*
X51204000Y-54439000I-150000J0D01*
G01*
X50904000Y-54439000D01*
G75*
G02*
X50754000Y-54289000I0J150000D01*
G01*
X50754000Y-52639000D01*
G75*
G02*
X50904000Y-52489000I150000J0D01*
G01*
G37*
%TD.AperFunction*%
%TO.P,U2,13*%
%TO.N,Accel_Int*%
%TA.AperFunction,SMDPad,CuDef*%
G36*
G01*
X52174000Y-52489000D02*
X52474000Y-52489000D01*
G75*
G02*
X52624000Y-52639000I0J-150000D01*
G01*
X52624000Y-54289000D01*
G75*
G02*
X52474000Y-54439000I-150000J0D01*
G01*
X52174000Y-54439000D01*
G75*
G02*
X52024000Y-54289000I0J150000D01*
G01*
X52024000Y-52639000D01*
G75*
G02*
X52174000Y-52489000I150000J0D01*
G01*
G37*
%TD.AperFunction*%
%TO.P,U2,14*%
%TO.N,GND*%
%TA.AperFunction,SMDPad,CuDef*%
G36*
G01*
X53444000Y-52489000D02*
X53744000Y-52489000D01*
G75*
G02*
X53894000Y-52639000I0J-150000D01*
G01*
X53894000Y-54289000D01*
G75*
G02*
X53744000Y-54439000I-150000J0D01*
G01*
X53444000Y-54439000D01*
G75*
G02*
X53294000Y-54289000I0J150000D01*
G01*
X53294000Y-52639000D01*
G75*
G02*
X53444000Y-52489000I150000J0D01*
G01*
G37*
%TD.AperFunction*%
%TD*%
D17*
%TO.P,U4,1*%
%TO.N,VCC*%
X62524000Y-42606000D03*
%TO.P,U4,2*%
%TO.N,GND*%
X62524000Y-41656000D03*
%TO.P,U4,3*%
%TO.N,Net-(R10-Pad1)*%
X62524000Y-40706000D03*
%TO.P,U4,4*%
%TO.N,+3V3*%
X59904000Y-40706000D03*
%TO.P,U4,5*%
%TO.N,Net-(L1-Pad1)*%
X59904000Y-42606000D03*
%TD*%
%TO.P,U5,1*%
%TO.N,Net-(U5-Pad1)*%
%TA.AperFunction,SMDPad,CuDef*%
G36*
G01*
X33531000Y-42484000D02*
X33531000Y-42384000D01*
G75*
G02*
X33581000Y-42334000I50000J0D01*
G01*
X34031000Y-42334000D01*
G75*
G02*
X34081000Y-42384000I0J-50000D01*
G01*
X34081000Y-42484000D01*
G75*
G02*
X34031000Y-42534000I-50000J0D01*
G01*
X33581000Y-42534000D01*
G75*
G02*
X33531000Y-42484000I0J50000D01*
G01*
G37*
%TD.AperFunction*%
%TO.P,U5,2*%
%TO.N,Net-(U5-Pad2)*%
%TA.AperFunction,SMDPad,CuDef*%
G36*
G01*
X33531000Y-42884000D02*
X33531000Y-42784000D01*
G75*
G02*
X33581000Y-42734000I50000J0D01*
G01*
X34031000Y-42734000D01*
G75*
G02*
X34081000Y-42784000I0J-50000D01*
G01*
X34081000Y-42884000D01*
G75*
G02*
X34031000Y-42934000I-50000J0D01*
G01*
X33581000Y-42934000D01*
G75*
G02*
X33531000Y-42884000I0J50000D01*
G01*
G37*
%TD.AperFunction*%
%TO.P,U5,3*%
%TO.N,Net-(U5-Pad3)*%
%TA.AperFunction,SMDPad,CuDef*%
G36*
G01*
X33531000Y-43284000D02*
X33531000Y-43184000D01*
G75*
G02*
X33581000Y-43134000I50000J0D01*
G01*
X34031000Y-43134000D01*
G75*
G02*
X34081000Y-43184000I0J-50000D01*
G01*
X34081000Y-43284000D01*
G75*
G02*
X34031000Y-43334000I-50000J0D01*
G01*
X33581000Y-43334000D01*
G75*
G02*
X33531000Y-43284000I0J50000D01*
G01*
G37*
%TD.AperFunction*%
%TO.P,U5,4*%
%TO.N,Net-(U5-Pad4)*%
%TA.AperFunction,SMDPad,CuDef*%
G36*
G01*
X33531000Y-43684000D02*
X33531000Y-43584000D01*
G75*
G02*
X33581000Y-43534000I50000J0D01*
G01*
X34031000Y-43534000D01*
G75*
G02*
X34081000Y-43584000I0J-50000D01*
G01*
X34081000Y-43684000D01*
G75*
G02*
X34031000Y-43734000I-50000J0D01*
G01*
X33581000Y-43734000D01*
G75*
G02*
X33531000Y-43684000I0J50000D01*
G01*
G37*
%TD.AperFunction*%
%TO.P,U5,5*%
%TO.N,Net-(U5-Pad5)*%
%TA.AperFunction,SMDPad,CuDef*%
G36*
G01*
X33531000Y-44084000D02*
X33531000Y-43984000D01*
G75*
G02*
X33581000Y-43934000I50000J0D01*
G01*
X34031000Y-43934000D01*
G75*
G02*
X34081000Y-43984000I0J-50000D01*
G01*
X34081000Y-44084000D01*
G75*
G02*
X34031000Y-44134000I-50000J0D01*
G01*
X33581000Y-44134000D01*
G75*
G02*
X33531000Y-44084000I0J50000D01*
G01*
G37*
%TD.AperFunction*%
%TO.P,U5,6*%
%TO.N,Net-(U5-Pad6)*%
%TA.AperFunction,SMDPad,CuDef*%
G36*
G01*
X33531000Y-44484000D02*
X33531000Y-44384000D01*
G75*
G02*
X33581000Y-44334000I50000J0D01*
G01*
X34031000Y-44334000D01*
G75*
G02*
X34081000Y-44384000I0J-50000D01*
G01*
X34081000Y-44484000D01*
G75*
G02*
X34031000Y-44534000I-50000J0D01*
G01*
X33581000Y-44534000D01*
G75*
G02*
X33531000Y-44484000I0J50000D01*
G01*
G37*
%TD.AperFunction*%
%TO.P,U5,7*%
%TO.N,Net-(U5-Pad7)*%
%TA.AperFunction,SMDPad,CuDef*%
G36*
G01*
X34356000Y-45209000D02*
X34256000Y-45209000D01*
G75*
G02*
X34206000Y-45159000I0J50000D01*
G01*
X34206000Y-44709000D01*
G75*
G02*
X34256000Y-44659000I50000J0D01*
G01*
X34356000Y-44659000D01*
G75*
G02*
X34406000Y-44709000I0J-50000D01*
G01*
X34406000Y-45159000D01*
G75*
G02*
X34356000Y-45209000I-50000J0D01*
G01*
G37*
%TD.AperFunction*%
%TO.P,U5,8*%
%TO.N,+3V3*%
%TA.AperFunction,SMDPad,CuDef*%
G36*
G01*
X34756000Y-45209000D02*
X34656000Y-45209000D01*
G75*
G02*
X34606000Y-45159000I0J50000D01*
G01*
X34606000Y-44709000D01*
G75*
G02*
X34656000Y-44659000I50000J0D01*
G01*
X34756000Y-44659000D01*
G75*
G02*
X34806000Y-44709000I0J-50000D01*
G01*
X34806000Y-45159000D01*
G75*
G02*
X34756000Y-45209000I-50000J0D01*
G01*
G37*
%TD.AperFunction*%
%TO.P,U5,9*%
%TO.N,Net-(R13-Pad1)*%
%TA.AperFunction,SMDPad,CuDef*%
G36*
G01*
X35156000Y-45209000D02*
X35056000Y-45209000D01*
G75*
G02*
X35006000Y-45159000I0J50000D01*
G01*
X35006000Y-44709000D01*
G75*
G02*
X35056000Y-44659000I50000J0D01*
G01*
X35156000Y-44659000D01*
G75*
G02*
X35206000Y-44709000I0J-50000D01*
G01*
X35206000Y-45159000D01*
G75*
G02*
X35156000Y-45209000I-50000J0D01*
G01*
G37*
%TD.AperFunction*%
%TO.P,U5,10*%
%TO.N,Net-(C4-Pad1)*%
%TA.AperFunction,SMDPad,CuDef*%
G36*
G01*
X35556000Y-45209000D02*
X35456000Y-45209000D01*
G75*
G02*
X35406000Y-45159000I0J50000D01*
G01*
X35406000Y-44709000D01*
G75*
G02*
X35456000Y-44659000I50000J0D01*
G01*
X35556000Y-44659000D01*
G75*
G02*
X35606000Y-44709000I0J-50000D01*
G01*
X35606000Y-45159000D01*
G75*
G02*
X35556000Y-45209000I-50000J0D01*
G01*
G37*
%TD.AperFunction*%
%TO.P,U5,11*%
%TO.N,Net-(U5-Pad11)*%
%TA.AperFunction,SMDPad,CuDef*%
G36*
G01*
X35956000Y-45209000D02*
X35856000Y-45209000D01*
G75*
G02*
X35806000Y-45159000I0J50000D01*
G01*
X35806000Y-44709000D01*
G75*
G02*
X35856000Y-44659000I50000J0D01*
G01*
X35956000Y-44659000D01*
G75*
G02*
X36006000Y-44709000I0J-50000D01*
G01*
X36006000Y-45159000D01*
G75*
G02*
X35956000Y-45209000I-50000J0D01*
G01*
G37*
%TD.AperFunction*%
%TO.P,U5,12*%
%TO.N,Accel_Int*%
%TA.AperFunction,SMDPad,CuDef*%
G36*
G01*
X36356000Y-45209000D02*
X36256000Y-45209000D01*
G75*
G02*
X36206000Y-45159000I0J50000D01*
G01*
X36206000Y-44709000D01*
G75*
G02*
X36256000Y-44659000I50000J0D01*
G01*
X36356000Y-44659000D01*
G75*
G02*
X36406000Y-44709000I0J-50000D01*
G01*
X36406000Y-45159000D01*
G75*
G02*
X36356000Y-45209000I-50000J0D01*
G01*
G37*
%TD.AperFunction*%
%TO.P,U5,13*%
%TO.N,+3V3*%
%TA.AperFunction,SMDPad,CuDef*%
G36*
G01*
X36531000Y-44484000D02*
X36531000Y-44384000D01*
G75*
G02*
X36581000Y-44334000I50000J0D01*
G01*
X37031000Y-44334000D01*
G75*
G02*
X37081000Y-44384000I0J-50000D01*
G01*
X37081000Y-44484000D01*
G75*
G02*
X37031000Y-44534000I-50000J0D01*
G01*
X36581000Y-44534000D01*
G75*
G02*
X36531000Y-44484000I0J50000D01*
G01*
G37*
%TD.AperFunction*%
%TO.P,U5,14*%
%TO.N,Net-(U5-Pad14)*%
%TA.AperFunction,SMDPad,CuDef*%
G36*
G01*
X36531000Y-44084000D02*
X36531000Y-43984000D01*
G75*
G02*
X36581000Y-43934000I50000J0D01*
G01*
X37031000Y-43934000D01*
G75*
G02*
X37081000Y-43984000I0J-50000D01*
G01*
X37081000Y-44084000D01*
G75*
G02*
X37031000Y-44134000I-50000J0D01*
G01*
X36581000Y-44134000D01*
G75*
G02*
X36531000Y-44084000I0J50000D01*
G01*
G37*
%TD.AperFunction*%
%TO.P,U5,15*%
%TO.N,Net-(U5-Pad15)*%
%TA.AperFunction,SMDPad,CuDef*%
G36*
G01*
X36531000Y-43684000D02*
X36531000Y-43584000D01*
G75*
G02*
X36581000Y-43534000I50000J0D01*
G01*
X37031000Y-43534000D01*
G75*
G02*
X37081000Y-43584000I0J-50000D01*
G01*
X37081000Y-43684000D01*
G75*
G02*
X37031000Y-43734000I-50000J0D01*
G01*
X36581000Y-43734000D01*
G75*
G02*
X36531000Y-43684000I0J50000D01*
G01*
G37*
%TD.AperFunction*%
%TO.P,U5,16*%
%TO.N,Net-(U5-Pad16)*%
%TA.AperFunction,SMDPad,CuDef*%
G36*
G01*
X36531000Y-43284000D02*
X36531000Y-43184000D01*
G75*
G02*
X36581000Y-43134000I50000J0D01*
G01*
X37031000Y-43134000D01*
G75*
G02*
X37081000Y-43184000I0J-50000D01*
G01*
X37081000Y-43284000D01*
G75*
G02*
X37031000Y-43334000I-50000J0D01*
G01*
X36581000Y-43334000D01*
G75*
G02*
X36531000Y-43284000I0J50000D01*
G01*
G37*
%TD.AperFunction*%
%TO.P,U5,17*%
%TO.N,Net-(U5-Pad17)*%
%TA.AperFunction,SMDPad,CuDef*%
G36*
G01*
X36531000Y-42884000D02*
X36531000Y-42784000D01*
G75*
G02*
X36581000Y-42734000I50000J0D01*
G01*
X37031000Y-42734000D01*
G75*
G02*
X37081000Y-42784000I0J-50000D01*
G01*
X37081000Y-42884000D01*
G75*
G02*
X37031000Y-42934000I-50000J0D01*
G01*
X36581000Y-42934000D01*
G75*
G02*
X36531000Y-42884000I0J50000D01*
G01*
G37*
%TD.AperFunction*%
%TO.P,U5,18*%
%TO.N,GND*%
%TA.AperFunction,SMDPad,CuDef*%
G36*
G01*
X36531000Y-42484000D02*
X36531000Y-42384000D01*
G75*
G02*
X36581000Y-42334000I50000J0D01*
G01*
X37031000Y-42334000D01*
G75*
G02*
X37081000Y-42384000I0J-50000D01*
G01*
X37081000Y-42484000D01*
G75*
G02*
X37031000Y-42534000I-50000J0D01*
G01*
X36581000Y-42534000D01*
G75*
G02*
X36531000Y-42484000I0J50000D01*
G01*
G37*
%TD.AperFunction*%
%TO.P,U5,19*%
%TO.N,Net-(U5-Pad19)*%
%TA.AperFunction,SMDPad,CuDef*%
G36*
G01*
X36356000Y-42209000D02*
X36256000Y-42209000D01*
G75*
G02*
X36206000Y-42159000I0J50000D01*
G01*
X36206000Y-41709000D01*
G75*
G02*
X36256000Y-41659000I50000J0D01*
G01*
X36356000Y-41659000D01*
G75*
G02*
X36406000Y-41709000I0J-50000D01*
G01*
X36406000Y-42159000D01*
G75*
G02*
X36356000Y-42209000I-50000J0D01*
G01*
G37*
%TD.AperFunction*%
%TO.P,U5,20*%
%TO.N,GND*%
%TA.AperFunction,SMDPad,CuDef*%
G36*
G01*
X35956000Y-42209000D02*
X35856000Y-42209000D01*
G75*
G02*
X35806000Y-42159000I0J50000D01*
G01*
X35806000Y-41709000D01*
G75*
G02*
X35856000Y-41659000I50000J0D01*
G01*
X35956000Y-41659000D01*
G75*
G02*
X36006000Y-41709000I0J-50000D01*
G01*
X36006000Y-42159000D01*
G75*
G02*
X35956000Y-42209000I-50000J0D01*
G01*
G37*
%TD.AperFunction*%
%TO.P,U5,21*%
%TO.N,Net-(U5-Pad21)*%
%TA.AperFunction,SMDPad,CuDef*%
G36*
G01*
X35556000Y-42209000D02*
X35456000Y-42209000D01*
G75*
G02*
X35406000Y-42159000I0J50000D01*
G01*
X35406000Y-41709000D01*
G75*
G02*
X35456000Y-41659000I50000J0D01*
G01*
X35556000Y-41659000D01*
G75*
G02*
X35606000Y-41709000I0J-50000D01*
G01*
X35606000Y-42159000D01*
G75*
G02*
X35556000Y-42209000I-50000J0D01*
G01*
G37*
%TD.AperFunction*%
%TO.P,U5,22*%
%TO.N,+3V3*%
%TA.AperFunction,SMDPad,CuDef*%
G36*
G01*
X35156000Y-42209000D02*
X35056000Y-42209000D01*
G75*
G02*
X35006000Y-42159000I0J50000D01*
G01*
X35006000Y-41709000D01*
G75*
G02*
X35056000Y-41659000I50000J0D01*
G01*
X35156000Y-41659000D01*
G75*
G02*
X35206000Y-41709000I0J-50000D01*
G01*
X35206000Y-42159000D01*
G75*
G02*
X35156000Y-42209000I-50000J0D01*
G01*
G37*
%TD.AperFunction*%
%TO.P,U5,23*%
%TO.N,SCK_ISP*%
%TA.AperFunction,SMDPad,CuDef*%
G36*
G01*
X34756000Y-42209000D02*
X34656000Y-42209000D01*
G75*
G02*
X34606000Y-42159000I0J50000D01*
G01*
X34606000Y-41709000D01*
G75*
G02*
X34656000Y-41659000I50000J0D01*
G01*
X34756000Y-41659000D01*
G75*
G02*
X34806000Y-41709000I0J-50000D01*
G01*
X34806000Y-42159000D01*
G75*
G02*
X34756000Y-42209000I-50000J0D01*
G01*
G37*
%TD.AperFunction*%
%TO.P,U5,24*%
%TO.N,MOSI_ISP*%
%TA.AperFunction,SMDPad,CuDef*%
G36*
G01*
X34356000Y-42209000D02*
X34256000Y-42209000D01*
G75*
G02*
X34206000Y-42159000I0J50000D01*
G01*
X34206000Y-41709000D01*
G75*
G02*
X34256000Y-41659000I50000J0D01*
G01*
X34356000Y-41659000D01*
G75*
G02*
X34406000Y-41709000I0J-50000D01*
G01*
X34406000Y-42159000D01*
G75*
G02*
X34356000Y-42209000I-50000J0D01*
G01*
G37*
%TD.AperFunction*%
%TD*%
D18*
%TO.N,GND*%
X63754000Y-41581001D03*
X53467000Y-55372000D03*
X54864000Y-50927000D03*
X60325000Y-56388000D03*
X58293000Y-60706000D03*
X37084000Y-51181000D03*
X43815000Y-53213000D03*
X56896000Y-54610000D03*
X57404000Y-56515000D03*
X61849000Y-56007000D03*
X66548000Y-51054000D03*
X63881000Y-49530000D03*
X61722000Y-38608000D03*
X52984400Y-42824400D03*
X56337200Y-43738800D03*
X60299600Y-44856400D03*
X62839600Y-46278800D03*
X40182800Y-36830000D03*
X52222400Y-36576000D03*
X66802000Y-58674000D03*
X32004000Y-31750000D03*
X33324800Y-36271200D03*
X47294800Y-45313600D03*
X38100000Y-41910000D03*
X39116000Y-44704000D03*
X62788800Y-36779200D03*
X40894000Y-60452000D03*
%TO.N,SCK_ISP*%
X44831000Y-43053000D03*
X47371000Y-43180000D03*
%TO.N,nRES_ISP*%
X46355000Y-56642000D03*
X49784000Y-46609000D03*
%TO.N,Accel_Int*%
X44577000Y-50927000D03*
X47244000Y-50927000D03*
%TO.N,VCC*%
X57404000Y-51816000D03*
X61722000Y-49784000D03*
%TO.N,+3V3*%
X32385000Y-34036000D03*
X44831000Y-34163000D03*
X44450000Y-63246000D03*
X58674000Y-63246000D03*
X32941000Y-64389000D03*
X55118000Y-47371000D03*
X42418000Y-42672000D03*
X35179000Y-49403000D03*
X55219600Y-41198800D03*
X57277000Y-34036000D03*
%TD*%
D19*
%TO.N,GND*%
X63679001Y-41656000D02*
X63754000Y-41581001D01*
X62524000Y-41656000D02*
X63679001Y-41656000D01*
X60502800Y-36982400D02*
X61214000Y-37693600D01*
X59740800Y-36982400D02*
X60502800Y-36982400D01*
D20*
X36175990Y-41294010D02*
X35906000Y-41564000D01*
X37103010Y-41294010D02*
X36175990Y-41294010D01*
X37228571Y-41511429D02*
X37103010Y-41294010D01*
X35906000Y-41564000D02*
X35906000Y-41934000D01*
X37338000Y-41648000D02*
X37228571Y-41511429D01*
X36806000Y-42434000D02*
X37830000Y-42434000D01*
%TO.N,Net-(C4-Pad1)*%
X35506000Y-44934000D02*
X35506000Y-45354302D01*
X35506000Y-45354302D02*
X36125698Y-45974000D01*
X36125698Y-45974000D02*
X37719000Y-45974000D01*
X39878000Y-48133000D02*
X39878000Y-49022000D01*
X37719000Y-45974000D02*
X39878000Y-48133000D01*
%TO.N,MISO_ISP*%
X45974000Y-54864000D02*
X45974000Y-53464000D01*
X45720000Y-55118000D02*
X45974000Y-54864000D01*
X38227000Y-55118000D02*
X45720000Y-55118000D01*
X36703000Y-53594000D02*
X38227000Y-55118000D01*
%TO.N,SCK_ISP*%
X44450000Y-42799000D02*
X44450000Y-49530000D01*
X47244000Y-52324000D02*
X47244000Y-53464000D01*
X44450000Y-49530000D02*
X47244000Y-52324000D01*
X44577000Y-42799000D02*
X44831000Y-43053000D01*
X44450000Y-42799000D02*
X44577000Y-42799000D01*
X47371000Y-43180000D02*
X48514000Y-43180000D01*
X47244000Y-54439000D02*
X47244000Y-53464000D01*
X45803000Y-55880000D02*
X47244000Y-54439000D01*
X36703000Y-56134000D02*
X45803000Y-55880000D01*
X41529000Y-39878000D02*
X44450000Y-42799000D01*
X36195000Y-39878000D02*
X41529000Y-39878000D01*
X34706000Y-40894000D02*
X36195000Y-39878000D01*
X34706000Y-41934000D02*
X34706000Y-40894000D01*
D19*
X46990000Y-42799000D02*
X47371000Y-43180000D01*
X46990000Y-41910000D02*
X46990000Y-42799000D01*
D20*
%TO.N,MOSI_ISP*%
X45974000Y-43053000D02*
X45974000Y-48514000D01*
X34306000Y-41934000D02*
X34306000Y-41005000D01*
X43561000Y-40640000D02*
X45974000Y-43053000D01*
X34290000Y-41021000D02*
X34306000Y-41005000D01*
X32639000Y-54610000D02*
X32639000Y-42037000D01*
X33147000Y-41402000D02*
X34290000Y-41021000D01*
X32639000Y-42037000D02*
X33147000Y-41402000D01*
X34163000Y-56134000D02*
X32639000Y-54610000D01*
X35687000Y-39243000D02*
X42037000Y-39243000D01*
X34306000Y-40513000D02*
X35687000Y-39243000D01*
X34290000Y-41021000D02*
X34306000Y-40513000D01*
D19*
X42727216Y-39878000D02*
X42699608Y-39850392D01*
X48514000Y-39878000D02*
X42727216Y-39878000D01*
D20*
X42699608Y-39850392D02*
X43561000Y-40640000D01*
X42037000Y-39243000D02*
X42699608Y-39850392D01*
D19*
X46990000Y-38354000D02*
X48514000Y-39878000D01*
X46990000Y-38100000D02*
X46990000Y-38354000D01*
D20*
%TO.N,nRES_ISP*%
X49784000Y-46609000D02*
X49784000Y-48514000D01*
X44958000Y-56642000D02*
X46355000Y-56642000D01*
X38989000Y-56769000D02*
X44958000Y-56642000D01*
X36703000Y-58674000D02*
X38989000Y-56769000D01*
D21*
%TO.N,Net-(L1-Pad1)*%
X59904000Y-42606000D02*
X58100000Y-42606000D01*
X57708800Y-42214800D02*
X57708800Y-40810400D01*
X58100000Y-42606000D02*
X57708800Y-42214800D01*
D20*
%TO.N,Net-(R4-Pad2)*%
X52560000Y-58547000D02*
X50038000Y-58547000D01*
X50038000Y-58547000D02*
X50038000Y-57404000D01*
X51054000Y-56388000D02*
X51054000Y-53464000D01*
X50038000Y-57404000D02*
X51054000Y-56388000D01*
%TO.N,LED_PWM*%
X50038000Y-44704000D02*
X48514000Y-46101000D01*
X57658000Y-44704000D02*
X50038000Y-44704000D01*
X60071000Y-47117000D02*
X57658000Y-44704000D01*
X48514000Y-46101000D02*
X48514000Y-48514000D01*
X60071000Y-47734000D02*
X60071000Y-47117000D01*
D22*
%TO.N,Net-(R10-Pad1)*%
X62599000Y-40631000D02*
X62524000Y-40706000D01*
X65278000Y-40631000D02*
X62599000Y-40631000D01*
D20*
%TO.N,Net-(R13-Pad1)*%
X35106000Y-44934000D02*
X35106000Y-45520000D01*
X35106000Y-45520000D02*
X36068000Y-46482000D01*
X36068000Y-46482000D02*
X37465000Y-46482000D01*
X37465000Y-46482000D02*
X38481000Y-47498000D01*
X38481000Y-50927000D02*
X39878000Y-52324000D01*
X38481000Y-47498000D02*
X38481000Y-50927000D01*
%TO.N,Accel_Int*%
X36306000Y-44934000D02*
X36425000Y-44934000D01*
X36425000Y-44934000D02*
X36830000Y-45339000D01*
X36830000Y-45339000D02*
X38100000Y-45339000D01*
X38100000Y-45339000D02*
X39878000Y-47117000D01*
X39878000Y-47117000D02*
X42799000Y-47117000D01*
X42799000Y-47117000D02*
X43815000Y-48133000D01*
X43815000Y-48133000D02*
X43815000Y-50165000D01*
X43815000Y-50165000D02*
X44577000Y-50927000D01*
X52324000Y-52489000D02*
X52324000Y-53464000D01*
X50762000Y-50927000D02*
X52324000Y-52489000D01*
X47244000Y-50927000D02*
X50762000Y-50927000D01*
D21*
%TO.N,VCC*%
X65913000Y-43316000D02*
X65278000Y-42681000D01*
X65913000Y-46482000D02*
X65913000Y-43316000D01*
X65027999Y-42931001D02*
X62524000Y-42931001D01*
X65278000Y-42681000D02*
X65027999Y-42931001D01*
D20*
X54610000Y-58547000D02*
X54610000Y-60706000D01*
X54610000Y-58547000D02*
X54610000Y-56388000D01*
X54610000Y-56388000D02*
X55118000Y-55880000D01*
X55118000Y-55880000D02*
X55118000Y-53848000D01*
X57150000Y-51816000D02*
X57404000Y-51816000D01*
X55118000Y-53848000D02*
X57150000Y-51816000D01*
X65024000Y-46482000D02*
X65913000Y-46482000D01*
X61722000Y-49784000D02*
X65024000Y-46482000D01*
%TO.N,Net-(Q1-Pad1)*%
X60071000Y-49784000D02*
X60071000Y-50165000D01*
X58386000Y-51850000D02*
X58386000Y-53406000D01*
X60071000Y-50165000D02*
X58386000Y-51850000D01*
X58386000Y-53406000D02*
X56449000Y-53406000D01*
X56449000Y-53406000D02*
X55753000Y-54102000D01*
X55753000Y-54102000D02*
X55753000Y-56515000D01*
X57404000Y-58166000D02*
X58293000Y-58166000D01*
X55753000Y-56515000D02*
X57404000Y-58166000D01*
D21*
%TO.N,Net-(Q1-Pad3)*%
X60486000Y-54356000D02*
X61341000Y-54356000D01*
X62278500Y-53418500D02*
X65024000Y-53418500D01*
X61341000Y-54356000D02*
X62278500Y-53418500D01*
%TO.N,Net-(D1-Pad1)*%
X65024000Y-62230000D02*
X64008000Y-63246000D01*
X65024000Y-55293500D02*
X65024000Y-62230000D01*
X64008000Y-63246000D02*
X64008000Y-65024000D01*
X64008000Y-65024000D02*
X62992000Y-66040000D01*
X53316000Y-66040000D02*
X50522000Y-63246000D01*
X62992000Y-66040000D02*
X53316000Y-66040000D01*
X53316000Y-66040000D02*
X38100000Y-66040000D01*
X37084000Y-65024000D02*
X37084000Y-63246000D01*
X38100000Y-66040000D02*
X37084000Y-65024000D01*
X37084000Y-34036000D02*
X38862000Y-34036000D01*
X38862000Y-34036000D02*
X41275000Y-31623000D01*
X64008000Y-33275998D02*
X64008000Y-34036000D01*
X62355002Y-31623000D02*
X64008000Y-33275998D01*
X50546000Y-31623000D02*
X50546000Y-34036000D01*
X41275000Y-31623000D02*
X50546000Y-31623000D01*
X50546000Y-31623000D02*
X62355002Y-31623000D01*
X38100000Y-66040000D02*
X37719000Y-66421000D01*
X37719000Y-66421000D02*
X31877000Y-66421000D01*
X31877000Y-66421000D02*
X31877000Y-66294000D01*
X31080990Y-65497990D02*
X31080990Y-40928010D01*
X31877000Y-66294000D02*
X31080990Y-65497990D01*
X37084000Y-34925000D02*
X37084000Y-34036000D01*
X31080990Y-40928010D02*
X37084000Y-34925000D01*
D20*
%TO.N,+3V3*%
X34706000Y-47844000D02*
X34544000Y-48006000D01*
X34706000Y-44934000D02*
X34706000Y-47844000D01*
X36806000Y-44434000D02*
X37735000Y-44434000D01*
X37735000Y-44434000D02*
X39116000Y-43053000D01*
X40259000Y-43053000D02*
X40894000Y-42418000D01*
X39116000Y-43053000D02*
X40259000Y-43053000D01*
D21*
X32385000Y-34036000D02*
X34084000Y-34036000D01*
X47419000Y-34163000D02*
X47546000Y-34036000D01*
X44831000Y-34163000D02*
X47419000Y-34163000D01*
X58674000Y-63246000D02*
X61008000Y-63246000D01*
X44450000Y-63246000D02*
X47522000Y-63246000D01*
X32941000Y-64389000D02*
X34084000Y-63246000D01*
D22*
X34544000Y-53213000D02*
X34163000Y-53594000D01*
X54229000Y-47879000D02*
X53594000Y-48514000D01*
X55626000Y-47879000D02*
X55753000Y-47879000D01*
X55118000Y-47371000D02*
X55626000Y-47879000D01*
X55753000Y-47879000D02*
X54229000Y-47879000D01*
X57023000Y-47879000D02*
X55753000Y-47879000D01*
X41148000Y-42672000D02*
X40894000Y-42418000D01*
X42418000Y-42672000D02*
X41148000Y-42672000D01*
D20*
X35106000Y-41934000D02*
X35106000Y-41475000D01*
X35106000Y-41475000D02*
X35687000Y-40894000D01*
X39370000Y-40894000D02*
X40894000Y-42418000D01*
X35687000Y-40894000D02*
X39370000Y-40894000D01*
X35179000Y-49403000D02*
X34925000Y-49403000D01*
X34925000Y-49403000D02*
X34544000Y-49022000D01*
D22*
X34544000Y-49022000D02*
X34544000Y-53213000D01*
X34544000Y-48006000D02*
X34544000Y-49022000D01*
D21*
X57708800Y-37000400D02*
X57690800Y-36982400D01*
X57708800Y-38760400D02*
X57708800Y-37000400D01*
D19*
X59904000Y-40706000D02*
X59904000Y-39888800D01*
X58775600Y-38760400D02*
X57708800Y-38760400D01*
X59904000Y-39888800D02*
X58775600Y-38760400D01*
X57658000Y-38760400D02*
X57708800Y-38760400D01*
X55219600Y-41198800D02*
X57658000Y-38760400D01*
D21*
X60881000Y-34163000D02*
X61008000Y-34036000D01*
X58547000Y-34163000D02*
X57404000Y-34163000D01*
X57404000Y-34163000D02*
X57277000Y-34036000D01*
X58547000Y-34163000D02*
X60881000Y-34163000D01*
X57690800Y-36982400D02*
X57690800Y-34449800D01*
X57690800Y-34449800D02*
X57404000Y-34163000D01*
D19*
X50564000Y-43180000D02*
X50564000Y-39878000D01*
X53898800Y-39878000D02*
X55219600Y-41198800D01*
X50564000Y-39878000D02*
X53898800Y-39878000D01*
X57048400Y-38100000D02*
X57708800Y-38760400D01*
X55880000Y-38100000D02*
X57048400Y-38100000D01*
%TO.N,Net-(PB0-Pad1)*%
X52324000Y-47244000D02*
X53594000Y-45974000D01*
X52324000Y-48514000D02*
X52324000Y-47244000D01*
D20*
%TO.N,Net-(R1-Pad2)*%
X43180000Y-59944000D02*
X45466000Y-57658000D01*
X45466000Y-57658000D02*
X46990000Y-57658000D01*
X48514000Y-56134000D02*
X48514000Y-53464000D01*
X46990000Y-57658000D02*
X48514000Y-56134000D01*
X43180000Y-59944000D02*
X44450000Y-61214000D01*
X52052000Y-61214000D02*
X52560000Y-60706000D01*
X44450000Y-61214000D02*
X52052000Y-61214000D01*
%TO.N,Net-(R2-Pad2)*%
X49784000Y-53464000D02*
X49784000Y-55880000D01*
X47988000Y-57676000D02*
X47988000Y-58547000D01*
X49784000Y-55880000D02*
X47988000Y-57676000D01*
X47117000Y-58547000D02*
X45720000Y-59944000D01*
X47988000Y-58547000D02*
X47117000Y-58547000D01*
D19*
%TO.N,Net-(PB1-Pad1)*%
X51054000Y-46482000D02*
X51562000Y-45974000D01*
X51054000Y-48514000D02*
X51054000Y-46482000D01*
%TD*%
D23*
%TO.N,GND*%
G36*
X67412001Y-67412000D02*
G01*
X63192029Y-67412000D01*
X63263507Y-67404960D01*
X63524581Y-67325764D01*
X63765188Y-67197157D01*
X63976081Y-67024081D01*
X64019454Y-66971231D01*
X64939236Y-66051450D01*
X64992081Y-66008081D01*
X65035453Y-65955233D01*
X65165156Y-65797189D01*
X65165158Y-65797187D01*
X65293764Y-65556581D01*
X65336272Y-65416452D01*
X65372960Y-65295508D01*
X65383935Y-65184072D01*
X65393000Y-65092037D01*
X65393000Y-65092029D01*
X65399700Y-65024000D01*
X65393000Y-64955971D01*
X65393000Y-64577192D01*
X65396072Y-64546000D01*
X65396072Y-63816613D01*
X65955236Y-63257450D01*
X66008081Y-63214081D01*
X66181157Y-63003188D01*
X66309764Y-62762581D01*
X66388960Y-62501507D01*
X66409000Y-62298037D01*
X66409000Y-62298029D01*
X66415700Y-62230000D01*
X66409000Y-62161971D01*
X66409000Y-56694072D01*
X66774001Y-56694072D01*
X66947255Y-56677008D01*
X67113851Y-56626472D01*
X67267387Y-56544405D01*
X67401962Y-56433962D01*
X67412001Y-56421730D01*
X67412001Y-67412000D01*
G37*
X67412001Y-67412000D02*
X63192029Y-67412000D01*
X63263507Y-67404960D01*
X63524581Y-67325764D01*
X63765188Y-67197157D01*
X63976081Y-67024081D01*
X64019454Y-66971231D01*
X64939236Y-66051450D01*
X64992081Y-66008081D01*
X65035453Y-65955233D01*
X65165156Y-65797189D01*
X65165158Y-65797187D01*
X65293764Y-65556581D01*
X65336272Y-65416452D01*
X65372960Y-65295508D01*
X65383935Y-65184072D01*
X65393000Y-65092037D01*
X65393000Y-65092029D01*
X65399700Y-65024000D01*
X65393000Y-64955971D01*
X65393000Y-64577192D01*
X65396072Y-64546000D01*
X65396072Y-63816613D01*
X65955236Y-63257450D01*
X66008081Y-63214081D01*
X66181157Y-63003188D01*
X66309764Y-62762581D01*
X66388960Y-62501507D01*
X66409000Y-62298037D01*
X66409000Y-62298029D01*
X66415700Y-62230000D01*
X66409000Y-62161971D01*
X66409000Y-56694072D01*
X66774001Y-56694072D01*
X66947255Y-56677008D01*
X67113851Y-56626472D01*
X67267387Y-56544405D01*
X67401962Y-56433962D01*
X67412001Y-56421730D01*
X67412001Y-67412000D01*
G36*
X32727656Y-55738103D02*
G01*
X32678000Y-55987740D01*
X32678000Y-56280260D01*
X32735068Y-56567158D01*
X32847010Y-56837411D01*
X33009525Y-57080632D01*
X33216368Y-57287475D01*
X33398534Y-57409195D01*
X33281645Y-57478822D01*
X33065412Y-57673731D01*
X32891359Y-57907080D01*
X32766175Y-58169901D01*
X32721524Y-58317110D01*
X32842845Y-58547000D01*
X34036000Y-58547000D01*
X34036000Y-58527000D01*
X34290000Y-58527000D01*
X34290000Y-58547000D01*
X34310000Y-58547000D01*
X34310000Y-58801000D01*
X34290000Y-58801000D01*
X34290000Y-59994814D01*
X34519891Y-60115481D01*
X34794252Y-60018157D01*
X35044355Y-59869178D01*
X35260588Y-59674269D01*
X35431900Y-59444594D01*
X35549525Y-59620632D01*
X35756368Y-59827475D01*
X35999589Y-59989990D01*
X36269842Y-60101932D01*
X36556740Y-60159000D01*
X36849260Y-60159000D01*
X37136158Y-60101932D01*
X37406411Y-59989990D01*
X37649632Y-59827475D01*
X37856475Y-59620632D01*
X38018990Y-59377411D01*
X38130932Y-59107158D01*
X38188000Y-58820260D01*
X38188000Y-58527740D01*
X38165053Y-58412378D01*
X39261875Y-57498360D01*
X44701939Y-57382614D01*
X43448333Y-58636221D01*
X43311486Y-58609000D01*
X43048514Y-58609000D01*
X42790595Y-58660304D01*
X42547641Y-58760939D01*
X42328987Y-58907038D01*
X42143038Y-59092987D01*
X41996939Y-59311641D01*
X41896304Y-59554595D01*
X41845000Y-59812514D01*
X41845000Y-60075486D01*
X41896304Y-60333405D01*
X41996939Y-60576359D01*
X42143038Y-60795013D01*
X42328987Y-60980962D01*
X42547641Y-61127061D01*
X42790595Y-61227696D01*
X43048514Y-61279000D01*
X43311486Y-61279000D01*
X43448333Y-61251779D01*
X43904746Y-61708193D01*
X43927762Y-61736238D01*
X44039680Y-61828087D01*
X44153138Y-61888731D01*
X43917419Y-61960236D01*
X43676812Y-62088843D01*
X43465919Y-62261919D01*
X43292843Y-62472812D01*
X43164236Y-62713419D01*
X43085040Y-62974493D01*
X43058299Y-63246000D01*
X43085040Y-63517507D01*
X43164236Y-63778581D01*
X43292843Y-64019188D01*
X43465919Y-64230081D01*
X43676812Y-64403157D01*
X43917419Y-64531764D01*
X44178493Y-64610960D01*
X44381963Y-64631000D01*
X46142299Y-64631000D01*
X46144663Y-64655000D01*
X38673686Y-64655000D01*
X38472072Y-64453387D01*
X38472072Y-61946000D01*
X38459812Y-61821518D01*
X38423502Y-61701820D01*
X38364537Y-61591506D01*
X38285185Y-61494815D01*
X38188494Y-61415463D01*
X38078180Y-61356498D01*
X37958482Y-61320188D01*
X37834000Y-61307928D01*
X36334000Y-61307928D01*
X36209518Y-61320188D01*
X36089820Y-61356498D01*
X35979506Y-61415463D01*
X35882815Y-61494815D01*
X35803463Y-61591506D01*
X35744498Y-61701820D01*
X35708188Y-61821518D01*
X35695928Y-61946000D01*
X35695928Y-64546000D01*
X35699000Y-64577192D01*
X35699000Y-64955971D01*
X35692300Y-65024000D01*
X35693482Y-65036000D01*
X35237889Y-65036000D01*
X35285185Y-64997185D01*
X35364537Y-64900494D01*
X35423502Y-64790180D01*
X35459812Y-64670482D01*
X35472072Y-64546000D01*
X35472072Y-63282837D01*
X35475700Y-63246001D01*
X35472072Y-63209165D01*
X35472072Y-61946000D01*
X35459812Y-61821518D01*
X35423502Y-61701820D01*
X35364537Y-61591506D01*
X35285185Y-61494815D01*
X35188494Y-61415463D01*
X35078180Y-61356498D01*
X34958482Y-61320188D01*
X34834000Y-61307928D01*
X33334000Y-61307928D01*
X33209518Y-61320188D01*
X33089820Y-61356498D01*
X32979506Y-61415463D01*
X32882815Y-61494815D01*
X32803463Y-61591506D01*
X32744498Y-61701820D01*
X32708188Y-61821518D01*
X32695928Y-61946000D01*
X32695928Y-62675386D01*
X32465990Y-62905325D01*
X32465990Y-59030890D01*
X32721524Y-59030890D01*
X32766175Y-59178099D01*
X32891359Y-59440920D01*
X33065412Y-59674269D01*
X33281645Y-59869178D01*
X33531748Y-60018157D01*
X33806109Y-60115481D01*
X34036000Y-59994814D01*
X34036000Y-58801000D01*
X32842845Y-58801000D01*
X32721524Y-59030890D01*
X32465990Y-59030890D01*
X32465990Y-55476436D01*
X32727656Y-55738103D01*
G37*
X32727656Y-55738103D02*
X32678000Y-55987740D01*
X32678000Y-56280260D01*
X32735068Y-56567158D01*
X32847010Y-56837411D01*
X33009525Y-57080632D01*
X33216368Y-57287475D01*
X33398534Y-57409195D01*
X33281645Y-57478822D01*
X33065412Y-57673731D01*
X32891359Y-57907080D01*
X32766175Y-58169901D01*
X32721524Y-58317110D01*
X32842845Y-58547000D01*
X34036000Y-58547000D01*
X34036000Y-58527000D01*
X34290000Y-58527000D01*
X34290000Y-58547000D01*
X34310000Y-58547000D01*
X34310000Y-58801000D01*
X34290000Y-58801000D01*
X34290000Y-59994814D01*
X34519891Y-60115481D01*
X34794252Y-60018157D01*
X35044355Y-59869178D01*
X35260588Y-59674269D01*
X35431900Y-59444594D01*
X35549525Y-59620632D01*
X35756368Y-59827475D01*
X35999589Y-59989990D01*
X36269842Y-60101932D01*
X36556740Y-60159000D01*
X36849260Y-60159000D01*
X37136158Y-60101932D01*
X37406411Y-59989990D01*
X37649632Y-59827475D01*
X37856475Y-59620632D01*
X38018990Y-59377411D01*
X38130932Y-59107158D01*
X38188000Y-58820260D01*
X38188000Y-58527740D01*
X38165053Y-58412378D01*
X39261875Y-57498360D01*
X44701939Y-57382614D01*
X43448333Y-58636221D01*
X43311486Y-58609000D01*
X43048514Y-58609000D01*
X42790595Y-58660304D01*
X42547641Y-58760939D01*
X42328987Y-58907038D01*
X42143038Y-59092987D01*
X41996939Y-59311641D01*
X41896304Y-59554595D01*
X41845000Y-59812514D01*
X41845000Y-60075486D01*
X41896304Y-60333405D01*
X41996939Y-60576359D01*
X42143038Y-60795013D01*
X42328987Y-60980962D01*
X42547641Y-61127061D01*
X42790595Y-61227696D01*
X43048514Y-61279000D01*
X43311486Y-61279000D01*
X43448333Y-61251779D01*
X43904746Y-61708193D01*
X43927762Y-61736238D01*
X44039680Y-61828087D01*
X44153138Y-61888731D01*
X43917419Y-61960236D01*
X43676812Y-62088843D01*
X43465919Y-62261919D01*
X43292843Y-62472812D01*
X43164236Y-62713419D01*
X43085040Y-62974493D01*
X43058299Y-63246000D01*
X43085040Y-63517507D01*
X43164236Y-63778581D01*
X43292843Y-64019188D01*
X43465919Y-64230081D01*
X43676812Y-64403157D01*
X43917419Y-64531764D01*
X44178493Y-64610960D01*
X44381963Y-64631000D01*
X46142299Y-64631000D01*
X46144663Y-64655000D01*
X38673686Y-64655000D01*
X38472072Y-64453387D01*
X38472072Y-61946000D01*
X38459812Y-61821518D01*
X38423502Y-61701820D01*
X38364537Y-61591506D01*
X38285185Y-61494815D01*
X38188494Y-61415463D01*
X38078180Y-61356498D01*
X37958482Y-61320188D01*
X37834000Y-61307928D01*
X36334000Y-61307928D01*
X36209518Y-61320188D01*
X36089820Y-61356498D01*
X35979506Y-61415463D01*
X35882815Y-61494815D01*
X35803463Y-61591506D01*
X35744498Y-61701820D01*
X35708188Y-61821518D01*
X35695928Y-61946000D01*
X35695928Y-64546000D01*
X35699000Y-64577192D01*
X35699000Y-64955971D01*
X35692300Y-65024000D01*
X35693482Y-65036000D01*
X35237889Y-65036000D01*
X35285185Y-64997185D01*
X35364537Y-64900494D01*
X35423502Y-64790180D01*
X35459812Y-64670482D01*
X35472072Y-64546000D01*
X35472072Y-63282837D01*
X35475700Y-63246001D01*
X35472072Y-63209165D01*
X35472072Y-61946000D01*
X35459812Y-61821518D01*
X35423502Y-61701820D01*
X35364537Y-61591506D01*
X35285185Y-61494815D01*
X35188494Y-61415463D01*
X35078180Y-61356498D01*
X34958482Y-61320188D01*
X34834000Y-61307928D01*
X33334000Y-61307928D01*
X33209518Y-61320188D01*
X33089820Y-61356498D01*
X32979506Y-61415463D01*
X32882815Y-61494815D01*
X32803463Y-61591506D01*
X32744498Y-61701820D01*
X32708188Y-61821518D01*
X32695928Y-61946000D01*
X32695928Y-62675386D01*
X32465990Y-62905325D01*
X32465990Y-59030890D01*
X32721524Y-59030890D01*
X32766175Y-59178099D01*
X32891359Y-59440920D01*
X33065412Y-59674269D01*
X33281645Y-59869178D01*
X33531748Y-60018157D01*
X33806109Y-60115481D01*
X34036000Y-59994814D01*
X34036000Y-58801000D01*
X32842845Y-58801000D01*
X32721524Y-59030890D01*
X32465990Y-59030890D01*
X32465990Y-55476436D01*
X32727656Y-55738103D01*
G36*
X57284815Y-54157185D02*
G01*
X57381506Y-54236537D01*
X57491820Y-54295502D01*
X57611518Y-54331812D01*
X57736000Y-54344072D01*
X59036000Y-54344072D01*
X59096056Y-54338157D01*
X59094299Y-54356000D01*
X59096056Y-54373843D01*
X59036000Y-54367928D01*
X58671750Y-54371000D01*
X58513000Y-54529750D01*
X58513000Y-55179000D01*
X58533000Y-55179000D01*
X58533000Y-55433000D01*
X58513000Y-55433000D01*
X58513000Y-56082250D01*
X58671750Y-56241000D01*
X59036000Y-56244072D01*
X59160482Y-56231812D01*
X59280180Y-56195502D01*
X59390494Y-56136537D01*
X59487185Y-56057185D01*
X59566537Y-55960494D01*
X59625502Y-55850180D01*
X59661812Y-55730482D01*
X59674072Y-55606000D01*
X59671000Y-55591750D01*
X59512252Y-55433002D01*
X59615143Y-55433002D01*
X59712812Y-55513157D01*
X59953419Y-55641764D01*
X60214493Y-55720960D01*
X60417963Y-55741000D01*
X61272971Y-55741000D01*
X61341000Y-55747700D01*
X61409029Y-55741000D01*
X61409037Y-55741000D01*
X61612507Y-55720960D01*
X61873581Y-55641764D01*
X62114188Y-55513157D01*
X62325081Y-55340081D01*
X62368454Y-55287231D01*
X62385928Y-55269757D01*
X62385928Y-55806001D01*
X62402992Y-55979255D01*
X62453528Y-56145851D01*
X62535595Y-56299387D01*
X62646038Y-56433962D01*
X62780613Y-56544405D01*
X62934149Y-56626472D01*
X63100745Y-56677008D01*
X63273999Y-56694072D01*
X63639000Y-56694072D01*
X63639001Y-61307928D01*
X63258000Y-61307928D01*
X63133518Y-61320188D01*
X63013820Y-61356498D01*
X62903506Y-61415463D01*
X62806815Y-61494815D01*
X62727463Y-61591506D01*
X62668498Y-61701820D01*
X62632188Y-61821518D01*
X62619928Y-61946000D01*
X62619928Y-63209163D01*
X62616300Y-63246000D01*
X62619928Y-63282837D01*
X62619928Y-64453386D01*
X62418315Y-64655000D01*
X62385337Y-64655000D01*
X62396072Y-64546000D01*
X62396072Y-63282846D01*
X62399701Y-63246000D01*
X62396072Y-63209154D01*
X62396072Y-61946000D01*
X62383812Y-61821518D01*
X62347502Y-61701820D01*
X62288537Y-61591506D01*
X62209185Y-61494815D01*
X62112494Y-61415463D01*
X62002180Y-61356498D01*
X61882482Y-61320188D01*
X61758000Y-61307928D01*
X60258000Y-61307928D01*
X60133518Y-61320188D01*
X60013820Y-61356498D01*
X59903506Y-61415463D01*
X59806815Y-61494815D01*
X59727463Y-61591506D01*
X59668498Y-61701820D01*
X59632188Y-61821518D01*
X59628299Y-61861000D01*
X58605963Y-61861000D01*
X58402493Y-61881040D01*
X58141419Y-61960236D01*
X57900812Y-62088843D01*
X57689919Y-62261919D01*
X57516843Y-62472812D01*
X57388236Y-62713419D01*
X57309040Y-62974493D01*
X57282299Y-63246000D01*
X57309040Y-63517507D01*
X57388236Y-63778581D01*
X57516843Y-64019188D01*
X57689919Y-64230081D01*
X57900812Y-64403157D01*
X58141419Y-64531764D01*
X58402493Y-64610960D01*
X58605963Y-64631000D01*
X59628299Y-64631000D01*
X59630663Y-64655000D01*
X53889686Y-64655000D01*
X51910072Y-62675387D01*
X51910072Y-61980999D01*
X52061745Y-62027008D01*
X52234999Y-62044072D01*
X52885001Y-62044072D01*
X53058255Y-62027008D01*
X53224851Y-61976472D01*
X53378387Y-61894405D01*
X53512962Y-61783962D01*
X53585000Y-61696184D01*
X53657038Y-61783962D01*
X53791613Y-61894405D01*
X53945149Y-61976472D01*
X54111745Y-62027008D01*
X54284999Y-62044072D01*
X54935001Y-62044072D01*
X55108255Y-62027008D01*
X55274851Y-61976472D01*
X55428387Y-61894405D01*
X55562962Y-61783962D01*
X55673405Y-61649387D01*
X55755472Y-61495851D01*
X55806008Y-61329255D01*
X55823072Y-61156001D01*
X55823072Y-60255999D01*
X55806008Y-60082745D01*
X55755472Y-59916149D01*
X55673405Y-59762613D01*
X55562962Y-59628038D01*
X55561088Y-59626500D01*
X55562962Y-59624962D01*
X55673405Y-59490387D01*
X55755472Y-59336851D01*
X55806008Y-59170255D01*
X55823072Y-58997001D01*
X55823072Y-58096999D01*
X55806008Y-57923745D01*
X55755472Y-57757149D01*
X55673405Y-57603613D01*
X55562962Y-57469038D01*
X55428387Y-57358595D01*
X55345000Y-57314024D01*
X55345000Y-57146446D01*
X56858746Y-58660193D01*
X56881762Y-58688238D01*
X56909806Y-58711253D01*
X56993680Y-58780087D01*
X57113666Y-58844221D01*
X57147528Y-58955851D01*
X57229595Y-59109387D01*
X57340038Y-59243962D01*
X57474613Y-59354405D01*
X57628149Y-59436472D01*
X57794745Y-59487008D01*
X57967999Y-59504072D01*
X58618001Y-59504072D01*
X58791255Y-59487008D01*
X58957851Y-59436472D01*
X59111387Y-59354405D01*
X59245962Y-59243962D01*
X59251342Y-59237406D01*
X59316815Y-59317185D01*
X59413506Y-59396537D01*
X59523820Y-59455502D01*
X59643518Y-59491812D01*
X59768000Y-59504072D01*
X60057250Y-59501000D01*
X60216000Y-59342250D01*
X60216000Y-58293000D01*
X60470000Y-58293000D01*
X60470000Y-59342250D01*
X60628750Y-59501000D01*
X60918000Y-59504072D01*
X61042482Y-59491812D01*
X61162180Y-59455502D01*
X61272494Y-59396537D01*
X61369185Y-59317185D01*
X61448537Y-59220494D01*
X61507502Y-59110180D01*
X61543812Y-58990482D01*
X61556072Y-58866000D01*
X61553000Y-58451750D01*
X61394250Y-58293000D01*
X60470000Y-58293000D01*
X60216000Y-58293000D01*
X60196000Y-58293000D01*
X60196000Y-58039000D01*
X60216000Y-58039000D01*
X60216000Y-56989750D01*
X60470000Y-56989750D01*
X60470000Y-58039000D01*
X61394250Y-58039000D01*
X61553000Y-57880250D01*
X61556072Y-57466000D01*
X61543812Y-57341518D01*
X61507502Y-57221820D01*
X61448537Y-57111506D01*
X61369185Y-57014815D01*
X61272494Y-56935463D01*
X61162180Y-56876498D01*
X61042482Y-56840188D01*
X60918000Y-56827928D01*
X60628750Y-56831000D01*
X60470000Y-56989750D01*
X60216000Y-56989750D01*
X60057250Y-56831000D01*
X59768000Y-56827928D01*
X59643518Y-56840188D01*
X59523820Y-56876498D01*
X59413506Y-56935463D01*
X59316815Y-57014815D01*
X59251342Y-57094594D01*
X59245962Y-57088038D01*
X59111387Y-56977595D01*
X58957851Y-56895528D01*
X58791255Y-56844992D01*
X58618001Y-56827928D01*
X57967999Y-56827928D01*
X57794745Y-56844992D01*
X57628149Y-56895528D01*
X57474613Y-56977595D01*
X57354014Y-57076568D01*
X56488000Y-56210554D01*
X56488000Y-55606000D01*
X57097928Y-55606000D01*
X57110188Y-55730482D01*
X57146498Y-55850180D01*
X57205463Y-55960494D01*
X57284815Y-56057185D01*
X57381506Y-56136537D01*
X57491820Y-56195502D01*
X57611518Y-56231812D01*
X57736000Y-56244072D01*
X58100250Y-56241000D01*
X58259000Y-56082250D01*
X58259000Y-55433000D01*
X57259750Y-55433000D01*
X57101000Y-55591750D01*
X57097928Y-55606000D01*
X56488000Y-55606000D01*
X56488000Y-55006000D01*
X57097928Y-55006000D01*
X57101000Y-55020250D01*
X57259750Y-55179000D01*
X58259000Y-55179000D01*
X58259000Y-54529750D01*
X58100250Y-54371000D01*
X57736000Y-54367928D01*
X57611518Y-54380188D01*
X57491820Y-54416498D01*
X57381506Y-54475463D01*
X57284815Y-54554815D01*
X57205463Y-54651506D01*
X57146498Y-54761820D01*
X57110188Y-54881518D01*
X57097928Y-55006000D01*
X56488000Y-55006000D01*
X56488000Y-54406446D01*
X56753447Y-54141000D01*
X57271532Y-54141000D01*
X57284815Y-54157185D01*
G37*
X57284815Y-54157185D02*
X57381506Y-54236537D01*
X57491820Y-54295502D01*
X57611518Y-54331812D01*
X57736000Y-54344072D01*
X59036000Y-54344072D01*
X59096056Y-54338157D01*
X59094299Y-54356000D01*
X59096056Y-54373843D01*
X59036000Y-54367928D01*
X58671750Y-54371000D01*
X58513000Y-54529750D01*
X58513000Y-55179000D01*
X58533000Y-55179000D01*
X58533000Y-55433000D01*
X58513000Y-55433000D01*
X58513000Y-56082250D01*
X58671750Y-56241000D01*
X59036000Y-56244072D01*
X59160482Y-56231812D01*
X59280180Y-56195502D01*
X59390494Y-56136537D01*
X59487185Y-56057185D01*
X59566537Y-55960494D01*
X59625502Y-55850180D01*
X59661812Y-55730482D01*
X59674072Y-55606000D01*
X59671000Y-55591750D01*
X59512252Y-55433002D01*
X59615143Y-55433002D01*
X59712812Y-55513157D01*
X59953419Y-55641764D01*
X60214493Y-55720960D01*
X60417963Y-55741000D01*
X61272971Y-55741000D01*
X61341000Y-55747700D01*
X61409029Y-55741000D01*
X61409037Y-55741000D01*
X61612507Y-55720960D01*
X61873581Y-55641764D01*
X62114188Y-55513157D01*
X62325081Y-55340081D01*
X62368454Y-55287231D01*
X62385928Y-55269757D01*
X62385928Y-55806001D01*
X62402992Y-55979255D01*
X62453528Y-56145851D01*
X62535595Y-56299387D01*
X62646038Y-56433962D01*
X62780613Y-56544405D01*
X62934149Y-56626472D01*
X63100745Y-56677008D01*
X63273999Y-56694072D01*
X63639000Y-56694072D01*
X63639001Y-61307928D01*
X63258000Y-61307928D01*
X63133518Y-61320188D01*
X63013820Y-61356498D01*
X62903506Y-61415463D01*
X62806815Y-61494815D01*
X62727463Y-61591506D01*
X62668498Y-61701820D01*
X62632188Y-61821518D01*
X62619928Y-61946000D01*
X62619928Y-63209163D01*
X62616300Y-63246000D01*
X62619928Y-63282837D01*
X62619928Y-64453386D01*
X62418315Y-64655000D01*
X62385337Y-64655000D01*
X62396072Y-64546000D01*
X62396072Y-63282846D01*
X62399701Y-63246000D01*
X62396072Y-63209154D01*
X62396072Y-61946000D01*
X62383812Y-61821518D01*
X62347502Y-61701820D01*
X62288537Y-61591506D01*
X62209185Y-61494815D01*
X62112494Y-61415463D01*
X62002180Y-61356498D01*
X61882482Y-61320188D01*
X61758000Y-61307928D01*
X60258000Y-61307928D01*
X60133518Y-61320188D01*
X60013820Y-61356498D01*
X59903506Y-61415463D01*
X59806815Y-61494815D01*
X59727463Y-61591506D01*
X59668498Y-61701820D01*
X59632188Y-61821518D01*
X59628299Y-61861000D01*
X58605963Y-61861000D01*
X58402493Y-61881040D01*
X58141419Y-61960236D01*
X57900812Y-62088843D01*
X57689919Y-62261919D01*
X57516843Y-62472812D01*
X57388236Y-62713419D01*
X57309040Y-62974493D01*
X57282299Y-63246000D01*
X57309040Y-63517507D01*
X57388236Y-63778581D01*
X57516843Y-64019188D01*
X57689919Y-64230081D01*
X57900812Y-64403157D01*
X58141419Y-64531764D01*
X58402493Y-64610960D01*
X58605963Y-64631000D01*
X59628299Y-64631000D01*
X59630663Y-64655000D01*
X53889686Y-64655000D01*
X51910072Y-62675387D01*
X51910072Y-61980999D01*
X52061745Y-62027008D01*
X52234999Y-62044072D01*
X52885001Y-62044072D01*
X53058255Y-62027008D01*
X53224851Y-61976472D01*
X53378387Y-61894405D01*
X53512962Y-61783962D01*
X53585000Y-61696184D01*
X53657038Y-61783962D01*
X53791613Y-61894405D01*
X53945149Y-61976472D01*
X54111745Y-62027008D01*
X54284999Y-62044072D01*
X54935001Y-62044072D01*
X55108255Y-62027008D01*
X55274851Y-61976472D01*
X55428387Y-61894405D01*
X55562962Y-61783962D01*
X55673405Y-61649387D01*
X55755472Y-61495851D01*
X55806008Y-61329255D01*
X55823072Y-61156001D01*
X55823072Y-60255999D01*
X55806008Y-60082745D01*
X55755472Y-59916149D01*
X55673405Y-59762613D01*
X55562962Y-59628038D01*
X55561088Y-59626500D01*
X55562962Y-59624962D01*
X55673405Y-59490387D01*
X55755472Y-59336851D01*
X55806008Y-59170255D01*
X55823072Y-58997001D01*
X55823072Y-58096999D01*
X55806008Y-57923745D01*
X55755472Y-57757149D01*
X55673405Y-57603613D01*
X55562962Y-57469038D01*
X55428387Y-57358595D01*
X55345000Y-57314024D01*
X55345000Y-57146446D01*
X56858746Y-58660193D01*
X56881762Y-58688238D01*
X56909806Y-58711253D01*
X56993680Y-58780087D01*
X57113666Y-58844221D01*
X57147528Y-58955851D01*
X57229595Y-59109387D01*
X57340038Y-59243962D01*
X57474613Y-59354405D01*
X57628149Y-59436472D01*
X57794745Y-59487008D01*
X57967999Y-59504072D01*
X58618001Y-59504072D01*
X58791255Y-59487008D01*
X58957851Y-59436472D01*
X59111387Y-59354405D01*
X59245962Y-59243962D01*
X59251342Y-59237406D01*
X59316815Y-59317185D01*
X59413506Y-59396537D01*
X59523820Y-59455502D01*
X59643518Y-59491812D01*
X59768000Y-59504072D01*
X60057250Y-59501000D01*
X60216000Y-59342250D01*
X60216000Y-58293000D01*
X60470000Y-58293000D01*
X60470000Y-59342250D01*
X60628750Y-59501000D01*
X60918000Y-59504072D01*
X61042482Y-59491812D01*
X61162180Y-59455502D01*
X61272494Y-59396537D01*
X61369185Y-59317185D01*
X61448537Y-59220494D01*
X61507502Y-59110180D01*
X61543812Y-58990482D01*
X61556072Y-58866000D01*
X61553000Y-58451750D01*
X61394250Y-58293000D01*
X60470000Y-58293000D01*
X60216000Y-58293000D01*
X60196000Y-58293000D01*
X60196000Y-58039000D01*
X60216000Y-58039000D01*
X60216000Y-56989750D01*
X60470000Y-56989750D01*
X60470000Y-58039000D01*
X61394250Y-58039000D01*
X61553000Y-57880250D01*
X61556072Y-57466000D01*
X61543812Y-57341518D01*
X61507502Y-57221820D01*
X61448537Y-57111506D01*
X61369185Y-57014815D01*
X61272494Y-56935463D01*
X61162180Y-56876498D01*
X61042482Y-56840188D01*
X60918000Y-56827928D01*
X60628750Y-56831000D01*
X60470000Y-56989750D01*
X60216000Y-56989750D01*
X60057250Y-56831000D01*
X59768000Y-56827928D01*
X59643518Y-56840188D01*
X59523820Y-56876498D01*
X59413506Y-56935463D01*
X59316815Y-57014815D01*
X59251342Y-57094594D01*
X59245962Y-57088038D01*
X59111387Y-56977595D01*
X58957851Y-56895528D01*
X58791255Y-56844992D01*
X58618001Y-56827928D01*
X57967999Y-56827928D01*
X57794745Y-56844992D01*
X57628149Y-56895528D01*
X57474613Y-56977595D01*
X57354014Y-57076568D01*
X56488000Y-56210554D01*
X56488000Y-55606000D01*
X57097928Y-55606000D01*
X57110188Y-55730482D01*
X57146498Y-55850180D01*
X57205463Y-55960494D01*
X57284815Y-56057185D01*
X57381506Y-56136537D01*
X57491820Y-56195502D01*
X57611518Y-56231812D01*
X57736000Y-56244072D01*
X58100250Y-56241000D01*
X58259000Y-56082250D01*
X58259000Y-55433000D01*
X57259750Y-55433000D01*
X57101000Y-55591750D01*
X57097928Y-55606000D01*
X56488000Y-55606000D01*
X56488000Y-55006000D01*
X57097928Y-55006000D01*
X57101000Y-55020250D01*
X57259750Y-55179000D01*
X58259000Y-55179000D01*
X58259000Y-54529750D01*
X58100250Y-54371000D01*
X57736000Y-54367928D01*
X57611518Y-54380188D01*
X57491820Y-54416498D01*
X57381506Y-54475463D01*
X57284815Y-54554815D01*
X57205463Y-54651506D01*
X57146498Y-54761820D01*
X57110188Y-54881518D01*
X57097928Y-55006000D01*
X56488000Y-55006000D01*
X56488000Y-54406446D01*
X56753447Y-54141000D01*
X57271532Y-54141000D01*
X57284815Y-54157185D01*
G36*
X58864333Y-46949779D02*
G01*
X58800528Y-47069149D01*
X58749992Y-47235745D01*
X58732928Y-47408999D01*
X58732928Y-48059001D01*
X58749992Y-48232255D01*
X58800528Y-48398851D01*
X58882595Y-48552387D01*
X58993038Y-48686962D01*
X59080816Y-48759000D01*
X58993038Y-48831038D01*
X58882595Y-48965613D01*
X58800528Y-49119149D01*
X58749992Y-49285745D01*
X58732928Y-49458999D01*
X58732928Y-50109001D01*
X58749992Y-50282255D01*
X58788233Y-50408320D01*
X58124132Y-51072421D01*
X58082302Y-51030591D01*
X58174185Y-50955185D01*
X58253537Y-50858494D01*
X58312502Y-50748180D01*
X58348812Y-50628482D01*
X58361072Y-50504000D01*
X58358000Y-50214750D01*
X58199250Y-50056000D01*
X57150000Y-50056000D01*
X57150000Y-50076000D01*
X56896000Y-50076000D01*
X56896000Y-50056000D01*
X55846750Y-50056000D01*
X55688000Y-50214750D01*
X55684928Y-50504000D01*
X55697188Y-50628482D01*
X55733498Y-50748180D01*
X55792463Y-50858494D01*
X55871815Y-50955185D01*
X55968506Y-51034537D01*
X56078820Y-51093502D01*
X56198518Y-51129812D01*
X56323000Y-51142072D01*
X56616393Y-51139896D01*
X56600063Y-51156226D01*
X56486795Y-51325744D01*
X56408774Y-51514102D01*
X56407861Y-51518692D01*
X54623808Y-53302746D01*
X54595763Y-53325762D01*
X54529000Y-53407113D01*
X54529000Y-53336998D01*
X54370252Y-53336998D01*
X54529000Y-53178250D01*
X54532072Y-52489000D01*
X54519812Y-52364518D01*
X54483502Y-52244820D01*
X54424537Y-52134506D01*
X54345185Y-52037815D01*
X54248494Y-51958463D01*
X54138180Y-51899498D01*
X54018482Y-51863188D01*
X53894000Y-51850928D01*
X53879750Y-51854000D01*
X53721000Y-52012750D01*
X53721000Y-53337000D01*
X53741000Y-53337000D01*
X53741000Y-53591000D01*
X53721000Y-53591000D01*
X53721000Y-54915250D01*
X53879750Y-55074000D01*
X53894000Y-55077072D01*
X54018482Y-55064812D01*
X54138180Y-55028502D01*
X54248494Y-54969537D01*
X54345185Y-54890185D01*
X54383001Y-54844107D01*
X54383000Y-55575553D01*
X54115808Y-55842746D01*
X54087763Y-55865762D01*
X53995914Y-55977680D01*
X53965311Y-56034935D01*
X53927664Y-56105367D01*
X53885635Y-56243915D01*
X53871444Y-56388000D01*
X53875001Y-56424115D01*
X53875001Y-57314023D01*
X53791613Y-57358595D01*
X53657038Y-57469038D01*
X53585000Y-57556816D01*
X53512962Y-57469038D01*
X53378387Y-57358595D01*
X53224851Y-57276528D01*
X53058255Y-57225992D01*
X52885001Y-57208928D01*
X52234999Y-57208928D01*
X52061745Y-57225992D01*
X51895149Y-57276528D01*
X51741613Y-57358595D01*
X51607038Y-57469038D01*
X51496595Y-57603613D01*
X51414528Y-57757149D01*
X51397889Y-57812000D01*
X51200111Y-57812000D01*
X51183472Y-57757149D01*
X51101405Y-57603613D01*
X51000629Y-57480817D01*
X51548197Y-56933250D01*
X51576237Y-56910238D01*
X51599250Y-56882197D01*
X51599253Y-56882194D01*
X51637273Y-56835866D01*
X51668087Y-56798320D01*
X51736337Y-56670633D01*
X51769188Y-56562337D01*
X51778365Y-56532086D01*
X51792556Y-56388000D01*
X51789000Y-56351895D01*
X51789000Y-54972496D01*
X51872418Y-55017084D01*
X52020255Y-55061929D01*
X52174000Y-55077072D01*
X52474000Y-55077072D01*
X52627745Y-55061929D01*
X52775582Y-55017084D01*
X52909936Y-54945270D01*
X52939506Y-54969537D01*
X53049820Y-55028502D01*
X53169518Y-55064812D01*
X53294000Y-55077072D01*
X53308250Y-55074000D01*
X53467000Y-54915250D01*
X53467000Y-53591000D01*
X53447000Y-53591000D01*
X53447000Y-53337000D01*
X53467000Y-53337000D01*
X53467000Y-52012750D01*
X53308250Y-51854000D01*
X53294000Y-51850928D01*
X53169518Y-51863188D01*
X53049820Y-51899498D01*
X52939506Y-51958463D01*
X52909936Y-51982730D01*
X52796594Y-51922147D01*
X51307258Y-50432812D01*
X51284238Y-50404762D01*
X51172320Y-50312913D01*
X51044633Y-50244663D01*
X50906085Y-50202635D01*
X50798105Y-50192000D01*
X50762000Y-50188444D01*
X50725895Y-50192000D01*
X47972711Y-50192000D01*
X47903774Y-50123063D01*
X47764702Y-50030138D01*
X47831829Y-49994258D01*
X47879000Y-49955546D01*
X47926171Y-49994258D01*
X48062418Y-50067084D01*
X48210255Y-50111929D01*
X48364000Y-50127072D01*
X48664000Y-50127072D01*
X48817745Y-50111929D01*
X48965582Y-50067084D01*
X49101829Y-49994258D01*
X49149000Y-49955546D01*
X49196171Y-49994258D01*
X49332418Y-50067084D01*
X49480255Y-50111929D01*
X49634000Y-50127072D01*
X49934000Y-50127072D01*
X50087745Y-50111929D01*
X50235582Y-50067084D01*
X50371829Y-49994258D01*
X50419000Y-49955546D01*
X50466171Y-49994258D01*
X50602418Y-50067084D01*
X50750255Y-50111929D01*
X50904000Y-50127072D01*
X51204000Y-50127072D01*
X51357745Y-50111929D01*
X51505582Y-50067084D01*
X51641829Y-49994258D01*
X51689000Y-49955546D01*
X51736171Y-49994258D01*
X51872418Y-50067084D01*
X52020255Y-50111929D01*
X52174000Y-50127072D01*
X52474000Y-50127072D01*
X52627745Y-50111929D01*
X52775582Y-50067084D01*
X52911829Y-49994258D01*
X52959000Y-49955546D01*
X53006171Y-49994258D01*
X53142418Y-50067084D01*
X53290255Y-50111929D01*
X53444000Y-50127072D01*
X53744000Y-50127072D01*
X53897745Y-50111929D01*
X54045582Y-50067084D01*
X54181829Y-49994258D01*
X54301251Y-49896251D01*
X54399258Y-49776829D01*
X54472084Y-49640582D01*
X54516929Y-49492745D01*
X54532072Y-49339000D01*
X54532072Y-48686085D01*
X54554157Y-48664000D01*
X55587446Y-48664000D01*
X55625999Y-48667797D01*
X55664552Y-48664000D01*
X55816749Y-48664000D01*
X55834595Y-48697387D01*
X55945038Y-48831962D01*
X55951594Y-48837342D01*
X55871815Y-48902815D01*
X55792463Y-48999506D01*
X55733498Y-49109820D01*
X55697188Y-49229518D01*
X55684928Y-49354000D01*
X55688000Y-49643250D01*
X55846750Y-49802000D01*
X56896000Y-49802000D01*
X56896000Y-49782000D01*
X57150000Y-49782000D01*
X57150000Y-49802000D01*
X58199250Y-49802000D01*
X58358000Y-49643250D01*
X58361072Y-49354000D01*
X58348812Y-49229518D01*
X58312502Y-49109820D01*
X58253537Y-48999506D01*
X58174185Y-48902815D01*
X58094406Y-48837342D01*
X58100962Y-48831962D01*
X58211405Y-48697387D01*
X58293472Y-48543851D01*
X58344008Y-48377255D01*
X58361072Y-48204001D01*
X58361072Y-47553999D01*
X58344008Y-47380745D01*
X58293472Y-47214149D01*
X58211405Y-47060613D01*
X58100962Y-46926038D01*
X57966387Y-46815595D01*
X57812851Y-46733528D01*
X57646255Y-46682992D01*
X57473001Y-46665928D01*
X56572999Y-46665928D01*
X56399745Y-46682992D01*
X56233149Y-46733528D01*
X56079613Y-46815595D01*
X56022818Y-46862206D01*
X55921937Y-46711226D01*
X55777774Y-46567063D01*
X55608256Y-46453795D01*
X55419898Y-46375774D01*
X55219939Y-46336000D01*
X55016061Y-46336000D01*
X54930752Y-46352969D01*
X54979000Y-46110411D01*
X54979000Y-45837589D01*
X54925775Y-45570011D01*
X54871509Y-45439000D01*
X57353554Y-45439000D01*
X58864333Y-46949779D01*
G37*
X58864333Y-46949779D02*
X58800528Y-47069149D01*
X58749992Y-47235745D01*
X58732928Y-47408999D01*
X58732928Y-48059001D01*
X58749992Y-48232255D01*
X58800528Y-48398851D01*
X58882595Y-48552387D01*
X58993038Y-48686962D01*
X59080816Y-48759000D01*
X58993038Y-48831038D01*
X58882595Y-48965613D01*
X58800528Y-49119149D01*
X58749992Y-49285745D01*
X58732928Y-49458999D01*
X58732928Y-50109001D01*
X58749992Y-50282255D01*
X58788233Y-50408320D01*
X58124132Y-51072421D01*
X58082302Y-51030591D01*
X58174185Y-50955185D01*
X58253537Y-50858494D01*
X58312502Y-50748180D01*
X58348812Y-50628482D01*
X58361072Y-50504000D01*
X58358000Y-50214750D01*
X58199250Y-50056000D01*
X57150000Y-50056000D01*
X57150000Y-50076000D01*
X56896000Y-50076000D01*
X56896000Y-50056000D01*
X55846750Y-50056000D01*
X55688000Y-50214750D01*
X55684928Y-50504000D01*
X55697188Y-50628482D01*
X55733498Y-50748180D01*
X55792463Y-50858494D01*
X55871815Y-50955185D01*
X55968506Y-51034537D01*
X56078820Y-51093502D01*
X56198518Y-51129812D01*
X56323000Y-51142072D01*
X56616393Y-51139896D01*
X56600063Y-51156226D01*
X56486795Y-51325744D01*
X56408774Y-51514102D01*
X56407861Y-51518692D01*
X54623808Y-53302746D01*
X54595763Y-53325762D01*
X54529000Y-53407113D01*
X54529000Y-53336998D01*
X54370252Y-53336998D01*
X54529000Y-53178250D01*
X54532072Y-52489000D01*
X54519812Y-52364518D01*
X54483502Y-52244820D01*
X54424537Y-52134506D01*
X54345185Y-52037815D01*
X54248494Y-51958463D01*
X54138180Y-51899498D01*
X54018482Y-51863188D01*
X53894000Y-51850928D01*
X53879750Y-51854000D01*
X53721000Y-52012750D01*
X53721000Y-53337000D01*
X53741000Y-53337000D01*
X53741000Y-53591000D01*
X53721000Y-53591000D01*
X53721000Y-54915250D01*
X53879750Y-55074000D01*
X53894000Y-55077072D01*
X54018482Y-55064812D01*
X54138180Y-55028502D01*
X54248494Y-54969537D01*
X54345185Y-54890185D01*
X54383001Y-54844107D01*
X54383000Y-55575553D01*
X54115808Y-55842746D01*
X54087763Y-55865762D01*
X53995914Y-55977680D01*
X53965311Y-56034935D01*
X53927664Y-56105367D01*
X53885635Y-56243915D01*
X53871444Y-56388000D01*
X53875001Y-56424115D01*
X53875001Y-57314023D01*
X53791613Y-57358595D01*
X53657038Y-57469038D01*
X53585000Y-57556816D01*
X53512962Y-57469038D01*
X53378387Y-57358595D01*
X53224851Y-57276528D01*
X53058255Y-57225992D01*
X52885001Y-57208928D01*
X52234999Y-57208928D01*
X52061745Y-57225992D01*
X51895149Y-57276528D01*
X51741613Y-57358595D01*
X51607038Y-57469038D01*
X51496595Y-57603613D01*
X51414528Y-57757149D01*
X51397889Y-57812000D01*
X51200111Y-57812000D01*
X51183472Y-57757149D01*
X51101405Y-57603613D01*
X51000629Y-57480817D01*
X51548197Y-56933250D01*
X51576237Y-56910238D01*
X51599250Y-56882197D01*
X51599253Y-56882194D01*
X51637273Y-56835866D01*
X51668087Y-56798320D01*
X51736337Y-56670633D01*
X51769188Y-56562337D01*
X51778365Y-56532086D01*
X51792556Y-56388000D01*
X51789000Y-56351895D01*
X51789000Y-54972496D01*
X51872418Y-55017084D01*
X52020255Y-55061929D01*
X52174000Y-55077072D01*
X52474000Y-55077072D01*
X52627745Y-55061929D01*
X52775582Y-55017084D01*
X52909936Y-54945270D01*
X52939506Y-54969537D01*
X53049820Y-55028502D01*
X53169518Y-55064812D01*
X53294000Y-55077072D01*
X53308250Y-55074000D01*
X53467000Y-54915250D01*
X53467000Y-53591000D01*
X53447000Y-53591000D01*
X53447000Y-53337000D01*
X53467000Y-53337000D01*
X53467000Y-52012750D01*
X53308250Y-51854000D01*
X53294000Y-51850928D01*
X53169518Y-51863188D01*
X53049820Y-51899498D01*
X52939506Y-51958463D01*
X52909936Y-51982730D01*
X52796594Y-51922147D01*
X51307258Y-50432812D01*
X51284238Y-50404762D01*
X51172320Y-50312913D01*
X51044633Y-50244663D01*
X50906085Y-50202635D01*
X50798105Y-50192000D01*
X50762000Y-50188444D01*
X50725895Y-50192000D01*
X47972711Y-50192000D01*
X47903774Y-50123063D01*
X47764702Y-50030138D01*
X47831829Y-49994258D01*
X47879000Y-49955546D01*
X47926171Y-49994258D01*
X48062418Y-50067084D01*
X48210255Y-50111929D01*
X48364000Y-50127072D01*
X48664000Y-50127072D01*
X48817745Y-50111929D01*
X48965582Y-50067084D01*
X49101829Y-49994258D01*
X49149000Y-49955546D01*
X49196171Y-49994258D01*
X49332418Y-50067084D01*
X49480255Y-50111929D01*
X49634000Y-50127072D01*
X49934000Y-50127072D01*
X50087745Y-50111929D01*
X50235582Y-50067084D01*
X50371829Y-49994258D01*
X50419000Y-49955546D01*
X50466171Y-49994258D01*
X50602418Y-50067084D01*
X50750255Y-50111929D01*
X50904000Y-50127072D01*
X51204000Y-50127072D01*
X51357745Y-50111929D01*
X51505582Y-50067084D01*
X51641829Y-49994258D01*
X51689000Y-49955546D01*
X51736171Y-49994258D01*
X51872418Y-50067084D01*
X52020255Y-50111929D01*
X52174000Y-50127072D01*
X52474000Y-50127072D01*
X52627745Y-50111929D01*
X52775582Y-50067084D01*
X52911829Y-49994258D01*
X52959000Y-49955546D01*
X53006171Y-49994258D01*
X53142418Y-50067084D01*
X53290255Y-50111929D01*
X53444000Y-50127072D01*
X53744000Y-50127072D01*
X53897745Y-50111929D01*
X54045582Y-50067084D01*
X54181829Y-49994258D01*
X54301251Y-49896251D01*
X54399258Y-49776829D01*
X54472084Y-49640582D01*
X54516929Y-49492745D01*
X54532072Y-49339000D01*
X54532072Y-48686085D01*
X54554157Y-48664000D01*
X55587446Y-48664000D01*
X55625999Y-48667797D01*
X55664552Y-48664000D01*
X55816749Y-48664000D01*
X55834595Y-48697387D01*
X55945038Y-48831962D01*
X55951594Y-48837342D01*
X55871815Y-48902815D01*
X55792463Y-48999506D01*
X55733498Y-49109820D01*
X55697188Y-49229518D01*
X55684928Y-49354000D01*
X55688000Y-49643250D01*
X55846750Y-49802000D01*
X56896000Y-49802000D01*
X56896000Y-49782000D01*
X57150000Y-49782000D01*
X57150000Y-49802000D01*
X58199250Y-49802000D01*
X58358000Y-49643250D01*
X58361072Y-49354000D01*
X58348812Y-49229518D01*
X58312502Y-49109820D01*
X58253537Y-48999506D01*
X58174185Y-48902815D01*
X58094406Y-48837342D01*
X58100962Y-48831962D01*
X58211405Y-48697387D01*
X58293472Y-48543851D01*
X58344008Y-48377255D01*
X58361072Y-48204001D01*
X58361072Y-47553999D01*
X58344008Y-47380745D01*
X58293472Y-47214149D01*
X58211405Y-47060613D01*
X58100962Y-46926038D01*
X57966387Y-46815595D01*
X57812851Y-46733528D01*
X57646255Y-46682992D01*
X57473001Y-46665928D01*
X56572999Y-46665928D01*
X56399745Y-46682992D01*
X56233149Y-46733528D01*
X56079613Y-46815595D01*
X56022818Y-46862206D01*
X55921937Y-46711226D01*
X55777774Y-46567063D01*
X55608256Y-46453795D01*
X55419898Y-46375774D01*
X55219939Y-46336000D01*
X55016061Y-46336000D01*
X54930752Y-46352969D01*
X54979000Y-46110411D01*
X54979000Y-45837589D01*
X54925775Y-45570011D01*
X54871509Y-45439000D01*
X57353554Y-45439000D01*
X58864333Y-46949779D01*
G36*
X36721000Y-47879000D02*
G01*
X36741000Y-47879000D01*
X36741000Y-48133000D01*
X36721000Y-48133000D01*
X36721000Y-49182250D01*
X36879750Y-49341000D01*
X37169000Y-49344072D01*
X37293482Y-49331812D01*
X37413180Y-49295502D01*
X37523494Y-49236537D01*
X37620185Y-49157185D01*
X37699537Y-49060494D01*
X37746000Y-48973568D01*
X37746001Y-50890885D01*
X37742444Y-50927000D01*
X37756635Y-51071085D01*
X37787495Y-51172815D01*
X37798664Y-51209633D01*
X37866914Y-51337320D01*
X37958763Y-51449238D01*
X37986807Y-51472253D01*
X38664928Y-52150375D01*
X38664928Y-52774001D01*
X38681992Y-52947255D01*
X38732528Y-53113851D01*
X38814595Y-53267387D01*
X38925038Y-53401962D01*
X39059613Y-53512405D01*
X39213149Y-53594472D01*
X39379745Y-53645008D01*
X39552999Y-53662072D01*
X40203001Y-53662072D01*
X40376255Y-53645008D01*
X40542851Y-53594472D01*
X40696387Y-53512405D01*
X40830962Y-53401962D01*
X40836342Y-53395406D01*
X40901815Y-53475185D01*
X40998506Y-53554537D01*
X41108820Y-53613502D01*
X41228518Y-53649812D01*
X41353000Y-53662072D01*
X41642250Y-53659000D01*
X41801000Y-53500250D01*
X41801000Y-52451000D01*
X42055000Y-52451000D01*
X42055000Y-53500250D01*
X42213750Y-53659000D01*
X42503000Y-53662072D01*
X42627482Y-53649812D01*
X42747180Y-53613502D01*
X42857494Y-53554537D01*
X42954185Y-53475185D01*
X43033537Y-53378494D01*
X43092502Y-53268180D01*
X43128812Y-53148482D01*
X43141072Y-53024000D01*
X43138000Y-52609750D01*
X42979250Y-52451000D01*
X42055000Y-52451000D01*
X41801000Y-52451000D01*
X41781000Y-52451000D01*
X41781000Y-52197000D01*
X41801000Y-52197000D01*
X41801000Y-51147750D01*
X42055000Y-51147750D01*
X42055000Y-52197000D01*
X42979250Y-52197000D01*
X43138000Y-52038250D01*
X43141072Y-51624000D01*
X43128812Y-51499518D01*
X43092502Y-51379820D01*
X43033537Y-51269506D01*
X42954185Y-51172815D01*
X42857494Y-51093463D01*
X42747180Y-51034498D01*
X42627482Y-50998188D01*
X42503000Y-50985928D01*
X42213750Y-50989000D01*
X42055000Y-51147750D01*
X41801000Y-51147750D01*
X41642250Y-50989000D01*
X41353000Y-50985928D01*
X41228518Y-50998188D01*
X41108820Y-51034498D01*
X40998506Y-51093463D01*
X40901815Y-51172815D01*
X40836342Y-51252594D01*
X40830962Y-51246038D01*
X40696387Y-51135595D01*
X40542851Y-51053528D01*
X40376255Y-51002992D01*
X40203001Y-50985928D01*
X39579374Y-50985928D01*
X39216000Y-50622554D01*
X39216000Y-50293337D01*
X39379745Y-50343008D01*
X39552999Y-50360072D01*
X40203001Y-50360072D01*
X40376255Y-50343008D01*
X40542851Y-50292472D01*
X40696387Y-50210405D01*
X40830962Y-50099962D01*
X40836342Y-50093406D01*
X40901815Y-50173185D01*
X40998506Y-50252537D01*
X41108820Y-50311502D01*
X41228518Y-50347812D01*
X41353000Y-50360072D01*
X41642250Y-50357000D01*
X41801000Y-50198250D01*
X41801000Y-49149000D01*
X41781000Y-49149000D01*
X41781000Y-48895000D01*
X41801000Y-48895000D01*
X41801000Y-48875000D01*
X42055000Y-48875000D01*
X42055000Y-48895000D01*
X42075000Y-48895000D01*
X42075000Y-49149000D01*
X42055000Y-49149000D01*
X42055000Y-50198250D01*
X42213750Y-50357000D01*
X42503000Y-50360072D01*
X42627482Y-50347812D01*
X42747180Y-50311502D01*
X42857494Y-50252537D01*
X42954185Y-50173185D01*
X43033537Y-50076494D01*
X43080001Y-49989568D01*
X43080001Y-50128885D01*
X43076444Y-50165000D01*
X43090635Y-50309085D01*
X43128166Y-50432806D01*
X43132664Y-50447633D01*
X43200914Y-50575320D01*
X43292763Y-50687238D01*
X43320808Y-50710254D01*
X43542000Y-50931446D01*
X43542000Y-51028939D01*
X43581774Y-51228898D01*
X43659795Y-51417256D01*
X43773063Y-51586774D01*
X43917226Y-51730937D01*
X44086744Y-51844205D01*
X44275102Y-51922226D01*
X44475061Y-51962000D01*
X44678939Y-51962000D01*
X44878898Y-51922226D01*
X45067256Y-51844205D01*
X45236774Y-51730937D01*
X45380937Y-51586774D01*
X45415540Y-51534987D01*
X45739777Y-51859223D01*
X45670255Y-51866071D01*
X45522418Y-51910916D01*
X45386171Y-51983742D01*
X45266749Y-52081749D01*
X45168742Y-52201171D01*
X45095916Y-52337418D01*
X45051071Y-52485255D01*
X45035928Y-52639000D01*
X45035928Y-54289000D01*
X45045186Y-54383000D01*
X38531447Y-54383000D01*
X38191072Y-54042625D01*
X38191072Y-52744000D01*
X38178812Y-52619518D01*
X38142502Y-52499820D01*
X38083537Y-52389506D01*
X38004185Y-52292815D01*
X37907494Y-52213463D01*
X37797180Y-52154498D01*
X37677482Y-52118188D01*
X37553000Y-52105928D01*
X35853000Y-52105928D01*
X35728518Y-52118188D01*
X35608820Y-52154498D01*
X35498506Y-52213463D01*
X35401815Y-52292815D01*
X35329000Y-52381541D01*
X35329000Y-50428440D01*
X35480898Y-50398226D01*
X35669256Y-50320205D01*
X35838774Y-50206937D01*
X35982937Y-50062774D01*
X36096205Y-49893256D01*
X36174226Y-49704898D01*
X36214000Y-49504939D01*
X36214000Y-49342001D01*
X36308250Y-49341000D01*
X36467000Y-49182250D01*
X36467000Y-48133000D01*
X36447000Y-48133000D01*
X36447000Y-47879000D01*
X36467000Y-47879000D01*
X36467000Y-47859000D01*
X36721000Y-47859000D01*
X36721000Y-47879000D01*
G37*
X36721000Y-47879000D02*
X36741000Y-47879000D01*
X36741000Y-48133000D01*
X36721000Y-48133000D01*
X36721000Y-49182250D01*
X36879750Y-49341000D01*
X37169000Y-49344072D01*
X37293482Y-49331812D01*
X37413180Y-49295502D01*
X37523494Y-49236537D01*
X37620185Y-49157185D01*
X37699537Y-49060494D01*
X37746000Y-48973568D01*
X37746001Y-50890885D01*
X37742444Y-50927000D01*
X37756635Y-51071085D01*
X37787495Y-51172815D01*
X37798664Y-51209633D01*
X37866914Y-51337320D01*
X37958763Y-51449238D01*
X37986807Y-51472253D01*
X38664928Y-52150375D01*
X38664928Y-52774001D01*
X38681992Y-52947255D01*
X38732528Y-53113851D01*
X38814595Y-53267387D01*
X38925038Y-53401962D01*
X39059613Y-53512405D01*
X39213149Y-53594472D01*
X39379745Y-53645008D01*
X39552999Y-53662072D01*
X40203001Y-53662072D01*
X40376255Y-53645008D01*
X40542851Y-53594472D01*
X40696387Y-53512405D01*
X40830962Y-53401962D01*
X40836342Y-53395406D01*
X40901815Y-53475185D01*
X40998506Y-53554537D01*
X41108820Y-53613502D01*
X41228518Y-53649812D01*
X41353000Y-53662072D01*
X41642250Y-53659000D01*
X41801000Y-53500250D01*
X41801000Y-52451000D01*
X42055000Y-52451000D01*
X42055000Y-53500250D01*
X42213750Y-53659000D01*
X42503000Y-53662072D01*
X42627482Y-53649812D01*
X42747180Y-53613502D01*
X42857494Y-53554537D01*
X42954185Y-53475185D01*
X43033537Y-53378494D01*
X43092502Y-53268180D01*
X43128812Y-53148482D01*
X43141072Y-53024000D01*
X43138000Y-52609750D01*
X42979250Y-52451000D01*
X42055000Y-52451000D01*
X41801000Y-52451000D01*
X41781000Y-52451000D01*
X41781000Y-52197000D01*
X41801000Y-52197000D01*
X41801000Y-51147750D01*
X42055000Y-51147750D01*
X42055000Y-52197000D01*
X42979250Y-52197000D01*
X43138000Y-52038250D01*
X43141072Y-51624000D01*
X43128812Y-51499518D01*
X43092502Y-51379820D01*
X43033537Y-51269506D01*
X42954185Y-51172815D01*
X42857494Y-51093463D01*
X42747180Y-51034498D01*
X42627482Y-50998188D01*
X42503000Y-50985928D01*
X42213750Y-50989000D01*
X42055000Y-51147750D01*
X41801000Y-51147750D01*
X41642250Y-50989000D01*
X41353000Y-50985928D01*
X41228518Y-50998188D01*
X41108820Y-51034498D01*
X40998506Y-51093463D01*
X40901815Y-51172815D01*
X40836342Y-51252594D01*
X40830962Y-51246038D01*
X40696387Y-51135595D01*
X40542851Y-51053528D01*
X40376255Y-51002992D01*
X40203001Y-50985928D01*
X39579374Y-50985928D01*
X39216000Y-50622554D01*
X39216000Y-50293337D01*
X39379745Y-50343008D01*
X39552999Y-50360072D01*
X40203001Y-50360072D01*
X40376255Y-50343008D01*
X40542851Y-50292472D01*
X40696387Y-50210405D01*
X40830962Y-50099962D01*
X40836342Y-50093406D01*
X40901815Y-50173185D01*
X40998506Y-50252537D01*
X41108820Y-50311502D01*
X41228518Y-50347812D01*
X41353000Y-50360072D01*
X41642250Y-50357000D01*
X41801000Y-50198250D01*
X41801000Y-49149000D01*
X41781000Y-49149000D01*
X41781000Y-48895000D01*
X41801000Y-48895000D01*
X41801000Y-48875000D01*
X42055000Y-48875000D01*
X42055000Y-48895000D01*
X42075000Y-48895000D01*
X42075000Y-49149000D01*
X42055000Y-49149000D01*
X42055000Y-50198250D01*
X42213750Y-50357000D01*
X42503000Y-50360072D01*
X42627482Y-50347812D01*
X42747180Y-50311502D01*
X42857494Y-50252537D01*
X42954185Y-50173185D01*
X43033537Y-50076494D01*
X43080001Y-49989568D01*
X43080001Y-50128885D01*
X43076444Y-50165000D01*
X43090635Y-50309085D01*
X43128166Y-50432806D01*
X43132664Y-50447633D01*
X43200914Y-50575320D01*
X43292763Y-50687238D01*
X43320808Y-50710254D01*
X43542000Y-50931446D01*
X43542000Y-51028939D01*
X43581774Y-51228898D01*
X43659795Y-51417256D01*
X43773063Y-51586774D01*
X43917226Y-51730937D01*
X44086744Y-51844205D01*
X44275102Y-51922226D01*
X44475061Y-51962000D01*
X44678939Y-51962000D01*
X44878898Y-51922226D01*
X45067256Y-51844205D01*
X45236774Y-51730937D01*
X45380937Y-51586774D01*
X45415540Y-51534987D01*
X45739777Y-51859223D01*
X45670255Y-51866071D01*
X45522418Y-51910916D01*
X45386171Y-51983742D01*
X45266749Y-52081749D01*
X45168742Y-52201171D01*
X45095916Y-52337418D01*
X45051071Y-52485255D01*
X45035928Y-52639000D01*
X45035928Y-54289000D01*
X45045186Y-54383000D01*
X38531447Y-54383000D01*
X38191072Y-54042625D01*
X38191072Y-52744000D01*
X38178812Y-52619518D01*
X38142502Y-52499820D01*
X38083537Y-52389506D01*
X38004185Y-52292815D01*
X37907494Y-52213463D01*
X37797180Y-52154498D01*
X37677482Y-52118188D01*
X37553000Y-52105928D01*
X35853000Y-52105928D01*
X35728518Y-52118188D01*
X35608820Y-52154498D01*
X35498506Y-52213463D01*
X35401815Y-52292815D01*
X35329000Y-52381541D01*
X35329000Y-50428440D01*
X35480898Y-50398226D01*
X35669256Y-50320205D01*
X35838774Y-50206937D01*
X35982937Y-50062774D01*
X36096205Y-49893256D01*
X36174226Y-49704898D01*
X36214000Y-49504939D01*
X36214000Y-49342001D01*
X36308250Y-49341000D01*
X36467000Y-49182250D01*
X36467000Y-48133000D01*
X36447000Y-48133000D01*
X36447000Y-47879000D01*
X36467000Y-47879000D01*
X36467000Y-47859000D01*
X36721000Y-47859000D01*
X36721000Y-47879000D01*
G36*
X67412001Y-52290270D02*
G01*
X67401962Y-52278038D01*
X67267387Y-52167595D01*
X67113851Y-52085528D01*
X66947255Y-52034992D01*
X66774001Y-52017928D01*
X63273999Y-52017928D01*
X63115894Y-52033500D01*
X62346526Y-52033500D01*
X62278499Y-52026800D01*
X62210472Y-52033500D01*
X62210463Y-52033500D01*
X62006993Y-52053540D01*
X61745919Y-52132736D01*
X61505312Y-52261343D01*
X61505310Y-52261344D01*
X61505311Y-52261344D01*
X61347266Y-52391048D01*
X61347264Y-52391050D01*
X61294419Y-52434419D01*
X61251050Y-52487264D01*
X60767315Y-52971000D01*
X60417963Y-52971000D01*
X60214493Y-52991040D01*
X59953419Y-53070236D01*
X59712812Y-53198843D01*
X59674072Y-53230636D01*
X59674072Y-53106000D01*
X59661812Y-52981518D01*
X59625502Y-52861820D01*
X59566537Y-52751506D01*
X59487185Y-52654815D01*
X59390494Y-52575463D01*
X59280180Y-52516498D01*
X59160482Y-52480188D01*
X59121000Y-52476299D01*
X59121000Y-52154446D01*
X60278375Y-50997072D01*
X60521001Y-50997072D01*
X60694255Y-50980008D01*
X60860851Y-50929472D01*
X61014387Y-50847405D01*
X61148962Y-50736962D01*
X61197232Y-50678145D01*
X61231744Y-50701205D01*
X61420102Y-50779226D01*
X61620061Y-50819000D01*
X61823939Y-50819000D01*
X62023898Y-50779226D01*
X62212256Y-50701205D01*
X62381774Y-50587937D01*
X62525937Y-50443774D01*
X62639205Y-50274256D01*
X62717226Y-50085898D01*
X62757000Y-49885939D01*
X62757000Y-49788446D01*
X63166556Y-49378890D01*
X64471524Y-49378890D01*
X64516175Y-49526099D01*
X64641359Y-49788920D01*
X64815412Y-50022269D01*
X65031645Y-50217178D01*
X65281748Y-50366157D01*
X65556109Y-50463481D01*
X65786000Y-50342814D01*
X65786000Y-49149000D01*
X66040000Y-49149000D01*
X66040000Y-50342814D01*
X66269891Y-50463481D01*
X66544252Y-50366157D01*
X66794355Y-50217178D01*
X67010588Y-50022269D01*
X67184641Y-49788920D01*
X67309825Y-49526099D01*
X67354476Y-49378890D01*
X67233155Y-49149000D01*
X66040000Y-49149000D01*
X65786000Y-49149000D01*
X64592845Y-49149000D01*
X64471524Y-49378890D01*
X63166556Y-49378890D01*
X64694447Y-47850999D01*
X64708506Y-47862537D01*
X64818820Y-47921502D01*
X64899466Y-47945966D01*
X64815412Y-48021731D01*
X64641359Y-48255080D01*
X64516175Y-48517901D01*
X64471524Y-48665110D01*
X64592845Y-48895000D01*
X65786000Y-48895000D01*
X65786000Y-48875000D01*
X66040000Y-48875000D01*
X66040000Y-48895000D01*
X67233155Y-48895000D01*
X67354476Y-48665110D01*
X67309825Y-48517901D01*
X67184641Y-48255080D01*
X67010588Y-48021731D01*
X66926534Y-47945966D01*
X67007180Y-47921502D01*
X67117494Y-47862537D01*
X67214185Y-47783185D01*
X67293537Y-47686494D01*
X67352502Y-47576180D01*
X67388812Y-47456482D01*
X67401072Y-47332000D01*
X67401072Y-45632000D01*
X67388812Y-45507518D01*
X67352502Y-45387820D01*
X67298000Y-45285856D01*
X67298000Y-43384029D01*
X67304700Y-43316000D01*
X67298000Y-43247971D01*
X67298000Y-43247963D01*
X67277960Y-43044493D01*
X67198764Y-42783419D01*
X67070157Y-42542812D01*
X66897081Y-42331919D01*
X66844231Y-42288546D01*
X66521646Y-41965961D01*
X66466405Y-41862613D01*
X66355962Y-41728038D01*
X66268184Y-41656000D01*
X66355962Y-41583962D01*
X66466405Y-41449387D01*
X66548472Y-41295851D01*
X66599008Y-41129255D01*
X66616072Y-40956001D01*
X66616072Y-40305999D01*
X66599008Y-40132745D01*
X66548472Y-39966149D01*
X66466405Y-39812613D01*
X66355962Y-39678038D01*
X66221387Y-39567595D01*
X66067851Y-39485528D01*
X65901255Y-39434992D01*
X65728001Y-39417928D01*
X64827999Y-39417928D01*
X64654745Y-39434992D01*
X64488149Y-39485528D01*
X64334613Y-39567595D01*
X64200038Y-39678038D01*
X64089595Y-39812613D01*
X64071749Y-39846000D01*
X63480144Y-39846000D01*
X63378180Y-39791498D01*
X63258482Y-39755188D01*
X63134000Y-39742928D01*
X61914000Y-39742928D01*
X61789518Y-39755188D01*
X61669820Y-39791498D01*
X61559506Y-39850463D01*
X61462815Y-39929815D01*
X61383463Y-40026506D01*
X61324498Y-40136820D01*
X61288188Y-40256518D01*
X61275928Y-40381000D01*
X61275928Y-41031000D01*
X61288188Y-41155482D01*
X61295929Y-41181000D01*
X61288188Y-41206518D01*
X61275928Y-41331000D01*
X61279000Y-41370250D01*
X61437750Y-41529000D01*
X61519859Y-41529000D01*
X61559506Y-41561537D01*
X61669820Y-41620502D01*
X61786841Y-41656000D01*
X61669820Y-41691498D01*
X61559506Y-41750463D01*
X61519859Y-41783000D01*
X61437750Y-41783000D01*
X61279000Y-41941750D01*
X61275928Y-41981000D01*
X61288188Y-42105482D01*
X61295929Y-42131000D01*
X61288188Y-42156518D01*
X61275928Y-42281000D01*
X61275928Y-42327903D01*
X61269496Y-42339936D01*
X61268960Y-42334493D01*
X61189764Y-42073419D01*
X61061157Y-41832812D01*
X60888081Y-41621919D01*
X60835800Y-41579013D01*
X60868494Y-41561537D01*
X60965185Y-41482185D01*
X61044537Y-41385494D01*
X61103502Y-41275180D01*
X61139812Y-41155482D01*
X61152072Y-41031000D01*
X61152072Y-40381000D01*
X61139812Y-40256518D01*
X61103502Y-40136820D01*
X61044537Y-40026506D01*
X60965185Y-39929815D01*
X60868494Y-39850463D01*
X60758180Y-39791498D01*
X60655011Y-39760202D01*
X60653003Y-39739814D01*
X60609546Y-39596553D01*
X60538974Y-39464524D01*
X60467799Y-39377797D01*
X60444001Y-39348799D01*
X60415003Y-39325001D01*
X59407902Y-38317901D01*
X59455050Y-38317400D01*
X59613800Y-38158650D01*
X59613800Y-37109400D01*
X59867800Y-37109400D01*
X59867800Y-38158650D01*
X60026550Y-38317400D01*
X60315800Y-38320472D01*
X60440282Y-38308212D01*
X60559980Y-38271902D01*
X60670294Y-38212937D01*
X60766985Y-38133585D01*
X60846337Y-38036894D01*
X60905302Y-37926580D01*
X60941612Y-37806882D01*
X60953872Y-37682400D01*
X60950800Y-37268150D01*
X60792050Y-37109400D01*
X59867800Y-37109400D01*
X59613800Y-37109400D01*
X59593800Y-37109400D01*
X59593800Y-36855400D01*
X59613800Y-36855400D01*
X59613800Y-36835400D01*
X59867800Y-36835400D01*
X59867800Y-36855400D01*
X60792050Y-36855400D01*
X60950800Y-36696650D01*
X60953872Y-36282400D01*
X60941612Y-36157918D01*
X60905302Y-36038220D01*
X60871014Y-35974072D01*
X61758000Y-35974072D01*
X61882482Y-35961812D01*
X62002180Y-35925502D01*
X62112494Y-35866537D01*
X62209185Y-35787185D01*
X62288537Y-35690494D01*
X62347502Y-35580180D01*
X62383812Y-35460482D01*
X62396072Y-35336000D01*
X62396072Y-34072837D01*
X62399700Y-34036001D01*
X62396072Y-33999165D01*
X62396072Y-33622756D01*
X62619928Y-33846612D01*
X62619928Y-35336000D01*
X62632188Y-35460482D01*
X62668498Y-35580180D01*
X62727463Y-35690494D01*
X62806815Y-35787185D01*
X62903506Y-35866537D01*
X63013820Y-35925502D01*
X63133518Y-35961812D01*
X63258000Y-35974072D01*
X64758000Y-35974072D01*
X64882482Y-35961812D01*
X65002180Y-35925502D01*
X65112494Y-35866537D01*
X65209185Y-35787185D01*
X65288537Y-35690494D01*
X65347502Y-35580180D01*
X65383812Y-35460482D01*
X65396072Y-35336000D01*
X65396072Y-33312833D01*
X65399700Y-33275997D01*
X65396072Y-33239161D01*
X65396072Y-32736000D01*
X65383812Y-32611518D01*
X65347502Y-32491820D01*
X65288537Y-32381506D01*
X65209185Y-32284815D01*
X65112494Y-32205463D01*
X65002180Y-32146498D01*
X64882482Y-32110188D01*
X64791961Y-32101273D01*
X63382456Y-30691769D01*
X63353922Y-30657000D01*
X65057647Y-30657000D01*
X65158283Y-30647088D01*
X65208022Y-30632000D01*
X67412000Y-30632000D01*
X67412001Y-52290270D01*
G37*
X67412001Y-52290270D02*
X67401962Y-52278038D01*
X67267387Y-52167595D01*
X67113851Y-52085528D01*
X66947255Y-52034992D01*
X66774001Y-52017928D01*
X63273999Y-52017928D01*
X63115894Y-52033500D01*
X62346526Y-52033500D01*
X62278499Y-52026800D01*
X62210472Y-52033500D01*
X62210463Y-52033500D01*
X62006993Y-52053540D01*
X61745919Y-52132736D01*
X61505312Y-52261343D01*
X61505310Y-52261344D01*
X61505311Y-52261344D01*
X61347266Y-52391048D01*
X61347264Y-52391050D01*
X61294419Y-52434419D01*
X61251050Y-52487264D01*
X60767315Y-52971000D01*
X60417963Y-52971000D01*
X60214493Y-52991040D01*
X59953419Y-53070236D01*
X59712812Y-53198843D01*
X59674072Y-53230636D01*
X59674072Y-53106000D01*
X59661812Y-52981518D01*
X59625502Y-52861820D01*
X59566537Y-52751506D01*
X59487185Y-52654815D01*
X59390494Y-52575463D01*
X59280180Y-52516498D01*
X59160482Y-52480188D01*
X59121000Y-52476299D01*
X59121000Y-52154446D01*
X60278375Y-50997072D01*
X60521001Y-50997072D01*
X60694255Y-50980008D01*
X60860851Y-50929472D01*
X61014387Y-50847405D01*
X61148962Y-50736962D01*
X61197232Y-50678145D01*
X61231744Y-50701205D01*
X61420102Y-50779226D01*
X61620061Y-50819000D01*
X61823939Y-50819000D01*
X62023898Y-50779226D01*
X62212256Y-50701205D01*
X62381774Y-50587937D01*
X62525937Y-50443774D01*
X62639205Y-50274256D01*
X62717226Y-50085898D01*
X62757000Y-49885939D01*
X62757000Y-49788446D01*
X63166556Y-49378890D01*
X64471524Y-49378890D01*
X64516175Y-49526099D01*
X64641359Y-49788920D01*
X64815412Y-50022269D01*
X65031645Y-50217178D01*
X65281748Y-50366157D01*
X65556109Y-50463481D01*
X65786000Y-50342814D01*
X65786000Y-49149000D01*
X66040000Y-49149000D01*
X66040000Y-50342814D01*
X66269891Y-50463481D01*
X66544252Y-50366157D01*
X66794355Y-50217178D01*
X67010588Y-50022269D01*
X67184641Y-49788920D01*
X67309825Y-49526099D01*
X67354476Y-49378890D01*
X67233155Y-49149000D01*
X66040000Y-49149000D01*
X65786000Y-49149000D01*
X64592845Y-49149000D01*
X64471524Y-49378890D01*
X63166556Y-49378890D01*
X64694447Y-47850999D01*
X64708506Y-47862537D01*
X64818820Y-47921502D01*
X64899466Y-47945966D01*
X64815412Y-48021731D01*
X64641359Y-48255080D01*
X64516175Y-48517901D01*
X64471524Y-48665110D01*
X64592845Y-48895000D01*
X65786000Y-48895000D01*
X65786000Y-48875000D01*
X66040000Y-48875000D01*
X66040000Y-48895000D01*
X67233155Y-48895000D01*
X67354476Y-48665110D01*
X67309825Y-48517901D01*
X67184641Y-48255080D01*
X67010588Y-48021731D01*
X66926534Y-47945966D01*
X67007180Y-47921502D01*
X67117494Y-47862537D01*
X67214185Y-47783185D01*
X67293537Y-47686494D01*
X67352502Y-47576180D01*
X67388812Y-47456482D01*
X67401072Y-47332000D01*
X67401072Y-45632000D01*
X67388812Y-45507518D01*
X67352502Y-45387820D01*
X67298000Y-45285856D01*
X67298000Y-43384029D01*
X67304700Y-43316000D01*
X67298000Y-43247971D01*
X67298000Y-43247963D01*
X67277960Y-43044493D01*
X67198764Y-42783419D01*
X67070157Y-42542812D01*
X66897081Y-42331919D01*
X66844231Y-42288546D01*
X66521646Y-41965961D01*
X66466405Y-41862613D01*
X66355962Y-41728038D01*
X66268184Y-41656000D01*
X66355962Y-41583962D01*
X66466405Y-41449387D01*
X66548472Y-41295851D01*
X66599008Y-41129255D01*
X66616072Y-40956001D01*
X66616072Y-40305999D01*
X66599008Y-40132745D01*
X66548472Y-39966149D01*
X66466405Y-39812613D01*
X66355962Y-39678038D01*
X66221387Y-39567595D01*
X66067851Y-39485528D01*
X65901255Y-39434992D01*
X65728001Y-39417928D01*
X64827999Y-39417928D01*
X64654745Y-39434992D01*
X64488149Y-39485528D01*
X64334613Y-39567595D01*
X64200038Y-39678038D01*
X64089595Y-39812613D01*
X64071749Y-39846000D01*
X63480144Y-39846000D01*
X63378180Y-39791498D01*
X63258482Y-39755188D01*
X63134000Y-39742928D01*
X61914000Y-39742928D01*
X61789518Y-39755188D01*
X61669820Y-39791498D01*
X61559506Y-39850463D01*
X61462815Y-39929815D01*
X61383463Y-40026506D01*
X61324498Y-40136820D01*
X61288188Y-40256518D01*
X61275928Y-40381000D01*
X61275928Y-41031000D01*
X61288188Y-41155482D01*
X61295929Y-41181000D01*
X61288188Y-41206518D01*
X61275928Y-41331000D01*
X61279000Y-41370250D01*
X61437750Y-41529000D01*
X61519859Y-41529000D01*
X61559506Y-41561537D01*
X61669820Y-41620502D01*
X61786841Y-41656000D01*
X61669820Y-41691498D01*
X61559506Y-41750463D01*
X61519859Y-41783000D01*
X61437750Y-41783000D01*
X61279000Y-41941750D01*
X61275928Y-41981000D01*
X61288188Y-42105482D01*
X61295929Y-42131000D01*
X61288188Y-42156518D01*
X61275928Y-42281000D01*
X61275928Y-42327903D01*
X61269496Y-42339936D01*
X61268960Y-42334493D01*
X61189764Y-42073419D01*
X61061157Y-41832812D01*
X60888081Y-41621919D01*
X60835800Y-41579013D01*
X60868494Y-41561537D01*
X60965185Y-41482185D01*
X61044537Y-41385494D01*
X61103502Y-41275180D01*
X61139812Y-41155482D01*
X61152072Y-41031000D01*
X61152072Y-40381000D01*
X61139812Y-40256518D01*
X61103502Y-40136820D01*
X61044537Y-40026506D01*
X60965185Y-39929815D01*
X60868494Y-39850463D01*
X60758180Y-39791498D01*
X60655011Y-39760202D01*
X60653003Y-39739814D01*
X60609546Y-39596553D01*
X60538974Y-39464524D01*
X60467799Y-39377797D01*
X60444001Y-39348799D01*
X60415003Y-39325001D01*
X59407902Y-38317901D01*
X59455050Y-38317400D01*
X59613800Y-38158650D01*
X59613800Y-37109400D01*
X59867800Y-37109400D01*
X59867800Y-38158650D01*
X60026550Y-38317400D01*
X60315800Y-38320472D01*
X60440282Y-38308212D01*
X60559980Y-38271902D01*
X60670294Y-38212937D01*
X60766985Y-38133585D01*
X60846337Y-38036894D01*
X60905302Y-37926580D01*
X60941612Y-37806882D01*
X60953872Y-37682400D01*
X60950800Y-37268150D01*
X60792050Y-37109400D01*
X59867800Y-37109400D01*
X59613800Y-37109400D01*
X59593800Y-37109400D01*
X59593800Y-36855400D01*
X59613800Y-36855400D01*
X59613800Y-36835400D01*
X59867800Y-36835400D01*
X59867800Y-36855400D01*
X60792050Y-36855400D01*
X60950800Y-36696650D01*
X60953872Y-36282400D01*
X60941612Y-36157918D01*
X60905302Y-36038220D01*
X60871014Y-35974072D01*
X61758000Y-35974072D01*
X61882482Y-35961812D01*
X62002180Y-35925502D01*
X62112494Y-35866537D01*
X62209185Y-35787185D01*
X62288537Y-35690494D01*
X62347502Y-35580180D01*
X62383812Y-35460482D01*
X62396072Y-35336000D01*
X62396072Y-34072837D01*
X62399700Y-34036001D01*
X62396072Y-33999165D01*
X62396072Y-33622756D01*
X62619928Y-33846612D01*
X62619928Y-35336000D01*
X62632188Y-35460482D01*
X62668498Y-35580180D01*
X62727463Y-35690494D01*
X62806815Y-35787185D01*
X62903506Y-35866537D01*
X63013820Y-35925502D01*
X63133518Y-35961812D01*
X63258000Y-35974072D01*
X64758000Y-35974072D01*
X64882482Y-35961812D01*
X65002180Y-35925502D01*
X65112494Y-35866537D01*
X65209185Y-35787185D01*
X65288537Y-35690494D01*
X65347502Y-35580180D01*
X65383812Y-35460482D01*
X65396072Y-35336000D01*
X65396072Y-33312833D01*
X65399700Y-33275997D01*
X65396072Y-33239161D01*
X65396072Y-32736000D01*
X65383812Y-32611518D01*
X65347502Y-32491820D01*
X65288537Y-32381506D01*
X65209185Y-32284815D01*
X65112494Y-32205463D01*
X65002180Y-32146498D01*
X64882482Y-32110188D01*
X64791961Y-32101273D01*
X63382456Y-30691769D01*
X63353922Y-30657000D01*
X65057647Y-30657000D01*
X65158283Y-30647088D01*
X65208022Y-30632000D01*
X67412000Y-30632000D01*
X67412001Y-52290270D01*
G36*
X54184600Y-41238602D02*
G01*
X54184600Y-41300739D01*
X54224374Y-41500698D01*
X54302395Y-41689056D01*
X54415663Y-41858574D01*
X54559826Y-42002737D01*
X54729344Y-42116005D01*
X54917702Y-42194026D01*
X55117661Y-42233800D01*
X55321539Y-42233800D01*
X55521498Y-42194026D01*
X55709856Y-42116005D01*
X55879374Y-42002737D01*
X56023537Y-41858574D01*
X56136805Y-41689056D01*
X56214826Y-41500698D01*
X56254600Y-41300739D01*
X56254600Y-41238601D01*
X56323800Y-41169401D01*
X56323800Y-42146771D01*
X56317100Y-42214800D01*
X56323800Y-42282829D01*
X56323800Y-42282836D01*
X56337673Y-42423690D01*
X56343840Y-42486307D01*
X56396376Y-42659494D01*
X56423036Y-42747380D01*
X56551643Y-42987987D01*
X56569914Y-43010250D01*
X56675233Y-43138581D01*
X56724719Y-43198880D01*
X56777565Y-43242250D01*
X57072546Y-43537231D01*
X57115919Y-43590081D01*
X57326812Y-43763157D01*
X57567419Y-43891764D01*
X57828493Y-43970960D01*
X58031963Y-43991000D01*
X58031972Y-43991000D01*
X58099999Y-43997700D01*
X58168026Y-43991000D01*
X59972037Y-43991000D01*
X60175507Y-43970960D01*
X60436581Y-43891764D01*
X60677188Y-43763157D01*
X60888081Y-43590081D01*
X61061157Y-43379188D01*
X61158504Y-43197065D01*
X61159040Y-43202508D01*
X61238236Y-43463582D01*
X61366843Y-43704189D01*
X61539919Y-43915082D01*
X61750812Y-44088158D01*
X61991419Y-44216765D01*
X62252493Y-44295961D01*
X62455963Y-44316001D01*
X64528001Y-44316001D01*
X64528000Y-45285855D01*
X64473498Y-45387820D01*
X64437188Y-45507518D01*
X64424928Y-45632000D01*
X64424928Y-46041625D01*
X61717554Y-48749000D01*
X61620061Y-48749000D01*
X61420102Y-48788774D01*
X61231744Y-48866795D01*
X61197232Y-48889855D01*
X61148962Y-48831038D01*
X61061184Y-48759000D01*
X61148962Y-48686962D01*
X61259405Y-48552387D01*
X61341472Y-48398851D01*
X61392008Y-48232255D01*
X61409072Y-48059001D01*
X61409072Y-47408999D01*
X61392008Y-47235745D01*
X61341472Y-47069149D01*
X61259405Y-46915613D01*
X61148962Y-46781038D01*
X61014387Y-46670595D01*
X60860851Y-46588528D01*
X60694255Y-46537992D01*
X60521001Y-46520928D01*
X60514375Y-46520928D01*
X58203259Y-44209812D01*
X58180238Y-44181762D01*
X58068320Y-44089913D01*
X57940633Y-44021663D01*
X57802085Y-43979635D01*
X57694105Y-43969000D01*
X57658000Y-43965444D01*
X57621895Y-43969000D01*
X51709730Y-43969000D01*
X51760008Y-43803255D01*
X51777072Y-43630001D01*
X51777072Y-42729999D01*
X51760008Y-42556745D01*
X51709472Y-42390149D01*
X51627405Y-42236613D01*
X51516962Y-42102038D01*
X51382387Y-41991595D01*
X51324000Y-41960386D01*
X51324000Y-41097614D01*
X51382387Y-41066405D01*
X51516962Y-40955962D01*
X51627405Y-40821387D01*
X51709472Y-40667851D01*
X51718527Y-40638000D01*
X53583999Y-40638000D01*
X54184600Y-41238602D01*
G37*
X54184600Y-41238602D02*
X54184600Y-41300739D01*
X54224374Y-41500698D01*
X54302395Y-41689056D01*
X54415663Y-41858574D01*
X54559826Y-42002737D01*
X54729344Y-42116005D01*
X54917702Y-42194026D01*
X55117661Y-42233800D01*
X55321539Y-42233800D01*
X55521498Y-42194026D01*
X55709856Y-42116005D01*
X55879374Y-42002737D01*
X56023537Y-41858574D01*
X56136805Y-41689056D01*
X56214826Y-41500698D01*
X56254600Y-41300739D01*
X56254600Y-41238601D01*
X56323800Y-41169401D01*
X56323800Y-42146771D01*
X56317100Y-42214800D01*
X56323800Y-42282829D01*
X56323800Y-42282836D01*
X56337673Y-42423690D01*
X56343840Y-42486307D01*
X56396376Y-42659494D01*
X56423036Y-42747380D01*
X56551643Y-42987987D01*
X56569914Y-43010250D01*
X56675233Y-43138581D01*
X56724719Y-43198880D01*
X56777565Y-43242250D01*
X57072546Y-43537231D01*
X57115919Y-43590081D01*
X57326812Y-43763157D01*
X57567419Y-43891764D01*
X57828493Y-43970960D01*
X58031963Y-43991000D01*
X58031972Y-43991000D01*
X58099999Y-43997700D01*
X58168026Y-43991000D01*
X59972037Y-43991000D01*
X60175507Y-43970960D01*
X60436581Y-43891764D01*
X60677188Y-43763157D01*
X60888081Y-43590081D01*
X61061157Y-43379188D01*
X61158504Y-43197065D01*
X61159040Y-43202508D01*
X61238236Y-43463582D01*
X61366843Y-43704189D01*
X61539919Y-43915082D01*
X61750812Y-44088158D01*
X61991419Y-44216765D01*
X62252493Y-44295961D01*
X62455963Y-44316001D01*
X64528001Y-44316001D01*
X64528000Y-45285855D01*
X64473498Y-45387820D01*
X64437188Y-45507518D01*
X64424928Y-45632000D01*
X64424928Y-46041625D01*
X61717554Y-48749000D01*
X61620061Y-48749000D01*
X61420102Y-48788774D01*
X61231744Y-48866795D01*
X61197232Y-48889855D01*
X61148962Y-48831038D01*
X61061184Y-48759000D01*
X61148962Y-48686962D01*
X61259405Y-48552387D01*
X61341472Y-48398851D01*
X61392008Y-48232255D01*
X61409072Y-48059001D01*
X61409072Y-47408999D01*
X61392008Y-47235745D01*
X61341472Y-47069149D01*
X61259405Y-46915613D01*
X61148962Y-46781038D01*
X61014387Y-46670595D01*
X60860851Y-46588528D01*
X60694255Y-46537992D01*
X60521001Y-46520928D01*
X60514375Y-46520928D01*
X58203259Y-44209812D01*
X58180238Y-44181762D01*
X58068320Y-44089913D01*
X57940633Y-44021663D01*
X57802085Y-43979635D01*
X57694105Y-43969000D01*
X57658000Y-43965444D01*
X57621895Y-43969000D01*
X51709730Y-43969000D01*
X51760008Y-43803255D01*
X51777072Y-43630001D01*
X51777072Y-42729999D01*
X51760008Y-42556745D01*
X51709472Y-42390149D01*
X51627405Y-42236613D01*
X51516962Y-42102038D01*
X51382387Y-41991595D01*
X51324000Y-41960386D01*
X51324000Y-41097614D01*
X51382387Y-41066405D01*
X51516962Y-40955962D01*
X51627405Y-40821387D01*
X51709472Y-40667851D01*
X51718527Y-40638000D01*
X53583999Y-40638000D01*
X54184600Y-41238602D01*
G36*
X46711226Y-43983937D02*
G01*
X46880744Y-44097205D01*
X47069102Y-44175226D01*
X47269061Y-44215000D01*
X47472939Y-44215000D01*
X47518365Y-44205964D01*
X47561038Y-44257962D01*
X47695613Y-44368405D01*
X47849149Y-44450472D01*
X48015745Y-44501008D01*
X48188999Y-44518072D01*
X48839001Y-44518072D01*
X49012255Y-44501008D01*
X49178851Y-44450472D01*
X49293997Y-44388925D01*
X48032169Y-45545601D01*
X47991762Y-45578763D01*
X47955969Y-45622377D01*
X47918316Y-45664394D01*
X47910122Y-45678242D01*
X47899913Y-45690681D01*
X47873318Y-45740438D01*
X47844584Y-45788995D01*
X47839248Y-45804177D01*
X47831663Y-45818368D01*
X47815284Y-45872364D01*
X47796578Y-45925587D01*
X47794307Y-45941514D01*
X47789635Y-45956916D01*
X47784103Y-46013083D01*
X47776142Y-46068920D01*
X47779000Y-46121101D01*
X47779000Y-47005504D01*
X47695582Y-46960916D01*
X47547745Y-46916071D01*
X47394000Y-46900928D01*
X47094000Y-46900928D01*
X46940255Y-46916071D01*
X46792418Y-46960916D01*
X46709000Y-47005504D01*
X46709000Y-43981711D01*
X46711226Y-43983937D01*
G37*
X46711226Y-43983937D02*
X46880744Y-44097205D01*
X47069102Y-44175226D01*
X47269061Y-44215000D01*
X47472939Y-44215000D01*
X47518365Y-44205964D01*
X47561038Y-44257962D01*
X47695613Y-44368405D01*
X47849149Y-44450472D01*
X48015745Y-44501008D01*
X48188999Y-44518072D01*
X48839001Y-44518072D01*
X49012255Y-44501008D01*
X49178851Y-44450472D01*
X49293997Y-44388925D01*
X48032169Y-45545601D01*
X47991762Y-45578763D01*
X47955969Y-45622377D01*
X47918316Y-45664394D01*
X47910122Y-45678242D01*
X47899913Y-45690681D01*
X47873318Y-45740438D01*
X47844584Y-45788995D01*
X47839248Y-45804177D01*
X47831663Y-45818368D01*
X47815284Y-45872364D01*
X47796578Y-45925587D01*
X47794307Y-45941514D01*
X47789635Y-45956916D01*
X47784103Y-46013083D01*
X47776142Y-46068920D01*
X47779000Y-46121101D01*
X47779000Y-47005504D01*
X47695582Y-46960916D01*
X47547745Y-46916071D01*
X47394000Y-46900928D01*
X47094000Y-46900928D01*
X46940255Y-46916071D01*
X46792418Y-46960916D01*
X46709000Y-47005504D01*
X46709000Y-43981711D01*
X46711226Y-43983937D01*
G36*
X43715000Y-43103447D02*
G01*
X43715001Y-46993554D01*
X43344258Y-46622812D01*
X43321238Y-46594762D01*
X43209320Y-46502913D01*
X43081633Y-46434663D01*
X42943085Y-46392635D01*
X42835105Y-46382000D01*
X42799000Y-46378444D01*
X42762895Y-46382000D01*
X40182447Y-46382000D01*
X38843447Y-45043000D01*
X39555928Y-45043000D01*
X39568188Y-45167482D01*
X39604498Y-45287180D01*
X39663463Y-45397494D01*
X39742815Y-45494185D01*
X39839506Y-45573537D01*
X39949820Y-45632502D01*
X40069518Y-45668812D01*
X40194000Y-45681072D01*
X40608250Y-45678000D01*
X40767000Y-45519250D01*
X40767000Y-44595000D01*
X41021000Y-44595000D01*
X41021000Y-45519250D01*
X41179750Y-45678000D01*
X41594000Y-45681072D01*
X41718482Y-45668812D01*
X41838180Y-45632502D01*
X41948494Y-45573537D01*
X42045185Y-45494185D01*
X42124537Y-45397494D01*
X42183502Y-45287180D01*
X42219812Y-45167482D01*
X42232072Y-45043000D01*
X42229000Y-44753750D01*
X42070250Y-44595000D01*
X41021000Y-44595000D01*
X40767000Y-44595000D01*
X39717750Y-44595000D01*
X39559000Y-44753750D01*
X39555928Y-45043000D01*
X38843447Y-45043000D01*
X38645258Y-44844812D01*
X38622238Y-44816762D01*
X38510320Y-44724913D01*
X38492864Y-44715582D01*
X39420447Y-43788000D01*
X39566269Y-43788000D01*
X39555928Y-43893000D01*
X39559000Y-44182250D01*
X39717750Y-44341000D01*
X40767000Y-44341000D01*
X40767000Y-44321000D01*
X41021000Y-44321000D01*
X41021000Y-44341000D01*
X42070250Y-44341000D01*
X42229000Y-44182250D01*
X42232072Y-43893000D01*
X42219812Y-43768518D01*
X42193772Y-43682675D01*
X42316061Y-43707000D01*
X42519939Y-43707000D01*
X42719898Y-43667226D01*
X42908256Y-43589205D01*
X43077774Y-43475937D01*
X43221937Y-43331774D01*
X43335205Y-43162256D01*
X43413226Y-42973898D01*
X43441800Y-42830247D01*
X43715000Y-43103447D01*
G37*
X43715000Y-43103447D02*
X43715001Y-46993554D01*
X43344258Y-46622812D01*
X43321238Y-46594762D01*
X43209320Y-46502913D01*
X43081633Y-46434663D01*
X42943085Y-46392635D01*
X42835105Y-46382000D01*
X42799000Y-46378444D01*
X42762895Y-46382000D01*
X40182447Y-46382000D01*
X38843447Y-45043000D01*
X39555928Y-45043000D01*
X39568188Y-45167482D01*
X39604498Y-45287180D01*
X39663463Y-45397494D01*
X39742815Y-45494185D01*
X39839506Y-45573537D01*
X39949820Y-45632502D01*
X40069518Y-45668812D01*
X40194000Y-45681072D01*
X40608250Y-45678000D01*
X40767000Y-45519250D01*
X40767000Y-44595000D01*
X41021000Y-44595000D01*
X41021000Y-45519250D01*
X41179750Y-45678000D01*
X41594000Y-45681072D01*
X41718482Y-45668812D01*
X41838180Y-45632502D01*
X41948494Y-45573537D01*
X42045185Y-45494185D01*
X42124537Y-45397494D01*
X42183502Y-45287180D01*
X42219812Y-45167482D01*
X42232072Y-45043000D01*
X42229000Y-44753750D01*
X42070250Y-44595000D01*
X41021000Y-44595000D01*
X40767000Y-44595000D01*
X39717750Y-44595000D01*
X39559000Y-44753750D01*
X39555928Y-45043000D01*
X38843447Y-45043000D01*
X38645258Y-44844812D01*
X38622238Y-44816762D01*
X38510320Y-44724913D01*
X38492864Y-44715582D01*
X39420447Y-43788000D01*
X39566269Y-43788000D01*
X39555928Y-43893000D01*
X39559000Y-44182250D01*
X39717750Y-44341000D01*
X40767000Y-44341000D01*
X40767000Y-44321000D01*
X41021000Y-44321000D01*
X41021000Y-44341000D01*
X42070250Y-44341000D01*
X42229000Y-44182250D01*
X42232072Y-43893000D01*
X42219812Y-43768518D01*
X42193772Y-43682675D01*
X42316061Y-43707000D01*
X42519939Y-43707000D01*
X42719898Y-43667226D01*
X42908256Y-43589205D01*
X43077774Y-43475937D01*
X43221937Y-43331774D01*
X43335205Y-43162256D01*
X43413226Y-42973898D01*
X43441800Y-42830247D01*
X43715000Y-43103447D01*
G36*
X39555928Y-42119374D02*
G01*
X39555928Y-42318000D01*
X39152105Y-42318000D01*
X39116000Y-42314444D01*
X39079895Y-42318000D01*
X38971915Y-42328635D01*
X38833367Y-42370663D01*
X38705680Y-42438913D01*
X38593762Y-42530762D01*
X38570747Y-42558806D01*
X37703471Y-43426083D01*
X37705851Y-43418236D01*
X37719072Y-43284000D01*
X37719072Y-43184000D01*
X37705851Y-43049764D01*
X37701069Y-43034000D01*
X37705851Y-43018236D01*
X37719072Y-42884000D01*
X37719072Y-42784000D01*
X37706085Y-42652144D01*
X37716000Y-42592750D01*
X37676606Y-42553356D01*
X37666696Y-42520686D01*
X37603111Y-42401728D01*
X37596986Y-42394264D01*
X37716000Y-42275250D01*
X37699880Y-42178683D01*
X37657687Y-42060929D01*
X37593333Y-41953670D01*
X37509290Y-41861027D01*
X37408788Y-41786560D01*
X37295690Y-41733130D01*
X37174341Y-41702792D01*
X37091750Y-41699000D01*
X37044072Y-41746678D01*
X37044072Y-41709000D01*
X37036193Y-41629000D01*
X39065554Y-41629000D01*
X39555928Y-42119374D01*
G37*
X39555928Y-42119374D02*
X39555928Y-42318000D01*
X39152105Y-42318000D01*
X39116000Y-42314444D01*
X39079895Y-42318000D01*
X38971915Y-42328635D01*
X38833367Y-42370663D01*
X38705680Y-42438913D01*
X38593762Y-42530762D01*
X38570747Y-42558806D01*
X37703471Y-43426083D01*
X37705851Y-43418236D01*
X37719072Y-43284000D01*
X37719072Y-43184000D01*
X37705851Y-43049764D01*
X37701069Y-43034000D01*
X37705851Y-43018236D01*
X37719072Y-42884000D01*
X37719072Y-42784000D01*
X37706085Y-42652144D01*
X37716000Y-42592750D01*
X37676606Y-42553356D01*
X37666696Y-42520686D01*
X37603111Y-42401728D01*
X37596986Y-42394264D01*
X37716000Y-42275250D01*
X37699880Y-42178683D01*
X37657687Y-42060929D01*
X37593333Y-41953670D01*
X37509290Y-41861027D01*
X37408788Y-41786560D01*
X37295690Y-41733130D01*
X37174341Y-41702792D01*
X37091750Y-41699000D01*
X37044072Y-41746678D01*
X37044072Y-41709000D01*
X37036193Y-41629000D01*
X39065554Y-41629000D01*
X39555928Y-42119374D01*
G36*
X64089595Y-41449387D02*
G01*
X64168884Y-41546001D01*
X63769000Y-41546001D01*
X63769000Y-41528998D01*
X63610252Y-41528998D01*
X63723250Y-41416000D01*
X64071749Y-41416000D01*
X64089595Y-41449387D01*
G37*
X64089595Y-41449387D02*
X64168884Y-41546001D01*
X63769000Y-41546001D01*
X63769000Y-41528998D01*
X63610252Y-41528998D01*
X63723250Y-41416000D01*
X64071749Y-41416000D01*
X64089595Y-41449387D01*
G36*
X43846919Y-33178919D02*
G01*
X43673843Y-33389812D01*
X43545236Y-33630419D01*
X43466040Y-33891493D01*
X43439299Y-34163000D01*
X43466040Y-34434507D01*
X43545236Y-34695581D01*
X43673843Y-34936188D01*
X43846919Y-35147081D01*
X44057812Y-35320157D01*
X44298419Y-35448764D01*
X44559493Y-35527960D01*
X44762963Y-35548000D01*
X46196736Y-35548000D01*
X46206498Y-35580180D01*
X46265463Y-35690494D01*
X46344815Y-35787185D01*
X46441506Y-35866537D01*
X46551820Y-35925502D01*
X46671518Y-35961812D01*
X46796000Y-35974072D01*
X48296000Y-35974072D01*
X48420482Y-35961812D01*
X48540180Y-35925502D01*
X48650494Y-35866537D01*
X48747185Y-35787185D01*
X48826537Y-35690494D01*
X48885502Y-35580180D01*
X48921812Y-35460482D01*
X48934072Y-35336000D01*
X48934072Y-34072837D01*
X48937700Y-34036001D01*
X48934072Y-33999165D01*
X48934072Y-33008000D01*
X49157928Y-33008000D01*
X49157928Y-35336000D01*
X49170188Y-35460482D01*
X49206498Y-35580180D01*
X49265463Y-35690494D01*
X49344815Y-35787185D01*
X49441506Y-35866537D01*
X49551820Y-35925502D01*
X49671518Y-35961812D01*
X49796000Y-35974072D01*
X51296000Y-35974072D01*
X51420482Y-35961812D01*
X51540180Y-35925502D01*
X51650494Y-35866537D01*
X51747185Y-35787185D01*
X51826537Y-35690494D01*
X51885502Y-35580180D01*
X51921812Y-35460482D01*
X51934072Y-35336000D01*
X51934072Y-33008000D01*
X56346435Y-33008000D01*
X56292919Y-33051919D01*
X56119844Y-33262812D01*
X55991236Y-33503420D01*
X55912040Y-33764493D01*
X55885300Y-34036000D01*
X55912040Y-34307507D01*
X55991236Y-34568580D01*
X56119844Y-34809188D01*
X56249548Y-34967233D01*
X56305801Y-35023486D01*
X56305800Y-36777259D01*
X56283989Y-36768225D01*
X56016411Y-36715000D01*
X55743589Y-36715000D01*
X55476011Y-36768225D01*
X55223957Y-36872629D01*
X54997114Y-37024201D01*
X54804201Y-37217114D01*
X54652629Y-37443957D01*
X54548225Y-37696011D01*
X54495000Y-37963589D01*
X54495000Y-38236411D01*
X54548225Y-38503989D01*
X54652629Y-38756043D01*
X54804201Y-38982886D01*
X54997114Y-39175799D01*
X55223957Y-39327371D01*
X55476011Y-39431775D01*
X55743589Y-39485000D01*
X55858599Y-39485000D01*
X55219600Y-40123999D01*
X54462604Y-39367003D01*
X54438801Y-39337999D01*
X54323076Y-39243026D01*
X54191047Y-39172454D01*
X54047786Y-39128997D01*
X53936133Y-39118000D01*
X53936122Y-39118000D01*
X53898800Y-39114324D01*
X53861478Y-39118000D01*
X51718527Y-39118000D01*
X51709472Y-39088149D01*
X51627405Y-38934613D01*
X51516962Y-38800038D01*
X51382387Y-38689595D01*
X51228851Y-38607528D01*
X51062255Y-38556992D01*
X50889001Y-38539928D01*
X50238999Y-38539928D01*
X50065745Y-38556992D01*
X49899149Y-38607528D01*
X49745613Y-38689595D01*
X49611038Y-38800038D01*
X49539000Y-38887816D01*
X49466962Y-38800038D01*
X49332387Y-38689595D01*
X49178851Y-38607528D01*
X49012255Y-38556992D01*
X48839001Y-38539928D01*
X48306889Y-38539928D01*
X48321775Y-38503989D01*
X48375000Y-38236411D01*
X48375000Y-37963589D01*
X48321775Y-37696011D01*
X48217371Y-37443957D01*
X48065799Y-37217114D01*
X47872886Y-37024201D01*
X47646043Y-36872629D01*
X47393989Y-36768225D01*
X47126411Y-36715000D01*
X46853589Y-36715000D01*
X46586011Y-36768225D01*
X46333957Y-36872629D01*
X46107114Y-37024201D01*
X45914201Y-37217114D01*
X45762629Y-37443957D01*
X45658225Y-37696011D01*
X45605000Y-37963589D01*
X45605000Y-38236411D01*
X45658225Y-38503989D01*
X45762629Y-38756043D01*
X45914201Y-38982886D01*
X46049315Y-39118000D01*
X42988356Y-39118000D01*
X42572091Y-38736423D01*
X42559238Y-38720762D01*
X42518821Y-38687593D01*
X42507043Y-38676796D01*
X42490948Y-38664718D01*
X42447320Y-38628913D01*
X42433127Y-38621327D01*
X42420259Y-38611670D01*
X42369398Y-38587263D01*
X42319633Y-38560663D01*
X42304232Y-38555991D01*
X42289728Y-38549031D01*
X42235091Y-38535018D01*
X42181085Y-38518635D01*
X42165066Y-38517057D01*
X42149485Y-38513061D01*
X42093160Y-38509975D01*
X42073105Y-38508000D01*
X42057106Y-38508000D01*
X42004920Y-38505141D01*
X41984869Y-38508000D01*
X35738537Y-38508000D01*
X35717897Y-38505091D01*
X35666308Y-38508000D01*
X35650895Y-38508000D01*
X35630253Y-38510033D01*
X35573344Y-38513242D01*
X35558341Y-38517116D01*
X35542915Y-38518635D01*
X35488352Y-38535186D01*
X35433159Y-38549437D01*
X35419198Y-38556164D01*
X35408179Y-38559507D01*
X38015241Y-35952445D01*
X38030416Y-35939991D01*
X38078180Y-35925502D01*
X38188494Y-35866537D01*
X38285185Y-35787185D01*
X38364537Y-35690494D01*
X38423502Y-35580180D01*
X38459812Y-35460482D01*
X38463701Y-35421000D01*
X38793971Y-35421000D01*
X38862000Y-35427700D01*
X38930029Y-35421000D01*
X38930037Y-35421000D01*
X39133507Y-35400960D01*
X39394581Y-35321764D01*
X39635188Y-35193157D01*
X39846081Y-35020081D01*
X39889454Y-34967231D01*
X41848686Y-33008000D01*
X44055184Y-33008000D01*
X43846919Y-33178919D01*
G37*
X43846919Y-33178919D02*
X43673843Y-33389812D01*
X43545236Y-33630419D01*
X43466040Y-33891493D01*
X43439299Y-34163000D01*
X43466040Y-34434507D01*
X43545236Y-34695581D01*
X43673843Y-34936188D01*
X43846919Y-35147081D01*
X44057812Y-35320157D01*
X44298419Y-35448764D01*
X44559493Y-35527960D01*
X44762963Y-35548000D01*
X46196736Y-35548000D01*
X46206498Y-35580180D01*
X46265463Y-35690494D01*
X46344815Y-35787185D01*
X46441506Y-35866537D01*
X46551820Y-35925502D01*
X46671518Y-35961812D01*
X46796000Y-35974072D01*
X48296000Y-35974072D01*
X48420482Y-35961812D01*
X48540180Y-35925502D01*
X48650494Y-35866537D01*
X48747185Y-35787185D01*
X48826537Y-35690494D01*
X48885502Y-35580180D01*
X48921812Y-35460482D01*
X48934072Y-35336000D01*
X48934072Y-34072837D01*
X48937700Y-34036001D01*
X48934072Y-33999165D01*
X48934072Y-33008000D01*
X49157928Y-33008000D01*
X49157928Y-35336000D01*
X49170188Y-35460482D01*
X49206498Y-35580180D01*
X49265463Y-35690494D01*
X49344815Y-35787185D01*
X49441506Y-35866537D01*
X49551820Y-35925502D01*
X49671518Y-35961812D01*
X49796000Y-35974072D01*
X51296000Y-35974072D01*
X51420482Y-35961812D01*
X51540180Y-35925502D01*
X51650494Y-35866537D01*
X51747185Y-35787185D01*
X51826537Y-35690494D01*
X51885502Y-35580180D01*
X51921812Y-35460482D01*
X51934072Y-35336000D01*
X51934072Y-33008000D01*
X56346435Y-33008000D01*
X56292919Y-33051919D01*
X56119844Y-33262812D01*
X55991236Y-33503420D01*
X55912040Y-33764493D01*
X55885300Y-34036000D01*
X55912040Y-34307507D01*
X55991236Y-34568580D01*
X56119844Y-34809188D01*
X56249548Y-34967233D01*
X56305801Y-35023486D01*
X56305800Y-36777259D01*
X56283989Y-36768225D01*
X56016411Y-36715000D01*
X55743589Y-36715000D01*
X55476011Y-36768225D01*
X55223957Y-36872629D01*
X54997114Y-37024201D01*
X54804201Y-37217114D01*
X54652629Y-37443957D01*
X54548225Y-37696011D01*
X54495000Y-37963589D01*
X54495000Y-38236411D01*
X54548225Y-38503989D01*
X54652629Y-38756043D01*
X54804201Y-38982886D01*
X54997114Y-39175799D01*
X55223957Y-39327371D01*
X55476011Y-39431775D01*
X55743589Y-39485000D01*
X55858599Y-39485000D01*
X55219600Y-40123999D01*
X54462604Y-39367003D01*
X54438801Y-39337999D01*
X54323076Y-39243026D01*
X54191047Y-39172454D01*
X54047786Y-39128997D01*
X53936133Y-39118000D01*
X53936122Y-39118000D01*
X53898800Y-39114324D01*
X53861478Y-39118000D01*
X51718527Y-39118000D01*
X51709472Y-39088149D01*
X51627405Y-38934613D01*
X51516962Y-38800038D01*
X51382387Y-38689595D01*
X51228851Y-38607528D01*
X51062255Y-38556992D01*
X50889001Y-38539928D01*
X50238999Y-38539928D01*
X50065745Y-38556992D01*
X49899149Y-38607528D01*
X49745613Y-38689595D01*
X49611038Y-38800038D01*
X49539000Y-38887816D01*
X49466962Y-38800038D01*
X49332387Y-38689595D01*
X49178851Y-38607528D01*
X49012255Y-38556992D01*
X48839001Y-38539928D01*
X48306889Y-38539928D01*
X48321775Y-38503989D01*
X48375000Y-38236411D01*
X48375000Y-37963589D01*
X48321775Y-37696011D01*
X48217371Y-37443957D01*
X48065799Y-37217114D01*
X47872886Y-37024201D01*
X47646043Y-36872629D01*
X47393989Y-36768225D01*
X47126411Y-36715000D01*
X46853589Y-36715000D01*
X46586011Y-36768225D01*
X46333957Y-36872629D01*
X46107114Y-37024201D01*
X45914201Y-37217114D01*
X45762629Y-37443957D01*
X45658225Y-37696011D01*
X45605000Y-37963589D01*
X45605000Y-38236411D01*
X45658225Y-38503989D01*
X45762629Y-38756043D01*
X45914201Y-38982886D01*
X46049315Y-39118000D01*
X42988356Y-39118000D01*
X42572091Y-38736423D01*
X42559238Y-38720762D01*
X42518821Y-38687593D01*
X42507043Y-38676796D01*
X42490948Y-38664718D01*
X42447320Y-38628913D01*
X42433127Y-38621327D01*
X42420259Y-38611670D01*
X42369398Y-38587263D01*
X42319633Y-38560663D01*
X42304232Y-38555991D01*
X42289728Y-38549031D01*
X42235091Y-38535018D01*
X42181085Y-38518635D01*
X42165066Y-38517057D01*
X42149485Y-38513061D01*
X42093160Y-38509975D01*
X42073105Y-38508000D01*
X42057106Y-38508000D01*
X42004920Y-38505141D01*
X41984869Y-38508000D01*
X35738537Y-38508000D01*
X35717897Y-38505091D01*
X35666308Y-38508000D01*
X35650895Y-38508000D01*
X35630253Y-38510033D01*
X35573344Y-38513242D01*
X35558341Y-38517116D01*
X35542915Y-38518635D01*
X35488352Y-38535186D01*
X35433159Y-38549437D01*
X35419198Y-38556164D01*
X35408179Y-38559507D01*
X38015241Y-35952445D01*
X38030416Y-35939991D01*
X38078180Y-35925502D01*
X38188494Y-35866537D01*
X38285185Y-35787185D01*
X38364537Y-35690494D01*
X38423502Y-35580180D01*
X38459812Y-35460482D01*
X38463701Y-35421000D01*
X38793971Y-35421000D01*
X38862000Y-35427700D01*
X38930029Y-35421000D01*
X38930037Y-35421000D01*
X39133507Y-35400960D01*
X39394581Y-35321764D01*
X39635188Y-35193157D01*
X39846081Y-35020081D01*
X39889454Y-34967231D01*
X41848686Y-33008000D01*
X44055184Y-33008000D01*
X43846919Y-33178919D01*
G36*
X40247550Y-30691764D02*
G01*
X38429086Y-32510229D01*
X38423502Y-32491820D01*
X38364537Y-32381506D01*
X38285185Y-32284815D01*
X38188494Y-32205463D01*
X38078180Y-32146498D01*
X37958482Y-32110188D01*
X37834000Y-32097928D01*
X36334000Y-32097928D01*
X36209518Y-32110188D01*
X36089820Y-32146498D01*
X35979506Y-32205463D01*
X35882815Y-32284815D01*
X35803463Y-32381506D01*
X35744498Y-32491820D01*
X35708188Y-32611518D01*
X35695928Y-32736000D01*
X35695928Y-33999154D01*
X35692299Y-34036000D01*
X35695928Y-34072846D01*
X35695928Y-34354386D01*
X35472072Y-34578242D01*
X35472072Y-34072846D01*
X35475701Y-34036000D01*
X35472072Y-33999154D01*
X35472072Y-32736000D01*
X35459812Y-32611518D01*
X35423502Y-32491820D01*
X35364537Y-32381506D01*
X35285185Y-32284815D01*
X35188494Y-32205463D01*
X35078180Y-32146498D01*
X34958482Y-32110188D01*
X34834000Y-32097928D01*
X33334000Y-32097928D01*
X33209518Y-32110188D01*
X33089820Y-32146498D01*
X32979506Y-32205463D01*
X32882815Y-32284815D01*
X32803463Y-32381506D01*
X32744498Y-32491820D01*
X32708188Y-32611518D01*
X32704299Y-32651000D01*
X32316963Y-32651000D01*
X32113493Y-32671040D01*
X31852419Y-32750236D01*
X31611812Y-32878843D01*
X31400919Y-33051919D01*
X31227843Y-33262812D01*
X31099236Y-33503419D01*
X31020040Y-33764493D01*
X30993299Y-34036000D01*
X31020040Y-34307507D01*
X31099236Y-34568581D01*
X31227843Y-34809188D01*
X31400919Y-35020081D01*
X31611812Y-35193157D01*
X31852419Y-35321764D01*
X32113493Y-35400960D01*
X32316963Y-35421000D01*
X32704299Y-35421000D01*
X32708188Y-35460482D01*
X32744498Y-35580180D01*
X32803463Y-35690494D01*
X32882815Y-35787185D01*
X32979506Y-35866537D01*
X33089820Y-35925502D01*
X33209518Y-35961812D01*
X33334000Y-35974072D01*
X34076242Y-35974072D01*
X30657000Y-39393315D01*
X30657000Y-30657000D01*
X40276080Y-30657000D01*
X40247550Y-30691764D01*
G37*
X40247550Y-30691764D02*
X38429086Y-32510229D01*
X38423502Y-32491820D01*
X38364537Y-32381506D01*
X38285185Y-32284815D01*
X38188494Y-32205463D01*
X38078180Y-32146498D01*
X37958482Y-32110188D01*
X37834000Y-32097928D01*
X36334000Y-32097928D01*
X36209518Y-32110188D01*
X36089820Y-32146498D01*
X35979506Y-32205463D01*
X35882815Y-32284815D01*
X35803463Y-32381506D01*
X35744498Y-32491820D01*
X35708188Y-32611518D01*
X35695928Y-32736000D01*
X35695928Y-33999154D01*
X35692299Y-34036000D01*
X35695928Y-34072846D01*
X35695928Y-34354386D01*
X35472072Y-34578242D01*
X35472072Y-34072846D01*
X35475701Y-34036000D01*
X35472072Y-33999154D01*
X35472072Y-32736000D01*
X35459812Y-32611518D01*
X35423502Y-32491820D01*
X35364537Y-32381506D01*
X35285185Y-32284815D01*
X35188494Y-32205463D01*
X35078180Y-32146498D01*
X34958482Y-32110188D01*
X34834000Y-32097928D01*
X33334000Y-32097928D01*
X33209518Y-32110188D01*
X33089820Y-32146498D01*
X32979506Y-32205463D01*
X32882815Y-32284815D01*
X32803463Y-32381506D01*
X32744498Y-32491820D01*
X32708188Y-32611518D01*
X32704299Y-32651000D01*
X32316963Y-32651000D01*
X32113493Y-32671040D01*
X31852419Y-32750236D01*
X31611812Y-32878843D01*
X31400919Y-33051919D01*
X31227843Y-33262812D01*
X31099236Y-33503419D01*
X31020040Y-33764493D01*
X30993299Y-34036000D01*
X31020040Y-34307507D01*
X31099236Y-34568581D01*
X31227843Y-34809188D01*
X31400919Y-35020081D01*
X31611812Y-35193157D01*
X31852419Y-35321764D01*
X32113493Y-35400960D01*
X32316963Y-35421000D01*
X32704299Y-35421000D01*
X32708188Y-35460482D01*
X32744498Y-35580180D01*
X32803463Y-35690494D01*
X32882815Y-35787185D01*
X32979506Y-35866537D01*
X33089820Y-35925502D01*
X33209518Y-35961812D01*
X33334000Y-35974072D01*
X34076242Y-35974072D01*
X30657000Y-39393315D01*
X30657000Y-30657000D01*
X40276080Y-30657000D01*
X40247550Y-30691764D01*
G36*
X61306182Y-44054477D02*
G01*
X61320348Y-44074950D01*
X61338235Y-44092267D01*
X61359158Y-44105761D01*
X61382310Y-44114914D01*
X61404563Y-44119170D01*
X61901871Y-44168901D01*
X61991419Y-44216765D01*
X62252493Y-44295961D01*
X62455963Y-44316001D01*
X62987134Y-44316001D01*
X63728600Y-44727927D01*
X63728600Y-46734194D01*
X62521947Y-47940847D01*
X61785678Y-48104462D01*
X61746961Y-47639853D01*
X61742696Y-47616157D01*
X61387096Y-46346157D01*
X61378066Y-46322956D01*
X61364683Y-46301963D01*
X61347461Y-46283984D01*
X61327063Y-46269710D01*
X61304272Y-46259690D01*
X61279964Y-46254309D01*
X61264800Y-46253400D01*
X60604308Y-46253400D01*
X58609071Y-44357925D01*
X58589428Y-44342629D01*
X58567177Y-44331460D01*
X58543176Y-44324846D01*
X58521600Y-44323000D01*
X58316447Y-44323000D01*
X58226786Y-44233339D01*
X60246358Y-44272177D01*
X60271177Y-44270213D01*
X60295136Y-44263445D01*
X60317314Y-44252134D01*
X60336859Y-44236713D01*
X60349048Y-44223170D01*
X60678657Y-43799386D01*
X61100543Y-43684327D01*
X61306182Y-44054477D01*
G37*
X61306182Y-44054477D02*
X61320348Y-44074950D01*
X61338235Y-44092267D01*
X61359158Y-44105761D01*
X61382310Y-44114914D01*
X61404563Y-44119170D01*
X61901871Y-44168901D01*
X61991419Y-44216765D01*
X62252493Y-44295961D01*
X62455963Y-44316001D01*
X62987134Y-44316001D01*
X63728600Y-44727927D01*
X63728600Y-46734194D01*
X62521947Y-47940847D01*
X61785678Y-48104462D01*
X61746961Y-47639853D01*
X61742696Y-47616157D01*
X61387096Y-46346157D01*
X61378066Y-46322956D01*
X61364683Y-46301963D01*
X61347461Y-46283984D01*
X61327063Y-46269710D01*
X61304272Y-46259690D01*
X61279964Y-46254309D01*
X61264800Y-46253400D01*
X60604308Y-46253400D01*
X58609071Y-44357925D01*
X58589428Y-44342629D01*
X58567177Y-44331460D01*
X58543176Y-44324846D01*
X58521600Y-44323000D01*
X58316447Y-44323000D01*
X58226786Y-44233339D01*
X60246358Y-44272177D01*
X60271177Y-44270213D01*
X60295136Y-44263445D01*
X60317314Y-44252134D01*
X60336859Y-44236713D01*
X60349048Y-44223170D01*
X60678657Y-43799386D01*
X61100543Y-43684327D01*
X61306182Y-44054477D01*
G36*
X53489219Y-41932103D02*
G01*
X53736982Y-42378077D01*
X53751148Y-42398550D01*
X53769035Y-42415867D01*
X53789958Y-42429361D01*
X53813110Y-42438514D01*
X53825929Y-42441468D01*
X54689529Y-42593868D01*
X54711600Y-42595800D01*
X55864258Y-42595800D01*
X56283582Y-43201490D01*
X56299691Y-43220472D01*
X56309171Y-43228774D01*
X57244193Y-43969000D01*
X52197000Y-43969000D01*
X52197000Y-41630600D01*
X53230787Y-41630600D01*
X53489219Y-41932103D01*
G37*
X53489219Y-41932103D02*
X53736982Y-42378077D01*
X53751148Y-42398550D01*
X53769035Y-42415867D01*
X53789958Y-42429361D01*
X53813110Y-42438514D01*
X53825929Y-42441468D01*
X54689529Y-42593868D01*
X54711600Y-42595800D01*
X55864258Y-42595800D01*
X56283582Y-43201490D01*
X56299691Y-43220472D01*
X56309171Y-43228774D01*
X57244193Y-43969000D01*
X52197000Y-43969000D01*
X52197000Y-41630600D01*
X53230787Y-41630600D01*
X53489219Y-41932103D01*
G36*
X55687409Y-33793987D02*
G01*
X55960926Y-34468663D01*
X55991236Y-34568580D01*
X56033454Y-34647563D01*
X56305801Y-35319353D01*
X56305800Y-36169845D01*
X56204811Y-36752475D01*
X56016411Y-36715000D01*
X55743589Y-36715000D01*
X55476011Y-36768225D01*
X55223957Y-36872629D01*
X54997114Y-37024201D01*
X54804201Y-37217114D01*
X54652629Y-37443957D01*
X54548225Y-37696011D01*
X54495000Y-37963589D01*
X54495000Y-38236411D01*
X54548225Y-38503989D01*
X54652629Y-38756043D01*
X54804201Y-38982886D01*
X54997114Y-39175799D01*
X55097687Y-39243000D01*
X54323027Y-39243000D01*
X54191047Y-39172454D01*
X54047786Y-39128997D01*
X53936133Y-39118000D01*
X53936122Y-39118000D01*
X53898800Y-39114324D01*
X53861478Y-39118000D01*
X51718527Y-39118000D01*
X51709472Y-39088149D01*
X51627405Y-38934613D01*
X51516962Y-38800038D01*
X51382387Y-38689595D01*
X51228851Y-38607528D01*
X51062255Y-38556992D01*
X50889001Y-38539928D01*
X50238999Y-38539928D01*
X50065745Y-38556992D01*
X49899149Y-38607528D01*
X49745613Y-38689595D01*
X49611038Y-38800038D01*
X49539000Y-38887816D01*
X49466962Y-38800038D01*
X49332387Y-38689595D01*
X49178851Y-38607528D01*
X49012255Y-38556992D01*
X48839001Y-38539928D01*
X48306889Y-38539928D01*
X48321775Y-38503989D01*
X48375000Y-38236411D01*
X48375000Y-37963589D01*
X48321775Y-37696011D01*
X48217371Y-37443957D01*
X48065799Y-37217114D01*
X47872886Y-37024201D01*
X47646043Y-36872629D01*
X47393989Y-36768225D01*
X47126411Y-36715000D01*
X46853589Y-36715000D01*
X46586011Y-36768225D01*
X46333957Y-36872629D01*
X46107114Y-37024201D01*
X45914201Y-37217114D01*
X45762629Y-37443957D01*
X45658225Y-37696011D01*
X45605000Y-37963589D01*
X45605000Y-38236411D01*
X45658225Y-38503989D01*
X45762629Y-38756043D01*
X45914201Y-38982886D01*
X46049315Y-39118000D01*
X43661911Y-39118000D01*
X42868829Y-38219174D01*
X42850607Y-38202210D01*
X42829425Y-38189127D01*
X42806098Y-38180428D01*
X42775510Y-38176214D01*
X36372587Y-38079929D01*
X41395749Y-34061400D01*
X41402000Y-34061400D01*
X41415068Y-34060726D01*
X42762896Y-33921296D01*
X42952177Y-35624825D01*
X42957338Y-35649180D01*
X42967152Y-35672061D01*
X42981241Y-35692587D01*
X42999064Y-35709970D01*
X43019935Y-35723543D01*
X43043087Y-35732792D01*
X44973487Y-36291592D01*
X44997915Y-36296133D01*
X49722315Y-36702533D01*
X49747210Y-36702225D01*
X49776217Y-36695493D01*
X52316217Y-35781093D01*
X52338703Y-35770404D01*
X52358671Y-35755535D01*
X52375354Y-35737055D01*
X52388112Y-35715676D01*
X52398110Y-35684543D01*
X52832743Y-33318209D01*
X55687409Y-33793987D01*
G37*
X55687409Y-33793987D02*
X55960926Y-34468663D01*
X55991236Y-34568580D01*
X56033454Y-34647563D01*
X56305801Y-35319353D01*
X56305800Y-36169845D01*
X56204811Y-36752475D01*
X56016411Y-36715000D01*
X55743589Y-36715000D01*
X55476011Y-36768225D01*
X55223957Y-36872629D01*
X54997114Y-37024201D01*
X54804201Y-37217114D01*
X54652629Y-37443957D01*
X54548225Y-37696011D01*
X54495000Y-37963589D01*
X54495000Y-38236411D01*
X54548225Y-38503989D01*
X54652629Y-38756043D01*
X54804201Y-38982886D01*
X54997114Y-39175799D01*
X55097687Y-39243000D01*
X54323027Y-39243000D01*
X54191047Y-39172454D01*
X54047786Y-39128997D01*
X53936133Y-39118000D01*
X53936122Y-39118000D01*
X53898800Y-39114324D01*
X53861478Y-39118000D01*
X51718527Y-39118000D01*
X51709472Y-39088149D01*
X51627405Y-38934613D01*
X51516962Y-38800038D01*
X51382387Y-38689595D01*
X51228851Y-38607528D01*
X51062255Y-38556992D01*
X50889001Y-38539928D01*
X50238999Y-38539928D01*
X50065745Y-38556992D01*
X49899149Y-38607528D01*
X49745613Y-38689595D01*
X49611038Y-38800038D01*
X49539000Y-38887816D01*
X49466962Y-38800038D01*
X49332387Y-38689595D01*
X49178851Y-38607528D01*
X49012255Y-38556992D01*
X48839001Y-38539928D01*
X48306889Y-38539928D01*
X48321775Y-38503989D01*
X48375000Y-38236411D01*
X48375000Y-37963589D01*
X48321775Y-37696011D01*
X48217371Y-37443957D01*
X48065799Y-37217114D01*
X47872886Y-37024201D01*
X47646043Y-36872629D01*
X47393989Y-36768225D01*
X47126411Y-36715000D01*
X46853589Y-36715000D01*
X46586011Y-36768225D01*
X46333957Y-36872629D01*
X46107114Y-37024201D01*
X45914201Y-37217114D01*
X45762629Y-37443957D01*
X45658225Y-37696011D01*
X45605000Y-37963589D01*
X45605000Y-38236411D01*
X45658225Y-38503989D01*
X45762629Y-38756043D01*
X45914201Y-38982886D01*
X46049315Y-39118000D01*
X43661911Y-39118000D01*
X42868829Y-38219174D01*
X42850607Y-38202210D01*
X42829425Y-38189127D01*
X42806098Y-38180428D01*
X42775510Y-38176214D01*
X36372587Y-38079929D01*
X41395749Y-34061400D01*
X41402000Y-34061400D01*
X41415068Y-34060726D01*
X42762896Y-33921296D01*
X42952177Y-35624825D01*
X42957338Y-35649180D01*
X42967152Y-35672061D01*
X42981241Y-35692587D01*
X42999064Y-35709970D01*
X43019935Y-35723543D01*
X43043087Y-35732792D01*
X44973487Y-36291592D01*
X44997915Y-36296133D01*
X49722315Y-36702533D01*
X49747210Y-36702225D01*
X49776217Y-36695493D01*
X52316217Y-35781093D01*
X52338703Y-35770404D01*
X52358671Y-35755535D01*
X52375354Y-35737055D01*
X52388112Y-35715676D01*
X52398110Y-35684543D01*
X52832743Y-33318209D01*
X55687409Y-33793987D01*
%TD*%
M02*
