%TF.GenerationSoftware,KiCad,Pcbnew,5.1.6*%
%TF.CreationDate,2020-10-24T08:35:36+02:00*%
%TF.ProjectId,MoCoBiBa_no_charger,4d6f436f-4269-4426-915f-6e6f5f636861,rev?*%
%TF.SameCoordinates,Original*%
%TF.FileFunction,Legend,Bot*%
%TF.FilePolarity,Positive*%
%FSLAX46Y46*%
G04 Gerber Fmt 4.6, Leading zero omitted, Abs format (unit mm)*
G04 Created by KiCad (PCBNEW 5.1.6) date 2020-10-24 08:35:36*
%MOMM*%
%LPD*%
G01*
G04 APERTURE LIST*
%ADD10C,0.300000*%
G04 APERTURE END LIST*
D10*
X31940571Y-51923142D02*
X33083428Y-51923142D01*
X32512000Y-52494571D02*
X32512000Y-51351714D01*
X38738571Y-65472571D02*
X38738571Y-66544000D01*
X38810000Y-66758285D01*
X38952857Y-66901142D01*
X39167142Y-66972571D01*
X39310000Y-66972571D01*
X37381428Y-65972571D02*
X37381428Y-66972571D01*
X38024285Y-65972571D02*
X38024285Y-66758285D01*
X37952857Y-66901142D01*
X37810000Y-66972571D01*
X37595714Y-66972571D01*
X37452857Y-66901142D01*
X37381428Y-66829714D01*
X36667142Y-66972571D02*
X36667142Y-65972571D01*
X36667142Y-66115428D02*
X36595714Y-66044000D01*
X36452857Y-65972571D01*
X36238571Y-65972571D01*
X36095714Y-66044000D01*
X36024285Y-66186857D01*
X36024285Y-66972571D01*
X36024285Y-66186857D02*
X35952857Y-66044000D01*
X35810000Y-65972571D01*
X35595714Y-65972571D01*
X35452857Y-66044000D01*
X35381428Y-66186857D01*
X35381428Y-66972571D01*
X34667142Y-66972571D02*
X34667142Y-65472571D01*
X34667142Y-66044000D02*
X34524285Y-65972571D01*
X34238571Y-65972571D01*
X34095714Y-66044000D01*
X34024285Y-66115428D01*
X33952857Y-66258285D01*
X33952857Y-66686857D01*
X34024285Y-66829714D01*
X34095714Y-66901142D01*
X34238571Y-66972571D01*
X34524285Y-66972571D01*
X34667142Y-66901142D01*
X33095714Y-66972571D02*
X33238571Y-66901142D01*
X33310000Y-66758285D01*
X33310000Y-65472571D01*
X31952857Y-66901142D02*
X32095714Y-66972571D01*
X32381428Y-66972571D01*
X32524285Y-66901142D01*
X32595714Y-66758285D01*
X32595714Y-66186857D01*
X32524285Y-66044000D01*
X32381428Y-65972571D01*
X32095714Y-65972571D01*
X31952857Y-66044000D01*
X31881428Y-66186857D01*
X31881428Y-66329714D01*
X32595714Y-66472571D01*
X63805714Y-50304000D02*
X63662857Y-50232571D01*
X63448571Y-50232571D01*
X63234285Y-50304000D01*
X63091428Y-50446857D01*
X63020000Y-50589714D01*
X62948571Y-50875428D01*
X62948571Y-51089714D01*
X63020000Y-51375428D01*
X63091428Y-51518285D01*
X63234285Y-51661142D01*
X63448571Y-51732571D01*
X63591428Y-51732571D01*
X63805714Y-51661142D01*
X63877142Y-51589714D01*
X63877142Y-51089714D01*
X63591428Y-51089714D01*
X64520000Y-50732571D02*
X64520000Y-51732571D01*
X64520000Y-50875428D02*
X64591428Y-50804000D01*
X64734285Y-50732571D01*
X64948571Y-50732571D01*
X65091428Y-50804000D01*
X65162857Y-50946857D01*
X65162857Y-51732571D01*
X66520000Y-51732571D02*
X66520000Y-50232571D01*
X66520000Y-51661142D02*
X66377142Y-51732571D01*
X66091428Y-51732571D01*
X65948571Y-51661142D01*
X65877142Y-51589714D01*
X65805714Y-51446857D01*
X65805714Y-51018285D01*
X65877142Y-50875428D01*
X65948571Y-50804000D01*
X66091428Y-50732571D01*
X66377142Y-50732571D01*
X66520000Y-50804000D01*
X63492285Y-43120571D02*
X63992285Y-44620571D01*
X64492285Y-43120571D01*
X65635142Y-44549142D02*
X65492285Y-44620571D01*
X65206571Y-44620571D01*
X65063714Y-44549142D01*
X64992285Y-44477714D01*
X64920857Y-44334857D01*
X64920857Y-43906285D01*
X64992285Y-43763428D01*
X65063714Y-43692000D01*
X65206571Y-43620571D01*
X65492285Y-43620571D01*
X65635142Y-43692000D01*
X66920857Y-44549142D02*
X66778000Y-44620571D01*
X66492285Y-44620571D01*
X66349428Y-44549142D01*
X66278000Y-44477714D01*
X66206571Y-44334857D01*
X66206571Y-43906285D01*
X66278000Y-43763428D01*
X66349428Y-43692000D01*
X66492285Y-43620571D01*
X66778000Y-43620571D01*
X66920857Y-43692000D01*
M02*
