M48
; DRILL file {KiCad 5.1.6} date Sat Oct 24 08:35:39 2020
; FORMAT={-:-/ absolute / inch / decimal}
; #@! TF.CreationDate,2020-10-24T08:35:39+02:00
; #@! TF.GenerationSoftware,Kicad,Pcbnew,5.1.6
; #@! TF.FileFunction,Plated,1,2,PTH
FMAT,2
INCH
T1C0.0157
T2C0.0276
T3C0.0394
%
G90
G05
T1
X1.26Y-1.25
X1.275Y-1.34
X1.2969Y-2.535
X1.312Y-1.428
X1.385Y-1.945
X1.46Y-2.015
X1.5Y-1.65
X1.54Y-1.76
X1.582Y-1.45
X1.61Y-2.38
X1.67Y-1.68
X1.725Y-2.095
X1.75Y-2.49
X1.755Y-2.005
X1.765Y-1.345
X1.765Y-1.695
X1.825Y-2.23
X1.86Y-2.005
X1.862Y-1.784
X1.865Y-1.7
X1.96Y-1.835
X2.056Y-1.44
X2.086Y-1.686
X2.105Y-2.18
X2.16Y-2.005
X2.17Y-1.865
X2.174Y-1.622
X2.218Y-1.722
X2.24Y-2.15
X2.255Y-1.34
X2.26Y-2.04
X2.26Y-2.225
X2.295Y-2.39
X2.31Y-2.49
X2.374Y-1.766
X2.375Y-2.22
X2.43Y-1.52
X2.43Y-1.96
X2.435Y-2.205
X2.472Y-1.448
X2.474Y-1.822
X2.51Y-1.637
X2.515Y-1.95
X2.62Y-2.01
X2.63Y-2.31
T2
X1.7Y-2.36
X1.8Y-2.36
T3
X1.345Y-2.11
X1.345Y-2.21
X1.345Y-2.31
X1.445Y-2.11
X1.445Y-2.21
X1.445Y-2.31
X2.595Y-1.83
X2.595Y-1.93
T0
M30
